G04 #@! TF.GenerationSoftware,KiCad,Pcbnew,8.0.6*
G04 #@! TF.CreationDate,2024-11-11T09:26:18+01:00*
G04 #@! TF.ProjectId,lmwb_lochraster_arduino_L293D,6c6d7762-5f6c-46f6-9368-726173746572,V.0.1*
G04 #@! TF.SameCoordinates,Original*
G04 #@! TF.FileFunction,Legend,Top*
G04 #@! TF.FilePolarity,Positive*
%FSLAX46Y46*%
G04 Gerber Fmt 4.6, Leading zero omitted, Abs format (unit mm)*
G04 Created by KiCad (PCBNEW 8.0.6) date 2024-11-11 09:26:18*
%MOMM*%
%LPD*%
G01*
G04 APERTURE LIST*
%ADD10C,0.500000*%
%ADD11C,0.150000*%
%ADD12C,0.100000*%
%ADD13C,0.120000*%
%ADD14R,1.700000X1.700000*%
%ADD15O,1.700000X1.700000*%
%ADD16C,1.400000*%
%ADD17O,1.400000X1.400000*%
%ADD18R,1.600000X1.600000*%
%ADD19O,1.600000X1.600000*%
%ADD20R,1.800000X1.800000*%
%ADD21C,1.800000*%
G04 APERTURE END LIST*
D10*
X86360000Y-68580000D02*
X55880000Y-68580000D01*
X71120000Y-35560000D02*
X76200000Y-35560000D01*
X101600000Y-71120000D02*
X81280000Y-71120000D01*
X104140000Y-48260000D02*
X81280000Y-48260000D01*
X81280000Y-35560000D02*
X83820000Y-35560000D01*
X68580000Y-53340000D02*
X66040000Y-53340000D01*
X88900000Y-63500000D02*
X83820000Y-63500000D01*
D11*
X64770000Y-72390001D02*
X34290000Y-72390000D01*
X34290000Y-46990000D01*
X64770000Y-46990000D01*
X64770000Y-72390001D01*
D10*
X48260000Y-40640000D02*
X45720000Y-40640000D01*
X104140000Y-66040000D02*
X101600000Y-66040000D01*
X78740000Y-30480000D02*
X91440000Y-30480000D01*
X66040000Y-71120000D02*
X50800000Y-71120000D01*
X111760000Y-71120000D02*
X101600000Y-71120000D01*
X68580000Y-40640000D02*
X63500000Y-40640000D01*
X106680000Y-40640000D02*
X81280000Y-40640000D01*
X81280000Y-63500000D02*
X63500000Y-63500000D01*
X99060000Y-53340000D02*
X73660000Y-53340000D01*
X68580000Y-35560000D02*
X48260000Y-35560000D01*
X66040000Y-33020000D02*
X73660000Y-33020000D01*
X101600000Y-60960000D02*
X86360000Y-60960000D01*
X91440000Y-66040000D02*
X45720000Y-66040000D01*
X91440000Y-55880000D02*
X71120000Y-55880000D01*
X55880000Y-30480000D02*
X71120000Y-30480000D01*
X99060000Y-35560000D02*
X101600000Y-35560000D01*
X83820000Y-33020000D02*
X88900000Y-33020000D01*
X104140000Y-73660000D02*
X86360000Y-73660000D01*
X106680000Y-58420000D02*
X78740000Y-58420000D01*
X109220000Y-38100000D02*
X73660000Y-38100000D01*
D11*
X52882969Y-32474819D02*
X52406779Y-32474819D01*
X52406779Y-32474819D02*
X52359160Y-32951009D01*
X52359160Y-32951009D02*
X52406779Y-32903390D01*
X52406779Y-32903390D02*
X52502017Y-32855771D01*
X52502017Y-32855771D02*
X52740112Y-32855771D01*
X52740112Y-32855771D02*
X52835350Y-32903390D01*
X52835350Y-32903390D02*
X52882969Y-32951009D01*
X52882969Y-32951009D02*
X52930588Y-33046247D01*
X52930588Y-33046247D02*
X52930588Y-33284342D01*
X52930588Y-33284342D02*
X52882969Y-33379580D01*
X52882969Y-33379580D02*
X52835350Y-33427200D01*
X52835350Y-33427200D02*
X52740112Y-33474819D01*
X52740112Y-33474819D02*
X52502017Y-33474819D01*
X52502017Y-33474819D02*
X52406779Y-33427200D01*
X52406779Y-33427200D02*
X52359160Y-33379580D01*
X53216303Y-32474819D02*
X53549636Y-33474819D01*
X53549636Y-33474819D02*
X53882969Y-32474819D01*
X55168684Y-32474819D02*
X55359160Y-32474819D01*
X55359160Y-32474819D02*
X55454398Y-32522438D01*
X55454398Y-32522438D02*
X55549636Y-32617676D01*
X55549636Y-32617676D02*
X55597255Y-32808152D01*
X55597255Y-32808152D02*
X55597255Y-33141485D01*
X55597255Y-33141485D02*
X55549636Y-33331961D01*
X55549636Y-33331961D02*
X55454398Y-33427200D01*
X55454398Y-33427200D02*
X55359160Y-33474819D01*
X55359160Y-33474819D02*
X55168684Y-33474819D01*
X55168684Y-33474819D02*
X55073446Y-33427200D01*
X55073446Y-33427200D02*
X54978208Y-33331961D01*
X54978208Y-33331961D02*
X54930589Y-33141485D01*
X54930589Y-33141485D02*
X54930589Y-32808152D01*
X54930589Y-32808152D02*
X54978208Y-32617676D01*
X54978208Y-32617676D02*
X55073446Y-32522438D01*
X55073446Y-32522438D02*
X55168684Y-32474819D01*
X56025827Y-33474819D02*
X56025827Y-32474819D01*
X56597255Y-33474819D02*
X56168684Y-32903390D01*
X56597255Y-32474819D02*
X56025827Y-33046247D01*
X97428207Y-31184636D02*
X97380588Y-31232256D01*
X97380588Y-31232256D02*
X97237731Y-31279875D01*
X97237731Y-31279875D02*
X97142493Y-31279875D01*
X97142493Y-31279875D02*
X96999636Y-31232256D01*
X96999636Y-31232256D02*
X96904398Y-31137017D01*
X96904398Y-31137017D02*
X96856779Y-31041779D01*
X96856779Y-31041779D02*
X96809160Y-30851303D01*
X96809160Y-30851303D02*
X96809160Y-30708446D01*
X96809160Y-30708446D02*
X96856779Y-30517970D01*
X96856779Y-30517970D02*
X96904398Y-30422732D01*
X96904398Y-30422732D02*
X96999636Y-30327494D01*
X96999636Y-30327494D02*
X97142493Y-30279875D01*
X97142493Y-30279875D02*
X97237731Y-30279875D01*
X97237731Y-30279875D02*
X97380588Y-30327494D01*
X97380588Y-30327494D02*
X97428207Y-30375113D01*
X98285350Y-31279875D02*
X98285350Y-30756065D01*
X98285350Y-30756065D02*
X98237731Y-30660827D01*
X98237731Y-30660827D02*
X98142493Y-30613208D01*
X98142493Y-30613208D02*
X97952017Y-30613208D01*
X97952017Y-30613208D02*
X97856779Y-30660827D01*
X98285350Y-31232256D02*
X98190112Y-31279875D01*
X98190112Y-31279875D02*
X97952017Y-31279875D01*
X97952017Y-31279875D02*
X97856779Y-31232256D01*
X97856779Y-31232256D02*
X97809160Y-31137017D01*
X97809160Y-31137017D02*
X97809160Y-31041779D01*
X97809160Y-31041779D02*
X97856779Y-30946541D01*
X97856779Y-30946541D02*
X97952017Y-30898922D01*
X97952017Y-30898922D02*
X98190112Y-30898922D01*
X98190112Y-30898922D02*
X98285350Y-30851303D01*
X98761541Y-30613208D02*
X98761541Y-31279875D01*
X98761541Y-30708446D02*
X98809160Y-30660827D01*
X98809160Y-30660827D02*
X98904398Y-30613208D01*
X98904398Y-30613208D02*
X99047255Y-30613208D01*
X99047255Y-30613208D02*
X99142493Y-30660827D01*
X99142493Y-30660827D02*
X99190112Y-30756065D01*
X99190112Y-30756065D02*
X99190112Y-31279875D01*
X99666303Y-30613208D02*
X99666303Y-31279875D01*
X99666303Y-30708446D02*
X99713922Y-30660827D01*
X99713922Y-30660827D02*
X99809160Y-30613208D01*
X99809160Y-30613208D02*
X99952017Y-30613208D01*
X99952017Y-30613208D02*
X100047255Y-30660827D01*
X100047255Y-30660827D02*
X100094874Y-30756065D01*
X100094874Y-30756065D02*
X100094874Y-31279875D01*
X100952017Y-31232256D02*
X100856779Y-31279875D01*
X100856779Y-31279875D02*
X100666303Y-31279875D01*
X100666303Y-31279875D02*
X100571065Y-31232256D01*
X100571065Y-31232256D02*
X100523446Y-31137017D01*
X100523446Y-31137017D02*
X100523446Y-30756065D01*
X100523446Y-30756065D02*
X100571065Y-30660827D01*
X100571065Y-30660827D02*
X100666303Y-30613208D01*
X100666303Y-30613208D02*
X100856779Y-30613208D01*
X100856779Y-30613208D02*
X100952017Y-30660827D01*
X100952017Y-30660827D02*
X100999636Y-30756065D01*
X100999636Y-30756065D02*
X100999636Y-30851303D01*
X100999636Y-30851303D02*
X100523446Y-30946541D01*
X101571065Y-31279875D02*
X101475827Y-31232256D01*
X101475827Y-31232256D02*
X101428208Y-31137017D01*
X101428208Y-31137017D02*
X101428208Y-30279875D01*
X102094875Y-31279875D02*
X101999637Y-31232256D01*
X101999637Y-31232256D02*
X101952018Y-31137017D01*
X101952018Y-31137017D02*
X101952018Y-30279875D01*
X102618685Y-31279875D02*
X102523447Y-31232256D01*
X102523447Y-31232256D02*
X102475828Y-31184636D01*
X102475828Y-31184636D02*
X102428209Y-31089398D01*
X102428209Y-31089398D02*
X102428209Y-30803684D01*
X102428209Y-30803684D02*
X102475828Y-30708446D01*
X102475828Y-30708446D02*
X102523447Y-30660827D01*
X102523447Y-30660827D02*
X102618685Y-30613208D01*
X102618685Y-30613208D02*
X102761542Y-30613208D01*
X102761542Y-30613208D02*
X102856780Y-30660827D01*
X102856780Y-30660827D02*
X102904399Y-30708446D01*
X102904399Y-30708446D02*
X102952018Y-30803684D01*
X102952018Y-30803684D02*
X102952018Y-31089398D01*
X102952018Y-31089398D02*
X102904399Y-31184636D01*
X102904399Y-31184636D02*
X102856780Y-31232256D01*
X102856780Y-31232256D02*
X102761542Y-31279875D01*
X102761542Y-31279875D02*
X102618685Y-31279875D01*
X103380590Y-30613208D02*
X103380590Y-31279875D01*
X103380590Y-30708446D02*
X103428209Y-30660827D01*
X103428209Y-30660827D02*
X103523447Y-30613208D01*
X103523447Y-30613208D02*
X103666304Y-30613208D01*
X103666304Y-30613208D02*
X103761542Y-30660827D01*
X103761542Y-30660827D02*
X103809161Y-30756065D01*
X103809161Y-30756065D02*
X103809161Y-31279875D01*
X104285352Y-31279875D02*
X104285352Y-30613208D01*
X104285352Y-30279875D02*
X104237733Y-30327494D01*
X104237733Y-30327494D02*
X104285352Y-30375113D01*
X104285352Y-30375113D02*
X104332971Y-30327494D01*
X104332971Y-30327494D02*
X104285352Y-30279875D01*
X104285352Y-30279875D02*
X104285352Y-30375113D01*
X105952018Y-31279875D02*
X105952018Y-30756065D01*
X105952018Y-30756065D02*
X105904399Y-30660827D01*
X105904399Y-30660827D02*
X105809161Y-30613208D01*
X105809161Y-30613208D02*
X105618685Y-30613208D01*
X105618685Y-30613208D02*
X105523447Y-30660827D01*
X105952018Y-31232256D02*
X105856780Y-31279875D01*
X105856780Y-31279875D02*
X105618685Y-31279875D01*
X105618685Y-31279875D02*
X105523447Y-31232256D01*
X105523447Y-31232256D02*
X105475828Y-31137017D01*
X105475828Y-31137017D02*
X105475828Y-31041779D01*
X105475828Y-31041779D02*
X105523447Y-30946541D01*
X105523447Y-30946541D02*
X105618685Y-30898922D01*
X105618685Y-30898922D02*
X105856780Y-30898922D01*
X105856780Y-30898922D02*
X105952018Y-30851303D01*
X106571066Y-31279875D02*
X106475828Y-31232256D01*
X106475828Y-31232256D02*
X106428209Y-31137017D01*
X106428209Y-31137017D02*
X106428209Y-30279875D01*
X108047257Y-30756065D02*
X107713924Y-30756065D01*
X107713924Y-31279875D02*
X107713924Y-30279875D01*
X107713924Y-30279875D02*
X108190114Y-30279875D01*
X108713924Y-31279875D02*
X108618686Y-31232256D01*
X108618686Y-31232256D02*
X108571067Y-31184636D01*
X108571067Y-31184636D02*
X108523448Y-31089398D01*
X108523448Y-31089398D02*
X108523448Y-30803684D01*
X108523448Y-30803684D02*
X108571067Y-30708446D01*
X108571067Y-30708446D02*
X108618686Y-30660827D01*
X108618686Y-30660827D02*
X108713924Y-30613208D01*
X108713924Y-30613208D02*
X108856781Y-30613208D01*
X108856781Y-30613208D02*
X108952019Y-30660827D01*
X108952019Y-30660827D02*
X108999638Y-30708446D01*
X108999638Y-30708446D02*
X109047257Y-30803684D01*
X109047257Y-30803684D02*
X109047257Y-31089398D01*
X109047257Y-31089398D02*
X108999638Y-31184636D01*
X108999638Y-31184636D02*
X108952019Y-31232256D01*
X108952019Y-31232256D02*
X108856781Y-31279875D01*
X108856781Y-31279875D02*
X108713924Y-31279875D01*
X109475829Y-31279875D02*
X109475829Y-30613208D01*
X109475829Y-30803684D02*
X109523448Y-30708446D01*
X109523448Y-30708446D02*
X109571067Y-30660827D01*
X109571067Y-30660827D02*
X109666305Y-30613208D01*
X109666305Y-30613208D02*
X109761543Y-30613208D01*
X110094877Y-30613208D02*
X110094877Y-31279875D01*
X110094877Y-30708446D02*
X110142496Y-30660827D01*
X110142496Y-30660827D02*
X110237734Y-30613208D01*
X110237734Y-30613208D02*
X110380591Y-30613208D01*
X110380591Y-30613208D02*
X110475829Y-30660827D01*
X110475829Y-30660827D02*
X110523448Y-30756065D01*
X110523448Y-30756065D02*
X110523448Y-31279875D01*
X111142496Y-31279875D02*
X111047258Y-31232256D01*
X111047258Y-31232256D02*
X110999639Y-31184636D01*
X110999639Y-31184636D02*
X110952020Y-31089398D01*
X110952020Y-31089398D02*
X110952020Y-30803684D01*
X110952020Y-30803684D02*
X110999639Y-30708446D01*
X110999639Y-30708446D02*
X111047258Y-30660827D01*
X111047258Y-30660827D02*
X111142496Y-30613208D01*
X111142496Y-30613208D02*
X111285353Y-30613208D01*
X111285353Y-30613208D02*
X111380591Y-30660827D01*
X111380591Y-30660827D02*
X111428210Y-30708446D01*
X111428210Y-30708446D02*
X111475829Y-30803684D01*
X111475829Y-30803684D02*
X111475829Y-31089398D01*
X111475829Y-31089398D02*
X111428210Y-31184636D01*
X111428210Y-31184636D02*
X111380591Y-31232256D01*
X111380591Y-31232256D02*
X111285353Y-31279875D01*
X111285353Y-31279875D02*
X111142496Y-31279875D01*
X96856779Y-32889819D02*
X96856779Y-31889819D01*
X96856779Y-31889819D02*
X97428207Y-32889819D01*
X97428207Y-32889819D02*
X97428207Y-31889819D01*
X98047255Y-32889819D02*
X97952017Y-32842200D01*
X97952017Y-32842200D02*
X97904398Y-32794580D01*
X97904398Y-32794580D02*
X97856779Y-32699342D01*
X97856779Y-32699342D02*
X97856779Y-32413628D01*
X97856779Y-32413628D02*
X97904398Y-32318390D01*
X97904398Y-32318390D02*
X97952017Y-32270771D01*
X97952017Y-32270771D02*
X98047255Y-32223152D01*
X98047255Y-32223152D02*
X98190112Y-32223152D01*
X98190112Y-32223152D02*
X98285350Y-32270771D01*
X98285350Y-32270771D02*
X98332969Y-32318390D01*
X98332969Y-32318390D02*
X98380588Y-32413628D01*
X98380588Y-32413628D02*
X98380588Y-32699342D01*
X98380588Y-32699342D02*
X98332969Y-32794580D01*
X98332969Y-32794580D02*
X98285350Y-32842200D01*
X98285350Y-32842200D02*
X98190112Y-32889819D01*
X98190112Y-32889819D02*
X98047255Y-32889819D01*
X98713922Y-32223152D02*
X98952017Y-32889819D01*
X98952017Y-32889819D02*
X99190112Y-32223152D01*
X99952017Y-32842200D02*
X99856779Y-32889819D01*
X99856779Y-32889819D02*
X99666303Y-32889819D01*
X99666303Y-32889819D02*
X99571065Y-32842200D01*
X99571065Y-32842200D02*
X99523446Y-32746961D01*
X99523446Y-32746961D02*
X99523446Y-32366009D01*
X99523446Y-32366009D02*
X99571065Y-32270771D01*
X99571065Y-32270771D02*
X99666303Y-32223152D01*
X99666303Y-32223152D02*
X99856779Y-32223152D01*
X99856779Y-32223152D02*
X99952017Y-32270771D01*
X99952017Y-32270771D02*
X99999636Y-32366009D01*
X99999636Y-32366009D02*
X99999636Y-32461247D01*
X99999636Y-32461247D02*
X99523446Y-32556485D01*
X100428208Y-32889819D02*
X100428208Y-32223152D01*
X100428208Y-32318390D02*
X100475827Y-32270771D01*
X100475827Y-32270771D02*
X100571065Y-32223152D01*
X100571065Y-32223152D02*
X100713922Y-32223152D01*
X100713922Y-32223152D02*
X100809160Y-32270771D01*
X100809160Y-32270771D02*
X100856779Y-32366009D01*
X100856779Y-32366009D02*
X100856779Y-32889819D01*
X100856779Y-32366009D02*
X100904398Y-32270771D01*
X100904398Y-32270771D02*
X100999636Y-32223152D01*
X100999636Y-32223152D02*
X101142493Y-32223152D01*
X101142493Y-32223152D02*
X101237732Y-32270771D01*
X101237732Y-32270771D02*
X101285351Y-32366009D01*
X101285351Y-32366009D02*
X101285351Y-32889819D01*
X101761541Y-32889819D02*
X101761541Y-31889819D01*
X101761541Y-32270771D02*
X101856779Y-32223152D01*
X101856779Y-32223152D02*
X102047255Y-32223152D01*
X102047255Y-32223152D02*
X102142493Y-32270771D01*
X102142493Y-32270771D02*
X102190112Y-32318390D01*
X102190112Y-32318390D02*
X102237731Y-32413628D01*
X102237731Y-32413628D02*
X102237731Y-32699342D01*
X102237731Y-32699342D02*
X102190112Y-32794580D01*
X102190112Y-32794580D02*
X102142493Y-32842200D01*
X102142493Y-32842200D02*
X102047255Y-32889819D01*
X102047255Y-32889819D02*
X101856779Y-32889819D01*
X101856779Y-32889819D02*
X101761541Y-32842200D01*
X103047255Y-32842200D02*
X102952017Y-32889819D01*
X102952017Y-32889819D02*
X102761541Y-32889819D01*
X102761541Y-32889819D02*
X102666303Y-32842200D01*
X102666303Y-32842200D02*
X102618684Y-32746961D01*
X102618684Y-32746961D02*
X102618684Y-32366009D01*
X102618684Y-32366009D02*
X102666303Y-32270771D01*
X102666303Y-32270771D02*
X102761541Y-32223152D01*
X102761541Y-32223152D02*
X102952017Y-32223152D01*
X102952017Y-32223152D02*
X103047255Y-32270771D01*
X103047255Y-32270771D02*
X103094874Y-32366009D01*
X103094874Y-32366009D02*
X103094874Y-32461247D01*
X103094874Y-32461247D02*
X102618684Y-32556485D01*
X103523446Y-32889819D02*
X103523446Y-32223152D01*
X103523446Y-32413628D02*
X103571065Y-32318390D01*
X103571065Y-32318390D02*
X103618684Y-32270771D01*
X103618684Y-32270771D02*
X103713922Y-32223152D01*
X103713922Y-32223152D02*
X103809160Y-32223152D01*
X104952018Y-31889819D02*
X104856780Y-32080295D01*
X105332970Y-31985057D02*
X105380589Y-31937438D01*
X105380589Y-31937438D02*
X105475827Y-31889819D01*
X105475827Y-31889819D02*
X105713922Y-31889819D01*
X105713922Y-31889819D02*
X105809160Y-31937438D01*
X105809160Y-31937438D02*
X105856779Y-31985057D01*
X105856779Y-31985057D02*
X105904398Y-32080295D01*
X105904398Y-32080295D02*
X105904398Y-32175533D01*
X105904398Y-32175533D02*
X105856779Y-32318390D01*
X105856779Y-32318390D02*
X105285351Y-32889819D01*
X105285351Y-32889819D02*
X105904398Y-32889819D01*
X106761541Y-32223152D02*
X106761541Y-32889819D01*
X106523446Y-31842200D02*
X106285351Y-32556485D01*
X106285351Y-32556485D02*
X106904398Y-32556485D01*
X107904399Y-31889819D02*
X108237732Y-32889819D01*
X108237732Y-32889819D02*
X108571065Y-31889819D01*
X108904399Y-32794580D02*
X108952018Y-32842200D01*
X108952018Y-32842200D02*
X108904399Y-32889819D01*
X108904399Y-32889819D02*
X108856780Y-32842200D01*
X108856780Y-32842200D02*
X108904399Y-32794580D01*
X108904399Y-32794580D02*
X108904399Y-32889819D01*
X109571065Y-31889819D02*
X109666303Y-31889819D01*
X109666303Y-31889819D02*
X109761541Y-31937438D01*
X109761541Y-31937438D02*
X109809160Y-31985057D01*
X109809160Y-31985057D02*
X109856779Y-32080295D01*
X109856779Y-32080295D02*
X109904398Y-32270771D01*
X109904398Y-32270771D02*
X109904398Y-32508866D01*
X109904398Y-32508866D02*
X109856779Y-32699342D01*
X109856779Y-32699342D02*
X109809160Y-32794580D01*
X109809160Y-32794580D02*
X109761541Y-32842200D01*
X109761541Y-32842200D02*
X109666303Y-32889819D01*
X109666303Y-32889819D02*
X109571065Y-32889819D01*
X109571065Y-32889819D02*
X109475827Y-32842200D01*
X109475827Y-32842200D02*
X109428208Y-32794580D01*
X109428208Y-32794580D02*
X109380589Y-32699342D01*
X109380589Y-32699342D02*
X109332970Y-32508866D01*
X109332970Y-32508866D02*
X109332970Y-32270771D01*
X109332970Y-32270771D02*
X109380589Y-32080295D01*
X109380589Y-32080295D02*
X109428208Y-31985057D01*
X109428208Y-31985057D02*
X109475827Y-31937438D01*
X109475827Y-31937438D02*
X109571065Y-31889819D01*
X110332970Y-32794580D02*
X110380589Y-32842200D01*
X110380589Y-32842200D02*
X110332970Y-32889819D01*
X110332970Y-32889819D02*
X110285351Y-32842200D01*
X110285351Y-32842200D02*
X110332970Y-32794580D01*
X110332970Y-32794580D02*
X110332970Y-32889819D01*
X111332969Y-32889819D02*
X110761541Y-32889819D01*
X111047255Y-32889819D02*
X111047255Y-31889819D01*
X111047255Y-31889819D02*
X110952017Y-32032676D01*
X110952017Y-32032676D02*
X110856779Y-32127914D01*
X110856779Y-32127914D02*
X110761541Y-32175533D01*
X61153922Y-75069819D02*
X61487255Y-76069819D01*
X61487255Y-76069819D02*
X61820588Y-75069819D01*
X62153922Y-76069819D02*
X62153922Y-75069819D01*
X62153922Y-75450771D02*
X62249160Y-75403152D01*
X62249160Y-75403152D02*
X62439636Y-75403152D01*
X62439636Y-75403152D02*
X62534874Y-75450771D01*
X62534874Y-75450771D02*
X62582493Y-75498390D01*
X62582493Y-75498390D02*
X62630112Y-75593628D01*
X62630112Y-75593628D02*
X62630112Y-75879342D01*
X62630112Y-75879342D02*
X62582493Y-75974580D01*
X62582493Y-75974580D02*
X62534874Y-76022200D01*
X62534874Y-76022200D02*
X62439636Y-76069819D01*
X62439636Y-76069819D02*
X62249160Y-76069819D01*
X62249160Y-76069819D02*
X62153922Y-76022200D01*
X63487255Y-76069819D02*
X63487255Y-75546009D01*
X63487255Y-75546009D02*
X63439636Y-75450771D01*
X63439636Y-75450771D02*
X63344398Y-75403152D01*
X63344398Y-75403152D02*
X63153922Y-75403152D01*
X63153922Y-75403152D02*
X63058684Y-75450771D01*
X63487255Y-76022200D02*
X63392017Y-76069819D01*
X63392017Y-76069819D02*
X63153922Y-76069819D01*
X63153922Y-76069819D02*
X63058684Y-76022200D01*
X63058684Y-76022200D02*
X63011065Y-75926961D01*
X63011065Y-75926961D02*
X63011065Y-75831723D01*
X63011065Y-75831723D02*
X63058684Y-75736485D01*
X63058684Y-75736485D02*
X63153922Y-75688866D01*
X63153922Y-75688866D02*
X63392017Y-75688866D01*
X63392017Y-75688866D02*
X63487255Y-75641247D01*
X63820589Y-75403152D02*
X64201541Y-75403152D01*
X63963446Y-75069819D02*
X63963446Y-75926961D01*
X63963446Y-75926961D02*
X64011065Y-76022200D01*
X64011065Y-76022200D02*
X64106303Y-76069819D01*
X64106303Y-76069819D02*
X64201541Y-76069819D01*
D12*
X49135312Y-54142475D02*
X48801979Y-53666284D01*
X48563884Y-54142475D02*
X48563884Y-53142475D01*
X48563884Y-53142475D02*
X48944836Y-53142475D01*
X48944836Y-53142475D02*
X49040074Y-53190094D01*
X49040074Y-53190094D02*
X49087693Y-53237713D01*
X49087693Y-53237713D02*
X49135312Y-53332951D01*
X49135312Y-53332951D02*
X49135312Y-53475808D01*
X49135312Y-53475808D02*
X49087693Y-53571046D01*
X49087693Y-53571046D02*
X49040074Y-53618665D01*
X49040074Y-53618665D02*
X48944836Y-53666284D01*
X48944836Y-53666284D02*
X48563884Y-53666284D01*
X49421027Y-53142475D02*
X49992455Y-53142475D01*
X49706741Y-54142475D02*
X49706741Y-53142475D01*
X50897217Y-54047236D02*
X50849598Y-54094856D01*
X50849598Y-54094856D02*
X50706741Y-54142475D01*
X50706741Y-54142475D02*
X50611503Y-54142475D01*
X50611503Y-54142475D02*
X50468646Y-54094856D01*
X50468646Y-54094856D02*
X50373408Y-53999617D01*
X50373408Y-53999617D02*
X50325789Y-53904379D01*
X50325789Y-53904379D02*
X50278170Y-53713903D01*
X50278170Y-53713903D02*
X50278170Y-53571046D01*
X50278170Y-53571046D02*
X50325789Y-53380570D01*
X50325789Y-53380570D02*
X50373408Y-53285332D01*
X50373408Y-53285332D02*
X50468646Y-53190094D01*
X50468646Y-53190094D02*
X50611503Y-53142475D01*
X50611503Y-53142475D02*
X50706741Y-53142475D01*
X50706741Y-53142475D02*
X50849598Y-53190094D01*
X50849598Y-53190094D02*
X50897217Y-53237713D01*
X52659122Y-54047236D02*
X52611503Y-54094856D01*
X52611503Y-54094856D02*
X52468646Y-54142475D01*
X52468646Y-54142475D02*
X52373408Y-54142475D01*
X52373408Y-54142475D02*
X52230551Y-54094856D01*
X52230551Y-54094856D02*
X52135313Y-53999617D01*
X52135313Y-53999617D02*
X52087694Y-53904379D01*
X52087694Y-53904379D02*
X52040075Y-53713903D01*
X52040075Y-53713903D02*
X52040075Y-53571046D01*
X52040075Y-53571046D02*
X52087694Y-53380570D01*
X52087694Y-53380570D02*
X52135313Y-53285332D01*
X52135313Y-53285332D02*
X52230551Y-53190094D01*
X52230551Y-53190094D02*
X52373408Y-53142475D01*
X52373408Y-53142475D02*
X52468646Y-53142475D01*
X52468646Y-53142475D02*
X52611503Y-53190094D01*
X52611503Y-53190094D02*
X52659122Y-53237713D01*
X53230551Y-54142475D02*
X53135313Y-54094856D01*
X53135313Y-54094856D02*
X53087694Y-54047236D01*
X53087694Y-54047236D02*
X53040075Y-53951998D01*
X53040075Y-53951998D02*
X53040075Y-53666284D01*
X53040075Y-53666284D02*
X53087694Y-53571046D01*
X53087694Y-53571046D02*
X53135313Y-53523427D01*
X53135313Y-53523427D02*
X53230551Y-53475808D01*
X53230551Y-53475808D02*
X53373408Y-53475808D01*
X53373408Y-53475808D02*
X53468646Y-53523427D01*
X53468646Y-53523427D02*
X53516265Y-53571046D01*
X53516265Y-53571046D02*
X53563884Y-53666284D01*
X53563884Y-53666284D02*
X53563884Y-53951998D01*
X53563884Y-53951998D02*
X53516265Y-54047236D01*
X53516265Y-54047236D02*
X53468646Y-54094856D01*
X53468646Y-54094856D02*
X53373408Y-54142475D01*
X53373408Y-54142475D02*
X53230551Y-54142475D01*
X53992456Y-54142475D02*
X53992456Y-53475808D01*
X53992456Y-53142475D02*
X53944837Y-53190094D01*
X53944837Y-53190094D02*
X53992456Y-53237713D01*
X53992456Y-53237713D02*
X54040075Y-53190094D01*
X54040075Y-53190094D02*
X53992456Y-53142475D01*
X53992456Y-53142475D02*
X53992456Y-53237713D01*
X54468646Y-53475808D02*
X54468646Y-54142475D01*
X54468646Y-53571046D02*
X54516265Y-53523427D01*
X54516265Y-53523427D02*
X54611503Y-53475808D01*
X54611503Y-53475808D02*
X54754360Y-53475808D01*
X54754360Y-53475808D02*
X54849598Y-53523427D01*
X54849598Y-53523427D02*
X54897217Y-53618665D01*
X54897217Y-53618665D02*
X54897217Y-54142475D01*
X56706741Y-54047236D02*
X56659122Y-54094856D01*
X56659122Y-54094856D02*
X56516265Y-54142475D01*
X56516265Y-54142475D02*
X56421027Y-54142475D01*
X56421027Y-54142475D02*
X56278170Y-54094856D01*
X56278170Y-54094856D02*
X56182932Y-53999617D01*
X56182932Y-53999617D02*
X56135313Y-53904379D01*
X56135313Y-53904379D02*
X56087694Y-53713903D01*
X56087694Y-53713903D02*
X56087694Y-53571046D01*
X56087694Y-53571046D02*
X56135313Y-53380570D01*
X56135313Y-53380570D02*
X56182932Y-53285332D01*
X56182932Y-53285332D02*
X56278170Y-53190094D01*
X56278170Y-53190094D02*
X56421027Y-53142475D01*
X56421027Y-53142475D02*
X56516265Y-53142475D01*
X56516265Y-53142475D02*
X56659122Y-53190094D01*
X56659122Y-53190094D02*
X56706741Y-53237713D01*
X57516265Y-54094856D02*
X57421027Y-54142475D01*
X57421027Y-54142475D02*
X57230551Y-54142475D01*
X57230551Y-54142475D02*
X57135313Y-54094856D01*
X57135313Y-54094856D02*
X57087694Y-53999617D01*
X57087694Y-53999617D02*
X57087694Y-53618665D01*
X57087694Y-53618665D02*
X57135313Y-53523427D01*
X57135313Y-53523427D02*
X57230551Y-53475808D01*
X57230551Y-53475808D02*
X57421027Y-53475808D01*
X57421027Y-53475808D02*
X57516265Y-53523427D01*
X57516265Y-53523427D02*
X57563884Y-53618665D01*
X57563884Y-53618665D02*
X57563884Y-53713903D01*
X57563884Y-53713903D02*
X57087694Y-53809141D01*
X58135313Y-54142475D02*
X58040075Y-54094856D01*
X58040075Y-54094856D02*
X57992456Y-53999617D01*
X57992456Y-53999617D02*
X57992456Y-53142475D01*
X58659123Y-54142475D02*
X58563885Y-54094856D01*
X58563885Y-54094856D02*
X58516266Y-53999617D01*
X58516266Y-53999617D02*
X58516266Y-53142475D01*
X48897217Y-55228609D02*
X49040074Y-55276228D01*
X49040074Y-55276228D02*
X49087693Y-55323847D01*
X49087693Y-55323847D02*
X49135312Y-55419085D01*
X49135312Y-55419085D02*
X49135312Y-55561942D01*
X49135312Y-55561942D02*
X49087693Y-55657180D01*
X49087693Y-55657180D02*
X49040074Y-55704800D01*
X49040074Y-55704800D02*
X48944836Y-55752419D01*
X48944836Y-55752419D02*
X48563884Y-55752419D01*
X48563884Y-55752419D02*
X48563884Y-54752419D01*
X48563884Y-54752419D02*
X48897217Y-54752419D01*
X48897217Y-54752419D02*
X48992455Y-54800038D01*
X48992455Y-54800038D02*
X49040074Y-54847657D01*
X49040074Y-54847657D02*
X49087693Y-54942895D01*
X49087693Y-54942895D02*
X49087693Y-55038133D01*
X49087693Y-55038133D02*
X49040074Y-55133371D01*
X49040074Y-55133371D02*
X48992455Y-55180990D01*
X48992455Y-55180990D02*
X48897217Y-55228609D01*
X48897217Y-55228609D02*
X48563884Y-55228609D01*
X49992455Y-55752419D02*
X49992455Y-55228609D01*
X49992455Y-55228609D02*
X49944836Y-55133371D01*
X49944836Y-55133371D02*
X49849598Y-55085752D01*
X49849598Y-55085752D02*
X49659122Y-55085752D01*
X49659122Y-55085752D02*
X49563884Y-55133371D01*
X49992455Y-55704800D02*
X49897217Y-55752419D01*
X49897217Y-55752419D02*
X49659122Y-55752419D01*
X49659122Y-55752419D02*
X49563884Y-55704800D01*
X49563884Y-55704800D02*
X49516265Y-55609561D01*
X49516265Y-55609561D02*
X49516265Y-55514323D01*
X49516265Y-55514323D02*
X49563884Y-55419085D01*
X49563884Y-55419085D02*
X49659122Y-55371466D01*
X49659122Y-55371466D02*
X49897217Y-55371466D01*
X49897217Y-55371466D02*
X49992455Y-55323847D01*
X50325789Y-55085752D02*
X50706741Y-55085752D01*
X50468646Y-54752419D02*
X50468646Y-55609561D01*
X50468646Y-55609561D02*
X50516265Y-55704800D01*
X50516265Y-55704800D02*
X50611503Y-55752419D01*
X50611503Y-55752419D02*
X50706741Y-55752419D01*
X50897218Y-55085752D02*
X51278170Y-55085752D01*
X51040075Y-54752419D02*
X51040075Y-55609561D01*
X51040075Y-55609561D02*
X51087694Y-55704800D01*
X51087694Y-55704800D02*
X51182932Y-55752419D01*
X51182932Y-55752419D02*
X51278170Y-55752419D01*
X51992456Y-55704800D02*
X51897218Y-55752419D01*
X51897218Y-55752419D02*
X51706742Y-55752419D01*
X51706742Y-55752419D02*
X51611504Y-55704800D01*
X51611504Y-55704800D02*
X51563885Y-55609561D01*
X51563885Y-55609561D02*
X51563885Y-55228609D01*
X51563885Y-55228609D02*
X51611504Y-55133371D01*
X51611504Y-55133371D02*
X51706742Y-55085752D01*
X51706742Y-55085752D02*
X51897218Y-55085752D01*
X51897218Y-55085752D02*
X51992456Y-55133371D01*
X51992456Y-55133371D02*
X52040075Y-55228609D01*
X52040075Y-55228609D02*
X52040075Y-55323847D01*
X52040075Y-55323847D02*
X51563885Y-55419085D01*
X52468647Y-55752419D02*
X52468647Y-55085752D01*
X52468647Y-55276228D02*
X52516266Y-55180990D01*
X52516266Y-55180990D02*
X52563885Y-55133371D01*
X52563885Y-55133371D02*
X52659123Y-55085752D01*
X52659123Y-55085752D02*
X52754361Y-55085752D01*
X52992457Y-55085752D02*
X53230552Y-55752419D01*
X53468647Y-55085752D02*
X53230552Y-55752419D01*
X53230552Y-55752419D02*
X53135314Y-55990514D01*
X53135314Y-55990514D02*
X53087695Y-56038133D01*
X53087695Y-56038133D02*
X52992457Y-56085752D01*
D11*
X52263922Y-42634819D02*
X52597255Y-43634819D01*
X52597255Y-43634819D02*
X52930588Y-42634819D01*
X53692493Y-43587200D02*
X53597255Y-43634819D01*
X53597255Y-43634819D02*
X53406779Y-43634819D01*
X53406779Y-43634819D02*
X53311541Y-43587200D01*
X53311541Y-43587200D02*
X53263922Y-43539580D01*
X53263922Y-43539580D02*
X53216303Y-43444342D01*
X53216303Y-43444342D02*
X53216303Y-43158628D01*
X53216303Y-43158628D02*
X53263922Y-43063390D01*
X53263922Y-43063390D02*
X53311541Y-43015771D01*
X53311541Y-43015771D02*
X53406779Y-42968152D01*
X53406779Y-42968152D02*
X53597255Y-42968152D01*
X53597255Y-42968152D02*
X53692493Y-43015771D01*
X54549636Y-43587200D02*
X54454398Y-43634819D01*
X54454398Y-43634819D02*
X54263922Y-43634819D01*
X54263922Y-43634819D02*
X54168684Y-43587200D01*
X54168684Y-43587200D02*
X54121065Y-43539580D01*
X54121065Y-43539580D02*
X54073446Y-43444342D01*
X54073446Y-43444342D02*
X54073446Y-43158628D01*
X54073446Y-43158628D02*
X54121065Y-43063390D01*
X54121065Y-43063390D02*
X54168684Y-43015771D01*
X54168684Y-43015771D02*
X54263922Y-42968152D01*
X54263922Y-42968152D02*
X54454398Y-42968152D01*
X54454398Y-42968152D02*
X54549636Y-43015771D01*
X55930589Y-42634819D02*
X56121065Y-42634819D01*
X56121065Y-42634819D02*
X56216303Y-42682438D01*
X56216303Y-42682438D02*
X56311541Y-42777676D01*
X56311541Y-42777676D02*
X56359160Y-42968152D01*
X56359160Y-42968152D02*
X56359160Y-43301485D01*
X56359160Y-43301485D02*
X56311541Y-43491961D01*
X56311541Y-43491961D02*
X56216303Y-43587200D01*
X56216303Y-43587200D02*
X56121065Y-43634819D01*
X56121065Y-43634819D02*
X55930589Y-43634819D01*
X55930589Y-43634819D02*
X55835351Y-43587200D01*
X55835351Y-43587200D02*
X55740113Y-43491961D01*
X55740113Y-43491961D02*
X55692494Y-43301485D01*
X55692494Y-43301485D02*
X55692494Y-42968152D01*
X55692494Y-42968152D02*
X55740113Y-42777676D01*
X55740113Y-42777676D02*
X55835351Y-42682438D01*
X55835351Y-42682438D02*
X55930589Y-42634819D01*
X56787732Y-43634819D02*
X56787732Y-42634819D01*
X57359160Y-43634819D02*
X56930589Y-43063390D01*
X57359160Y-42634819D02*
X56787732Y-43206247D01*
X93559903Y-56956077D02*
X94559903Y-56622744D01*
X94559903Y-56622744D02*
X93559903Y-56289411D01*
X94512284Y-55527506D02*
X94559903Y-55622744D01*
X94559903Y-55622744D02*
X94559903Y-55813220D01*
X94559903Y-55813220D02*
X94512284Y-55908458D01*
X94512284Y-55908458D02*
X94464664Y-55956077D01*
X94464664Y-55956077D02*
X94369426Y-56003696D01*
X94369426Y-56003696D02*
X94083712Y-56003696D01*
X94083712Y-56003696D02*
X93988474Y-55956077D01*
X93988474Y-55956077D02*
X93940855Y-55908458D01*
X93940855Y-55908458D02*
X93893236Y-55813220D01*
X93893236Y-55813220D02*
X93893236Y-55622744D01*
X93893236Y-55622744D02*
X93940855Y-55527506D01*
X94512284Y-54670363D02*
X94559903Y-54765601D01*
X94559903Y-54765601D02*
X94559903Y-54956077D01*
X94559903Y-54956077D02*
X94512284Y-55051315D01*
X94512284Y-55051315D02*
X94464664Y-55098934D01*
X94464664Y-55098934D02*
X94369426Y-55146553D01*
X94369426Y-55146553D02*
X94083712Y-55146553D01*
X94083712Y-55146553D02*
X93988474Y-55098934D01*
X93988474Y-55098934D02*
X93940855Y-55051315D01*
X93940855Y-55051315D02*
X93893236Y-54956077D01*
X93893236Y-54956077D02*
X93893236Y-54765601D01*
X93893236Y-54765601D02*
X93940855Y-54670363D01*
X95169847Y-56956077D02*
X96169847Y-56622744D01*
X96169847Y-56622744D02*
X95169847Y-56289411D01*
X96122228Y-55527506D02*
X96169847Y-55622744D01*
X96169847Y-55622744D02*
X96169847Y-55813220D01*
X96169847Y-55813220D02*
X96122228Y-55908458D01*
X96122228Y-55908458D02*
X96074608Y-55956077D01*
X96074608Y-55956077D02*
X95979370Y-56003696D01*
X95979370Y-56003696D02*
X95693656Y-56003696D01*
X95693656Y-56003696D02*
X95598418Y-55956077D01*
X95598418Y-55956077D02*
X95550799Y-55908458D01*
X95550799Y-55908458D02*
X95503180Y-55813220D01*
X95503180Y-55813220D02*
X95503180Y-55622744D01*
X95503180Y-55622744D02*
X95550799Y-55527506D01*
X96122228Y-54670363D02*
X96169847Y-54765601D01*
X96169847Y-54765601D02*
X96169847Y-54956077D01*
X96169847Y-54956077D02*
X96122228Y-55051315D01*
X96122228Y-55051315D02*
X96074608Y-55098934D01*
X96074608Y-55098934D02*
X95979370Y-55146553D01*
X95979370Y-55146553D02*
X95693656Y-55146553D01*
X95693656Y-55146553D02*
X95598418Y-55098934D01*
X95598418Y-55098934D02*
X95550799Y-55051315D01*
X95550799Y-55051315D02*
X95503180Y-54956077D01*
X95503180Y-54956077D02*
X95503180Y-54765601D01*
X95503180Y-54765601D02*
X95550799Y-54670363D01*
X96827410Y-56289411D02*
X96779791Y-56384649D01*
X96779791Y-56384649D02*
X96779791Y-56527506D01*
X96779791Y-56527506D02*
X96827410Y-56670363D01*
X96827410Y-56670363D02*
X96922648Y-56765601D01*
X96922648Y-56765601D02*
X97017886Y-56813220D01*
X97017886Y-56813220D02*
X97208362Y-56860839D01*
X97208362Y-56860839D02*
X97351219Y-56860839D01*
X97351219Y-56860839D02*
X97541695Y-56813220D01*
X97541695Y-56813220D02*
X97636933Y-56765601D01*
X97636933Y-56765601D02*
X97732172Y-56670363D01*
X97732172Y-56670363D02*
X97779791Y-56527506D01*
X97779791Y-56527506D02*
X97779791Y-56432268D01*
X97779791Y-56432268D02*
X97732172Y-56289411D01*
X97732172Y-56289411D02*
X97684552Y-56241792D01*
X97684552Y-56241792D02*
X97351219Y-56241792D01*
X97351219Y-56241792D02*
X97351219Y-56432268D01*
X97779791Y-55813220D02*
X96779791Y-55813220D01*
X96779791Y-55813220D02*
X97779791Y-55241792D01*
X97779791Y-55241792D02*
X96779791Y-55241792D01*
X97779791Y-54765601D02*
X96779791Y-54765601D01*
X96779791Y-54765601D02*
X96779791Y-54527506D01*
X96779791Y-54527506D02*
X96827410Y-54384649D01*
X96827410Y-54384649D02*
X96922648Y-54289411D01*
X96922648Y-54289411D02*
X97017886Y-54241792D01*
X97017886Y-54241792D02*
X97208362Y-54194173D01*
X97208362Y-54194173D02*
X97351219Y-54194173D01*
X97351219Y-54194173D02*
X97541695Y-54241792D01*
X97541695Y-54241792D02*
X97636933Y-54289411D01*
X97636933Y-54289411D02*
X97732172Y-54384649D01*
X97732172Y-54384649D02*
X97779791Y-54527506D01*
X97779791Y-54527506D02*
X97779791Y-54765601D01*
X98437354Y-56289411D02*
X98389735Y-56384649D01*
X98389735Y-56384649D02*
X98389735Y-56527506D01*
X98389735Y-56527506D02*
X98437354Y-56670363D01*
X98437354Y-56670363D02*
X98532592Y-56765601D01*
X98532592Y-56765601D02*
X98627830Y-56813220D01*
X98627830Y-56813220D02*
X98818306Y-56860839D01*
X98818306Y-56860839D02*
X98961163Y-56860839D01*
X98961163Y-56860839D02*
X99151639Y-56813220D01*
X99151639Y-56813220D02*
X99246877Y-56765601D01*
X99246877Y-56765601D02*
X99342116Y-56670363D01*
X99342116Y-56670363D02*
X99389735Y-56527506D01*
X99389735Y-56527506D02*
X99389735Y-56432268D01*
X99389735Y-56432268D02*
X99342116Y-56289411D01*
X99342116Y-56289411D02*
X99294496Y-56241792D01*
X99294496Y-56241792D02*
X98961163Y-56241792D01*
X98961163Y-56241792D02*
X98961163Y-56432268D01*
X99389735Y-55813220D02*
X98389735Y-55813220D01*
X98389735Y-55813220D02*
X99389735Y-55241792D01*
X99389735Y-55241792D02*
X98389735Y-55241792D01*
X99389735Y-54765601D02*
X98389735Y-54765601D01*
X98389735Y-54765601D02*
X98389735Y-54527506D01*
X98389735Y-54527506D02*
X98437354Y-54384649D01*
X98437354Y-54384649D02*
X98532592Y-54289411D01*
X98532592Y-54289411D02*
X98627830Y-54241792D01*
X98627830Y-54241792D02*
X98818306Y-54194173D01*
X98818306Y-54194173D02*
X98961163Y-54194173D01*
X98961163Y-54194173D02*
X99151639Y-54241792D01*
X99151639Y-54241792D02*
X99246877Y-54289411D01*
X99246877Y-54289411D02*
X99342116Y-54384649D01*
X99342116Y-54384649D02*
X99389735Y-54527506D01*
X99389735Y-54527506D02*
X99389735Y-54765601D01*
X94559903Y-45383220D02*
X93559903Y-45383220D01*
X93559903Y-45383220D02*
X93559903Y-45145125D01*
X93559903Y-45145125D02*
X93607522Y-45002268D01*
X93607522Y-45002268D02*
X93702760Y-44907030D01*
X93702760Y-44907030D02*
X93797998Y-44859411D01*
X93797998Y-44859411D02*
X93988474Y-44811792D01*
X93988474Y-44811792D02*
X94131331Y-44811792D01*
X94131331Y-44811792D02*
X94321807Y-44859411D01*
X94321807Y-44859411D02*
X94417045Y-44907030D01*
X94417045Y-44907030D02*
X94512284Y-45002268D01*
X94512284Y-45002268D02*
X94559903Y-45145125D01*
X94559903Y-45145125D02*
X94559903Y-45383220D01*
X93559903Y-44192744D02*
X93559903Y-44002268D01*
X93559903Y-44002268D02*
X93607522Y-43907030D01*
X93607522Y-43907030D02*
X93702760Y-43811792D01*
X93702760Y-43811792D02*
X93893236Y-43764173D01*
X93893236Y-43764173D02*
X94226569Y-43764173D01*
X94226569Y-43764173D02*
X94417045Y-43811792D01*
X94417045Y-43811792D02*
X94512284Y-43907030D01*
X94512284Y-43907030D02*
X94559903Y-44002268D01*
X94559903Y-44002268D02*
X94559903Y-44192744D01*
X94559903Y-44192744D02*
X94512284Y-44287982D01*
X94512284Y-44287982D02*
X94417045Y-44383220D01*
X94417045Y-44383220D02*
X94226569Y-44430839D01*
X94226569Y-44430839D02*
X93893236Y-44430839D01*
X93893236Y-44430839D02*
X93702760Y-44383220D01*
X93702760Y-44383220D02*
X93607522Y-44287982D01*
X93607522Y-44287982D02*
X93559903Y-44192744D01*
X94559903Y-42811792D02*
X94559903Y-43383220D01*
X94559903Y-43097506D02*
X93559903Y-43097506D01*
X93559903Y-43097506D02*
X93702760Y-43192744D01*
X93702760Y-43192744D02*
X93797998Y-43287982D01*
X93797998Y-43287982D02*
X93845617Y-43383220D01*
X96169847Y-45383220D02*
X95169847Y-45383220D01*
X95169847Y-45383220D02*
X95169847Y-45145125D01*
X95169847Y-45145125D02*
X95217466Y-45002268D01*
X95217466Y-45002268D02*
X95312704Y-44907030D01*
X95312704Y-44907030D02*
X95407942Y-44859411D01*
X95407942Y-44859411D02*
X95598418Y-44811792D01*
X95598418Y-44811792D02*
X95741275Y-44811792D01*
X95741275Y-44811792D02*
X95931751Y-44859411D01*
X95931751Y-44859411D02*
X96026989Y-44907030D01*
X96026989Y-44907030D02*
X96122228Y-45002268D01*
X96122228Y-45002268D02*
X96169847Y-45145125D01*
X96169847Y-45145125D02*
X96169847Y-45383220D01*
X95169847Y-44192744D02*
X95169847Y-44002268D01*
X95169847Y-44002268D02*
X95217466Y-43907030D01*
X95217466Y-43907030D02*
X95312704Y-43811792D01*
X95312704Y-43811792D02*
X95503180Y-43764173D01*
X95503180Y-43764173D02*
X95836513Y-43764173D01*
X95836513Y-43764173D02*
X96026989Y-43811792D01*
X96026989Y-43811792D02*
X96122228Y-43907030D01*
X96122228Y-43907030D02*
X96169847Y-44002268D01*
X96169847Y-44002268D02*
X96169847Y-44192744D01*
X96169847Y-44192744D02*
X96122228Y-44287982D01*
X96122228Y-44287982D02*
X96026989Y-44383220D01*
X96026989Y-44383220D02*
X95836513Y-44430839D01*
X95836513Y-44430839D02*
X95503180Y-44430839D01*
X95503180Y-44430839D02*
X95312704Y-44383220D01*
X95312704Y-44383220D02*
X95217466Y-44287982D01*
X95217466Y-44287982D02*
X95169847Y-44192744D01*
X95265085Y-43383220D02*
X95217466Y-43335601D01*
X95217466Y-43335601D02*
X95169847Y-43240363D01*
X95169847Y-43240363D02*
X95169847Y-43002268D01*
X95169847Y-43002268D02*
X95217466Y-42907030D01*
X95217466Y-42907030D02*
X95265085Y-42859411D01*
X95265085Y-42859411D02*
X95360323Y-42811792D01*
X95360323Y-42811792D02*
X95455561Y-42811792D01*
X95455561Y-42811792D02*
X95598418Y-42859411D01*
X95598418Y-42859411D02*
X96169847Y-43430839D01*
X96169847Y-43430839D02*
X96169847Y-42811792D01*
X97779791Y-45383220D02*
X96779791Y-45383220D01*
X96779791Y-45383220D02*
X96779791Y-45145125D01*
X96779791Y-45145125D02*
X96827410Y-45002268D01*
X96827410Y-45002268D02*
X96922648Y-44907030D01*
X96922648Y-44907030D02*
X97017886Y-44859411D01*
X97017886Y-44859411D02*
X97208362Y-44811792D01*
X97208362Y-44811792D02*
X97351219Y-44811792D01*
X97351219Y-44811792D02*
X97541695Y-44859411D01*
X97541695Y-44859411D02*
X97636933Y-44907030D01*
X97636933Y-44907030D02*
X97732172Y-45002268D01*
X97732172Y-45002268D02*
X97779791Y-45145125D01*
X97779791Y-45145125D02*
X97779791Y-45383220D01*
X96779791Y-44192744D02*
X96779791Y-44002268D01*
X96779791Y-44002268D02*
X96827410Y-43907030D01*
X96827410Y-43907030D02*
X96922648Y-43811792D01*
X96922648Y-43811792D02*
X97113124Y-43764173D01*
X97113124Y-43764173D02*
X97446457Y-43764173D01*
X97446457Y-43764173D02*
X97636933Y-43811792D01*
X97636933Y-43811792D02*
X97732172Y-43907030D01*
X97732172Y-43907030D02*
X97779791Y-44002268D01*
X97779791Y-44002268D02*
X97779791Y-44192744D01*
X97779791Y-44192744D02*
X97732172Y-44287982D01*
X97732172Y-44287982D02*
X97636933Y-44383220D01*
X97636933Y-44383220D02*
X97446457Y-44430839D01*
X97446457Y-44430839D02*
X97113124Y-44430839D01*
X97113124Y-44430839D02*
X96922648Y-44383220D01*
X96922648Y-44383220D02*
X96827410Y-44287982D01*
X96827410Y-44287982D02*
X96779791Y-44192744D01*
X96779791Y-43430839D02*
X96779791Y-42811792D01*
X96779791Y-42811792D02*
X97160743Y-43145125D01*
X97160743Y-43145125D02*
X97160743Y-43002268D01*
X97160743Y-43002268D02*
X97208362Y-42907030D01*
X97208362Y-42907030D02*
X97255981Y-42859411D01*
X97255981Y-42859411D02*
X97351219Y-42811792D01*
X97351219Y-42811792D02*
X97589314Y-42811792D01*
X97589314Y-42811792D02*
X97684552Y-42859411D01*
X97684552Y-42859411D02*
X97732172Y-42907030D01*
X97732172Y-42907030D02*
X97779791Y-43002268D01*
X97779791Y-43002268D02*
X97779791Y-43287982D01*
X97779791Y-43287982D02*
X97732172Y-43383220D01*
X97732172Y-43383220D02*
X97684552Y-43430839D01*
X99389735Y-45383220D02*
X98389735Y-45383220D01*
X98389735Y-45383220D02*
X98389735Y-45145125D01*
X98389735Y-45145125D02*
X98437354Y-45002268D01*
X98437354Y-45002268D02*
X98532592Y-44907030D01*
X98532592Y-44907030D02*
X98627830Y-44859411D01*
X98627830Y-44859411D02*
X98818306Y-44811792D01*
X98818306Y-44811792D02*
X98961163Y-44811792D01*
X98961163Y-44811792D02*
X99151639Y-44859411D01*
X99151639Y-44859411D02*
X99246877Y-44907030D01*
X99246877Y-44907030D02*
X99342116Y-45002268D01*
X99342116Y-45002268D02*
X99389735Y-45145125D01*
X99389735Y-45145125D02*
X99389735Y-45383220D01*
X98389735Y-44192744D02*
X98389735Y-44002268D01*
X98389735Y-44002268D02*
X98437354Y-43907030D01*
X98437354Y-43907030D02*
X98532592Y-43811792D01*
X98532592Y-43811792D02*
X98723068Y-43764173D01*
X98723068Y-43764173D02*
X99056401Y-43764173D01*
X99056401Y-43764173D02*
X99246877Y-43811792D01*
X99246877Y-43811792D02*
X99342116Y-43907030D01*
X99342116Y-43907030D02*
X99389735Y-44002268D01*
X99389735Y-44002268D02*
X99389735Y-44192744D01*
X99389735Y-44192744D02*
X99342116Y-44287982D01*
X99342116Y-44287982D02*
X99246877Y-44383220D01*
X99246877Y-44383220D02*
X99056401Y-44430839D01*
X99056401Y-44430839D02*
X98723068Y-44430839D01*
X98723068Y-44430839D02*
X98532592Y-44383220D01*
X98532592Y-44383220D02*
X98437354Y-44287982D01*
X98437354Y-44287982D02*
X98389735Y-44192744D01*
X98723068Y-42907030D02*
X99389735Y-42907030D01*
X98342116Y-43145125D02*
X99056401Y-43383220D01*
X99056401Y-43383220D02*
X99056401Y-42764173D01*
X93559903Y-69037030D02*
X93559903Y-69513220D01*
X93559903Y-69513220D02*
X94036093Y-69560839D01*
X94036093Y-69560839D02*
X93988474Y-69513220D01*
X93988474Y-69513220D02*
X93940855Y-69417982D01*
X93940855Y-69417982D02*
X93940855Y-69179887D01*
X93940855Y-69179887D02*
X93988474Y-69084649D01*
X93988474Y-69084649D02*
X94036093Y-69037030D01*
X94036093Y-69037030D02*
X94131331Y-68989411D01*
X94131331Y-68989411D02*
X94369426Y-68989411D01*
X94369426Y-68989411D02*
X94464664Y-69037030D01*
X94464664Y-69037030D02*
X94512284Y-69084649D01*
X94512284Y-69084649D02*
X94559903Y-69179887D01*
X94559903Y-69179887D02*
X94559903Y-69417982D01*
X94559903Y-69417982D02*
X94512284Y-69513220D01*
X94512284Y-69513220D02*
X94464664Y-69560839D01*
X93559903Y-68703696D02*
X94559903Y-68370363D01*
X94559903Y-68370363D02*
X93559903Y-68037030D01*
X95217466Y-68989411D02*
X95169847Y-69084649D01*
X95169847Y-69084649D02*
X95169847Y-69227506D01*
X95169847Y-69227506D02*
X95217466Y-69370363D01*
X95217466Y-69370363D02*
X95312704Y-69465601D01*
X95312704Y-69465601D02*
X95407942Y-69513220D01*
X95407942Y-69513220D02*
X95598418Y-69560839D01*
X95598418Y-69560839D02*
X95741275Y-69560839D01*
X95741275Y-69560839D02*
X95931751Y-69513220D01*
X95931751Y-69513220D02*
X96026989Y-69465601D01*
X96026989Y-69465601D02*
X96122228Y-69370363D01*
X96122228Y-69370363D02*
X96169847Y-69227506D01*
X96169847Y-69227506D02*
X96169847Y-69132268D01*
X96169847Y-69132268D02*
X96122228Y-68989411D01*
X96122228Y-68989411D02*
X96074608Y-68941792D01*
X96074608Y-68941792D02*
X95741275Y-68941792D01*
X95741275Y-68941792D02*
X95741275Y-69132268D01*
X96169847Y-68513220D02*
X95169847Y-68513220D01*
X95169847Y-68513220D02*
X96169847Y-67941792D01*
X96169847Y-67941792D02*
X95169847Y-67941792D01*
X96169847Y-67465601D02*
X95169847Y-67465601D01*
X95169847Y-67465601D02*
X95169847Y-67227506D01*
X95169847Y-67227506D02*
X95217466Y-67084649D01*
X95217466Y-67084649D02*
X95312704Y-66989411D01*
X95312704Y-66989411D02*
X95407942Y-66941792D01*
X95407942Y-66941792D02*
X95598418Y-66894173D01*
X95598418Y-66894173D02*
X95741275Y-66894173D01*
X95741275Y-66894173D02*
X95931751Y-66941792D01*
X95931751Y-66941792D02*
X96026989Y-66989411D01*
X96026989Y-66989411D02*
X96122228Y-67084649D01*
X96122228Y-67084649D02*
X96169847Y-67227506D01*
X96169847Y-67227506D02*
X96169847Y-67465601D01*
X97732172Y-69560839D02*
X97779791Y-69417982D01*
X97779791Y-69417982D02*
X97779791Y-69179887D01*
X97779791Y-69179887D02*
X97732172Y-69084649D01*
X97732172Y-69084649D02*
X97684552Y-69037030D01*
X97684552Y-69037030D02*
X97589314Y-68989411D01*
X97589314Y-68989411D02*
X97494076Y-68989411D01*
X97494076Y-68989411D02*
X97398838Y-69037030D01*
X97398838Y-69037030D02*
X97351219Y-69084649D01*
X97351219Y-69084649D02*
X97303600Y-69179887D01*
X97303600Y-69179887D02*
X97255981Y-69370363D01*
X97255981Y-69370363D02*
X97208362Y-69465601D01*
X97208362Y-69465601D02*
X97160743Y-69513220D01*
X97160743Y-69513220D02*
X97065505Y-69560839D01*
X97065505Y-69560839D02*
X96970267Y-69560839D01*
X96970267Y-69560839D02*
X96875029Y-69513220D01*
X96875029Y-69513220D02*
X96827410Y-69465601D01*
X96827410Y-69465601D02*
X96779791Y-69370363D01*
X96779791Y-69370363D02*
X96779791Y-69132268D01*
X96779791Y-69132268D02*
X96827410Y-68989411D01*
X97779791Y-68560839D02*
X96779791Y-68560839D01*
X96779791Y-68560839D02*
X96779791Y-68322744D01*
X96779791Y-68322744D02*
X96827410Y-68179887D01*
X96827410Y-68179887D02*
X96922648Y-68084649D01*
X96922648Y-68084649D02*
X97017886Y-68037030D01*
X97017886Y-68037030D02*
X97208362Y-67989411D01*
X97208362Y-67989411D02*
X97351219Y-67989411D01*
X97351219Y-67989411D02*
X97541695Y-68037030D01*
X97541695Y-68037030D02*
X97636933Y-68084649D01*
X97636933Y-68084649D02*
X97732172Y-68179887D01*
X97732172Y-68179887D02*
X97779791Y-68322744D01*
X97779791Y-68322744D02*
X97779791Y-68560839D01*
X97494076Y-67608458D02*
X97494076Y-67132268D01*
X97779791Y-67703696D02*
X96779791Y-67370363D01*
X96779791Y-67370363D02*
X97779791Y-67037030D01*
X99342116Y-69560839D02*
X99389735Y-69417982D01*
X99389735Y-69417982D02*
X99389735Y-69179887D01*
X99389735Y-69179887D02*
X99342116Y-69084649D01*
X99342116Y-69084649D02*
X99294496Y-69037030D01*
X99294496Y-69037030D02*
X99199258Y-68989411D01*
X99199258Y-68989411D02*
X99104020Y-68989411D01*
X99104020Y-68989411D02*
X99008782Y-69037030D01*
X99008782Y-69037030D02*
X98961163Y-69084649D01*
X98961163Y-69084649D02*
X98913544Y-69179887D01*
X98913544Y-69179887D02*
X98865925Y-69370363D01*
X98865925Y-69370363D02*
X98818306Y-69465601D01*
X98818306Y-69465601D02*
X98770687Y-69513220D01*
X98770687Y-69513220D02*
X98675449Y-69560839D01*
X98675449Y-69560839D02*
X98580211Y-69560839D01*
X98580211Y-69560839D02*
X98484973Y-69513220D01*
X98484973Y-69513220D02*
X98437354Y-69465601D01*
X98437354Y-69465601D02*
X98389735Y-69370363D01*
X98389735Y-69370363D02*
X98389735Y-69132268D01*
X98389735Y-69132268D02*
X98437354Y-68989411D01*
X99294496Y-67989411D02*
X99342116Y-68037030D01*
X99342116Y-68037030D02*
X99389735Y-68179887D01*
X99389735Y-68179887D02*
X99389735Y-68275125D01*
X99389735Y-68275125D02*
X99342116Y-68417982D01*
X99342116Y-68417982D02*
X99246877Y-68513220D01*
X99246877Y-68513220D02*
X99151639Y-68560839D01*
X99151639Y-68560839D02*
X98961163Y-68608458D01*
X98961163Y-68608458D02*
X98818306Y-68608458D01*
X98818306Y-68608458D02*
X98627830Y-68560839D01*
X98627830Y-68560839D02*
X98532592Y-68513220D01*
X98532592Y-68513220D02*
X98437354Y-68417982D01*
X98437354Y-68417982D02*
X98389735Y-68275125D01*
X98389735Y-68275125D02*
X98389735Y-68179887D01*
X98389735Y-68179887D02*
X98437354Y-68037030D01*
X98437354Y-68037030D02*
X98484973Y-67989411D01*
X99389735Y-67084649D02*
X99389735Y-67560839D01*
X99389735Y-67560839D02*
X98389735Y-67560839D01*
X111214819Y-68913333D02*
X111929104Y-68913333D01*
X111929104Y-68913333D02*
X112071961Y-68960952D01*
X112071961Y-68960952D02*
X112167200Y-69056190D01*
X112167200Y-69056190D02*
X112214819Y-69199047D01*
X112214819Y-69199047D02*
X112214819Y-69294285D01*
X111214819Y-67960952D02*
X111214819Y-68437142D01*
X111214819Y-68437142D02*
X111691009Y-68484761D01*
X111691009Y-68484761D02*
X111643390Y-68437142D01*
X111643390Y-68437142D02*
X111595771Y-68341904D01*
X111595771Y-68341904D02*
X111595771Y-68103809D01*
X111595771Y-68103809D02*
X111643390Y-68008571D01*
X111643390Y-68008571D02*
X111691009Y-67960952D01*
X111691009Y-67960952D02*
X111786247Y-67913333D01*
X111786247Y-67913333D02*
X112024342Y-67913333D01*
X112024342Y-67913333D02*
X112119580Y-67960952D01*
X112119580Y-67960952D02*
X112167200Y-68008571D01*
X112167200Y-68008571D02*
X112214819Y-68103809D01*
X112214819Y-68103809D02*
X112214819Y-68341904D01*
X112214819Y-68341904D02*
X112167200Y-68437142D01*
X112167200Y-68437142D02*
X112119580Y-68484761D01*
X111214819Y-43513333D02*
X111929104Y-43513333D01*
X111929104Y-43513333D02*
X112071961Y-43560952D01*
X112071961Y-43560952D02*
X112167200Y-43656190D01*
X112167200Y-43656190D02*
X112214819Y-43799047D01*
X112214819Y-43799047D02*
X112214819Y-43894285D01*
X111643390Y-42894285D02*
X111595771Y-42989523D01*
X111595771Y-42989523D02*
X111548152Y-43037142D01*
X111548152Y-43037142D02*
X111452914Y-43084761D01*
X111452914Y-43084761D02*
X111405295Y-43084761D01*
X111405295Y-43084761D02*
X111310057Y-43037142D01*
X111310057Y-43037142D02*
X111262438Y-42989523D01*
X111262438Y-42989523D02*
X111214819Y-42894285D01*
X111214819Y-42894285D02*
X111214819Y-42703809D01*
X111214819Y-42703809D02*
X111262438Y-42608571D01*
X111262438Y-42608571D02*
X111310057Y-42560952D01*
X111310057Y-42560952D02*
X111405295Y-42513333D01*
X111405295Y-42513333D02*
X111452914Y-42513333D01*
X111452914Y-42513333D02*
X111548152Y-42560952D01*
X111548152Y-42560952D02*
X111595771Y-42608571D01*
X111595771Y-42608571D02*
X111643390Y-42703809D01*
X111643390Y-42703809D02*
X111643390Y-42894285D01*
X111643390Y-42894285D02*
X111691009Y-42989523D01*
X111691009Y-42989523D02*
X111738628Y-43037142D01*
X111738628Y-43037142D02*
X111833866Y-43084761D01*
X111833866Y-43084761D02*
X112024342Y-43084761D01*
X112024342Y-43084761D02*
X112119580Y-43037142D01*
X112119580Y-43037142D02*
X112167200Y-42989523D01*
X112167200Y-42989523D02*
X112214819Y-42894285D01*
X112214819Y-42894285D02*
X112214819Y-42703809D01*
X112214819Y-42703809D02*
X112167200Y-42608571D01*
X112167200Y-42608571D02*
X112119580Y-42560952D01*
X112119580Y-42560952D02*
X112024342Y-42513333D01*
X112024342Y-42513333D02*
X111833866Y-42513333D01*
X111833866Y-42513333D02*
X111738628Y-42560952D01*
X111738628Y-42560952D02*
X111691009Y-42608571D01*
X111691009Y-42608571D02*
X111643390Y-42703809D01*
X53223333Y-39824819D02*
X52890000Y-39348628D01*
X52651905Y-39824819D02*
X52651905Y-38824819D01*
X52651905Y-38824819D02*
X53032857Y-38824819D01*
X53032857Y-38824819D02*
X53128095Y-38872438D01*
X53128095Y-38872438D02*
X53175714Y-38920057D01*
X53175714Y-38920057D02*
X53223333Y-39015295D01*
X53223333Y-39015295D02*
X53223333Y-39158152D01*
X53223333Y-39158152D02*
X53175714Y-39253390D01*
X53175714Y-39253390D02*
X53128095Y-39301009D01*
X53128095Y-39301009D02*
X53032857Y-39348628D01*
X53032857Y-39348628D02*
X52651905Y-39348628D01*
X54175714Y-39824819D02*
X53604286Y-39824819D01*
X53890000Y-39824819D02*
X53890000Y-38824819D01*
X53890000Y-38824819D02*
X53794762Y-38967676D01*
X53794762Y-38967676D02*
X53699524Y-39062914D01*
X53699524Y-39062914D02*
X53604286Y-39110533D01*
X65494819Y-46481904D02*
X66304342Y-46481904D01*
X66304342Y-46481904D02*
X66399580Y-46434285D01*
X66399580Y-46434285D02*
X66447200Y-46386666D01*
X66447200Y-46386666D02*
X66494819Y-46291428D01*
X66494819Y-46291428D02*
X66494819Y-46100952D01*
X66494819Y-46100952D02*
X66447200Y-46005714D01*
X66447200Y-46005714D02*
X66399580Y-45958095D01*
X66399580Y-45958095D02*
X66304342Y-45910476D01*
X66304342Y-45910476D02*
X65494819Y-45910476D01*
X65590057Y-45481904D02*
X65542438Y-45434285D01*
X65542438Y-45434285D02*
X65494819Y-45339047D01*
X65494819Y-45339047D02*
X65494819Y-45100952D01*
X65494819Y-45100952D02*
X65542438Y-45005714D01*
X65542438Y-45005714D02*
X65590057Y-44958095D01*
X65590057Y-44958095D02*
X65685295Y-44910476D01*
X65685295Y-44910476D02*
X65780533Y-44910476D01*
X65780533Y-44910476D02*
X65923390Y-44958095D01*
X65923390Y-44958095D02*
X66494819Y-45529523D01*
X66494819Y-45529523D02*
X66494819Y-44910476D01*
X53173333Y-27124819D02*
X52840000Y-26648628D01*
X52601905Y-27124819D02*
X52601905Y-26124819D01*
X52601905Y-26124819D02*
X52982857Y-26124819D01*
X52982857Y-26124819D02*
X53078095Y-26172438D01*
X53078095Y-26172438D02*
X53125714Y-26220057D01*
X53125714Y-26220057D02*
X53173333Y-26315295D01*
X53173333Y-26315295D02*
X53173333Y-26458152D01*
X53173333Y-26458152D02*
X53125714Y-26553390D01*
X53125714Y-26553390D02*
X53078095Y-26601009D01*
X53078095Y-26601009D02*
X52982857Y-26648628D01*
X52982857Y-26648628D02*
X52601905Y-26648628D01*
X53554286Y-26220057D02*
X53601905Y-26172438D01*
X53601905Y-26172438D02*
X53697143Y-26124819D01*
X53697143Y-26124819D02*
X53935238Y-26124819D01*
X53935238Y-26124819D02*
X54030476Y-26172438D01*
X54030476Y-26172438D02*
X54078095Y-26220057D01*
X54078095Y-26220057D02*
X54125714Y-26315295D01*
X54125714Y-26315295D02*
X54125714Y-26410533D01*
X54125714Y-26410533D02*
X54078095Y-26553390D01*
X54078095Y-26553390D02*
X53506667Y-27124819D01*
X53506667Y-27124819D02*
X54125714Y-27124819D01*
X109053333Y-60144819D02*
X108720000Y-59668628D01*
X108481905Y-60144819D02*
X108481905Y-59144819D01*
X108481905Y-59144819D02*
X108862857Y-59144819D01*
X108862857Y-59144819D02*
X108958095Y-59192438D01*
X108958095Y-59192438D02*
X109005714Y-59240057D01*
X109005714Y-59240057D02*
X109053333Y-59335295D01*
X109053333Y-59335295D02*
X109053333Y-59478152D01*
X109053333Y-59478152D02*
X109005714Y-59573390D01*
X109005714Y-59573390D02*
X108958095Y-59621009D01*
X108958095Y-59621009D02*
X108862857Y-59668628D01*
X108862857Y-59668628D02*
X108481905Y-59668628D01*
X109386667Y-59144819D02*
X110005714Y-59144819D01*
X110005714Y-59144819D02*
X109672381Y-59525771D01*
X109672381Y-59525771D02*
X109815238Y-59525771D01*
X109815238Y-59525771D02*
X109910476Y-59573390D01*
X109910476Y-59573390D02*
X109958095Y-59621009D01*
X109958095Y-59621009D02*
X110005714Y-59716247D01*
X110005714Y-59716247D02*
X110005714Y-59954342D01*
X110005714Y-59954342D02*
X109958095Y-60049580D01*
X109958095Y-60049580D02*
X109910476Y-60097200D01*
X109910476Y-60097200D02*
X109815238Y-60144819D01*
X109815238Y-60144819D02*
X109529524Y-60144819D01*
X109529524Y-60144819D02*
X109434286Y-60097200D01*
X109434286Y-60097200D02*
X109386667Y-60049580D01*
X106513333Y-65224819D02*
X106180000Y-64748628D01*
X105941905Y-65224819D02*
X105941905Y-64224819D01*
X105941905Y-64224819D02*
X106322857Y-64224819D01*
X106322857Y-64224819D02*
X106418095Y-64272438D01*
X106418095Y-64272438D02*
X106465714Y-64320057D01*
X106465714Y-64320057D02*
X106513333Y-64415295D01*
X106513333Y-64415295D02*
X106513333Y-64558152D01*
X106513333Y-64558152D02*
X106465714Y-64653390D01*
X106465714Y-64653390D02*
X106418095Y-64701009D01*
X106418095Y-64701009D02*
X106322857Y-64748628D01*
X106322857Y-64748628D02*
X105941905Y-64748628D01*
X107370476Y-64558152D02*
X107370476Y-65224819D01*
X107132381Y-64177200D02*
X106894286Y-64891485D01*
X106894286Y-64891485D02*
X107513333Y-64891485D01*
X44944820Y-49863333D02*
X45659105Y-49863333D01*
X45659105Y-49863333D02*
X45801962Y-49910952D01*
X45801962Y-49910952D02*
X45897201Y-50006190D01*
X45897201Y-50006190D02*
X45944820Y-50149047D01*
X45944820Y-50149047D02*
X45944820Y-50244285D01*
X44944820Y-48958571D02*
X44944820Y-49149047D01*
X44944820Y-49149047D02*
X44992439Y-49244285D01*
X44992439Y-49244285D02*
X45040058Y-49291904D01*
X45040058Y-49291904D02*
X45182915Y-49387142D01*
X45182915Y-49387142D02*
X45373391Y-49434761D01*
X45373391Y-49434761D02*
X45754343Y-49434761D01*
X45754343Y-49434761D02*
X45849581Y-49387142D01*
X45849581Y-49387142D02*
X45897201Y-49339523D01*
X45897201Y-49339523D02*
X45944820Y-49244285D01*
X45944820Y-49244285D02*
X45944820Y-49053809D01*
X45944820Y-49053809D02*
X45897201Y-48958571D01*
X45897201Y-48958571D02*
X45849581Y-48910952D01*
X45849581Y-48910952D02*
X45754343Y-48863333D01*
X45754343Y-48863333D02*
X45516248Y-48863333D01*
X45516248Y-48863333D02*
X45421010Y-48910952D01*
X45421010Y-48910952D02*
X45373391Y-48958571D01*
X45373391Y-48958571D02*
X45325772Y-49053809D01*
X45325772Y-49053809D02*
X45325772Y-49244285D01*
X45325772Y-49244285D02*
X45373391Y-49339523D01*
X45373391Y-49339523D02*
X45421010Y-49387142D01*
X45421010Y-49387142D02*
X45516248Y-49434761D01*
X111214819Y-56213333D02*
X111929104Y-56213333D01*
X111929104Y-56213333D02*
X112071961Y-56260952D01*
X112071961Y-56260952D02*
X112167200Y-56356190D01*
X112167200Y-56356190D02*
X112214819Y-56499047D01*
X112214819Y-56499047D02*
X112214819Y-56594285D01*
X111214819Y-55832380D02*
X111214819Y-55165714D01*
X111214819Y-55165714D02*
X112214819Y-55594285D01*
D13*
X71314000Y-74870000D02*
X72644000Y-74870000D01*
X71314000Y-76200000D02*
X71314000Y-74870000D01*
X73914000Y-74870000D02*
X91754000Y-74870000D01*
X73914000Y-77530000D02*
X73914000Y-74870000D01*
X73914000Y-77530000D02*
X91754000Y-77530000D01*
X91754000Y-77530000D02*
X91754000Y-74870000D01*
X94174000Y-74870000D02*
X95504000Y-74870000D01*
X94174000Y-76200000D02*
X94174000Y-74870000D01*
X96774000Y-74870000D02*
X109534000Y-74870000D01*
X96774000Y-77530000D02*
X96774000Y-74870000D01*
X96774000Y-77530000D02*
X109534000Y-77530000D01*
X109534000Y-77530000D02*
X109534000Y-74870000D01*
X62170000Y-26610000D02*
X63500000Y-26610000D01*
X62170000Y-27940000D02*
X62170000Y-26610000D01*
X64770000Y-26610000D02*
X87690000Y-26610000D01*
X64770000Y-29270000D02*
X64770000Y-26610000D01*
X64770000Y-29270000D02*
X87690000Y-29270000D01*
X87690000Y-29270000D02*
X87690000Y-26610000D01*
X89094000Y-26610000D02*
X90424000Y-26610000D01*
X89094000Y-27940000D02*
X89094000Y-26610000D01*
X91694000Y-26610000D02*
X109534000Y-26610000D01*
X91694000Y-29270000D02*
X91694000Y-26610000D01*
X91694000Y-29270000D02*
X109534000Y-29270000D01*
X109534000Y-29270000D02*
X109534000Y-26610000D01*
X100270000Y-69910000D02*
X100270000Y-68580000D01*
X101600000Y-69910000D02*
X100270000Y-69910000D01*
X102870000Y-67250000D02*
X110550000Y-67250000D01*
X102870000Y-69910000D02*
X102870000Y-67250000D01*
X102870000Y-69910000D02*
X110550000Y-69910000D01*
X110550000Y-69910000D02*
X110550000Y-67250000D01*
X100270000Y-44510000D02*
X100270000Y-43180000D01*
X101600000Y-44510000D02*
X100270000Y-44510000D01*
X102870001Y-41850000D02*
X110550000Y-41850000D01*
X102870001Y-44510000D02*
X102870001Y-41850000D01*
X102870001Y-44510000D02*
X110550000Y-44510000D01*
X110550000Y-44510000D02*
X110550000Y-41850000D01*
X51770000Y-40640000D02*
X54930000Y-40640000D01*
X51770000Y-40640000D02*
G75*
G02*
X49930000Y-40640000I-920000J0D01*
G01*
X49930000Y-40640000D02*
G75*
G02*
X51770000Y-40640000I920000J0D01*
G01*
X67250000Y-44340000D02*
X67250000Y-45989999D01*
X67250000Y-47990000D02*
X67250000Y-49640000D01*
X67250000Y-49640000D02*
X87690000Y-49640001D01*
X87690000Y-44340000D02*
X67250000Y-44340000D01*
X87690000Y-49640001D02*
X87690000Y-44340000D01*
X67250000Y-45989999D02*
G75*
G02*
X67250000Y-47990001I0J-1000001D01*
G01*
X51720000Y-27940000D02*
X54880000Y-27940000D01*
X51720000Y-27940000D02*
G75*
G02*
X49880000Y-27940000I-920000J0D01*
G01*
X49880000Y-27940000D02*
G75*
G02*
X51720000Y-27940000I920000J0D01*
G01*
X64710000Y-77530000D02*
X64710000Y-76200000D01*
X66040000Y-77530000D02*
X64710000Y-77530000D01*
X67310001Y-74870000D02*
X69910000Y-74870000D01*
X67310001Y-77530000D02*
X67310001Y-74870000D01*
X67310001Y-77530000D02*
X69910000Y-77530000D01*
X69910000Y-77530000D02*
X69910000Y-74870000D01*
X51090000Y-31940000D02*
X51090000Y-31784000D01*
X51090000Y-34256000D02*
X51090000Y-34100000D01*
X47857665Y-31941392D02*
G75*
G02*
X51090000Y-31784484I1672335J-1078608D01*
G01*
X48488870Y-31940163D02*
G75*
G02*
X50570961Y-31940000I1041130J-1079837D01*
G01*
X50570961Y-34100000D02*
G75*
G02*
X48488870Y-34099837I-1040961J1080000D01*
G01*
X51090000Y-34255516D02*
G75*
G02*
X47857665Y-34098608I-1560000J1235516D01*
G01*
X110840000Y-60960000D02*
X107680000Y-60960000D01*
X112680000Y-60960000D02*
G75*
G02*
X110840000Y-60960000I-920000J0D01*
G01*
X110840000Y-60960000D02*
G75*
G02*
X112680000Y-60960000I920000J0D01*
G01*
X105060000Y-63500000D02*
X108220000Y-63500000D01*
X105060000Y-63500000D02*
G75*
G02*
X103220000Y-63500000I-920000J0D01*
G01*
X103220000Y-63500000D02*
G75*
G02*
X105060000Y-63500000I920000J0D01*
G01*
X51090000Y-42100000D02*
X51090000Y-41944000D01*
X51090000Y-44416000D02*
X51090000Y-44260000D01*
X47857665Y-42101392D02*
G75*
G02*
X51090000Y-41944484I1672335J-1078608D01*
G01*
X48488870Y-42100163D02*
G75*
G02*
X50570961Y-42100000I1041130J-1079837D01*
G01*
X50570961Y-44260000D02*
G75*
G02*
X48488870Y-44259837I-1040961J1080000D01*
G01*
X51090000Y-44415516D02*
G75*
G02*
X47857665Y-44258608I-1560000J1235516D01*
G01*
X46930001Y-48200000D02*
X48260001Y-48200000D01*
X46930001Y-49530000D02*
X46930001Y-48200000D01*
X49530002Y-48200000D02*
X57210001Y-48200000D01*
X49530002Y-50860000D02*
X49530002Y-48200000D01*
X49530002Y-50860000D02*
X57210001Y-50860000D01*
X57210001Y-50860000D02*
X57210001Y-48200000D01*
X100270000Y-57210000D02*
X100270000Y-55880000D01*
X101600000Y-57210000D02*
X100270000Y-57210000D01*
X102870001Y-54550000D02*
X110550000Y-54550000D01*
X102870001Y-57210000D02*
X102870001Y-54550000D01*
X102870001Y-57210000D02*
X110550000Y-57210000D01*
X110550000Y-57210000D02*
X110550000Y-54550000D01*
%LPC*%
D14*
X72644000Y-76200000D03*
D15*
X75184000Y-76200000D03*
X77724000Y-76200000D03*
X80264000Y-76200000D03*
X82804000Y-76200000D03*
X85344000Y-76200000D03*
X87884000Y-76200000D03*
X90424000Y-76200000D03*
D14*
X95504000Y-76200000D03*
D15*
X98044000Y-76200000D03*
X100584000Y-76200000D03*
X103124000Y-76200000D03*
X105664000Y-76200000D03*
X108204000Y-76200000D03*
D14*
X63500000Y-27940000D03*
D15*
X66040000Y-27940000D03*
X68580000Y-27940000D03*
X71120000Y-27940000D03*
X73660000Y-27940000D03*
X76200000Y-27940000D03*
X78740000Y-27940000D03*
X81280000Y-27940000D03*
X83820000Y-27940000D03*
X86360000Y-27940000D03*
D14*
X90424000Y-27940000D03*
D15*
X92964000Y-27940000D03*
X95504000Y-27940000D03*
X98044000Y-27940000D03*
X100584000Y-27940000D03*
X103124000Y-27940000D03*
X105664000Y-27940000D03*
X108204000Y-27940000D03*
D14*
X101600000Y-68580000D03*
D15*
X104140000Y-68580000D03*
X106680000Y-68580000D03*
X109220000Y-68580000D03*
D14*
X101600000Y-43180000D03*
D15*
X104140000Y-43180000D03*
X106679999Y-43180000D03*
X109220000Y-43180000D03*
D16*
X50850000Y-40640000D03*
D17*
X55929999Y-40640000D03*
D18*
X68580000Y-50800000D03*
D19*
X71120000Y-50800000D03*
X73659999Y-50800000D03*
X76200000Y-50800000D03*
X78740000Y-50800000D03*
X81280000Y-50800000D03*
X83820000Y-50800000D03*
X86360001Y-50800000D03*
X86360000Y-43180000D03*
X83820000Y-43180000D03*
X81280000Y-43180000D03*
X78740000Y-43180000D03*
X76200000Y-43180000D03*
X73660000Y-43180000D03*
X71120000Y-43180000D03*
X68580000Y-43180000D03*
D16*
X50800000Y-27940000D03*
D17*
X55879999Y-27940000D03*
D14*
X66040000Y-76200000D03*
D15*
X68580000Y-76200000D03*
D20*
X50800000Y-33020000D03*
D21*
X48260000Y-33020000D03*
D16*
X111760000Y-60960000D03*
D17*
X106680001Y-60960000D03*
D16*
X104140000Y-63500000D03*
D17*
X109220000Y-63500000D03*
D20*
X50800000Y-43180000D03*
D21*
X48260000Y-43180000D03*
D14*
X48260001Y-49530000D03*
D15*
X50800001Y-49530000D03*
X53340000Y-49530000D03*
X55880001Y-49530000D03*
D14*
X101600000Y-55880000D03*
D15*
X104140000Y-55880000D03*
X106679999Y-55880000D03*
X109220000Y-55880000D03*
%LPD*%
M02*
