G04 #@! TF.GenerationSoftware,KiCad,Pcbnew,8.0.6*
G04 #@! TF.CreationDate,2024-11-11T09:26:18+01:00*
G04 #@! TF.ProjectId,lmwb_lochraster_arduino_L293D,6c6d7762-5f6c-46f6-9368-726173746572,V.0.1*
G04 #@! TF.SameCoordinates,Original*
G04 #@! TF.FileFunction,Soldermask,Top*
G04 #@! TF.FilePolarity,Negative*
%FSLAX46Y46*%
G04 Gerber Fmt 4.6, Leading zero omitted, Abs format (unit mm)*
G04 Created by KiCad (PCBNEW 8.0.6) date 2024-11-11 09:26:18*
%MOMM*%
%LPD*%
G01*
G04 APERTURE LIST*
%ADD10R,1.700000X1.700000*%
%ADD11O,1.700000X1.700000*%
%ADD12C,1.400000*%
%ADD13O,1.400000X1.400000*%
%ADD14R,1.600000X1.600000*%
%ADD15O,1.600000X1.600000*%
%ADD16R,1.800000X1.800000*%
%ADD17C,1.800000*%
G04 APERTURE END LIST*
D10*
X72644000Y-76200000D03*
D11*
X75184000Y-76200000D03*
X77724000Y-76200000D03*
X80264000Y-76200000D03*
X82804000Y-76200000D03*
X85344000Y-76200000D03*
X87884000Y-76200000D03*
X90424000Y-76200000D03*
D10*
X95504000Y-76200000D03*
D11*
X98044000Y-76200000D03*
X100584000Y-76200000D03*
X103124000Y-76200000D03*
X105664000Y-76200000D03*
X108204000Y-76200000D03*
D10*
X63500000Y-27940000D03*
D11*
X66040000Y-27940000D03*
X68580000Y-27940000D03*
X71120000Y-27940000D03*
X73660000Y-27940000D03*
X76200000Y-27940000D03*
X78740000Y-27940000D03*
X81280000Y-27940000D03*
X83820000Y-27940000D03*
X86360000Y-27940000D03*
D10*
X90424000Y-27940000D03*
D11*
X92964000Y-27940000D03*
X95504000Y-27940000D03*
X98044000Y-27940000D03*
X100584000Y-27940000D03*
X103124000Y-27940000D03*
X105664000Y-27940000D03*
X108204000Y-27940000D03*
D10*
X101600000Y-68580000D03*
D11*
X104140000Y-68580000D03*
X106680000Y-68580000D03*
X109220000Y-68580000D03*
D10*
X101600000Y-43180000D03*
D11*
X104140000Y-43180000D03*
X106679999Y-43180000D03*
X109220000Y-43180000D03*
D12*
X50850000Y-40640000D03*
D13*
X55929999Y-40640000D03*
D14*
X68580000Y-50800000D03*
D15*
X71120000Y-50800000D03*
X73659999Y-50800000D03*
X76200000Y-50800000D03*
X78740000Y-50800000D03*
X81280000Y-50800000D03*
X83820000Y-50800000D03*
X86360001Y-50800000D03*
X86360000Y-43180000D03*
X83820000Y-43180000D03*
X81280000Y-43180000D03*
X78740000Y-43180000D03*
X76200000Y-43180000D03*
X73660000Y-43180000D03*
X71120000Y-43180000D03*
X68580000Y-43180000D03*
D12*
X50800000Y-27940000D03*
D13*
X55879999Y-27940000D03*
D10*
X66040000Y-76200000D03*
D11*
X68580000Y-76200000D03*
D16*
X50800000Y-33020000D03*
D17*
X48260000Y-33020000D03*
D12*
X111760000Y-60960000D03*
D13*
X106680001Y-60960000D03*
D12*
X104140000Y-63500000D03*
D13*
X109220000Y-63500000D03*
D16*
X50800000Y-43180000D03*
D17*
X48260000Y-43180000D03*
D10*
X48260001Y-49530000D03*
D11*
X50800001Y-49530000D03*
X53340000Y-49530000D03*
X55880001Y-49530000D03*
D10*
X101600000Y-55880000D03*
D11*
X104140000Y-55880000D03*
X106679999Y-55880000D03*
X109220000Y-55880000D03*
M02*
