G04 #@! TF.GenerationSoftware,KiCad,Pcbnew,8.0.6*
G04 #@! TF.CreationDate,2024-11-11T09:26:18+01:00*
G04 #@! TF.ProjectId,lmwb_lochraster_arduino_L293D,6c6d7762-5f6c-46f6-9368-726173746572,V.0.1*
G04 #@! TF.SameCoordinates,Original*
G04 #@! TF.FileFunction,Legend,Bot*
G04 #@! TF.FilePolarity,Positive*
%FSLAX46Y46*%
G04 Gerber Fmt 4.6, Leading zero omitted, Abs format (unit mm)*
G04 Created by KiCad (PCBNEW 8.0.6) date 2024-11-11 09:26:18*
%MOMM*%
%LPD*%
G01*
G04 APERTURE LIST*
%ADD10C,1.320000*%
%ADD11R,1.700000X1.700000*%
%ADD12O,1.700000X1.700000*%
%ADD13C,1.400000*%
%ADD14O,1.400000X1.400000*%
%ADD15R,1.600000X1.600000*%
%ADD16O,1.600000X1.600000*%
%ADD17R,1.800000X1.800000*%
%ADD18C,1.800000*%
G04 APERTURE END LIST*
D10*
X87020000Y-66040000D02*
G75*
G02*
X85700000Y-66040000I-660000J0D01*
G01*
X85700000Y-66040000D02*
G75*
G02*
X87020000Y-66040000I660000J0D01*
G01*
X71780000Y-58420000D02*
G75*
G02*
X70460000Y-58420000I-660000J0D01*
G01*
X70460000Y-58420000D02*
G75*
G02*
X71780000Y-58420000I660000J0D01*
G01*
X76860000Y-38100000D02*
G75*
G02*
X75540000Y-38100000I-660000J0D01*
G01*
X75540000Y-38100000D02*
G75*
G02*
X76860000Y-38100000I660000J0D01*
G01*
X69240000Y-55880000D02*
G75*
G02*
X67920000Y-55880000I-660000J0D01*
G01*
X67920000Y-55880000D02*
G75*
G02*
X69240000Y-55880000I660000J0D01*
G01*
X54000000Y-45720000D02*
G75*
G02*
X52680000Y-45720000I-660000J0D01*
G01*
X52680000Y-45720000D02*
G75*
G02*
X54000000Y-45720000I660000J0D01*
G01*
X89560000Y-30480000D02*
G75*
G02*
X88240000Y-30480000I-660000J0D01*
G01*
X88240000Y-30480000D02*
G75*
G02*
X89560000Y-30480000I660000J0D01*
G01*
X74320000Y-45720000D02*
G75*
G02*
X73000000Y-45720000I-660000J0D01*
G01*
X73000000Y-45720000D02*
G75*
G02*
X74320000Y-45720000I660000J0D01*
G01*
X89560000Y-66040000D02*
G75*
G02*
X88240000Y-66040000I-660000J0D01*
G01*
X88240000Y-66040000D02*
G75*
G02*
X89560000Y-66040000I660000J0D01*
G01*
X71780000Y-45720000D02*
G75*
G02*
X70460000Y-45720000I-660000J0D01*
G01*
X70460000Y-45720000D02*
G75*
G02*
X71780000Y-45720000I660000J0D01*
G01*
X107340000Y-53340000D02*
G75*
G02*
X106020000Y-53340000I-660000J0D01*
G01*
X106020000Y-53340000D02*
G75*
G02*
X107340000Y-53340000I660000J0D01*
G01*
X51460000Y-45720000D02*
G75*
G02*
X50140000Y-45720000I-660000J0D01*
G01*
X50140000Y-45720000D02*
G75*
G02*
X51460000Y-45720000I660000J0D01*
G01*
X92100000Y-58420000D02*
G75*
G02*
X90780000Y-58420000I-660000J0D01*
G01*
X90780000Y-58420000D02*
G75*
G02*
X92100000Y-58420000I660000J0D01*
G01*
X74320000Y-35560000D02*
G75*
G02*
X73000000Y-35560000I-660000J0D01*
G01*
X73000000Y-35560000D02*
G75*
G02*
X74320000Y-35560000I660000J0D01*
G01*
X48920000Y-45720000D02*
G75*
G02*
X47600000Y-45720000I-660000J0D01*
G01*
X47600000Y-45720000D02*
G75*
G02*
X48920000Y-45720000I660000J0D01*
G01*
X81940000Y-60960000D02*
G75*
G02*
X80620000Y-60960000I-660000J0D01*
G01*
X80620000Y-60960000D02*
G75*
G02*
X81940000Y-60960000I660000J0D01*
G01*
X102260000Y-63500000D02*
G75*
G02*
X100940000Y-63500000I-660000J0D01*
G01*
X100940000Y-63500000D02*
G75*
G02*
X102260000Y-63500000I660000J0D01*
G01*
X109880000Y-53340000D02*
G75*
G02*
X108560000Y-53340000I-660000J0D01*
G01*
X108560000Y-53340000D02*
G75*
G02*
X109880000Y-53340000I660000J0D01*
G01*
X84480000Y-66040000D02*
G75*
G02*
X83160000Y-66040000I-660000J0D01*
G01*
X83160000Y-66040000D02*
G75*
G02*
X84480000Y-66040000I660000J0D01*
G01*
X66700000Y-55880000D02*
G75*
G02*
X65380000Y-55880000I-660000J0D01*
G01*
X65380000Y-55880000D02*
G75*
G02*
X66700000Y-55880000I660000J0D01*
G01*
X104800000Y-58420000D02*
G75*
G02*
X103480000Y-58420000I-660000J0D01*
G01*
X103480000Y-58420000D02*
G75*
G02*
X104800000Y-58420000I660000J0D01*
G01*
X87020000Y-45720000D02*
G75*
G02*
X85700000Y-45720000I-660000J0D01*
G01*
X85700000Y-45720000D02*
G75*
G02*
X87020000Y-45720000I660000J0D01*
G01*
X79400000Y-33020000D02*
G75*
G02*
X78080000Y-33020000I-660000J0D01*
G01*
X78080000Y-33020000D02*
G75*
G02*
X79400000Y-33020000I660000J0D01*
G01*
X51460000Y-38100000D02*
G75*
G02*
X50140000Y-38100000I-660000J0D01*
G01*
X50140000Y-38100000D02*
G75*
G02*
X51460000Y-38100000I660000J0D01*
G01*
X48920000Y-38100000D02*
G75*
G02*
X47600000Y-38100000I-660000J0D01*
G01*
X47600000Y-38100000D02*
G75*
G02*
X48920000Y-38100000I660000J0D01*
G01*
X104800000Y-53340000D02*
G75*
G02*
X103480000Y-53340000I-660000J0D01*
G01*
X103480000Y-53340000D02*
G75*
G02*
X104800000Y-53340000I660000J0D01*
G01*
X81940000Y-45720000D02*
G75*
G02*
X80620000Y-45720000I-660000J0D01*
G01*
X80620000Y-45720000D02*
G75*
G02*
X81940000Y-45720000I660000J0D01*
G01*
X76860000Y-53340000D02*
G75*
G02*
X75540000Y-53340000I-660000J0D01*
G01*
X75540000Y-53340000D02*
G75*
G02*
X76860000Y-53340000I660000J0D01*
G01*
X84480000Y-45720000D02*
G75*
G02*
X83160000Y-45720000I-660000J0D01*
G01*
X83160000Y-45720000D02*
G75*
G02*
X84480000Y-45720000I660000J0D01*
G01*
X74320000Y-55880000D02*
G75*
G02*
X73000000Y-55880000I-660000J0D01*
G01*
X73000000Y-55880000D02*
G75*
G02*
X74320000Y-55880000I660000J0D01*
G01*
X102260000Y-53340000D02*
G75*
G02*
X100940000Y-53340000I-660000J0D01*
G01*
X100940000Y-53340000D02*
G75*
G02*
X102260000Y-53340000I660000J0D01*
G01*
X69240000Y-45720000D02*
G75*
G02*
X67920000Y-45720000I-660000J0D01*
G01*
X67920000Y-45720000D02*
G75*
G02*
X69240000Y-45720000I660000J0D01*
G01*
X81940000Y-38100000D02*
G75*
G02*
X80620000Y-38100000I-660000J0D01*
G01*
X80620000Y-38100000D02*
G75*
G02*
X81940000Y-38100000I660000J0D01*
G01*
X71780000Y-33020000D02*
G75*
G02*
X70460000Y-33020000I-660000J0D01*
G01*
X70460000Y-33020000D02*
G75*
G02*
X71780000Y-33020000I660000J0D01*
G01*
X109880000Y-58420000D02*
G75*
G02*
X108560000Y-58420000I-660000J0D01*
G01*
X108560000Y-58420000D02*
G75*
G02*
X109880000Y-58420000I660000J0D01*
G01*
%LPC*%
D11*
X72644000Y-76200000D03*
D12*
X75184000Y-76200000D03*
X77724000Y-76200000D03*
X80264000Y-76200000D03*
X82804000Y-76200000D03*
X85344000Y-76200000D03*
X87884000Y-76200000D03*
X90424000Y-76200000D03*
D11*
X95504000Y-76200000D03*
D12*
X98044000Y-76200000D03*
X100584000Y-76200000D03*
X103124000Y-76200000D03*
X105664000Y-76200000D03*
X108204000Y-76200000D03*
D11*
X63500000Y-27940000D03*
D12*
X66040000Y-27940000D03*
X68580000Y-27940000D03*
X71120000Y-27940000D03*
X73660000Y-27940000D03*
X76200000Y-27940000D03*
X78740000Y-27940000D03*
X81280000Y-27940000D03*
X83820000Y-27940000D03*
X86360000Y-27940000D03*
D11*
X90424000Y-27940000D03*
D12*
X92964000Y-27940000D03*
X95504000Y-27940000D03*
X98044000Y-27940000D03*
X100584000Y-27940000D03*
X103124000Y-27940000D03*
X105664000Y-27940000D03*
X108204000Y-27940000D03*
D11*
X101600000Y-68580000D03*
D12*
X104140000Y-68580000D03*
X106680000Y-68580000D03*
X109220000Y-68580000D03*
D11*
X101600000Y-43180000D03*
D12*
X104140000Y-43180000D03*
X106679999Y-43180000D03*
X109220000Y-43180000D03*
D13*
X50850000Y-40640000D03*
D14*
X55929999Y-40640000D03*
D15*
X68580000Y-50800000D03*
D16*
X71120000Y-50800000D03*
X73659999Y-50800000D03*
X76200000Y-50800000D03*
X78740000Y-50800000D03*
X81280000Y-50800000D03*
X83820000Y-50800000D03*
X86360001Y-50800000D03*
X86360000Y-43180000D03*
X83820000Y-43180000D03*
X81280000Y-43180000D03*
X78740000Y-43180000D03*
X76200000Y-43180000D03*
X73660000Y-43180000D03*
X71120000Y-43180000D03*
X68580000Y-43180000D03*
D13*
X50800000Y-27940000D03*
D14*
X55879999Y-27940000D03*
D11*
X66040000Y-76200000D03*
D12*
X68580000Y-76200000D03*
D17*
X50800000Y-33020000D03*
D18*
X48260000Y-33020000D03*
D13*
X111760000Y-60960000D03*
D14*
X106680001Y-60960000D03*
D13*
X104140000Y-63500000D03*
D14*
X109220000Y-63500000D03*
D17*
X50800000Y-43180000D03*
D18*
X48260000Y-43180000D03*
D11*
X48260001Y-49530000D03*
D12*
X50800001Y-49530000D03*
X53340000Y-49530000D03*
X55880001Y-49530000D03*
D11*
X101600000Y-55880000D03*
D12*
X104140000Y-55880000D03*
X106679999Y-55880000D03*
X109220000Y-55880000D03*
%LPD*%
M02*
