G04 #@! TF.GenerationSoftware,KiCad,Pcbnew,8.0.6*
G04 #@! TF.CreationDate,2024-11-11T09:26:17+01:00*
G04 #@! TF.ProjectId,lmwb_lochraster_arduino_L293D,6c6d7762-5f6c-46f6-9368-726173746572,V.0.1*
G04 #@! TF.SameCoordinates,Original*
G04 #@! TF.FileFunction,Copper,L1,Top*
G04 #@! TF.FilePolarity,Positive*
%FSLAX46Y46*%
G04 Gerber Fmt 4.6, Leading zero omitted, Abs format (unit mm)*
G04 Created by KiCad (PCBNEW 8.0.6) date 2024-11-11 09:26:17*
%MOMM*%
%LPD*%
G01*
G04 APERTURE LIST*
G04 #@! TA.AperFunction,Conductor*
%ADD10C,0.150000*%
G04 #@! TD*
G04 #@! TA.AperFunction,ComponentPad*
%ADD11R,1.700000X1.700000*%
G04 #@! TD*
G04 #@! TA.AperFunction,ComponentPad*
%ADD12O,1.700000X1.700000*%
G04 #@! TD*
G04 #@! TA.AperFunction,ComponentPad*
%ADD13C,1.400000*%
G04 #@! TD*
G04 #@! TA.AperFunction,ComponentPad*
%ADD14O,1.400000X1.400000*%
G04 #@! TD*
G04 #@! TA.AperFunction,ComponentPad*
%ADD15R,1.600000X1.600000*%
G04 #@! TD*
G04 #@! TA.AperFunction,ComponentPad*
%ADD16O,1.600000X1.600000*%
G04 #@! TD*
G04 #@! TA.AperFunction,ComponentPad*
%ADD17R,1.800000X1.800000*%
G04 #@! TD*
G04 #@! TA.AperFunction,ComponentPad*
%ADD18C,1.800000*%
G04 #@! TD*
G04 #@! TA.AperFunction,ViaPad*
%ADD19C,0.800000*%
G04 #@! TD*
G04 #@! TA.AperFunction,Conductor*
%ADD20C,2.000000*%
G04 #@! TD*
G04 APERTURE END LIST*
D10*
X99060000Y-35560000D02*
X101600000Y-35560000D01*
D11*
X72644000Y-76200000D03*
D12*
X75184000Y-76200000D03*
X77724000Y-76200000D03*
X80264000Y-76200000D03*
X82804000Y-76200000D03*
X85344000Y-76200000D03*
X87884000Y-76200000D03*
X90424000Y-76200000D03*
D11*
X95504000Y-76200000D03*
D12*
X98044000Y-76200000D03*
X100584000Y-76200000D03*
X103124000Y-76200000D03*
X105664000Y-76200000D03*
X108204000Y-76200000D03*
D11*
X63500000Y-27940000D03*
D12*
X66040000Y-27940000D03*
X68580000Y-27940000D03*
X71120000Y-27940000D03*
X73660000Y-27940000D03*
X76200000Y-27940000D03*
X78740000Y-27940000D03*
X81280000Y-27940000D03*
X83820000Y-27940000D03*
X86360000Y-27940000D03*
D11*
X90424000Y-27940000D03*
D12*
X92964000Y-27940000D03*
X95504000Y-27940000D03*
X98044000Y-27940000D03*
X100584000Y-27940000D03*
X103124000Y-27940000D03*
X105664000Y-27940000D03*
X108204000Y-27940000D03*
D11*
X101600000Y-68580000D03*
D12*
X104140000Y-68580000D03*
X106680000Y-68580000D03*
X109220000Y-68580000D03*
D11*
X101600000Y-43180000D03*
D12*
X104140000Y-43180000D03*
X106679999Y-43180000D03*
X109220000Y-43180000D03*
D13*
X50850000Y-40640000D03*
D14*
X55929999Y-40640000D03*
D15*
X68580000Y-50800000D03*
D16*
X71120000Y-50800000D03*
X73659999Y-50800000D03*
X76200000Y-50800000D03*
X78740000Y-50800000D03*
X81280000Y-50800000D03*
X83820000Y-50800000D03*
X86360001Y-50800000D03*
X86360000Y-43180000D03*
X83820000Y-43180000D03*
X81280000Y-43180000D03*
X78740000Y-43180000D03*
X76200000Y-43180000D03*
X73660000Y-43180000D03*
X71120000Y-43180000D03*
X68580000Y-43180000D03*
D13*
X50800000Y-27940000D03*
D14*
X55879999Y-27940000D03*
D11*
X66040000Y-76200000D03*
D12*
X68580000Y-76200000D03*
D17*
X50800000Y-33020000D03*
D18*
X48260000Y-33020000D03*
D13*
X111760000Y-60960000D03*
D14*
X106680001Y-60960000D03*
D13*
X104140000Y-63500000D03*
D14*
X109220000Y-63500000D03*
D17*
X50800000Y-43180000D03*
D18*
X48260000Y-43180000D03*
D11*
X48260001Y-49530000D03*
D12*
X50800001Y-49530000D03*
X53340000Y-49530000D03*
X55880001Y-49530000D03*
D11*
X101600000Y-55880000D03*
D12*
X104140000Y-55880000D03*
X106679999Y-55880000D03*
X109220000Y-55880000D03*
D19*
X86360000Y-73660000D03*
X78740000Y-68580000D03*
X55880000Y-30480000D03*
X106680000Y-58420000D03*
X104140000Y-73660000D03*
X71120000Y-30480000D03*
X55880000Y-68580000D03*
X86360000Y-68580000D03*
X78740000Y-58420000D03*
X68580000Y-35560000D03*
X111760000Y-71120000D03*
X48260000Y-35560000D03*
X63500000Y-40640000D03*
X81280000Y-63500000D03*
X101600000Y-66040000D03*
X81280000Y-71120000D03*
X63500000Y-63500000D03*
X68580000Y-40640000D03*
X104140000Y-66040000D03*
X101600000Y-71120000D03*
X66040000Y-33020000D03*
X73660000Y-33020000D03*
X68580000Y-53340000D03*
X66040000Y-53340000D03*
X76200000Y-35560000D03*
X71120000Y-35560000D03*
X78740000Y-30480000D03*
X91440000Y-55880000D03*
X71120000Y-55880000D03*
X91440000Y-30480000D03*
X81280000Y-35560000D03*
X83820000Y-35560000D03*
X83820000Y-33020000D03*
X88900000Y-63500000D03*
X88900000Y-33020000D03*
X83820000Y-63500000D03*
X48260000Y-40640000D03*
X45778800Y-66040000D03*
X86360001Y-60960000D03*
X101600000Y-60960000D03*
X91440000Y-60960000D03*
X91440000Y-66040000D03*
X45778800Y-40640000D03*
X109220000Y-38100000D03*
X73660000Y-38100000D03*
X99060000Y-35560000D03*
X99060000Y-53340000D03*
X101600000Y-35560000D03*
X73659999Y-53339999D03*
X81280000Y-48260000D03*
X104140000Y-48260000D03*
X81280000Y-40640000D03*
X106680000Y-40640000D03*
X66040000Y-71120000D03*
X50800000Y-71120000D03*
D20*
X86360000Y-68580000D02*
X78740000Y-68580000D01*
X53340000Y-49530000D02*
X55880001Y-49530000D01*
X86360000Y-73660000D02*
X104140000Y-73660000D01*
X55880000Y-68580000D02*
X78740000Y-68580000D01*
X109220000Y-55880000D02*
X106679999Y-55880000D01*
X71120000Y-30480000D02*
X55880000Y-30480000D01*
X78740000Y-58420000D02*
X106680000Y-58420000D01*
X68580000Y-40640000D02*
X63500000Y-40640000D01*
X104140000Y-66040000D02*
X101600000Y-66040000D01*
X68580000Y-35560000D02*
X48260000Y-35560000D01*
X81280000Y-71120000D02*
X101600000Y-71120000D01*
X63500000Y-63500000D02*
X81280000Y-63500000D01*
X101600000Y-71120000D02*
X111760000Y-71120000D01*
X66040000Y-33020000D02*
X73660000Y-33020000D01*
X68580000Y-53340000D02*
X66040000Y-53340000D01*
X71120000Y-35560000D02*
X76200000Y-35560000D01*
X71120000Y-55880000D02*
X91440000Y-55880000D01*
X78740000Y-30480000D02*
X91440000Y-30480000D01*
X83820000Y-35560000D02*
X81280000Y-35560000D01*
X88900000Y-33020000D02*
X83820000Y-33020000D01*
X83820000Y-63500000D02*
X88900000Y-63500000D01*
X45778800Y-40640000D02*
X48260000Y-40640000D01*
X101600000Y-55880000D02*
X104140000Y-55880000D01*
X91440000Y-66040000D02*
X45778800Y-66040000D01*
X91440000Y-60960000D02*
X101600000Y-60960000D01*
X86360001Y-60960000D02*
X91440000Y-60960000D01*
X73660000Y-38100000D02*
X109220000Y-38100000D01*
X99060000Y-35560000D02*
X101600000Y-35560000D01*
X99060000Y-53340000D02*
X73660000Y-53340000D01*
X73660000Y-53340000D02*
X73659999Y-53339999D01*
X81280000Y-48260000D02*
X104140000Y-48260000D01*
X81280000Y-40640000D02*
X106680000Y-40640000D01*
X50800001Y-49530000D02*
X48260001Y-49530000D01*
X66040000Y-76200000D02*
X68580000Y-76200000D01*
X50800000Y-71120000D02*
X66040000Y-71120000D01*
G04 #@! TA.AperFunction,NonConductor*
G36*
X105464711Y-56146240D02*
G01*
X105516186Y-56193484D01*
X105527930Y-56219198D01*
X105567453Y-56340836D01*
X105644667Y-56492376D01*
X105653239Y-56509199D01*
X105764309Y-56662073D01*
X105897926Y-56795690D01*
X106050800Y-56906760D01*
X106147206Y-56955881D01*
X106204384Y-56985015D01*
X106255180Y-57032990D01*
X106271975Y-57100811D01*
X106249438Y-57166946D01*
X106194722Y-57210397D01*
X106148089Y-57219500D01*
X104671910Y-57219500D01*
X104604871Y-57199815D01*
X104559116Y-57147011D01*
X104549172Y-57077853D01*
X104578197Y-57014297D01*
X104615615Y-56985015D01*
X104650224Y-56967380D01*
X104769199Y-56906760D01*
X104922073Y-56795690D01*
X105055690Y-56662073D01*
X105166760Y-56509199D01*
X105252547Y-56340832D01*
X105292068Y-56219198D01*
X105331506Y-56161523D01*
X105395864Y-56134325D01*
X105464711Y-56146240D01*
G37*
G04 #@! TD.AperFunction*
G04 #@! TA.AperFunction,NonConductor*
G36*
X82604712Y-63766238D02*
G01*
X82656188Y-63813482D01*
X82667931Y-63839196D01*
X82707454Y-63960836D01*
X82793240Y-64129199D01*
X82904310Y-64282073D01*
X83037927Y-64415690D01*
X83190801Y-64526760D01*
X83287207Y-64575881D01*
X83344385Y-64605015D01*
X83395181Y-64652990D01*
X83411976Y-64720811D01*
X83389439Y-64786946D01*
X83334723Y-64830397D01*
X83288090Y-64839500D01*
X81811910Y-64839500D01*
X81744871Y-64819815D01*
X81699116Y-64767011D01*
X81689172Y-64697853D01*
X81718197Y-64634297D01*
X81755615Y-64605015D01*
X81790224Y-64587380D01*
X81909199Y-64526760D01*
X82062073Y-64415690D01*
X82195690Y-64282073D01*
X82306760Y-64129199D01*
X82392547Y-63960832D01*
X82432069Y-63839195D01*
X82471507Y-63781521D01*
X82535866Y-63754323D01*
X82604712Y-63766238D01*
G37*
G04 #@! TD.AperFunction*
G04 #@! TA.AperFunction,NonConductor*
G36*
X113151339Y-25494985D02*
G01*
X113197094Y-25547789D01*
X113208300Y-25599300D01*
X113208300Y-71018104D01*
X113188615Y-71085143D01*
X113147408Y-71120848D01*
X113172600Y-71134837D01*
X113205650Y-71196395D01*
X113208300Y-71221895D01*
X113208300Y-78540300D01*
X113188615Y-78607339D01*
X113135811Y-78653094D01*
X113084300Y-78664300D01*
X44903300Y-78664300D01*
X44836261Y-78644615D01*
X44790506Y-78591811D01*
X44779300Y-78540300D01*
X44779300Y-76105513D01*
X64839500Y-76105513D01*
X64839500Y-76294486D01*
X64869059Y-76481118D01*
X64927454Y-76660836D01*
X64975985Y-76756081D01*
X64989500Y-76812376D01*
X64989500Y-77069752D01*
X65001131Y-77128229D01*
X65001132Y-77128230D01*
X65045447Y-77194552D01*
X65111769Y-77238867D01*
X65111770Y-77238868D01*
X65170247Y-77250499D01*
X65170250Y-77250500D01*
X65170252Y-77250500D01*
X65427624Y-77250500D01*
X65483919Y-77264015D01*
X65579163Y-77312545D01*
X65579165Y-77312545D01*
X65579168Y-77312547D01*
X65675497Y-77343846D01*
X65758881Y-77370940D01*
X65945514Y-77400500D01*
X65945519Y-77400500D01*
X68674486Y-77400500D01*
X68861118Y-77370940D01*
X69040832Y-77312547D01*
X69209199Y-77226760D01*
X69362073Y-77115690D01*
X69495690Y-76982073D01*
X69606760Y-76829199D01*
X69692547Y-76660832D01*
X69750940Y-76481118D01*
X69762848Y-76405932D01*
X69780500Y-76294486D01*
X69780500Y-76105513D01*
X69750940Y-75918881D01*
X69692545Y-75739163D01*
X69630500Y-75617393D01*
X69606760Y-75570801D01*
X69495690Y-75417927D01*
X69408010Y-75330247D01*
X71593500Y-75330247D01*
X71593500Y-77069752D01*
X71605131Y-77128229D01*
X71605132Y-77128230D01*
X71649447Y-77194552D01*
X71715769Y-77238867D01*
X71715770Y-77238868D01*
X71774247Y-77250499D01*
X71774250Y-77250500D01*
X71774252Y-77250500D01*
X73513750Y-77250500D01*
X73513751Y-77250499D01*
X73528568Y-77247552D01*
X73572229Y-77238868D01*
X73572229Y-77238867D01*
X73572231Y-77238867D01*
X73638552Y-77194552D01*
X73682867Y-77128231D01*
X73682867Y-77128229D01*
X73682868Y-77128229D01*
X73694499Y-77069752D01*
X73694500Y-77069750D01*
X73694500Y-76200000D01*
X74128417Y-76200000D01*
X74148699Y-76405932D01*
X74178734Y-76504944D01*
X74208768Y-76603954D01*
X74306315Y-76786450D01*
X74306317Y-76786452D01*
X74437589Y-76946410D01*
X74481048Y-76982075D01*
X74597550Y-77077685D01*
X74780046Y-77175232D01*
X74978066Y-77235300D01*
X74978065Y-77235300D01*
X74996529Y-77237118D01*
X75184000Y-77255583D01*
X75389934Y-77235300D01*
X75587954Y-77175232D01*
X75770450Y-77077685D01*
X75930410Y-76946410D01*
X76061685Y-76786450D01*
X76159232Y-76603954D01*
X76219300Y-76405934D01*
X76239583Y-76200000D01*
X76668417Y-76200000D01*
X76688699Y-76405932D01*
X76718734Y-76504944D01*
X76748768Y-76603954D01*
X76846315Y-76786450D01*
X76846317Y-76786452D01*
X76977589Y-76946410D01*
X77021048Y-76982075D01*
X77137550Y-77077685D01*
X77320046Y-77175232D01*
X77518066Y-77235300D01*
X77518065Y-77235300D01*
X77536529Y-77237118D01*
X77724000Y-77255583D01*
X77929934Y-77235300D01*
X78127954Y-77175232D01*
X78310450Y-77077685D01*
X78470410Y-76946410D01*
X78601685Y-76786450D01*
X78699232Y-76603954D01*
X78759300Y-76405934D01*
X78779583Y-76200000D01*
X79208417Y-76200000D01*
X79228699Y-76405932D01*
X79258734Y-76504944D01*
X79288768Y-76603954D01*
X79386315Y-76786450D01*
X79386317Y-76786452D01*
X79517589Y-76946410D01*
X79561048Y-76982075D01*
X79677550Y-77077685D01*
X79860046Y-77175232D01*
X80058066Y-77235300D01*
X80058065Y-77235300D01*
X80076529Y-77237118D01*
X80264000Y-77255583D01*
X80469934Y-77235300D01*
X80667954Y-77175232D01*
X80850450Y-77077685D01*
X81010410Y-76946410D01*
X81141685Y-76786450D01*
X81239232Y-76603954D01*
X81299300Y-76405934D01*
X81319583Y-76200000D01*
X81748417Y-76200000D01*
X81768699Y-76405932D01*
X81798734Y-76504944D01*
X81828768Y-76603954D01*
X81926315Y-76786450D01*
X81926317Y-76786452D01*
X82057589Y-76946410D01*
X82101048Y-76982075D01*
X82217550Y-77077685D01*
X82400046Y-77175232D01*
X82598066Y-77235300D01*
X82598065Y-77235300D01*
X82616529Y-77237118D01*
X82804000Y-77255583D01*
X83009934Y-77235300D01*
X83207954Y-77175232D01*
X83390450Y-77077685D01*
X83550410Y-76946410D01*
X83681685Y-76786450D01*
X83779232Y-76603954D01*
X83839300Y-76405934D01*
X83859583Y-76200000D01*
X84288417Y-76200000D01*
X84308699Y-76405932D01*
X84338734Y-76504944D01*
X84368768Y-76603954D01*
X84466315Y-76786450D01*
X84466317Y-76786452D01*
X84597589Y-76946410D01*
X84641048Y-76982075D01*
X84757550Y-77077685D01*
X84940046Y-77175232D01*
X85138066Y-77235300D01*
X85138065Y-77235300D01*
X85156529Y-77237118D01*
X85344000Y-77255583D01*
X85549934Y-77235300D01*
X85747954Y-77175232D01*
X85930450Y-77077685D01*
X86090410Y-76946410D01*
X86221685Y-76786450D01*
X86319232Y-76603954D01*
X86379300Y-76405934D01*
X86399583Y-76200000D01*
X86828417Y-76200000D01*
X86848699Y-76405932D01*
X86878734Y-76504944D01*
X86908768Y-76603954D01*
X87006315Y-76786450D01*
X87006317Y-76786452D01*
X87137589Y-76946410D01*
X87181048Y-76982075D01*
X87297550Y-77077685D01*
X87480046Y-77175232D01*
X87678066Y-77235300D01*
X87678065Y-77235300D01*
X87696529Y-77237118D01*
X87884000Y-77255583D01*
X88089934Y-77235300D01*
X88287954Y-77175232D01*
X88470450Y-77077685D01*
X88630410Y-76946410D01*
X88761685Y-76786450D01*
X88859232Y-76603954D01*
X88919300Y-76405934D01*
X88939583Y-76200000D01*
X89368417Y-76200000D01*
X89388699Y-76405932D01*
X89418734Y-76504944D01*
X89448768Y-76603954D01*
X89546315Y-76786450D01*
X89546317Y-76786452D01*
X89677589Y-76946410D01*
X89721048Y-76982075D01*
X89837550Y-77077685D01*
X90020046Y-77175232D01*
X90218066Y-77235300D01*
X90218065Y-77235300D01*
X90236529Y-77237118D01*
X90424000Y-77255583D01*
X90629934Y-77235300D01*
X90827954Y-77175232D01*
X91010450Y-77077685D01*
X91170410Y-76946410D01*
X91301685Y-76786450D01*
X91399232Y-76603954D01*
X91459300Y-76405934D01*
X91479583Y-76200000D01*
X91459300Y-75994066D01*
X91399232Y-75796046D01*
X91301685Y-75613550D01*
X91249702Y-75550209D01*
X91170410Y-75453589D01*
X91020121Y-75330252D01*
X91020115Y-75330247D01*
X94453500Y-75330247D01*
X94453500Y-77069752D01*
X94465131Y-77128229D01*
X94465132Y-77128230D01*
X94509447Y-77194552D01*
X94575769Y-77238867D01*
X94575770Y-77238868D01*
X94634247Y-77250499D01*
X94634250Y-77250500D01*
X94634252Y-77250500D01*
X96373750Y-77250500D01*
X96373751Y-77250499D01*
X96388568Y-77247552D01*
X96432229Y-77238868D01*
X96432229Y-77238867D01*
X96432231Y-77238867D01*
X96498552Y-77194552D01*
X96542867Y-77128231D01*
X96542867Y-77128229D01*
X96542868Y-77128229D01*
X96554499Y-77069752D01*
X96554500Y-77069750D01*
X96554500Y-76200000D01*
X96988417Y-76200000D01*
X97008699Y-76405932D01*
X97038734Y-76504944D01*
X97068768Y-76603954D01*
X97166315Y-76786450D01*
X97166317Y-76786452D01*
X97297589Y-76946410D01*
X97341048Y-76982075D01*
X97457550Y-77077685D01*
X97640046Y-77175232D01*
X97838066Y-77235300D01*
X97838065Y-77235300D01*
X97856529Y-77237118D01*
X98044000Y-77255583D01*
X98249934Y-77235300D01*
X98447954Y-77175232D01*
X98630450Y-77077685D01*
X98790410Y-76946410D01*
X98921685Y-76786450D01*
X99019232Y-76603954D01*
X99079300Y-76405934D01*
X99099583Y-76200000D01*
X99528417Y-76200000D01*
X99548699Y-76405932D01*
X99578734Y-76504944D01*
X99608768Y-76603954D01*
X99706315Y-76786450D01*
X99706317Y-76786452D01*
X99837589Y-76946410D01*
X99881048Y-76982075D01*
X99997550Y-77077685D01*
X100180046Y-77175232D01*
X100378066Y-77235300D01*
X100378065Y-77235300D01*
X100396529Y-77237118D01*
X100584000Y-77255583D01*
X100789934Y-77235300D01*
X100987954Y-77175232D01*
X101170450Y-77077685D01*
X101330410Y-76946410D01*
X101461685Y-76786450D01*
X101559232Y-76603954D01*
X101619300Y-76405934D01*
X101639583Y-76200000D01*
X102068417Y-76200000D01*
X102088699Y-76405932D01*
X102118734Y-76504944D01*
X102148768Y-76603954D01*
X102246315Y-76786450D01*
X102246317Y-76786452D01*
X102377589Y-76946410D01*
X102421048Y-76982075D01*
X102537550Y-77077685D01*
X102720046Y-77175232D01*
X102918066Y-77235300D01*
X102918065Y-77235300D01*
X102936529Y-77237118D01*
X103124000Y-77255583D01*
X103329934Y-77235300D01*
X103527954Y-77175232D01*
X103710450Y-77077685D01*
X103870410Y-76946410D01*
X104001685Y-76786450D01*
X104099232Y-76603954D01*
X104159300Y-76405934D01*
X104179583Y-76200000D01*
X104608417Y-76200000D01*
X104628699Y-76405932D01*
X104658734Y-76504944D01*
X104688768Y-76603954D01*
X104786315Y-76786450D01*
X104786317Y-76786452D01*
X104917589Y-76946410D01*
X104961048Y-76982075D01*
X105077550Y-77077685D01*
X105260046Y-77175232D01*
X105458066Y-77235300D01*
X105458065Y-77235300D01*
X105476529Y-77237118D01*
X105664000Y-77255583D01*
X105869934Y-77235300D01*
X106067954Y-77175232D01*
X106250450Y-77077685D01*
X106410410Y-76946410D01*
X106541685Y-76786450D01*
X106639232Y-76603954D01*
X106699300Y-76405934D01*
X106719583Y-76200000D01*
X107148417Y-76200000D01*
X107168699Y-76405932D01*
X107198734Y-76504944D01*
X107228768Y-76603954D01*
X107326315Y-76786450D01*
X107326317Y-76786452D01*
X107457589Y-76946410D01*
X107501048Y-76982075D01*
X107617550Y-77077685D01*
X107800046Y-77175232D01*
X107998066Y-77235300D01*
X107998065Y-77235300D01*
X108016529Y-77237118D01*
X108204000Y-77255583D01*
X108409934Y-77235300D01*
X108607954Y-77175232D01*
X108790450Y-77077685D01*
X108950410Y-76946410D01*
X109081685Y-76786450D01*
X109179232Y-76603954D01*
X109239300Y-76405934D01*
X109259583Y-76200000D01*
X109239300Y-75994066D01*
X109179232Y-75796046D01*
X109081685Y-75613550D01*
X109029702Y-75550209D01*
X108950410Y-75453589D01*
X108800121Y-75330252D01*
X108790450Y-75322315D01*
X108607954Y-75224768D01*
X108409934Y-75164700D01*
X108409932Y-75164699D01*
X108409934Y-75164699D01*
X108204000Y-75144417D01*
X107998067Y-75164699D01*
X107800043Y-75224769D01*
X107712114Y-75271769D01*
X107617550Y-75322315D01*
X107617548Y-75322316D01*
X107617547Y-75322317D01*
X107457589Y-75453589D01*
X107326317Y-75613547D01*
X107228769Y-75796043D01*
X107168699Y-75994067D01*
X107148417Y-76200000D01*
X106719583Y-76200000D01*
X106699300Y-75994066D01*
X106639232Y-75796046D01*
X106541685Y-75613550D01*
X106489702Y-75550209D01*
X106410410Y-75453589D01*
X106260121Y-75330252D01*
X106250450Y-75322315D01*
X106067954Y-75224768D01*
X105869934Y-75164700D01*
X105869932Y-75164699D01*
X105869934Y-75164699D01*
X105664000Y-75144417D01*
X105458067Y-75164699D01*
X105260043Y-75224769D01*
X105172114Y-75271769D01*
X105077550Y-75322315D01*
X105077548Y-75322316D01*
X105077547Y-75322317D01*
X104917589Y-75453589D01*
X104786317Y-75613547D01*
X104688769Y-75796043D01*
X104628699Y-75994067D01*
X104608417Y-76200000D01*
X104179583Y-76200000D01*
X104159300Y-75994066D01*
X104099232Y-75796046D01*
X104001685Y-75613550D01*
X103949702Y-75550209D01*
X103870410Y-75453589D01*
X103720121Y-75330252D01*
X103710450Y-75322315D01*
X103527954Y-75224768D01*
X103329934Y-75164700D01*
X103329932Y-75164699D01*
X103329934Y-75164699D01*
X103124000Y-75144417D01*
X102918067Y-75164699D01*
X102720043Y-75224769D01*
X102632114Y-75271769D01*
X102537550Y-75322315D01*
X102537548Y-75322316D01*
X102537547Y-75322317D01*
X102377589Y-75453589D01*
X102246317Y-75613547D01*
X102148769Y-75796043D01*
X102088699Y-75994067D01*
X102068417Y-76200000D01*
X101639583Y-76200000D01*
X101619300Y-75994066D01*
X101559232Y-75796046D01*
X101461685Y-75613550D01*
X101409702Y-75550209D01*
X101330410Y-75453589D01*
X101180121Y-75330252D01*
X101170450Y-75322315D01*
X100987954Y-75224768D01*
X100789934Y-75164700D01*
X100789932Y-75164699D01*
X100789934Y-75164699D01*
X100584000Y-75144417D01*
X100378067Y-75164699D01*
X100180043Y-75224769D01*
X100092114Y-75271769D01*
X99997550Y-75322315D01*
X99997548Y-75322316D01*
X99997547Y-75322317D01*
X99837589Y-75453589D01*
X99706317Y-75613547D01*
X99608769Y-75796043D01*
X99548699Y-75994067D01*
X99528417Y-76200000D01*
X99099583Y-76200000D01*
X99079300Y-75994066D01*
X99019232Y-75796046D01*
X98921685Y-75613550D01*
X98869702Y-75550209D01*
X98790410Y-75453589D01*
X98640121Y-75330252D01*
X98630450Y-75322315D01*
X98447954Y-75224768D01*
X98249934Y-75164700D01*
X98249932Y-75164699D01*
X98249934Y-75164699D01*
X98044000Y-75144417D01*
X97838067Y-75164699D01*
X97640043Y-75224769D01*
X97552114Y-75271769D01*
X97457550Y-75322315D01*
X97457548Y-75322316D01*
X97457547Y-75322317D01*
X97297589Y-75453589D01*
X97166317Y-75613547D01*
X97068769Y-75796043D01*
X97008699Y-75994067D01*
X96988417Y-76200000D01*
X96554500Y-76200000D01*
X96554500Y-75330249D01*
X96554499Y-75330247D01*
X96542868Y-75271770D01*
X96542867Y-75271769D01*
X96498552Y-75205447D01*
X96432230Y-75161132D01*
X96432229Y-75161131D01*
X96373752Y-75149500D01*
X96373748Y-75149500D01*
X94634252Y-75149500D01*
X94634247Y-75149500D01*
X94575770Y-75161131D01*
X94575769Y-75161132D01*
X94509447Y-75205447D01*
X94465132Y-75271769D01*
X94465131Y-75271770D01*
X94453500Y-75330247D01*
X91020115Y-75330247D01*
X91010450Y-75322315D01*
X90827954Y-75224768D01*
X90629934Y-75164700D01*
X90629932Y-75164699D01*
X90629934Y-75164699D01*
X90424000Y-75144417D01*
X90218067Y-75164699D01*
X90020043Y-75224769D01*
X89932114Y-75271769D01*
X89837550Y-75322315D01*
X89837548Y-75322316D01*
X89837547Y-75322317D01*
X89677589Y-75453589D01*
X89546317Y-75613547D01*
X89448769Y-75796043D01*
X89388699Y-75994067D01*
X89368417Y-76200000D01*
X88939583Y-76200000D01*
X88919300Y-75994066D01*
X88859232Y-75796046D01*
X88761685Y-75613550D01*
X88709702Y-75550209D01*
X88630410Y-75453589D01*
X88480121Y-75330252D01*
X88470450Y-75322315D01*
X88287954Y-75224768D01*
X88089934Y-75164700D01*
X88089932Y-75164699D01*
X88089934Y-75164699D01*
X87884000Y-75144417D01*
X87678067Y-75164699D01*
X87480043Y-75224769D01*
X87392114Y-75271769D01*
X87297550Y-75322315D01*
X87297548Y-75322316D01*
X87297547Y-75322317D01*
X87137589Y-75453589D01*
X87006317Y-75613547D01*
X86908769Y-75796043D01*
X86848699Y-75994067D01*
X86828417Y-76200000D01*
X86399583Y-76200000D01*
X86379300Y-75994066D01*
X86319232Y-75796046D01*
X86221685Y-75613550D01*
X86169702Y-75550209D01*
X86090410Y-75453589D01*
X85940121Y-75330252D01*
X85930450Y-75322315D01*
X85747954Y-75224768D01*
X85549934Y-75164700D01*
X85549932Y-75164699D01*
X85549934Y-75164699D01*
X85344000Y-75144417D01*
X85138067Y-75164699D01*
X84940043Y-75224769D01*
X84852114Y-75271769D01*
X84757550Y-75322315D01*
X84757548Y-75322316D01*
X84757547Y-75322317D01*
X84597589Y-75453589D01*
X84466317Y-75613547D01*
X84368769Y-75796043D01*
X84308699Y-75994067D01*
X84288417Y-76200000D01*
X83859583Y-76200000D01*
X83839300Y-75994066D01*
X83779232Y-75796046D01*
X83681685Y-75613550D01*
X83629702Y-75550209D01*
X83550410Y-75453589D01*
X83400121Y-75330252D01*
X83390450Y-75322315D01*
X83207954Y-75224768D01*
X83009934Y-75164700D01*
X83009932Y-75164699D01*
X83009934Y-75164699D01*
X82804000Y-75144417D01*
X82598067Y-75164699D01*
X82400043Y-75224769D01*
X82312114Y-75271769D01*
X82217550Y-75322315D01*
X82217548Y-75322316D01*
X82217547Y-75322317D01*
X82057589Y-75453589D01*
X81926317Y-75613547D01*
X81828769Y-75796043D01*
X81768699Y-75994067D01*
X81748417Y-76200000D01*
X81319583Y-76200000D01*
X81299300Y-75994066D01*
X81239232Y-75796046D01*
X81141685Y-75613550D01*
X81089702Y-75550209D01*
X81010410Y-75453589D01*
X80860121Y-75330252D01*
X80850450Y-75322315D01*
X80667954Y-75224768D01*
X80469934Y-75164700D01*
X80469932Y-75164699D01*
X80469934Y-75164699D01*
X80264000Y-75144417D01*
X80058067Y-75164699D01*
X79860043Y-75224769D01*
X79772114Y-75271769D01*
X79677550Y-75322315D01*
X79677548Y-75322316D01*
X79677547Y-75322317D01*
X79517589Y-75453589D01*
X79386317Y-75613547D01*
X79288769Y-75796043D01*
X79228699Y-75994067D01*
X79208417Y-76200000D01*
X78779583Y-76200000D01*
X78759300Y-75994066D01*
X78699232Y-75796046D01*
X78601685Y-75613550D01*
X78549702Y-75550209D01*
X78470410Y-75453589D01*
X78320121Y-75330252D01*
X78310450Y-75322315D01*
X78127954Y-75224768D01*
X77929934Y-75164700D01*
X77929932Y-75164699D01*
X77929934Y-75164699D01*
X77724000Y-75144417D01*
X77518067Y-75164699D01*
X77320043Y-75224769D01*
X77232114Y-75271769D01*
X77137550Y-75322315D01*
X77137548Y-75322316D01*
X77137547Y-75322317D01*
X76977589Y-75453589D01*
X76846317Y-75613547D01*
X76748769Y-75796043D01*
X76688699Y-75994067D01*
X76668417Y-76200000D01*
X76239583Y-76200000D01*
X76219300Y-75994066D01*
X76159232Y-75796046D01*
X76061685Y-75613550D01*
X76009702Y-75550209D01*
X75930410Y-75453589D01*
X75780121Y-75330252D01*
X75770450Y-75322315D01*
X75587954Y-75224768D01*
X75389934Y-75164700D01*
X75389932Y-75164699D01*
X75389934Y-75164699D01*
X75184000Y-75144417D01*
X74978067Y-75164699D01*
X74780043Y-75224769D01*
X74692114Y-75271769D01*
X74597550Y-75322315D01*
X74597548Y-75322316D01*
X74597547Y-75322317D01*
X74437589Y-75453589D01*
X74306317Y-75613547D01*
X74208769Y-75796043D01*
X74148699Y-75994067D01*
X74128417Y-76200000D01*
X73694500Y-76200000D01*
X73694500Y-75330249D01*
X73694499Y-75330247D01*
X73682868Y-75271770D01*
X73682867Y-75271769D01*
X73638552Y-75205447D01*
X73572230Y-75161132D01*
X73572229Y-75161131D01*
X73513752Y-75149500D01*
X73513748Y-75149500D01*
X71774252Y-75149500D01*
X71774247Y-75149500D01*
X71715770Y-75161131D01*
X71715769Y-75161132D01*
X71649447Y-75205447D01*
X71605132Y-75271769D01*
X71605131Y-75271770D01*
X71593500Y-75330247D01*
X69408010Y-75330247D01*
X69362073Y-75284310D01*
X69209199Y-75173240D01*
X69185434Y-75161131D01*
X69040836Y-75087454D01*
X68861118Y-75029059D01*
X68674486Y-74999500D01*
X68674481Y-74999500D01*
X65945519Y-74999500D01*
X65945514Y-74999500D01*
X65758881Y-75029059D01*
X65579163Y-75087454D01*
X65483919Y-75135985D01*
X65427624Y-75149500D01*
X65170247Y-75149500D01*
X65111770Y-75161131D01*
X65111769Y-75161132D01*
X65045447Y-75205447D01*
X65001132Y-75271769D01*
X65001131Y-75271770D01*
X64989500Y-75330247D01*
X64989500Y-75587623D01*
X64975985Y-75643918D01*
X64927454Y-75739163D01*
X64869059Y-75918881D01*
X64839500Y-76105513D01*
X44779300Y-76105513D01*
X44779300Y-67037625D01*
X44798985Y-66970586D01*
X44851789Y-66924831D01*
X44920947Y-66914887D01*
X44984503Y-66943912D01*
X44990981Y-66949944D01*
X44996727Y-66955690D01*
X45149601Y-67066760D01*
X45229147Y-67107290D01*
X45317963Y-67152545D01*
X45317965Y-67152545D01*
X45317968Y-67152547D01*
X45414297Y-67183846D01*
X45497681Y-67210940D01*
X45684314Y-67240500D01*
X55348090Y-67240500D01*
X55415129Y-67260185D01*
X55460884Y-67312989D01*
X55470828Y-67382147D01*
X55441803Y-67445703D01*
X55404385Y-67474985D01*
X55250800Y-67553240D01*
X55179879Y-67604768D01*
X55097927Y-67664310D01*
X55097925Y-67664312D01*
X55097924Y-67664312D01*
X54964312Y-67797924D01*
X54964312Y-67797925D01*
X54964310Y-67797927D01*
X54938400Y-67833589D01*
X54853240Y-67950800D01*
X54767454Y-68119163D01*
X54709059Y-68298881D01*
X54679500Y-68485513D01*
X54679500Y-68674486D01*
X54709059Y-68861118D01*
X54767454Y-69040836D01*
X54831458Y-69166450D01*
X54853240Y-69209199D01*
X54964310Y-69362073D01*
X55097927Y-69495690D01*
X55250801Y-69606760D01*
X55297392Y-69630499D01*
X55404385Y-69685015D01*
X55455181Y-69732990D01*
X55471976Y-69800811D01*
X55449439Y-69866946D01*
X55394723Y-69910397D01*
X55348090Y-69919500D01*
X50705514Y-69919500D01*
X50518881Y-69949059D01*
X50339163Y-70007454D01*
X50170800Y-70093240D01*
X50083579Y-70156610D01*
X50017927Y-70204310D01*
X50017925Y-70204312D01*
X50017924Y-70204312D01*
X49884312Y-70337924D01*
X49884312Y-70337925D01*
X49884310Y-70337927D01*
X49836610Y-70403579D01*
X49773240Y-70490800D01*
X49687454Y-70659163D01*
X49629059Y-70838881D01*
X49599500Y-71025513D01*
X49599500Y-71214486D01*
X49629059Y-71401118D01*
X49687454Y-71580836D01*
X49773240Y-71749199D01*
X49884310Y-71902073D01*
X50017927Y-72035690D01*
X50170801Y-72146760D01*
X50250347Y-72187290D01*
X50339163Y-72232545D01*
X50339165Y-72232545D01*
X50339168Y-72232547D01*
X50435497Y-72263846D01*
X50518881Y-72290940D01*
X50705514Y-72320500D01*
X50705519Y-72320500D01*
X66134486Y-72320500D01*
X66321118Y-72290940D01*
X66500832Y-72232547D01*
X66669199Y-72146760D01*
X66822073Y-72035690D01*
X66955690Y-71902073D01*
X67066760Y-71749199D01*
X67152547Y-71580832D01*
X67210940Y-71401118D01*
X67240500Y-71214486D01*
X67240500Y-71025513D01*
X67210940Y-70838881D01*
X67152545Y-70659163D01*
X67066759Y-70490800D01*
X66955690Y-70337927D01*
X66822073Y-70204310D01*
X66669199Y-70093240D01*
X66515615Y-70014985D01*
X66464819Y-69967010D01*
X66448024Y-69899189D01*
X66470561Y-69833054D01*
X66525277Y-69789603D01*
X66571910Y-69780500D01*
X80748090Y-69780500D01*
X80815129Y-69800185D01*
X80860884Y-69852989D01*
X80870828Y-69922147D01*
X80841803Y-69985703D01*
X80804385Y-70014985D01*
X80650800Y-70093240D01*
X80563579Y-70156610D01*
X80497927Y-70204310D01*
X80497925Y-70204312D01*
X80497924Y-70204312D01*
X80364312Y-70337924D01*
X80364312Y-70337925D01*
X80364310Y-70337927D01*
X80316610Y-70403579D01*
X80253240Y-70490800D01*
X80167454Y-70659163D01*
X80109059Y-70838881D01*
X80079500Y-71025513D01*
X80079500Y-71214486D01*
X80109059Y-71401118D01*
X80167454Y-71580836D01*
X80253240Y-71749199D01*
X80364310Y-71902073D01*
X80497927Y-72035690D01*
X80650801Y-72146760D01*
X80730347Y-72187290D01*
X80819163Y-72232545D01*
X80819165Y-72232545D01*
X80819168Y-72232547D01*
X80915497Y-72263846D01*
X80998881Y-72290940D01*
X81185514Y-72320500D01*
X85828090Y-72320500D01*
X85895129Y-72340185D01*
X85940884Y-72392989D01*
X85950828Y-72462147D01*
X85921803Y-72525703D01*
X85884385Y-72554985D01*
X85730800Y-72633240D01*
X85643579Y-72696610D01*
X85577927Y-72744310D01*
X85577925Y-72744312D01*
X85577924Y-72744312D01*
X85444312Y-72877924D01*
X85444312Y-72877925D01*
X85444310Y-72877927D01*
X85396610Y-72943579D01*
X85333240Y-73030800D01*
X85247454Y-73199163D01*
X85189059Y-73378881D01*
X85159500Y-73565513D01*
X85159500Y-73754486D01*
X85189059Y-73941118D01*
X85247454Y-74120836D01*
X85333240Y-74289199D01*
X85444310Y-74442073D01*
X85577927Y-74575690D01*
X85730801Y-74686760D01*
X85810347Y-74727290D01*
X85899163Y-74772545D01*
X85899165Y-74772545D01*
X85899168Y-74772547D01*
X85995497Y-74803846D01*
X86078881Y-74830940D01*
X86265514Y-74860500D01*
X86265519Y-74860500D01*
X104234486Y-74860500D01*
X104421118Y-74830940D01*
X104600832Y-74772547D01*
X104769199Y-74686760D01*
X104922073Y-74575690D01*
X105055690Y-74442073D01*
X105166760Y-74289199D01*
X105252547Y-74120832D01*
X105310940Y-73941118D01*
X105340500Y-73754486D01*
X105340500Y-73565513D01*
X105310940Y-73378881D01*
X105252545Y-73199163D01*
X105166759Y-73030800D01*
X105055690Y-72877927D01*
X104922073Y-72744310D01*
X104769199Y-72633240D01*
X104615615Y-72554985D01*
X104564819Y-72507010D01*
X104548024Y-72439189D01*
X104570561Y-72373054D01*
X104625277Y-72329603D01*
X104671910Y-72320500D01*
X111854486Y-72320500D01*
X112041118Y-72290940D01*
X112220832Y-72232547D01*
X112389199Y-72146760D01*
X112542073Y-72035690D01*
X112675690Y-71902073D01*
X112786760Y-71749199D01*
X112872547Y-71580832D01*
X112930940Y-71401118D01*
X112959326Y-71221895D01*
X112960500Y-71214484D01*
X112960682Y-71212174D01*
X112960997Y-71211346D01*
X112961263Y-71209669D01*
X112961615Y-71209724D01*
X112985561Y-71146884D01*
X113021628Y-71120280D01*
X113003097Y-71111817D01*
X112965323Y-71053039D01*
X112960682Y-71027827D01*
X112960500Y-71025514D01*
X112930940Y-70838881D01*
X112872545Y-70659163D01*
X112786759Y-70490800D01*
X112675690Y-70337927D01*
X112542073Y-70204310D01*
X112389199Y-70093240D01*
X112220836Y-70007454D01*
X112041118Y-69949059D01*
X111854486Y-69919500D01*
X111854481Y-69919500D01*
X101694481Y-69919500D01*
X86891910Y-69919500D01*
X86824871Y-69899815D01*
X86779116Y-69847011D01*
X86769172Y-69777853D01*
X86798197Y-69714297D01*
X86835615Y-69685015D01*
X86870224Y-69667380D01*
X86989199Y-69606760D01*
X87142073Y-69495690D01*
X87275690Y-69362073D01*
X87386760Y-69209199D01*
X87472547Y-69040832D01*
X87530940Y-68861118D01*
X87542848Y-68785932D01*
X87560500Y-68674486D01*
X87560500Y-68485513D01*
X87530940Y-68298881D01*
X87472545Y-68119163D01*
X87427290Y-68030347D01*
X87386760Y-67950801D01*
X87275690Y-67797927D01*
X87188010Y-67710247D01*
X100549500Y-67710247D01*
X100549500Y-69449752D01*
X100561131Y-69508229D01*
X100561132Y-69508230D01*
X100605447Y-69574552D01*
X100671769Y-69618867D01*
X100671770Y-69618868D01*
X100730247Y-69630499D01*
X100730250Y-69630500D01*
X100730252Y-69630500D01*
X102469750Y-69630500D01*
X102469751Y-69630499D01*
X102484568Y-69627552D01*
X102528229Y-69618868D01*
X102528229Y-69618867D01*
X102528231Y-69618867D01*
X102594552Y-69574552D01*
X102638867Y-69508231D01*
X102638867Y-69508229D01*
X102638868Y-69508229D01*
X102650499Y-69449752D01*
X102650500Y-69449750D01*
X102650500Y-68580000D01*
X103084417Y-68580000D01*
X103104699Y-68785932D01*
X103134734Y-68884944D01*
X103164768Y-68983954D01*
X103262315Y-69166450D01*
X103262317Y-69166452D01*
X103393589Y-69326410D01*
X103437048Y-69362075D01*
X103553550Y-69457685D01*
X103736046Y-69555232D01*
X103934066Y-69615300D01*
X103934065Y-69615300D01*
X103952529Y-69617118D01*
X104140000Y-69635583D01*
X104345934Y-69615300D01*
X104543954Y-69555232D01*
X104726450Y-69457685D01*
X104886410Y-69326410D01*
X105017685Y-69166450D01*
X105115232Y-68983954D01*
X105175300Y-68785934D01*
X105195583Y-68580000D01*
X105624417Y-68580000D01*
X105644699Y-68785932D01*
X105674734Y-68884944D01*
X105704768Y-68983954D01*
X105802315Y-69166450D01*
X105802317Y-69166452D01*
X105933589Y-69326410D01*
X105977048Y-69362075D01*
X106093550Y-69457685D01*
X106276046Y-69555232D01*
X106474066Y-69615300D01*
X106474065Y-69615300D01*
X106492529Y-69617118D01*
X106680000Y-69635583D01*
X106885934Y-69615300D01*
X107083954Y-69555232D01*
X107266450Y-69457685D01*
X107426410Y-69326410D01*
X107557685Y-69166450D01*
X107655232Y-68983954D01*
X107715300Y-68785934D01*
X107735583Y-68580000D01*
X108164417Y-68580000D01*
X108184699Y-68785932D01*
X108214734Y-68884944D01*
X108244768Y-68983954D01*
X108342315Y-69166450D01*
X108342317Y-69166452D01*
X108473589Y-69326410D01*
X108517048Y-69362075D01*
X108633550Y-69457685D01*
X108816046Y-69555232D01*
X109014066Y-69615300D01*
X109014065Y-69615300D01*
X109032529Y-69617118D01*
X109220000Y-69635583D01*
X109425934Y-69615300D01*
X109623954Y-69555232D01*
X109806450Y-69457685D01*
X109966410Y-69326410D01*
X110097685Y-69166450D01*
X110195232Y-68983954D01*
X110255300Y-68785934D01*
X110275583Y-68580000D01*
X110255300Y-68374066D01*
X110195232Y-68176046D01*
X110097685Y-67993550D01*
X110045702Y-67930209D01*
X109966410Y-67833589D01*
X109816121Y-67710252D01*
X109806450Y-67702315D01*
X109623954Y-67604768D01*
X109425934Y-67544700D01*
X109425932Y-67544699D01*
X109425934Y-67544699D01*
X109220000Y-67524417D01*
X109014067Y-67544699D01*
X108816043Y-67604769D01*
X108728114Y-67651769D01*
X108633550Y-67702315D01*
X108633548Y-67702316D01*
X108633547Y-67702317D01*
X108473589Y-67833589D01*
X108342317Y-67993547D01*
X108244769Y-68176043D01*
X108184699Y-68374067D01*
X108164417Y-68580000D01*
X107735583Y-68580000D01*
X107715300Y-68374066D01*
X107655232Y-68176046D01*
X107557685Y-67993550D01*
X107505702Y-67930209D01*
X107426410Y-67833589D01*
X107276121Y-67710252D01*
X107266450Y-67702315D01*
X107083954Y-67604768D01*
X106885934Y-67544700D01*
X106885932Y-67544699D01*
X106885934Y-67544699D01*
X106680000Y-67524417D01*
X106474067Y-67544699D01*
X106276043Y-67604769D01*
X106188114Y-67651769D01*
X106093550Y-67702315D01*
X106093548Y-67702316D01*
X106093547Y-67702317D01*
X105933589Y-67833589D01*
X105802317Y-67993547D01*
X105704769Y-68176043D01*
X105644699Y-68374067D01*
X105624417Y-68580000D01*
X105195583Y-68580000D01*
X105175300Y-68374066D01*
X105115232Y-68176046D01*
X105017685Y-67993550D01*
X104965702Y-67930209D01*
X104886410Y-67833589D01*
X104736121Y-67710252D01*
X104726450Y-67702315D01*
X104543954Y-67604768D01*
X104345934Y-67544700D01*
X104345932Y-67544699D01*
X104345934Y-67544699D01*
X104140000Y-67524417D01*
X103934067Y-67544699D01*
X103736043Y-67604769D01*
X103648114Y-67651769D01*
X103553550Y-67702315D01*
X103553548Y-67702316D01*
X103553547Y-67702317D01*
X103393589Y-67833589D01*
X103262317Y-67993547D01*
X103164769Y-68176043D01*
X103104699Y-68374067D01*
X103084417Y-68580000D01*
X102650500Y-68580000D01*
X102650500Y-67710249D01*
X102650499Y-67710247D01*
X102638868Y-67651770D01*
X102638867Y-67651769D01*
X102594552Y-67585447D01*
X102528230Y-67541132D01*
X102528229Y-67541131D01*
X102469752Y-67529500D01*
X102469748Y-67529500D01*
X100730252Y-67529500D01*
X100730247Y-67529500D01*
X100671770Y-67541131D01*
X100671769Y-67541132D01*
X100605447Y-67585447D01*
X100561132Y-67651769D01*
X100561131Y-67651770D01*
X100549500Y-67710247D01*
X87188010Y-67710247D01*
X87142073Y-67664310D01*
X86989199Y-67553240D01*
X86965434Y-67541131D01*
X86835615Y-67474985D01*
X86784819Y-67427010D01*
X86768024Y-67359189D01*
X86790561Y-67293054D01*
X86845277Y-67249603D01*
X86891910Y-67240500D01*
X91534486Y-67240500D01*
X91721118Y-67210940D01*
X91900832Y-67152547D01*
X92069199Y-67066760D01*
X92222073Y-66955690D01*
X92355690Y-66822073D01*
X92466760Y-66669199D01*
X92552547Y-66500832D01*
X92610940Y-66321118D01*
X92640500Y-66134486D01*
X92640500Y-65945513D01*
X100399500Y-65945513D01*
X100399500Y-66134486D01*
X100429059Y-66321118D01*
X100487454Y-66500836D01*
X100573240Y-66669199D01*
X100684310Y-66822073D01*
X100817927Y-66955690D01*
X100970801Y-67066760D01*
X101050347Y-67107290D01*
X101139163Y-67152545D01*
X101139165Y-67152545D01*
X101139168Y-67152547D01*
X101235497Y-67183846D01*
X101318881Y-67210940D01*
X101505514Y-67240500D01*
X101505519Y-67240500D01*
X104234486Y-67240500D01*
X104421118Y-67210940D01*
X104600832Y-67152547D01*
X104769199Y-67066760D01*
X104922073Y-66955690D01*
X105055690Y-66822073D01*
X105166760Y-66669199D01*
X105252547Y-66500832D01*
X105310940Y-66321118D01*
X105340500Y-66134486D01*
X105340500Y-65945513D01*
X105310940Y-65758881D01*
X105252545Y-65579163D01*
X105166759Y-65410800D01*
X105055690Y-65257927D01*
X104922073Y-65124310D01*
X104769199Y-65013240D01*
X104600836Y-64927454D01*
X104421118Y-64869059D01*
X104234486Y-64839500D01*
X104234481Y-64839500D01*
X101505519Y-64839500D01*
X101505514Y-64839500D01*
X101318881Y-64869059D01*
X101139163Y-64927454D01*
X100970800Y-65013240D01*
X100883579Y-65076610D01*
X100817927Y-65124310D01*
X100817925Y-65124312D01*
X100817924Y-65124312D01*
X100684312Y-65257924D01*
X100684312Y-65257925D01*
X100684310Y-65257927D01*
X100636610Y-65323579D01*
X100573240Y-65410800D01*
X100487454Y-65579163D01*
X100429059Y-65758881D01*
X100399500Y-65945513D01*
X92640500Y-65945513D01*
X92610940Y-65758881D01*
X92552545Y-65579163D01*
X92466759Y-65410800D01*
X92355690Y-65257927D01*
X92222073Y-65124310D01*
X92069199Y-65013240D01*
X91900836Y-64927454D01*
X91721118Y-64869059D01*
X91534486Y-64839500D01*
X91534481Y-64839500D01*
X89431910Y-64839500D01*
X89364871Y-64819815D01*
X89319116Y-64767011D01*
X89309172Y-64697853D01*
X89338197Y-64634297D01*
X89375615Y-64605015D01*
X89410224Y-64587380D01*
X89529199Y-64526760D01*
X89682073Y-64415690D01*
X89815690Y-64282073D01*
X89926760Y-64129199D01*
X90012547Y-63960832D01*
X90070940Y-63781118D01*
X90075184Y-63754323D01*
X90100500Y-63594486D01*
X90100500Y-63500000D01*
X103234540Y-63500000D01*
X103254326Y-63688256D01*
X103254327Y-63688259D01*
X103312818Y-63868277D01*
X103312821Y-63868284D01*
X103407467Y-64032216D01*
X103494791Y-64129199D01*
X103534129Y-64172888D01*
X103687265Y-64284148D01*
X103687270Y-64284151D01*
X103860192Y-64361142D01*
X103860197Y-64361144D01*
X104045354Y-64400500D01*
X104045355Y-64400500D01*
X104234644Y-64400500D01*
X104234646Y-64400500D01*
X104419803Y-64361144D01*
X104592730Y-64284151D01*
X104745871Y-64172888D01*
X104872533Y-64032216D01*
X104967179Y-63868284D01*
X105025674Y-63688256D01*
X105045460Y-63500000D01*
X108314540Y-63500000D01*
X108334326Y-63688256D01*
X108334327Y-63688259D01*
X108392818Y-63868277D01*
X108392821Y-63868284D01*
X108487467Y-64032216D01*
X108574791Y-64129199D01*
X108614129Y-64172888D01*
X108767265Y-64284148D01*
X108767270Y-64284151D01*
X108940192Y-64361142D01*
X108940197Y-64361144D01*
X109125354Y-64400500D01*
X109125355Y-64400500D01*
X109314644Y-64400500D01*
X109314646Y-64400500D01*
X109499803Y-64361144D01*
X109672730Y-64284151D01*
X109825871Y-64172888D01*
X109952533Y-64032216D01*
X110047179Y-63868284D01*
X110105674Y-63688256D01*
X110125460Y-63500000D01*
X110105674Y-63311744D01*
X110047179Y-63131716D01*
X109952533Y-62967784D01*
X109825871Y-62827112D01*
X109825870Y-62827111D01*
X109672734Y-62715851D01*
X109672729Y-62715848D01*
X109499807Y-62638857D01*
X109499802Y-62638855D01*
X109354001Y-62607865D01*
X109314646Y-62599500D01*
X109125354Y-62599500D01*
X109092897Y-62606398D01*
X108940197Y-62638855D01*
X108940192Y-62638857D01*
X108767270Y-62715848D01*
X108767265Y-62715851D01*
X108614129Y-62827111D01*
X108487466Y-62967785D01*
X108392821Y-63131715D01*
X108392818Y-63131722D01*
X108334327Y-63311740D01*
X108334326Y-63311744D01*
X108314540Y-63500000D01*
X105045460Y-63500000D01*
X105025674Y-63311744D01*
X104967179Y-63131716D01*
X104872533Y-62967784D01*
X104745871Y-62827112D01*
X104745870Y-62827111D01*
X104592734Y-62715851D01*
X104592729Y-62715848D01*
X104419807Y-62638857D01*
X104419802Y-62638855D01*
X104274001Y-62607865D01*
X104234646Y-62599500D01*
X104045354Y-62599500D01*
X104012897Y-62606398D01*
X103860197Y-62638855D01*
X103860192Y-62638857D01*
X103687270Y-62715848D01*
X103687265Y-62715851D01*
X103534129Y-62827111D01*
X103407466Y-62967785D01*
X103312821Y-63131715D01*
X103312818Y-63131722D01*
X103254327Y-63311740D01*
X103254326Y-63311744D01*
X103234540Y-63500000D01*
X90100500Y-63500000D01*
X90100500Y-63405513D01*
X90070940Y-63218881D01*
X90012545Y-63039163D01*
X89926759Y-62870800D01*
X89815690Y-62717927D01*
X89682073Y-62584310D01*
X89529199Y-62473240D01*
X89422468Y-62418858D01*
X89375615Y-62394985D01*
X89324819Y-62347010D01*
X89308024Y-62279189D01*
X89330561Y-62213054D01*
X89385277Y-62169603D01*
X89431910Y-62160500D01*
X101694486Y-62160500D01*
X101881118Y-62130940D01*
X102060832Y-62072547D01*
X102229199Y-61986760D01*
X102382073Y-61875690D01*
X102515690Y-61742073D01*
X102626760Y-61589199D01*
X102712547Y-61420832D01*
X102770940Y-61241118D01*
X102779039Y-61189985D01*
X102800500Y-61054486D01*
X102800500Y-60960000D01*
X105774541Y-60960000D01*
X105794327Y-61148256D01*
X105794328Y-61148259D01*
X105852819Y-61328277D01*
X105852822Y-61328284D01*
X105947468Y-61492216D01*
X106034792Y-61589199D01*
X106074130Y-61632888D01*
X106227266Y-61744148D01*
X106227271Y-61744151D01*
X106400193Y-61821142D01*
X106400198Y-61821144D01*
X106585355Y-61860500D01*
X106585356Y-61860500D01*
X106774645Y-61860500D01*
X106774647Y-61860500D01*
X106959804Y-61821144D01*
X107132731Y-61744151D01*
X107285872Y-61632888D01*
X107412534Y-61492216D01*
X107507180Y-61328284D01*
X107565675Y-61148256D01*
X107585461Y-60960000D01*
X110854540Y-60960000D01*
X110874326Y-61148256D01*
X110874327Y-61148259D01*
X110932818Y-61328277D01*
X110932821Y-61328284D01*
X111027467Y-61492216D01*
X111114791Y-61589199D01*
X111154129Y-61632888D01*
X111307265Y-61744148D01*
X111307270Y-61744151D01*
X111480192Y-61821142D01*
X111480197Y-61821144D01*
X111665354Y-61860500D01*
X111665355Y-61860500D01*
X111854644Y-61860500D01*
X111854646Y-61860500D01*
X112039803Y-61821144D01*
X112212730Y-61744151D01*
X112365871Y-61632888D01*
X112492533Y-61492216D01*
X112587179Y-61328284D01*
X112645674Y-61148256D01*
X112665460Y-60960000D01*
X112645674Y-60771744D01*
X112587179Y-60591716D01*
X112492533Y-60427784D01*
X112365871Y-60287112D01*
X112301027Y-60240000D01*
X112212734Y-60175851D01*
X112212729Y-60175848D01*
X112039807Y-60098857D01*
X112039802Y-60098855D01*
X111894001Y-60067865D01*
X111854646Y-60059500D01*
X111665354Y-60059500D01*
X111632897Y-60066398D01*
X111480197Y-60098855D01*
X111480192Y-60098857D01*
X111307270Y-60175848D01*
X111307265Y-60175851D01*
X111154129Y-60287111D01*
X111027466Y-60427785D01*
X110932821Y-60591715D01*
X110932818Y-60591722D01*
X110874327Y-60771740D01*
X110874326Y-60771744D01*
X110854540Y-60960000D01*
X107585461Y-60960000D01*
X107565675Y-60771744D01*
X107507180Y-60591716D01*
X107412534Y-60427784D01*
X107285872Y-60287112D01*
X107221028Y-60240000D01*
X107132735Y-60175851D01*
X107132730Y-60175848D01*
X106959808Y-60098857D01*
X106959803Y-60098855D01*
X106814002Y-60067865D01*
X106774647Y-60059500D01*
X106585355Y-60059500D01*
X106552898Y-60066398D01*
X106400198Y-60098855D01*
X106400193Y-60098857D01*
X106227271Y-60175848D01*
X106227266Y-60175851D01*
X106074130Y-60287111D01*
X105947467Y-60427785D01*
X105852822Y-60591715D01*
X105852819Y-60591722D01*
X105794328Y-60771740D01*
X105794327Y-60771744D01*
X105774541Y-60960000D01*
X102800500Y-60960000D01*
X102800500Y-60865513D01*
X102770940Y-60678881D01*
X102733425Y-60563423D01*
X102712547Y-60499168D01*
X102712545Y-60499165D01*
X102712545Y-60499163D01*
X102626759Y-60330800D01*
X102515690Y-60177927D01*
X102382073Y-60044310D01*
X102229199Y-59933240D01*
X102196474Y-59916566D01*
X102075615Y-59854985D01*
X102024819Y-59807010D01*
X102008024Y-59739189D01*
X102030561Y-59673054D01*
X102085277Y-59629603D01*
X102131910Y-59620500D01*
X106774486Y-59620500D01*
X106961118Y-59590940D01*
X107140832Y-59532547D01*
X107309199Y-59446760D01*
X107462073Y-59335690D01*
X107595690Y-59202073D01*
X107706760Y-59049199D01*
X107792547Y-58880832D01*
X107850940Y-58701118D01*
X107870073Y-58580316D01*
X107880500Y-58514486D01*
X107880500Y-58325513D01*
X107850940Y-58138881D01*
X107792545Y-57959163D01*
X107706759Y-57790800D01*
X107703062Y-57785711D01*
X107595690Y-57637927D01*
X107462073Y-57504310D01*
X107309199Y-57393240D01*
X107155615Y-57314985D01*
X107104819Y-57267010D01*
X107088024Y-57199189D01*
X107110561Y-57133054D01*
X107165277Y-57089603D01*
X107211910Y-57080500D01*
X109314486Y-57080500D01*
X109501118Y-57050940D01*
X109680832Y-56992547D01*
X109849199Y-56906760D01*
X110002073Y-56795690D01*
X110135690Y-56662073D01*
X110246760Y-56509199D01*
X110332547Y-56340832D01*
X110390940Y-56161118D01*
X110395184Y-56134325D01*
X110420500Y-55974486D01*
X110420500Y-55785513D01*
X110390940Y-55598881D01*
X110332545Y-55419163D01*
X110246759Y-55250800D01*
X110135690Y-55097927D01*
X110002073Y-54964310D01*
X109849199Y-54853240D01*
X109825434Y-54841131D01*
X109680836Y-54767454D01*
X109501118Y-54709059D01*
X109314486Y-54679500D01*
X109314481Y-54679500D01*
X106585518Y-54679500D01*
X106585513Y-54679500D01*
X106398880Y-54709059D01*
X106219162Y-54767454D01*
X106050799Y-54853240D01*
X105963578Y-54916610D01*
X105897926Y-54964310D01*
X105897924Y-54964312D01*
X105897923Y-54964312D01*
X105764311Y-55097924D01*
X105764311Y-55097925D01*
X105764309Y-55097927D01*
X105716609Y-55163579D01*
X105653239Y-55250800D01*
X105567454Y-55419162D01*
X105527930Y-55540802D01*
X105488491Y-55598477D01*
X105424132Y-55625674D01*
X105355286Y-55613759D01*
X105303811Y-55566514D01*
X105292068Y-55540802D01*
X105252547Y-55419168D01*
X105252545Y-55419165D01*
X105252545Y-55419163D01*
X105166759Y-55250800D01*
X105055690Y-55097927D01*
X104922073Y-54964310D01*
X104769199Y-54853240D01*
X104745434Y-54841131D01*
X104600836Y-54767454D01*
X104421118Y-54709059D01*
X104234486Y-54679500D01*
X104234481Y-54679500D01*
X101505519Y-54679500D01*
X101505514Y-54679500D01*
X101318881Y-54709059D01*
X101139163Y-54767454D01*
X101043919Y-54815985D01*
X100987624Y-54829500D01*
X100730247Y-54829500D01*
X100671770Y-54841131D01*
X100671769Y-54841132D01*
X100605447Y-54885447D01*
X100561132Y-54951769D01*
X100561131Y-54951770D01*
X100549500Y-55010247D01*
X100549500Y-55267623D01*
X100535985Y-55323918D01*
X100487454Y-55419163D01*
X100429059Y-55598881D01*
X100399500Y-55785513D01*
X100399500Y-55974486D01*
X100429059Y-56161118D01*
X100487454Y-56340836D01*
X100535985Y-56436081D01*
X100549500Y-56492376D01*
X100549500Y-56749752D01*
X100561131Y-56808229D01*
X100561132Y-56808230D01*
X100605447Y-56874552D01*
X100671769Y-56918867D01*
X100671770Y-56918868D01*
X100730247Y-56930499D01*
X100730250Y-56930500D01*
X100730252Y-56930500D01*
X100987624Y-56930500D01*
X101043919Y-56944015D01*
X101124385Y-56985015D01*
X101175181Y-57032990D01*
X101191976Y-57100811D01*
X101169438Y-57166946D01*
X101114723Y-57210397D01*
X101068090Y-57219500D01*
X91971910Y-57219500D01*
X91904871Y-57199815D01*
X91859116Y-57147011D01*
X91849172Y-57077853D01*
X91878197Y-57014297D01*
X91915615Y-56985015D01*
X91950224Y-56967380D01*
X92069199Y-56906760D01*
X92222073Y-56795690D01*
X92355690Y-56662073D01*
X92466760Y-56509199D01*
X92552547Y-56340832D01*
X92610940Y-56161118D01*
X92615184Y-56134325D01*
X92640500Y-55974486D01*
X92640500Y-55785513D01*
X92610940Y-55598881D01*
X92552545Y-55419163D01*
X92466759Y-55250800D01*
X92355690Y-55097927D01*
X92222073Y-54964310D01*
X92069199Y-54853240D01*
X92045434Y-54841131D01*
X91915615Y-54774985D01*
X91864819Y-54727010D01*
X91848024Y-54659189D01*
X91870561Y-54593054D01*
X91925277Y-54549603D01*
X91971910Y-54540500D01*
X99154486Y-54540500D01*
X99341118Y-54510940D01*
X99520832Y-54452547D01*
X99689199Y-54366760D01*
X99842073Y-54255690D01*
X99975690Y-54122073D01*
X100086760Y-53969199D01*
X100172547Y-53800832D01*
X100230940Y-53621118D01*
X100230940Y-53621117D01*
X100260500Y-53434486D01*
X100260500Y-53245513D01*
X100230940Y-53058881D01*
X100172545Y-52879163D01*
X100086759Y-52710800D01*
X99975690Y-52557927D01*
X99842073Y-52424310D01*
X99689199Y-52313240D01*
X99689197Y-52313239D01*
X99520836Y-52227454D01*
X99341118Y-52169059D01*
X99154486Y-52139500D01*
X99154481Y-52139500D01*
X73759615Y-52139500D01*
X73759591Y-52139499D01*
X73754480Y-52139499D01*
X73565518Y-52139499D01*
X73565513Y-52139499D01*
X73378880Y-52169058D01*
X73199162Y-52227453D01*
X73030799Y-52313239D01*
X72877922Y-52424311D01*
X72744311Y-52557922D01*
X72633239Y-52710799D01*
X72547453Y-52879162D01*
X72489058Y-53058880D01*
X72459499Y-53245512D01*
X72459499Y-53434485D01*
X72489058Y-53621117D01*
X72547453Y-53800835D01*
X72633239Y-53969198D01*
X72744309Y-54122073D01*
X72877926Y-54255690D01*
X73030801Y-54366760D01*
X73127207Y-54415881D01*
X73184385Y-54445015D01*
X73235181Y-54492990D01*
X73251976Y-54560811D01*
X73229439Y-54626946D01*
X73174723Y-54670397D01*
X73128090Y-54679500D01*
X71025514Y-54679500D01*
X70838881Y-54709059D01*
X70659163Y-54767454D01*
X70490800Y-54853240D01*
X70403579Y-54916610D01*
X70337927Y-54964310D01*
X70337925Y-54964312D01*
X70337924Y-54964312D01*
X70204312Y-55097924D01*
X70204312Y-55097925D01*
X70204310Y-55097927D01*
X70156610Y-55163579D01*
X70093240Y-55250800D01*
X70007454Y-55419163D01*
X69949059Y-55598881D01*
X69919500Y-55785513D01*
X69919500Y-55974486D01*
X69949059Y-56161118D01*
X70007454Y-56340836D01*
X70084668Y-56492376D01*
X70093240Y-56509199D01*
X70204310Y-56662073D01*
X70337927Y-56795690D01*
X70490801Y-56906760D01*
X70537392Y-56930499D01*
X70659163Y-56992545D01*
X70659165Y-56992545D01*
X70659168Y-56992547D01*
X70755497Y-57023846D01*
X70838881Y-57050940D01*
X71025514Y-57080500D01*
X78208090Y-57080500D01*
X78275129Y-57100185D01*
X78320884Y-57152989D01*
X78330828Y-57222147D01*
X78301803Y-57285703D01*
X78264385Y-57314985D01*
X78110800Y-57393240D01*
X78023579Y-57456610D01*
X77957927Y-57504310D01*
X77957925Y-57504312D01*
X77957924Y-57504312D01*
X77824312Y-57637924D01*
X77824312Y-57637925D01*
X77824310Y-57637927D01*
X77776610Y-57703579D01*
X77713240Y-57790800D01*
X77627454Y-57959163D01*
X77569059Y-58138881D01*
X77539500Y-58325513D01*
X77539500Y-58514486D01*
X77569059Y-58701118D01*
X77627454Y-58880836D01*
X77686535Y-58996787D01*
X77713240Y-59049199D01*
X77824310Y-59202073D01*
X77957927Y-59335690D01*
X78110801Y-59446760D01*
X78190347Y-59487290D01*
X78279163Y-59532545D01*
X78279165Y-59532545D01*
X78279168Y-59532547D01*
X78375497Y-59563846D01*
X78458881Y-59590940D01*
X78645514Y-59620500D01*
X85828091Y-59620500D01*
X85895130Y-59640185D01*
X85940885Y-59692989D01*
X85950829Y-59762147D01*
X85921804Y-59825703D01*
X85884386Y-59854985D01*
X85730801Y-59933240D01*
X85643580Y-59996610D01*
X85577928Y-60044310D01*
X85577926Y-60044312D01*
X85577925Y-60044312D01*
X85444313Y-60177924D01*
X85444313Y-60177925D01*
X85444311Y-60177927D01*
X85396611Y-60243579D01*
X85333241Y-60330800D01*
X85247455Y-60499163D01*
X85189060Y-60678881D01*
X85159501Y-60865513D01*
X85159501Y-61054486D01*
X85189060Y-61241118D01*
X85247455Y-61420836D01*
X85333241Y-61589199D01*
X85444311Y-61742073D01*
X85577928Y-61875690D01*
X85730802Y-61986760D01*
X85769617Y-62006537D01*
X85884386Y-62065015D01*
X85935182Y-62112990D01*
X85951977Y-62180811D01*
X85929440Y-62246946D01*
X85874724Y-62290397D01*
X85828091Y-62299500D01*
X83725514Y-62299500D01*
X83538881Y-62329059D01*
X83359163Y-62387454D01*
X83190800Y-62473240D01*
X83103579Y-62536610D01*
X83037927Y-62584310D01*
X83037925Y-62584312D01*
X83037924Y-62584312D01*
X82904312Y-62717924D01*
X82904312Y-62717925D01*
X82904310Y-62717927D01*
X82862930Y-62774882D01*
X82793240Y-62870800D01*
X82707454Y-63039163D01*
X82667931Y-63160803D01*
X82628493Y-63218478D01*
X82564134Y-63245676D01*
X82495288Y-63233761D01*
X82443812Y-63186516D01*
X82432069Y-63160803D01*
X82392545Y-63039163D01*
X82306759Y-62870800D01*
X82195690Y-62717927D01*
X82062073Y-62584310D01*
X81909199Y-62473240D01*
X81740836Y-62387454D01*
X81561118Y-62329059D01*
X81374486Y-62299500D01*
X81374481Y-62299500D01*
X63405519Y-62299500D01*
X63405514Y-62299500D01*
X63218881Y-62329059D01*
X63039163Y-62387454D01*
X62870800Y-62473240D01*
X62783579Y-62536610D01*
X62717927Y-62584310D01*
X62717925Y-62584312D01*
X62717924Y-62584312D01*
X62584312Y-62717924D01*
X62584312Y-62717925D01*
X62584310Y-62717927D01*
X62542930Y-62774882D01*
X62473240Y-62870800D01*
X62387454Y-63039163D01*
X62329059Y-63218881D01*
X62299500Y-63405513D01*
X62299500Y-63594486D01*
X62329059Y-63781118D01*
X62387454Y-63960836D01*
X62473240Y-64129199D01*
X62584310Y-64282073D01*
X62717927Y-64415690D01*
X62870801Y-64526760D01*
X62967207Y-64575881D01*
X63024385Y-64605015D01*
X63075181Y-64652990D01*
X63091976Y-64720811D01*
X63069439Y-64786946D01*
X63014723Y-64830397D01*
X62968090Y-64839500D01*
X45684314Y-64839500D01*
X45497681Y-64869059D01*
X45317963Y-64927454D01*
X45149600Y-65013240D01*
X45062379Y-65076610D01*
X44996727Y-65124310D01*
X44996725Y-65124312D01*
X44996724Y-65124312D01*
X44990981Y-65130056D01*
X44929658Y-65163541D01*
X44859966Y-65158557D01*
X44804033Y-65116685D01*
X44779616Y-65051221D01*
X44779300Y-65042375D01*
X44779300Y-60239994D01*
X57693408Y-60239994D01*
X57693408Y-60240005D01*
X57713755Y-60563423D01*
X57713756Y-60563430D01*
X57713757Y-60563434D01*
X57771381Y-60865513D01*
X57774483Y-60881771D01*
X57874626Y-61189980D01*
X57874628Y-61189985D01*
X58012608Y-61483206D01*
X58012611Y-61483212D01*
X58186253Y-61756829D01*
X58186256Y-61756833D01*
X58186257Y-61756834D01*
X58392829Y-62006537D01*
X58629067Y-62228378D01*
X58629077Y-62228387D01*
X58891238Y-62418858D01*
X58891244Y-62418861D01*
X58891250Y-62418866D01*
X59175237Y-62574989D01*
X59476553Y-62694289D01*
X59790445Y-62774883D01*
X59857894Y-62783403D01*
X60111951Y-62815499D01*
X60111960Y-62815499D01*
X60111963Y-62815500D01*
X60111965Y-62815500D01*
X60436035Y-62815500D01*
X60436037Y-62815500D01*
X60436040Y-62815499D01*
X60436048Y-62815499D01*
X60627899Y-62791262D01*
X60757555Y-62774883D01*
X61071447Y-62694289D01*
X61372763Y-62574989D01*
X61656750Y-62418866D01*
X61821043Y-62299500D01*
X61918922Y-62228387D01*
X61918924Y-62228384D01*
X61918931Y-62228380D01*
X62155171Y-62006537D01*
X62361743Y-61756834D01*
X62535390Y-61483210D01*
X62673374Y-61189979D01*
X62773518Y-60881767D01*
X62834243Y-60563434D01*
X62835474Y-60543870D01*
X62854592Y-60240005D01*
X62854592Y-60239994D01*
X62834244Y-59916576D01*
X62834243Y-59916569D01*
X62834243Y-59916566D01*
X62773518Y-59598233D01*
X62673374Y-59290021D01*
X62535390Y-58996790D01*
X62505451Y-58949614D01*
X62361746Y-58723170D01*
X62343503Y-58701118D01*
X62155171Y-58473463D01*
X61918931Y-58251620D01*
X61918930Y-58251619D01*
X61918922Y-58251612D01*
X61656761Y-58061141D01*
X61656743Y-58061130D01*
X61372762Y-57905010D01*
X61372759Y-57905009D01*
X61071448Y-57785711D01*
X60914501Y-57745414D01*
X60757555Y-57705117D01*
X60757552Y-57705116D01*
X60757545Y-57705115D01*
X60436048Y-57664500D01*
X60436037Y-57664500D01*
X60111963Y-57664500D01*
X60111951Y-57664500D01*
X59790454Y-57705115D01*
X59790445Y-57705117D01*
X59476551Y-57785711D01*
X59175240Y-57905009D01*
X59175237Y-57905010D01*
X58891256Y-58061130D01*
X58891238Y-58061141D01*
X58629077Y-58251612D01*
X58629067Y-58251621D01*
X58392831Y-58473461D01*
X58186253Y-58723170D01*
X58012611Y-58996787D01*
X58012608Y-58996793D01*
X57874628Y-59290014D01*
X57874626Y-59290019D01*
X57774483Y-59598228D01*
X57713756Y-59916569D01*
X57713755Y-59916576D01*
X57693408Y-60239994D01*
X44779300Y-60239994D01*
X44779300Y-53245513D01*
X64839500Y-53245513D01*
X64839500Y-53434486D01*
X64869059Y-53621118D01*
X64927454Y-53800836D01*
X65013239Y-53969198D01*
X65013240Y-53969199D01*
X65124310Y-54122073D01*
X65257927Y-54255690D01*
X65410801Y-54366760D01*
X65490347Y-54407290D01*
X65579163Y-54452545D01*
X65579165Y-54452545D01*
X65579168Y-54452547D01*
X65675497Y-54483846D01*
X65758881Y-54510940D01*
X65945514Y-54540500D01*
X65945519Y-54540500D01*
X68674486Y-54540500D01*
X68861118Y-54510940D01*
X69040832Y-54452547D01*
X69209199Y-54366760D01*
X69362073Y-54255690D01*
X69495690Y-54122073D01*
X69606760Y-53969199D01*
X69692547Y-53800832D01*
X69750940Y-53621118D01*
X69750940Y-53621117D01*
X69780500Y-53434486D01*
X69780500Y-53245513D01*
X69750940Y-53058881D01*
X69692545Y-52879163D01*
X69606759Y-52710800D01*
X69495690Y-52557927D01*
X69362073Y-52424310D01*
X69209199Y-52313240D01*
X69209197Y-52313239D01*
X69040836Y-52227454D01*
X68861118Y-52169059D01*
X68674486Y-52139500D01*
X68674481Y-52139500D01*
X65945519Y-52139500D01*
X65945514Y-52139500D01*
X65758881Y-52169059D01*
X65579163Y-52227454D01*
X65410800Y-52313240D01*
X65323579Y-52376610D01*
X65257927Y-52424310D01*
X65257925Y-52424312D01*
X65257924Y-52424312D01*
X65124312Y-52557924D01*
X65124312Y-52557925D01*
X65124310Y-52557927D01*
X65076610Y-52623579D01*
X65013240Y-52710800D01*
X64927454Y-52879163D01*
X64869059Y-53058881D01*
X64839500Y-53245513D01*
X44779300Y-53245513D01*
X44779300Y-49435513D01*
X47059501Y-49435513D01*
X47059501Y-49624486D01*
X47089060Y-49811118D01*
X47147455Y-49990836D01*
X47195986Y-50086081D01*
X47209501Y-50142376D01*
X47209501Y-50399752D01*
X47221132Y-50458229D01*
X47221133Y-50458230D01*
X47265448Y-50524552D01*
X47331770Y-50568867D01*
X47331771Y-50568868D01*
X47390248Y-50580499D01*
X47390251Y-50580500D01*
X47390253Y-50580500D01*
X47647625Y-50580500D01*
X47703920Y-50594015D01*
X47799164Y-50642545D01*
X47799166Y-50642545D01*
X47799169Y-50642547D01*
X47895498Y-50673846D01*
X47978882Y-50700940D01*
X48165515Y-50730500D01*
X48165520Y-50730500D01*
X50894487Y-50730500D01*
X51081119Y-50700940D01*
X51260833Y-50642547D01*
X51429200Y-50556760D01*
X51582074Y-50445690D01*
X51715691Y-50312073D01*
X51826761Y-50159199D01*
X51912548Y-49990832D01*
X51952069Y-49869198D01*
X51991507Y-49811523D01*
X52055865Y-49784325D01*
X52124712Y-49796240D01*
X52176187Y-49843484D01*
X52187931Y-49869198D01*
X52227454Y-49990836D01*
X52304668Y-50142376D01*
X52313240Y-50159199D01*
X52424310Y-50312073D01*
X52557927Y-50445690D01*
X52710801Y-50556760D01*
X52757392Y-50580499D01*
X52879163Y-50642545D01*
X52879165Y-50642545D01*
X52879168Y-50642547D01*
X52975497Y-50673846D01*
X53058881Y-50700940D01*
X53245514Y-50730500D01*
X53245519Y-50730500D01*
X55974487Y-50730500D01*
X56161119Y-50700940D01*
X56340833Y-50642547D01*
X56509200Y-50556760D01*
X56662074Y-50445690D01*
X56795691Y-50312073D01*
X56906761Y-50159199D01*
X56992548Y-49990832D01*
X56995987Y-49980247D01*
X67579500Y-49980247D01*
X67579500Y-51619752D01*
X67591131Y-51678229D01*
X67591132Y-51678230D01*
X67635447Y-51744552D01*
X67701769Y-51788867D01*
X67701770Y-51788868D01*
X67760247Y-51800499D01*
X67760250Y-51800500D01*
X67760252Y-51800500D01*
X69399750Y-51800500D01*
X69399751Y-51800499D01*
X69414568Y-51797552D01*
X69458229Y-51788868D01*
X69458229Y-51788867D01*
X69458231Y-51788867D01*
X69524552Y-51744552D01*
X69568867Y-51678231D01*
X69568867Y-51678229D01*
X69568868Y-51678229D01*
X69580499Y-51619752D01*
X69580500Y-51619750D01*
X69580500Y-50800000D01*
X70114659Y-50800000D01*
X70133975Y-50996129D01*
X70191188Y-51184733D01*
X70284086Y-51358532D01*
X70284090Y-51358539D01*
X70409116Y-51510883D01*
X70561460Y-51635909D01*
X70561467Y-51635913D01*
X70735266Y-51728811D01*
X70735269Y-51728811D01*
X70735273Y-51728814D01*
X70923868Y-51786024D01*
X71120000Y-51805341D01*
X71316132Y-51786024D01*
X71504727Y-51728814D01*
X71678538Y-51635910D01*
X71830883Y-51510883D01*
X71955910Y-51358538D01*
X72048814Y-51184727D01*
X72106024Y-50996132D01*
X72125341Y-50800000D01*
X72654658Y-50800000D01*
X72673974Y-50996129D01*
X72731187Y-51184733D01*
X72824085Y-51358532D01*
X72824089Y-51358539D01*
X72949115Y-51510883D01*
X73101459Y-51635909D01*
X73101466Y-51635913D01*
X73275265Y-51728811D01*
X73275268Y-51728811D01*
X73275272Y-51728814D01*
X73463867Y-51786024D01*
X73659999Y-51805341D01*
X73856131Y-51786024D01*
X74044726Y-51728814D01*
X74218537Y-51635910D01*
X74370882Y-51510883D01*
X74495909Y-51358538D01*
X74588813Y-51184727D01*
X74646023Y-50996132D01*
X74665340Y-50800000D01*
X75194659Y-50800000D01*
X75213975Y-50996129D01*
X75271188Y-51184733D01*
X75364086Y-51358532D01*
X75364090Y-51358539D01*
X75489116Y-51510883D01*
X75641460Y-51635909D01*
X75641467Y-51635913D01*
X75815266Y-51728811D01*
X75815269Y-51728811D01*
X75815273Y-51728814D01*
X76003868Y-51786024D01*
X76200000Y-51805341D01*
X76396132Y-51786024D01*
X76584727Y-51728814D01*
X76758538Y-51635910D01*
X76910883Y-51510883D01*
X77035910Y-51358538D01*
X77128814Y-51184727D01*
X77186024Y-50996132D01*
X77205341Y-50800000D01*
X77734659Y-50800000D01*
X77753975Y-50996129D01*
X77811188Y-51184733D01*
X77904086Y-51358532D01*
X77904090Y-51358539D01*
X78029116Y-51510883D01*
X78181460Y-51635909D01*
X78181467Y-51635913D01*
X78355266Y-51728811D01*
X78355269Y-51728811D01*
X78355273Y-51728814D01*
X78543868Y-51786024D01*
X78740000Y-51805341D01*
X78936132Y-51786024D01*
X79124727Y-51728814D01*
X79298538Y-51635910D01*
X79450883Y-51510883D01*
X79575910Y-51358538D01*
X79668814Y-51184727D01*
X79726024Y-50996132D01*
X79745341Y-50800000D01*
X80274659Y-50800000D01*
X80293975Y-50996129D01*
X80351188Y-51184733D01*
X80444086Y-51358532D01*
X80444090Y-51358539D01*
X80569116Y-51510883D01*
X80721460Y-51635909D01*
X80721467Y-51635913D01*
X80895266Y-51728811D01*
X80895269Y-51728811D01*
X80895273Y-51728814D01*
X81083868Y-51786024D01*
X81280000Y-51805341D01*
X81476132Y-51786024D01*
X81664727Y-51728814D01*
X81838538Y-51635910D01*
X81990883Y-51510883D01*
X82115910Y-51358538D01*
X82208814Y-51184727D01*
X82266024Y-50996132D01*
X82285341Y-50800000D01*
X82814659Y-50800000D01*
X82833975Y-50996129D01*
X82891188Y-51184733D01*
X82984086Y-51358532D01*
X82984090Y-51358539D01*
X83109116Y-51510883D01*
X83261460Y-51635909D01*
X83261467Y-51635913D01*
X83435266Y-51728811D01*
X83435269Y-51728811D01*
X83435273Y-51728814D01*
X83623868Y-51786024D01*
X83820000Y-51805341D01*
X84016132Y-51786024D01*
X84204727Y-51728814D01*
X84378538Y-51635910D01*
X84530883Y-51510883D01*
X84655910Y-51358538D01*
X84748814Y-51184727D01*
X84806024Y-50996132D01*
X84825341Y-50800000D01*
X85354660Y-50800000D01*
X85373976Y-50996129D01*
X85431189Y-51184733D01*
X85524087Y-51358532D01*
X85524091Y-51358539D01*
X85649117Y-51510883D01*
X85801461Y-51635909D01*
X85801468Y-51635913D01*
X85975267Y-51728811D01*
X85975270Y-51728811D01*
X85975274Y-51728814D01*
X86163869Y-51786024D01*
X86360001Y-51805341D01*
X86556133Y-51786024D01*
X86744728Y-51728814D01*
X86918539Y-51635910D01*
X87070884Y-51510883D01*
X87195911Y-51358538D01*
X87288815Y-51184727D01*
X87346025Y-50996132D01*
X87365342Y-50800000D01*
X87346025Y-50603868D01*
X87288815Y-50415273D01*
X87288812Y-50415269D01*
X87288812Y-50415266D01*
X87195914Y-50241467D01*
X87195910Y-50241460D01*
X87070884Y-50089116D01*
X86918540Y-49964090D01*
X86918533Y-49964086D01*
X86744734Y-49871188D01*
X86744728Y-49871186D01*
X86556133Y-49813976D01*
X86556130Y-49813975D01*
X86360001Y-49794659D01*
X86163871Y-49813975D01*
X85975267Y-49871188D01*
X85801468Y-49964086D01*
X85801461Y-49964090D01*
X85649117Y-50089116D01*
X85524091Y-50241460D01*
X85524087Y-50241467D01*
X85431189Y-50415266D01*
X85373976Y-50603870D01*
X85354660Y-50800000D01*
X84825341Y-50800000D01*
X84806024Y-50603868D01*
X84748814Y-50415273D01*
X84748811Y-50415269D01*
X84748811Y-50415266D01*
X84655913Y-50241467D01*
X84655909Y-50241460D01*
X84530883Y-50089116D01*
X84378539Y-49964090D01*
X84378532Y-49964086D01*
X84204733Y-49871188D01*
X84204727Y-49871186D01*
X84016132Y-49813976D01*
X84016129Y-49813975D01*
X83820000Y-49794659D01*
X83623870Y-49813975D01*
X83435266Y-49871188D01*
X83261467Y-49964086D01*
X83261460Y-49964090D01*
X83109116Y-50089116D01*
X82984090Y-50241460D01*
X82984086Y-50241467D01*
X82891188Y-50415266D01*
X82833975Y-50603870D01*
X82814659Y-50800000D01*
X82285341Y-50800000D01*
X82266024Y-50603868D01*
X82208814Y-50415273D01*
X82208811Y-50415269D01*
X82208811Y-50415266D01*
X82115913Y-50241467D01*
X82115909Y-50241460D01*
X81990883Y-50089116D01*
X81838539Y-49964090D01*
X81838532Y-49964086D01*
X81664733Y-49871188D01*
X81664727Y-49871186D01*
X81476132Y-49813976D01*
X81476129Y-49813975D01*
X81280000Y-49794659D01*
X81083870Y-49813975D01*
X80895266Y-49871188D01*
X80721467Y-49964086D01*
X80721460Y-49964090D01*
X80569116Y-50089116D01*
X80444090Y-50241460D01*
X80444086Y-50241467D01*
X80351188Y-50415266D01*
X80293975Y-50603870D01*
X80274659Y-50800000D01*
X79745341Y-50800000D01*
X79726024Y-50603868D01*
X79668814Y-50415273D01*
X79668811Y-50415269D01*
X79668811Y-50415266D01*
X79575913Y-50241467D01*
X79575909Y-50241460D01*
X79450883Y-50089116D01*
X79298539Y-49964090D01*
X79298532Y-49964086D01*
X79124733Y-49871188D01*
X79124727Y-49871186D01*
X78936132Y-49813976D01*
X78936129Y-49813975D01*
X78740000Y-49794659D01*
X78543870Y-49813975D01*
X78355266Y-49871188D01*
X78181467Y-49964086D01*
X78181460Y-49964090D01*
X78029116Y-50089116D01*
X77904090Y-50241460D01*
X77904086Y-50241467D01*
X77811188Y-50415266D01*
X77753975Y-50603870D01*
X77734659Y-50800000D01*
X77205341Y-50800000D01*
X77186024Y-50603868D01*
X77128814Y-50415273D01*
X77128811Y-50415269D01*
X77128811Y-50415266D01*
X77035913Y-50241467D01*
X77035909Y-50241460D01*
X76910883Y-50089116D01*
X76758539Y-49964090D01*
X76758532Y-49964086D01*
X76584733Y-49871188D01*
X76584727Y-49871186D01*
X76396132Y-49813976D01*
X76396129Y-49813975D01*
X76200000Y-49794659D01*
X76003870Y-49813975D01*
X75815266Y-49871188D01*
X75641467Y-49964086D01*
X75641460Y-49964090D01*
X75489116Y-50089116D01*
X75364090Y-50241460D01*
X75364086Y-50241467D01*
X75271188Y-50415266D01*
X75213975Y-50603870D01*
X75194659Y-50800000D01*
X74665340Y-50800000D01*
X74646023Y-50603868D01*
X74588813Y-50415273D01*
X74588810Y-50415269D01*
X74588810Y-50415266D01*
X74495912Y-50241467D01*
X74495908Y-50241460D01*
X74370882Y-50089116D01*
X74218538Y-49964090D01*
X74218531Y-49964086D01*
X74044732Y-49871188D01*
X74044726Y-49871186D01*
X73856131Y-49813976D01*
X73856128Y-49813975D01*
X73659999Y-49794659D01*
X73463869Y-49813975D01*
X73275265Y-49871188D01*
X73101466Y-49964086D01*
X73101459Y-49964090D01*
X72949115Y-50089116D01*
X72824089Y-50241460D01*
X72824085Y-50241467D01*
X72731187Y-50415266D01*
X72673974Y-50603870D01*
X72654658Y-50800000D01*
X72125341Y-50800000D01*
X72106024Y-50603868D01*
X72048814Y-50415273D01*
X72048811Y-50415269D01*
X72048811Y-50415266D01*
X71955913Y-50241467D01*
X71955909Y-50241460D01*
X71830883Y-50089116D01*
X71678539Y-49964090D01*
X71678532Y-49964086D01*
X71504733Y-49871188D01*
X71504727Y-49871186D01*
X71316132Y-49813976D01*
X71316129Y-49813975D01*
X71120000Y-49794659D01*
X70923870Y-49813975D01*
X70735266Y-49871188D01*
X70561467Y-49964086D01*
X70561460Y-49964090D01*
X70409116Y-50089116D01*
X70284090Y-50241460D01*
X70284086Y-50241467D01*
X70191188Y-50415266D01*
X70133975Y-50603870D01*
X70114659Y-50800000D01*
X69580500Y-50800000D01*
X69580500Y-49980249D01*
X69580499Y-49980247D01*
X69568868Y-49921770D01*
X69568867Y-49921769D01*
X69524552Y-49855447D01*
X69458230Y-49811132D01*
X69458229Y-49811131D01*
X69399752Y-49799500D01*
X69399748Y-49799500D01*
X67760252Y-49799500D01*
X67760247Y-49799500D01*
X67701770Y-49811131D01*
X67701769Y-49811132D01*
X67635447Y-49855447D01*
X67591132Y-49921769D01*
X67591131Y-49921770D01*
X67579500Y-49980247D01*
X56995987Y-49980247D01*
X57050941Y-49811118D01*
X57055185Y-49784325D01*
X57080501Y-49624486D01*
X57080501Y-49435513D01*
X57050941Y-49248881D01*
X56992546Y-49069163D01*
X56906760Y-48900800D01*
X56795691Y-48747927D01*
X56662074Y-48614310D01*
X56509200Y-48503240D01*
X56485435Y-48491131D01*
X56340837Y-48417454D01*
X56161119Y-48359059D01*
X55974487Y-48329500D01*
X55974482Y-48329500D01*
X53245519Y-48329500D01*
X53245514Y-48329500D01*
X53058881Y-48359059D01*
X52879163Y-48417454D01*
X52710800Y-48503240D01*
X52623579Y-48566610D01*
X52557927Y-48614310D01*
X52557925Y-48614312D01*
X52557924Y-48614312D01*
X52424312Y-48747924D01*
X52424312Y-48747925D01*
X52424310Y-48747927D01*
X52376610Y-48813579D01*
X52313240Y-48900800D01*
X52227455Y-49069162D01*
X52187931Y-49190802D01*
X52148492Y-49248477D01*
X52084133Y-49275674D01*
X52015287Y-49263759D01*
X51963812Y-49216514D01*
X51952069Y-49190802D01*
X51912548Y-49069168D01*
X51912546Y-49069165D01*
X51912546Y-49069163D01*
X51826760Y-48900800D01*
X51715691Y-48747927D01*
X51582074Y-48614310D01*
X51429200Y-48503240D01*
X51405435Y-48491131D01*
X51260837Y-48417454D01*
X51081119Y-48359059D01*
X50894487Y-48329500D01*
X50894482Y-48329500D01*
X48165520Y-48329500D01*
X48165515Y-48329500D01*
X47978882Y-48359059D01*
X47799164Y-48417454D01*
X47703920Y-48465985D01*
X47647625Y-48479500D01*
X47390248Y-48479500D01*
X47331771Y-48491131D01*
X47331770Y-48491132D01*
X47265448Y-48535447D01*
X47221133Y-48601769D01*
X47221132Y-48601770D01*
X47209501Y-48660247D01*
X47209501Y-48917623D01*
X47195986Y-48973918D01*
X47147455Y-49069163D01*
X47089060Y-49248881D01*
X47059501Y-49435513D01*
X44779300Y-49435513D01*
X44779300Y-48165513D01*
X80079500Y-48165513D01*
X80079500Y-48354486D01*
X80109059Y-48541118D01*
X80167454Y-48720836D01*
X80253240Y-48889199D01*
X80364310Y-49042073D01*
X80497927Y-49175690D01*
X80650801Y-49286760D01*
X80730347Y-49327290D01*
X80819163Y-49372545D01*
X80819165Y-49372545D01*
X80819168Y-49372547D01*
X80915497Y-49403846D01*
X80998881Y-49430940D01*
X81185514Y-49460500D01*
X81185519Y-49460500D01*
X104234486Y-49460500D01*
X104421118Y-49430940D01*
X104600832Y-49372547D01*
X104769199Y-49286760D01*
X104922073Y-49175690D01*
X105055690Y-49042073D01*
X105166760Y-48889199D01*
X105252547Y-48720832D01*
X105310940Y-48541118D01*
X105322840Y-48465985D01*
X105340500Y-48354486D01*
X105340500Y-48165513D01*
X105310940Y-47978881D01*
X105252545Y-47799163D01*
X105166759Y-47630800D01*
X105055690Y-47477927D01*
X104922073Y-47344310D01*
X104769199Y-47233240D01*
X104600836Y-47147454D01*
X104421118Y-47089059D01*
X104234486Y-47059500D01*
X104234481Y-47059500D01*
X81185519Y-47059500D01*
X81185514Y-47059500D01*
X80998881Y-47089059D01*
X80819163Y-47147454D01*
X80650800Y-47233240D01*
X80563579Y-47296610D01*
X80497927Y-47344310D01*
X80497925Y-47344312D01*
X80497924Y-47344312D01*
X80364312Y-47477924D01*
X80364312Y-47477925D01*
X80364310Y-47477927D01*
X80316610Y-47543579D01*
X80253240Y-47630800D01*
X80167454Y-47799163D01*
X80109059Y-47978881D01*
X80079500Y-48165513D01*
X44779300Y-48165513D01*
X44779300Y-41637625D01*
X44798985Y-41570586D01*
X44851789Y-41524831D01*
X44920947Y-41514887D01*
X44984503Y-41543912D01*
X44990981Y-41549944D01*
X44996727Y-41555690D01*
X45149601Y-41666760D01*
X45229147Y-41707290D01*
X45317963Y-41752545D01*
X45317965Y-41752545D01*
X45317968Y-41752547D01*
X45414297Y-41783846D01*
X45497681Y-41810940D01*
X45684314Y-41840500D01*
X48098388Y-41840500D01*
X48165427Y-41860185D01*
X48211182Y-41912989D01*
X48221126Y-41982147D01*
X48192101Y-42045703D01*
X48133323Y-42083477D01*
X48121180Y-42086387D01*
X47957544Y-42116976D01*
X47957541Y-42116976D01*
X47957541Y-42116977D01*
X47767364Y-42190651D01*
X47767357Y-42190655D01*
X47593960Y-42298017D01*
X47593958Y-42298019D01*
X47443237Y-42435418D01*
X47320327Y-42598178D01*
X47229422Y-42780739D01*
X47229417Y-42780752D01*
X47173602Y-42976917D01*
X47154785Y-43179999D01*
X47154785Y-43180000D01*
X47173602Y-43383082D01*
X47229417Y-43579247D01*
X47229422Y-43579260D01*
X47320327Y-43761821D01*
X47443237Y-43924581D01*
X47593958Y-44061980D01*
X47593960Y-44061982D01*
X47654955Y-44099748D01*
X47767363Y-44169348D01*
X47957544Y-44243024D01*
X48158024Y-44280500D01*
X48158026Y-44280500D01*
X48361974Y-44280500D01*
X48361976Y-44280500D01*
X48562456Y-44243024D01*
X48752637Y-44169348D01*
X48926041Y-44061981D01*
X49054122Y-43945219D01*
X49076762Y-43924581D01*
X49076764Y-43924579D01*
X49199673Y-43761821D01*
X49290582Y-43579250D01*
X49346397Y-43383083D01*
X49365215Y-43180000D01*
X49346397Y-42976917D01*
X49290582Y-42780750D01*
X49288238Y-42776043D01*
X49211265Y-42621460D01*
X49199673Y-42598179D01*
X49076764Y-42435421D01*
X49076762Y-42435418D01*
X48926041Y-42298019D01*
X48926039Y-42298017D01*
X48865038Y-42260247D01*
X49699500Y-42260247D01*
X49699500Y-44099752D01*
X49711131Y-44158229D01*
X49711132Y-44158230D01*
X49755447Y-44224552D01*
X49821769Y-44268867D01*
X49821770Y-44268868D01*
X49880247Y-44280499D01*
X49880250Y-44280500D01*
X49880252Y-44280500D01*
X51719750Y-44280500D01*
X51719751Y-44280499D01*
X51734568Y-44277552D01*
X51778229Y-44268868D01*
X51778229Y-44268867D01*
X51778231Y-44268867D01*
X51844552Y-44224552D01*
X51888867Y-44158231D01*
X51888867Y-44158229D01*
X51888868Y-44158229D01*
X51900499Y-44099752D01*
X51900500Y-44099750D01*
X51900500Y-43509994D01*
X57693408Y-43509994D01*
X57693408Y-43510005D01*
X57713755Y-43833423D01*
X57713756Y-43833430D01*
X57713757Y-43833434D01*
X57757354Y-44061981D01*
X57774483Y-44151771D01*
X57874626Y-44459980D01*
X57874628Y-44459985D01*
X58012608Y-44753206D01*
X58012611Y-44753212D01*
X58186253Y-45026829D01*
X58186256Y-45026833D01*
X58186257Y-45026834D01*
X58392829Y-45276537D01*
X58500993Y-45378109D01*
X58629067Y-45498378D01*
X58629077Y-45498387D01*
X58891238Y-45688858D01*
X58891244Y-45688861D01*
X58891250Y-45688866D01*
X59175237Y-45844989D01*
X59476553Y-45964289D01*
X59790445Y-46044883D01*
X59857894Y-46053403D01*
X60111951Y-46085499D01*
X60111960Y-46085499D01*
X60111963Y-46085500D01*
X60111965Y-46085500D01*
X60436035Y-46085500D01*
X60436037Y-46085500D01*
X60436040Y-46085499D01*
X60436048Y-46085499D01*
X60627899Y-46061262D01*
X60757555Y-46044883D01*
X61071447Y-45964289D01*
X61372763Y-45844989D01*
X61656750Y-45688866D01*
X61661241Y-45685602D01*
X61918922Y-45498387D01*
X61918924Y-45498384D01*
X61918931Y-45498380D01*
X62155171Y-45276537D01*
X62361743Y-45026834D01*
X62535390Y-44753210D01*
X62673374Y-44459979D01*
X62773518Y-44151767D01*
X62834243Y-43833434D01*
X62835474Y-43813870D01*
X62854592Y-43510005D01*
X62854592Y-43509994D01*
X62834244Y-43186576D01*
X62834243Y-43186569D01*
X62834243Y-43186566D01*
X62832990Y-43180000D01*
X67574659Y-43180000D01*
X67593975Y-43376129D01*
X67651188Y-43564733D01*
X67744086Y-43738532D01*
X67744090Y-43738539D01*
X67869116Y-43890883D01*
X68021460Y-44015909D01*
X68021467Y-44015913D01*
X68195266Y-44108811D01*
X68195269Y-44108811D01*
X68195273Y-44108814D01*
X68383868Y-44166024D01*
X68580000Y-44185341D01*
X68776132Y-44166024D01*
X68964727Y-44108814D01*
X68965822Y-44108229D01*
X69138532Y-44015913D01*
X69138538Y-44015910D01*
X69290883Y-43890883D01*
X69415910Y-43738538D01*
X69508814Y-43564727D01*
X69566024Y-43376132D01*
X69585341Y-43180000D01*
X70114659Y-43180000D01*
X70133975Y-43376129D01*
X70191188Y-43564733D01*
X70284086Y-43738532D01*
X70284090Y-43738539D01*
X70409116Y-43890883D01*
X70561460Y-44015909D01*
X70561467Y-44015913D01*
X70735266Y-44108811D01*
X70735269Y-44108811D01*
X70735273Y-44108814D01*
X70923868Y-44166024D01*
X71120000Y-44185341D01*
X71316132Y-44166024D01*
X71504727Y-44108814D01*
X71505822Y-44108229D01*
X71678532Y-44015913D01*
X71678538Y-44015910D01*
X71830883Y-43890883D01*
X71955910Y-43738538D01*
X72048814Y-43564727D01*
X72106024Y-43376132D01*
X72125341Y-43180000D01*
X72654659Y-43180000D01*
X72673975Y-43376129D01*
X72731188Y-43564733D01*
X72824086Y-43738532D01*
X72824090Y-43738539D01*
X72949116Y-43890883D01*
X73101460Y-44015909D01*
X73101467Y-44015913D01*
X73275266Y-44108811D01*
X73275269Y-44108811D01*
X73275273Y-44108814D01*
X73463868Y-44166024D01*
X73660000Y-44185341D01*
X73856132Y-44166024D01*
X74044727Y-44108814D01*
X74045822Y-44108229D01*
X74218532Y-44015913D01*
X74218538Y-44015910D01*
X74370883Y-43890883D01*
X74495910Y-43738538D01*
X74588814Y-43564727D01*
X74646024Y-43376132D01*
X74665341Y-43180000D01*
X75194659Y-43180000D01*
X75213975Y-43376129D01*
X75271188Y-43564733D01*
X75364086Y-43738532D01*
X75364090Y-43738539D01*
X75489116Y-43890883D01*
X75641460Y-44015909D01*
X75641467Y-44015913D01*
X75815266Y-44108811D01*
X75815269Y-44108811D01*
X75815273Y-44108814D01*
X76003868Y-44166024D01*
X76200000Y-44185341D01*
X76396132Y-44166024D01*
X76584727Y-44108814D01*
X76585822Y-44108229D01*
X76758532Y-44015913D01*
X76758538Y-44015910D01*
X76910883Y-43890883D01*
X77035910Y-43738538D01*
X77128814Y-43564727D01*
X77186024Y-43376132D01*
X77205341Y-43180000D01*
X77734659Y-43180000D01*
X77753975Y-43376129D01*
X77811188Y-43564733D01*
X77904086Y-43738532D01*
X77904090Y-43738539D01*
X78029116Y-43890883D01*
X78181460Y-44015909D01*
X78181467Y-44015913D01*
X78355266Y-44108811D01*
X78355269Y-44108811D01*
X78355273Y-44108814D01*
X78543868Y-44166024D01*
X78740000Y-44185341D01*
X78936132Y-44166024D01*
X79124727Y-44108814D01*
X79125822Y-44108229D01*
X79298532Y-44015913D01*
X79298538Y-44015910D01*
X79450883Y-43890883D01*
X79575910Y-43738538D01*
X79668814Y-43564727D01*
X79726024Y-43376132D01*
X79745341Y-43180000D01*
X80274659Y-43180000D01*
X80293975Y-43376129D01*
X80351188Y-43564733D01*
X80444086Y-43738532D01*
X80444090Y-43738539D01*
X80569116Y-43890883D01*
X80721460Y-44015909D01*
X80721467Y-44015913D01*
X80895266Y-44108811D01*
X80895269Y-44108811D01*
X80895273Y-44108814D01*
X81083868Y-44166024D01*
X81280000Y-44185341D01*
X81476132Y-44166024D01*
X81664727Y-44108814D01*
X81665822Y-44108229D01*
X81838532Y-44015913D01*
X81838538Y-44015910D01*
X81990883Y-43890883D01*
X82115910Y-43738538D01*
X82208814Y-43564727D01*
X82266024Y-43376132D01*
X82285341Y-43180000D01*
X82814659Y-43180000D01*
X82833975Y-43376129D01*
X82891188Y-43564733D01*
X82984086Y-43738532D01*
X82984090Y-43738539D01*
X83109116Y-43890883D01*
X83261460Y-44015909D01*
X83261467Y-44015913D01*
X83435266Y-44108811D01*
X83435269Y-44108811D01*
X83435273Y-44108814D01*
X83623868Y-44166024D01*
X83820000Y-44185341D01*
X84016132Y-44166024D01*
X84204727Y-44108814D01*
X84205822Y-44108229D01*
X84378532Y-44015913D01*
X84378538Y-44015910D01*
X84530883Y-43890883D01*
X84655910Y-43738538D01*
X84748814Y-43564727D01*
X84806024Y-43376132D01*
X84825341Y-43180000D01*
X85354659Y-43180000D01*
X85373975Y-43376129D01*
X85431188Y-43564733D01*
X85524086Y-43738532D01*
X85524090Y-43738539D01*
X85649116Y-43890883D01*
X85801460Y-44015909D01*
X85801467Y-44015913D01*
X85975266Y-44108811D01*
X85975269Y-44108811D01*
X85975273Y-44108814D01*
X86163868Y-44166024D01*
X86360000Y-44185341D01*
X86556132Y-44166024D01*
X86744727Y-44108814D01*
X86745822Y-44108229D01*
X86918532Y-44015913D01*
X86918538Y-44015910D01*
X87070883Y-43890883D01*
X87195910Y-43738538D01*
X87288814Y-43564727D01*
X87346024Y-43376132D01*
X87365341Y-43180000D01*
X87346024Y-42983868D01*
X87288814Y-42795273D01*
X87288811Y-42795269D01*
X87288811Y-42795266D01*
X87195913Y-42621467D01*
X87195909Y-42621460D01*
X87070883Y-42469116D01*
X86918539Y-42344090D01*
X86918532Y-42344086D01*
X86855224Y-42310247D01*
X100549500Y-42310247D01*
X100549500Y-44049752D01*
X100561131Y-44108229D01*
X100561132Y-44108230D01*
X100605447Y-44174552D01*
X100671769Y-44218867D01*
X100671770Y-44218868D01*
X100730247Y-44230499D01*
X100730250Y-44230500D01*
X100730252Y-44230500D01*
X102469750Y-44230500D01*
X102469751Y-44230499D01*
X102484568Y-44227552D01*
X102528229Y-44218868D01*
X102528229Y-44218867D01*
X102528231Y-44218867D01*
X102594552Y-44174552D01*
X102638867Y-44108231D01*
X102638867Y-44108229D01*
X102638868Y-44108229D01*
X102647552Y-44064568D01*
X102650500Y-44049748D01*
X102650500Y-43180000D01*
X103084417Y-43180000D01*
X103104699Y-43385932D01*
X103104700Y-43385934D01*
X103164768Y-43583954D01*
X103262315Y-43766450D01*
X103262317Y-43766452D01*
X103393589Y-43926410D01*
X103490209Y-44005702D01*
X103553550Y-44057685D01*
X103736046Y-44155232D01*
X103934066Y-44215300D01*
X103934065Y-44215300D01*
X103952529Y-44217118D01*
X104140000Y-44235583D01*
X104345934Y-44215300D01*
X104543954Y-44155232D01*
X104726450Y-44057685D01*
X104886410Y-43926410D01*
X105017685Y-43766450D01*
X105115232Y-43583954D01*
X105175300Y-43385934D01*
X105195583Y-43180000D01*
X105624416Y-43180000D01*
X105644698Y-43385932D01*
X105644699Y-43385934D01*
X105704767Y-43583954D01*
X105802314Y-43766450D01*
X105802316Y-43766452D01*
X105933588Y-43926410D01*
X106030208Y-44005702D01*
X106093549Y-44057685D01*
X106276045Y-44155232D01*
X106474065Y-44215300D01*
X106474064Y-44215300D01*
X106492528Y-44217118D01*
X106679999Y-44235583D01*
X106885933Y-44215300D01*
X107083953Y-44155232D01*
X107266449Y-44057685D01*
X107426409Y-43926410D01*
X107557684Y-43766450D01*
X107655231Y-43583954D01*
X107715299Y-43385934D01*
X107735582Y-43180000D01*
X108164417Y-43180000D01*
X108184699Y-43385932D01*
X108184700Y-43385934D01*
X108244768Y-43583954D01*
X108342315Y-43766450D01*
X108342317Y-43766452D01*
X108473589Y-43926410D01*
X108570209Y-44005702D01*
X108633550Y-44057685D01*
X108816046Y-44155232D01*
X109014066Y-44215300D01*
X109014065Y-44215300D01*
X109032529Y-44217118D01*
X109220000Y-44235583D01*
X109425934Y-44215300D01*
X109623954Y-44155232D01*
X109806450Y-44057685D01*
X109966410Y-43926410D01*
X110097685Y-43766450D01*
X110195232Y-43583954D01*
X110255300Y-43385934D01*
X110275583Y-43180000D01*
X110255300Y-42974066D01*
X110195232Y-42776046D01*
X110097685Y-42593550D01*
X110045702Y-42530209D01*
X109966410Y-42433589D01*
X109816121Y-42310252D01*
X109806450Y-42302315D01*
X109623954Y-42204768D01*
X109425934Y-42144700D01*
X109425932Y-42144699D01*
X109425934Y-42144699D01*
X109220000Y-42124417D01*
X109014067Y-42144699D01*
X108862571Y-42190655D01*
X108825933Y-42201769D01*
X108816043Y-42204769D01*
X108729205Y-42251186D01*
X108633550Y-42302315D01*
X108633548Y-42302316D01*
X108633547Y-42302317D01*
X108473589Y-42433589D01*
X108369831Y-42560021D01*
X108342315Y-42593550D01*
X108339841Y-42598179D01*
X108244769Y-42776043D01*
X108244768Y-42776045D01*
X108244768Y-42776046D01*
X108238938Y-42795266D01*
X108184699Y-42974067D01*
X108164417Y-43180000D01*
X107735582Y-43180000D01*
X107715299Y-42974066D01*
X107655231Y-42776046D01*
X107557684Y-42593550D01*
X107505701Y-42530209D01*
X107426409Y-42433589D01*
X107276120Y-42310252D01*
X107266449Y-42302315D01*
X107083953Y-42204768D01*
X106885933Y-42144700D01*
X106885931Y-42144699D01*
X106885933Y-42144699D01*
X106679999Y-42124417D01*
X106474066Y-42144699D01*
X106322570Y-42190655D01*
X106285932Y-42201769D01*
X106276042Y-42204769D01*
X106189204Y-42251186D01*
X106093549Y-42302315D01*
X106093547Y-42302316D01*
X106093546Y-42302317D01*
X105933588Y-42433589D01*
X105829830Y-42560021D01*
X105802314Y-42593550D01*
X105799840Y-42598179D01*
X105704768Y-42776043D01*
X105704767Y-42776045D01*
X105704767Y-42776046D01*
X105698937Y-42795266D01*
X105644698Y-42974067D01*
X105624416Y-43180000D01*
X105195583Y-43180000D01*
X105175300Y-42974066D01*
X105115232Y-42776046D01*
X105017685Y-42593550D01*
X104965702Y-42530209D01*
X104886410Y-42433589D01*
X104736121Y-42310252D01*
X104726450Y-42302315D01*
X104543954Y-42204768D01*
X104345934Y-42144700D01*
X104345932Y-42144699D01*
X104345934Y-42144699D01*
X104140000Y-42124417D01*
X103934067Y-42144699D01*
X103782571Y-42190655D01*
X103745933Y-42201769D01*
X103736043Y-42204769D01*
X103649205Y-42251186D01*
X103553550Y-42302315D01*
X103553548Y-42302316D01*
X103553547Y-42302317D01*
X103393589Y-42433589D01*
X103289831Y-42560021D01*
X103262315Y-42593550D01*
X103259841Y-42598179D01*
X103164769Y-42776043D01*
X103164768Y-42776045D01*
X103164768Y-42776046D01*
X103158938Y-42795266D01*
X103104699Y-42974067D01*
X103084417Y-43180000D01*
X102650500Y-43180000D01*
X102650500Y-42310252D01*
X102650500Y-42310249D01*
X102650499Y-42310247D01*
X102638868Y-42251770D01*
X102638867Y-42251769D01*
X102594552Y-42185447D01*
X102528230Y-42141132D01*
X102528229Y-42141131D01*
X102469752Y-42129500D01*
X102469748Y-42129500D01*
X100730252Y-42129500D01*
X100730247Y-42129500D01*
X100671770Y-42141131D01*
X100671769Y-42141132D01*
X100605447Y-42185447D01*
X100561132Y-42251769D01*
X100561131Y-42251770D01*
X100549500Y-42310247D01*
X86855224Y-42310247D01*
X86744733Y-42251188D01*
X86744727Y-42251186D01*
X86556132Y-42193976D01*
X86556129Y-42193975D01*
X86360000Y-42174659D01*
X86163870Y-42193975D01*
X85975266Y-42251188D01*
X85801467Y-42344086D01*
X85801460Y-42344090D01*
X85649116Y-42469116D01*
X85524090Y-42621460D01*
X85524086Y-42621467D01*
X85431188Y-42795266D01*
X85373975Y-42983870D01*
X85354659Y-43180000D01*
X84825341Y-43180000D01*
X84806024Y-42983868D01*
X84748814Y-42795273D01*
X84748811Y-42795269D01*
X84748811Y-42795266D01*
X84655913Y-42621467D01*
X84655909Y-42621460D01*
X84530883Y-42469116D01*
X84378539Y-42344090D01*
X84378532Y-42344086D01*
X84204733Y-42251188D01*
X84204727Y-42251186D01*
X84016132Y-42193976D01*
X84016129Y-42193975D01*
X83820000Y-42174659D01*
X83623870Y-42193975D01*
X83435266Y-42251188D01*
X83261467Y-42344086D01*
X83261460Y-42344090D01*
X83109116Y-42469116D01*
X82984090Y-42621460D01*
X82984086Y-42621467D01*
X82891188Y-42795266D01*
X82833975Y-42983870D01*
X82814659Y-43180000D01*
X82285341Y-43180000D01*
X82266024Y-42983868D01*
X82208814Y-42795273D01*
X82208811Y-42795269D01*
X82208811Y-42795266D01*
X82115913Y-42621467D01*
X82115909Y-42621460D01*
X81990883Y-42469116D01*
X81838539Y-42344090D01*
X81838532Y-42344086D01*
X81664733Y-42251188D01*
X81664727Y-42251186D01*
X81476132Y-42193976D01*
X81476129Y-42193975D01*
X81280000Y-42174659D01*
X81083870Y-42193975D01*
X80895266Y-42251188D01*
X80721467Y-42344086D01*
X80721460Y-42344090D01*
X80569116Y-42469116D01*
X80444090Y-42621460D01*
X80444086Y-42621467D01*
X80351188Y-42795266D01*
X80293975Y-42983870D01*
X80274659Y-43180000D01*
X79745341Y-43180000D01*
X79726024Y-42983868D01*
X79668814Y-42795273D01*
X79668811Y-42795269D01*
X79668811Y-42795266D01*
X79575913Y-42621467D01*
X79575909Y-42621460D01*
X79450883Y-42469116D01*
X79298539Y-42344090D01*
X79298532Y-42344086D01*
X79124733Y-42251188D01*
X79124727Y-42251186D01*
X78936132Y-42193976D01*
X78936129Y-42193975D01*
X78740000Y-42174659D01*
X78543870Y-42193975D01*
X78355266Y-42251188D01*
X78181467Y-42344086D01*
X78181460Y-42344090D01*
X78029116Y-42469116D01*
X77904090Y-42621460D01*
X77904086Y-42621467D01*
X77811188Y-42795266D01*
X77753975Y-42983870D01*
X77734659Y-43180000D01*
X77205341Y-43180000D01*
X77186024Y-42983868D01*
X77128814Y-42795273D01*
X77128811Y-42795269D01*
X77128811Y-42795266D01*
X77035913Y-42621467D01*
X77035909Y-42621460D01*
X76910883Y-42469116D01*
X76758539Y-42344090D01*
X76758532Y-42344086D01*
X76584733Y-42251188D01*
X76584727Y-42251186D01*
X76396132Y-42193976D01*
X76396129Y-42193975D01*
X76200000Y-42174659D01*
X76003870Y-42193975D01*
X75815266Y-42251188D01*
X75641467Y-42344086D01*
X75641460Y-42344090D01*
X75489116Y-42469116D01*
X75364090Y-42621460D01*
X75364086Y-42621467D01*
X75271188Y-42795266D01*
X75213975Y-42983870D01*
X75194659Y-43180000D01*
X74665341Y-43180000D01*
X74646024Y-42983868D01*
X74588814Y-42795273D01*
X74588811Y-42795269D01*
X74588811Y-42795266D01*
X74495913Y-42621467D01*
X74495909Y-42621460D01*
X74370883Y-42469116D01*
X74218539Y-42344090D01*
X74218532Y-42344086D01*
X74044733Y-42251188D01*
X74044727Y-42251186D01*
X73856132Y-42193976D01*
X73856129Y-42193975D01*
X73660000Y-42174659D01*
X73463870Y-42193975D01*
X73275266Y-42251188D01*
X73101467Y-42344086D01*
X73101460Y-42344090D01*
X72949116Y-42469116D01*
X72824090Y-42621460D01*
X72824086Y-42621467D01*
X72731188Y-42795266D01*
X72673975Y-42983870D01*
X72654659Y-43180000D01*
X72125341Y-43180000D01*
X72106024Y-42983868D01*
X72048814Y-42795273D01*
X72048811Y-42795269D01*
X72048811Y-42795266D01*
X71955913Y-42621467D01*
X71955909Y-42621460D01*
X71830883Y-42469116D01*
X71678539Y-42344090D01*
X71678532Y-42344086D01*
X71504733Y-42251188D01*
X71504727Y-42251186D01*
X71316132Y-42193976D01*
X71316129Y-42193975D01*
X71120000Y-42174659D01*
X70923870Y-42193975D01*
X70735266Y-42251188D01*
X70561467Y-42344086D01*
X70561460Y-42344090D01*
X70409116Y-42469116D01*
X70284090Y-42621460D01*
X70284086Y-42621467D01*
X70191188Y-42795266D01*
X70133975Y-42983870D01*
X70114659Y-43180000D01*
X69585341Y-43180000D01*
X69566024Y-42983868D01*
X69508814Y-42795273D01*
X69508811Y-42795269D01*
X69508811Y-42795266D01*
X69415913Y-42621467D01*
X69415909Y-42621460D01*
X69290883Y-42469116D01*
X69138539Y-42344090D01*
X69138532Y-42344086D01*
X68964733Y-42251188D01*
X68964727Y-42251186D01*
X68776132Y-42193976D01*
X68776129Y-42193975D01*
X68580000Y-42174659D01*
X68383870Y-42193975D01*
X68195266Y-42251188D01*
X68021467Y-42344086D01*
X68021460Y-42344090D01*
X67869116Y-42469116D01*
X67744090Y-42621460D01*
X67744086Y-42621467D01*
X67651188Y-42795266D01*
X67593975Y-42983870D01*
X67574659Y-43180000D01*
X62832990Y-43180000D01*
X62773518Y-42868233D01*
X62673374Y-42560021D01*
X62535390Y-42266790D01*
X62476922Y-42174659D01*
X62361746Y-41993170D01*
X62352627Y-41982147D01*
X62155171Y-41743463D01*
X61918931Y-41521620D01*
X61918930Y-41521619D01*
X61918922Y-41521612D01*
X61656761Y-41331141D01*
X61656743Y-41331130D01*
X61372762Y-41175010D01*
X61372759Y-41175009D01*
X61071448Y-41055711D01*
X60914501Y-41015414D01*
X60757555Y-40975117D01*
X60757552Y-40975116D01*
X60757545Y-40975115D01*
X60436048Y-40934500D01*
X60436037Y-40934500D01*
X60111963Y-40934500D01*
X60111951Y-40934500D01*
X59790454Y-40975115D01*
X59790445Y-40975117D01*
X59476551Y-41055711D01*
X59175240Y-41175009D01*
X59175237Y-41175010D01*
X58891256Y-41331130D01*
X58891238Y-41331141D01*
X58629077Y-41521612D01*
X58629067Y-41521621D01*
X58392831Y-41743461D01*
X58186253Y-41993170D01*
X58012611Y-42266787D01*
X58012608Y-42266793D01*
X57874628Y-42560014D01*
X57874626Y-42560019D01*
X57774483Y-42868228D01*
X57713756Y-43186569D01*
X57713755Y-43186576D01*
X57693408Y-43509994D01*
X51900500Y-43509994D01*
X51900500Y-42260249D01*
X51900499Y-42260247D01*
X51888868Y-42201770D01*
X51888867Y-42201769D01*
X51844552Y-42135447D01*
X51778230Y-42091132D01*
X51778229Y-42091131D01*
X51719752Y-42079500D01*
X51719748Y-42079500D01*
X49880252Y-42079500D01*
X49880247Y-42079500D01*
X49821770Y-42091131D01*
X49821769Y-42091132D01*
X49755447Y-42135447D01*
X49711132Y-42201769D01*
X49711131Y-42201770D01*
X49699500Y-42260247D01*
X48865038Y-42260247D01*
X48752642Y-42190655D01*
X48752635Y-42190651D01*
X48624810Y-42141132D01*
X48562456Y-42116976D01*
X48372512Y-42081469D01*
X48310232Y-42049802D01*
X48274959Y-41989489D01*
X48277893Y-41919681D01*
X48318102Y-41862541D01*
X48375900Y-41837108D01*
X48541118Y-41810940D01*
X48720832Y-41752547D01*
X48889199Y-41666760D01*
X49042073Y-41555690D01*
X49175690Y-41422073D01*
X49286760Y-41269199D01*
X49372547Y-41100832D01*
X49430940Y-40921118D01*
X49460500Y-40734486D01*
X49460500Y-40640000D01*
X49944540Y-40640000D01*
X49964326Y-40828256D01*
X49964327Y-40828259D01*
X50022818Y-41008277D01*
X50022821Y-41008284D01*
X50117467Y-41172216D01*
X50244129Y-41312888D01*
X50397265Y-41424148D01*
X50397270Y-41424151D01*
X50570192Y-41501142D01*
X50570197Y-41501144D01*
X50755354Y-41540500D01*
X50755355Y-41540500D01*
X50944644Y-41540500D01*
X50944646Y-41540500D01*
X51129803Y-41501144D01*
X51302730Y-41424151D01*
X51455871Y-41312888D01*
X51582533Y-41172216D01*
X51677179Y-41008284D01*
X51735674Y-40828256D01*
X51755460Y-40640000D01*
X55024539Y-40640000D01*
X55044325Y-40828256D01*
X55044326Y-40828259D01*
X55102817Y-41008277D01*
X55102820Y-41008284D01*
X55197466Y-41172216D01*
X55324128Y-41312888D01*
X55477264Y-41424148D01*
X55477269Y-41424151D01*
X55650191Y-41501142D01*
X55650196Y-41501144D01*
X55835353Y-41540500D01*
X55835354Y-41540500D01*
X56024643Y-41540500D01*
X56024645Y-41540500D01*
X56209802Y-41501144D01*
X56382729Y-41424151D01*
X56535870Y-41312888D01*
X56662532Y-41172216D01*
X56757178Y-41008284D01*
X56815673Y-40828256D01*
X56835459Y-40640000D01*
X56825528Y-40545513D01*
X62299500Y-40545513D01*
X62299500Y-40734486D01*
X62329059Y-40921118D01*
X62387454Y-41100836D01*
X62473240Y-41269199D01*
X62584310Y-41422073D01*
X62717927Y-41555690D01*
X62870801Y-41666760D01*
X62950347Y-41707290D01*
X63039163Y-41752545D01*
X63039165Y-41752545D01*
X63039168Y-41752547D01*
X63135497Y-41783846D01*
X63218881Y-41810940D01*
X63405514Y-41840500D01*
X63405519Y-41840500D01*
X68674486Y-41840500D01*
X68861118Y-41810940D01*
X69040832Y-41752547D01*
X69209199Y-41666760D01*
X69362073Y-41555690D01*
X69495690Y-41422073D01*
X69606760Y-41269199D01*
X69692547Y-41100832D01*
X69750940Y-40921118D01*
X69780500Y-40734486D01*
X69780500Y-40545513D01*
X69750940Y-40358881D01*
X69692545Y-40179163D01*
X69606759Y-40010800D01*
X69495690Y-39857927D01*
X69362073Y-39724310D01*
X69209199Y-39613240D01*
X69040836Y-39527454D01*
X68861118Y-39469059D01*
X68674486Y-39439500D01*
X68674481Y-39439500D01*
X63405519Y-39439500D01*
X63405514Y-39439500D01*
X63218881Y-39469059D01*
X63039163Y-39527454D01*
X62870800Y-39613240D01*
X62783579Y-39676610D01*
X62717927Y-39724310D01*
X62717925Y-39724312D01*
X62717924Y-39724312D01*
X62584312Y-39857924D01*
X62584312Y-39857925D01*
X62584310Y-39857927D01*
X62536610Y-39923579D01*
X62473240Y-40010800D01*
X62387454Y-40179163D01*
X62329059Y-40358881D01*
X62299500Y-40545513D01*
X56825528Y-40545513D01*
X56815673Y-40451744D01*
X56757178Y-40271716D01*
X56662532Y-40107784D01*
X56535870Y-39967112D01*
X56535869Y-39967111D01*
X56382733Y-39855851D01*
X56382728Y-39855848D01*
X56209806Y-39778857D01*
X56209801Y-39778855D01*
X56064000Y-39747865D01*
X56024645Y-39739500D01*
X55835353Y-39739500D01*
X55802896Y-39746398D01*
X55650196Y-39778855D01*
X55650191Y-39778857D01*
X55477269Y-39855848D01*
X55477264Y-39855851D01*
X55324128Y-39967111D01*
X55197465Y-40107785D01*
X55102820Y-40271715D01*
X55102817Y-40271722D01*
X55044326Y-40451740D01*
X55044325Y-40451744D01*
X55024539Y-40640000D01*
X51755460Y-40640000D01*
X51735674Y-40451744D01*
X51677179Y-40271716D01*
X51582533Y-40107784D01*
X51455871Y-39967112D01*
X51455870Y-39967111D01*
X51302734Y-39855851D01*
X51302729Y-39855848D01*
X51129807Y-39778857D01*
X51129802Y-39778855D01*
X50984001Y-39747865D01*
X50944646Y-39739500D01*
X50755354Y-39739500D01*
X50722897Y-39746398D01*
X50570197Y-39778855D01*
X50570192Y-39778857D01*
X50397270Y-39855848D01*
X50397265Y-39855851D01*
X50244129Y-39967111D01*
X50117466Y-40107785D01*
X50022821Y-40271715D01*
X50022818Y-40271722D01*
X49964327Y-40451740D01*
X49964326Y-40451744D01*
X49944540Y-40640000D01*
X49460500Y-40640000D01*
X49460500Y-40545513D01*
X49430940Y-40358881D01*
X49372545Y-40179163D01*
X49286759Y-40010800D01*
X49175690Y-39857927D01*
X49042073Y-39724310D01*
X48889199Y-39613240D01*
X48720836Y-39527454D01*
X48541118Y-39469059D01*
X48354486Y-39439500D01*
X48354481Y-39439500D01*
X45684319Y-39439500D01*
X45684314Y-39439500D01*
X45497681Y-39469059D01*
X45317963Y-39527454D01*
X45149600Y-39613240D01*
X45062379Y-39676610D01*
X44996727Y-39724310D01*
X44996725Y-39724312D01*
X44996724Y-39724312D01*
X44990981Y-39730056D01*
X44929658Y-39763541D01*
X44859966Y-39758557D01*
X44804033Y-39716685D01*
X44779616Y-39651221D01*
X44779300Y-39642375D01*
X44779300Y-35465513D01*
X47059500Y-35465513D01*
X47059500Y-35654486D01*
X47089059Y-35841118D01*
X47147454Y-36020836D01*
X47233240Y-36189199D01*
X47344310Y-36342073D01*
X47477927Y-36475690D01*
X47630801Y-36586760D01*
X47710347Y-36627290D01*
X47799163Y-36672545D01*
X47799165Y-36672545D01*
X47799168Y-36672547D01*
X47895497Y-36703846D01*
X47978881Y-36730940D01*
X48165514Y-36760500D01*
X48165519Y-36760500D01*
X68674486Y-36760500D01*
X68861118Y-36730940D01*
X69040832Y-36672547D01*
X69209199Y-36586760D01*
X69362073Y-36475690D01*
X69495690Y-36342073D01*
X69606760Y-36189199D01*
X69692547Y-36020832D01*
X69732069Y-35899195D01*
X69771507Y-35841521D01*
X69835866Y-35814323D01*
X69904712Y-35826238D01*
X69956188Y-35873482D01*
X69967931Y-35899196D01*
X70007454Y-36020836D01*
X70093240Y-36189199D01*
X70204310Y-36342073D01*
X70337927Y-36475690D01*
X70490801Y-36586760D01*
X70570347Y-36627290D01*
X70659163Y-36672545D01*
X70659165Y-36672545D01*
X70659168Y-36672547D01*
X70755497Y-36703846D01*
X70838881Y-36730940D01*
X71025514Y-36760500D01*
X73128090Y-36760500D01*
X73195129Y-36780185D01*
X73240884Y-36832989D01*
X73250828Y-36902147D01*
X73221803Y-36965703D01*
X73184385Y-36994985D01*
X73030800Y-37073240D01*
X72943579Y-37136610D01*
X72877927Y-37184310D01*
X72877925Y-37184312D01*
X72877924Y-37184312D01*
X72744312Y-37317924D01*
X72744312Y-37317925D01*
X72744310Y-37317927D01*
X72696610Y-37383579D01*
X72633240Y-37470800D01*
X72547454Y-37639163D01*
X72489059Y-37818881D01*
X72459500Y-38005513D01*
X72459500Y-38194486D01*
X72489059Y-38381118D01*
X72547454Y-38560836D01*
X72633240Y-38729199D01*
X72744310Y-38882073D01*
X72877927Y-39015690D01*
X73030801Y-39126760D01*
X73110347Y-39167290D01*
X73199163Y-39212545D01*
X73199165Y-39212545D01*
X73199168Y-39212547D01*
X73295497Y-39243846D01*
X73378881Y-39270940D01*
X73565514Y-39300500D01*
X80748090Y-39300500D01*
X80815129Y-39320185D01*
X80860884Y-39372989D01*
X80870828Y-39442147D01*
X80841803Y-39505703D01*
X80804385Y-39534985D01*
X80650800Y-39613240D01*
X80563579Y-39676610D01*
X80497927Y-39724310D01*
X80497925Y-39724312D01*
X80497924Y-39724312D01*
X80364312Y-39857924D01*
X80364312Y-39857925D01*
X80364310Y-39857927D01*
X80316610Y-39923579D01*
X80253240Y-40010800D01*
X80167454Y-40179163D01*
X80109059Y-40358881D01*
X80079500Y-40545513D01*
X80079500Y-40734486D01*
X80109059Y-40921118D01*
X80167454Y-41100836D01*
X80253240Y-41269199D01*
X80364310Y-41422073D01*
X80497927Y-41555690D01*
X80650801Y-41666760D01*
X80730347Y-41707290D01*
X80819163Y-41752545D01*
X80819165Y-41752545D01*
X80819168Y-41752547D01*
X80915497Y-41783846D01*
X80998881Y-41810940D01*
X81185514Y-41840500D01*
X81185519Y-41840500D01*
X106774486Y-41840500D01*
X106961118Y-41810940D01*
X107140832Y-41752547D01*
X107309199Y-41666760D01*
X107462073Y-41555690D01*
X107595690Y-41422073D01*
X107706760Y-41269199D01*
X107792547Y-41100832D01*
X107850940Y-40921118D01*
X107880500Y-40734486D01*
X107880500Y-40545513D01*
X107850940Y-40358881D01*
X107792545Y-40179163D01*
X107706759Y-40010800D01*
X107595690Y-39857927D01*
X107462073Y-39724310D01*
X107309199Y-39613240D01*
X107155615Y-39534985D01*
X107104819Y-39487010D01*
X107088024Y-39419189D01*
X107110561Y-39353054D01*
X107165277Y-39309603D01*
X107211910Y-39300500D01*
X109314486Y-39300500D01*
X109501118Y-39270940D01*
X109680832Y-39212547D01*
X109849199Y-39126760D01*
X110002073Y-39015690D01*
X110135690Y-38882073D01*
X110246760Y-38729199D01*
X110332547Y-38560832D01*
X110390940Y-38381118D01*
X110420500Y-38194486D01*
X110420500Y-38005513D01*
X110390940Y-37818881D01*
X110332545Y-37639163D01*
X110246759Y-37470800D01*
X110135690Y-37317927D01*
X110002073Y-37184310D01*
X109849199Y-37073240D01*
X109680836Y-36987454D01*
X109501118Y-36929059D01*
X109314486Y-36899500D01*
X109314481Y-36899500D01*
X102131910Y-36899500D01*
X102064871Y-36879815D01*
X102019116Y-36827011D01*
X102009172Y-36757853D01*
X102038197Y-36694297D01*
X102075615Y-36665015D01*
X102110224Y-36647380D01*
X102229199Y-36586760D01*
X102382073Y-36475690D01*
X102515690Y-36342073D01*
X102626760Y-36189199D01*
X102712547Y-36020832D01*
X102770940Y-35841118D01*
X102775184Y-35814323D01*
X102800500Y-35654486D01*
X102800500Y-35465513D01*
X102770940Y-35278881D01*
X102712545Y-35099163D01*
X102626759Y-34930800D01*
X102515690Y-34777927D01*
X102382073Y-34644310D01*
X102229199Y-34533240D01*
X102060836Y-34447454D01*
X101881118Y-34389059D01*
X101694486Y-34359500D01*
X101694481Y-34359500D01*
X98965519Y-34359500D01*
X98965514Y-34359500D01*
X98778881Y-34389059D01*
X98599163Y-34447454D01*
X98430800Y-34533240D01*
X98343579Y-34596610D01*
X98277927Y-34644310D01*
X98277925Y-34644312D01*
X98277924Y-34644312D01*
X98144312Y-34777924D01*
X98144312Y-34777925D01*
X98144310Y-34777927D01*
X98096610Y-34843579D01*
X98033240Y-34930800D01*
X97947454Y-35099163D01*
X97889059Y-35278881D01*
X97859500Y-35465513D01*
X97859500Y-35654486D01*
X97889059Y-35841118D01*
X97947454Y-36020836D01*
X98033240Y-36189199D01*
X98144310Y-36342073D01*
X98277927Y-36475690D01*
X98430801Y-36586760D01*
X98527207Y-36635881D01*
X98584385Y-36665015D01*
X98635181Y-36712990D01*
X98651976Y-36780811D01*
X98629439Y-36846946D01*
X98574723Y-36890397D01*
X98528090Y-36899500D01*
X84351910Y-36899500D01*
X84284871Y-36879815D01*
X84239116Y-36827011D01*
X84229172Y-36757853D01*
X84258197Y-36694297D01*
X84295615Y-36665015D01*
X84330224Y-36647380D01*
X84449199Y-36586760D01*
X84602073Y-36475690D01*
X84735690Y-36342073D01*
X84846760Y-36189199D01*
X84932547Y-36020832D01*
X84990940Y-35841118D01*
X84995184Y-35814323D01*
X85020500Y-35654486D01*
X85020500Y-35465513D01*
X84990940Y-35278881D01*
X84932545Y-35099163D01*
X84846759Y-34930800D01*
X84735690Y-34777927D01*
X84602073Y-34644310D01*
X84449199Y-34533240D01*
X84295615Y-34454985D01*
X84244819Y-34407010D01*
X84228024Y-34339189D01*
X84250561Y-34273054D01*
X84305277Y-34229603D01*
X84351910Y-34220500D01*
X88994486Y-34220500D01*
X89181118Y-34190940D01*
X89360832Y-34132547D01*
X89529199Y-34046760D01*
X89682073Y-33935690D01*
X89815690Y-33802073D01*
X89926760Y-33649199D01*
X90012547Y-33480832D01*
X90070940Y-33301118D01*
X90100500Y-33114486D01*
X90100500Y-32925513D01*
X90070940Y-32738881D01*
X90012545Y-32559163D01*
X89926759Y-32390800D01*
X89815690Y-32237927D01*
X89682073Y-32104310D01*
X89529199Y-31993240D01*
X89384476Y-31919500D01*
X89375615Y-31914985D01*
X89324819Y-31867010D01*
X89308024Y-31799189D01*
X89330561Y-31733054D01*
X89385277Y-31689603D01*
X89431910Y-31680500D01*
X91534486Y-31680500D01*
X91721118Y-31650940D01*
X91900832Y-31592547D01*
X92069199Y-31506760D01*
X92222073Y-31395690D01*
X92355690Y-31262073D01*
X92466760Y-31109199D01*
X92552547Y-30940832D01*
X92610940Y-30761118D01*
X92640500Y-30574486D01*
X92640500Y-30385513D01*
X92610940Y-30198881D01*
X92552545Y-30019163D01*
X92466759Y-29850800D01*
X92355690Y-29697927D01*
X92222073Y-29564310D01*
X92069199Y-29453240D01*
X91900836Y-29367454D01*
X91721118Y-29309059D01*
X91534486Y-29279500D01*
X91534481Y-29279500D01*
X78645519Y-29279500D01*
X78645514Y-29279500D01*
X78458881Y-29309059D01*
X78279163Y-29367454D01*
X78110800Y-29453240D01*
X78023579Y-29516610D01*
X77957927Y-29564310D01*
X77957925Y-29564312D01*
X77957924Y-29564312D01*
X77824312Y-29697924D01*
X77824312Y-29697925D01*
X77824310Y-29697927D01*
X77776610Y-29763579D01*
X77713240Y-29850800D01*
X77627454Y-30019163D01*
X77569059Y-30198881D01*
X77539500Y-30385513D01*
X77539500Y-30574486D01*
X77569059Y-30761118D01*
X77627454Y-30940836D01*
X77713240Y-31109199D01*
X77824310Y-31262073D01*
X77957927Y-31395690D01*
X78110801Y-31506760D01*
X78190347Y-31547290D01*
X78279163Y-31592545D01*
X78279165Y-31592545D01*
X78279168Y-31592547D01*
X78375497Y-31623846D01*
X78458881Y-31650940D01*
X78645514Y-31680500D01*
X83288090Y-31680500D01*
X83355129Y-31700185D01*
X83400884Y-31752989D01*
X83410828Y-31822147D01*
X83381803Y-31885703D01*
X83344385Y-31914985D01*
X83190800Y-31993240D01*
X83103579Y-32056610D01*
X83037927Y-32104310D01*
X83037925Y-32104312D01*
X83037924Y-32104312D01*
X82904312Y-32237924D01*
X82904312Y-32237925D01*
X82904310Y-32237927D01*
X82877071Y-32275418D01*
X82793240Y-32390800D01*
X82707454Y-32559163D01*
X82649059Y-32738881D01*
X82619500Y-32925513D01*
X82619500Y-33114486D01*
X82649059Y-33301118D01*
X82707454Y-33480836D01*
X82793240Y-33649199D01*
X82904310Y-33802073D01*
X83037927Y-33935690D01*
X83190801Y-34046760D01*
X83287207Y-34095881D01*
X83344385Y-34125015D01*
X83395181Y-34172990D01*
X83411976Y-34240811D01*
X83389439Y-34306946D01*
X83334723Y-34350397D01*
X83288090Y-34359500D01*
X81185514Y-34359500D01*
X80998881Y-34389059D01*
X80819163Y-34447454D01*
X80650800Y-34533240D01*
X80563579Y-34596610D01*
X80497927Y-34644310D01*
X80497925Y-34644312D01*
X80497924Y-34644312D01*
X80364312Y-34777924D01*
X80364312Y-34777925D01*
X80364310Y-34777927D01*
X80316610Y-34843579D01*
X80253240Y-34930800D01*
X80167454Y-35099163D01*
X80109059Y-35278881D01*
X80079500Y-35465513D01*
X80079500Y-35654486D01*
X80109059Y-35841118D01*
X80167454Y-36020836D01*
X80253240Y-36189199D01*
X80364310Y-36342073D01*
X80497927Y-36475690D01*
X80650801Y-36586760D01*
X80747207Y-36635881D01*
X80804385Y-36665015D01*
X80855181Y-36712990D01*
X80871976Y-36780811D01*
X80849439Y-36846946D01*
X80794723Y-36890397D01*
X80748090Y-36899500D01*
X76731910Y-36899500D01*
X76664871Y-36879815D01*
X76619116Y-36827011D01*
X76609172Y-36757853D01*
X76638197Y-36694297D01*
X76675615Y-36665015D01*
X76710224Y-36647380D01*
X76829199Y-36586760D01*
X76982073Y-36475690D01*
X77115690Y-36342073D01*
X77226760Y-36189199D01*
X77312547Y-36020832D01*
X77370940Y-35841118D01*
X77375184Y-35814323D01*
X77400500Y-35654486D01*
X77400500Y-35465513D01*
X77370940Y-35278881D01*
X77312545Y-35099163D01*
X77226759Y-34930800D01*
X77115690Y-34777927D01*
X76982073Y-34644310D01*
X76829199Y-34533240D01*
X76660836Y-34447454D01*
X76481118Y-34389059D01*
X76294486Y-34359500D01*
X76294481Y-34359500D01*
X74191910Y-34359500D01*
X74124871Y-34339815D01*
X74079116Y-34287011D01*
X74069172Y-34217853D01*
X74098197Y-34154297D01*
X74135615Y-34125015D01*
X74170224Y-34107380D01*
X74289199Y-34046760D01*
X74442073Y-33935690D01*
X74575690Y-33802073D01*
X74686760Y-33649199D01*
X74772547Y-33480832D01*
X74830940Y-33301118D01*
X74860500Y-33114486D01*
X74860500Y-32925513D01*
X74830940Y-32738881D01*
X74772545Y-32559163D01*
X74686759Y-32390800D01*
X74575690Y-32237927D01*
X74442073Y-32104310D01*
X74289199Y-31993240D01*
X74120836Y-31907454D01*
X73941118Y-31849059D01*
X73754486Y-31819500D01*
X73754481Y-31819500D01*
X71651910Y-31819500D01*
X71584871Y-31799815D01*
X71539116Y-31747011D01*
X71529172Y-31677853D01*
X71558197Y-31614297D01*
X71595615Y-31585015D01*
X71630224Y-31567380D01*
X71749199Y-31506760D01*
X71902073Y-31395690D01*
X72035690Y-31262073D01*
X72146760Y-31109199D01*
X72232547Y-30940832D01*
X72290940Y-30761118D01*
X72320500Y-30574486D01*
X72320500Y-30385513D01*
X72290940Y-30198881D01*
X72232545Y-30019163D01*
X72146759Y-29850800D01*
X72035690Y-29697927D01*
X71902073Y-29564310D01*
X71749199Y-29453240D01*
X71580836Y-29367454D01*
X71401118Y-29309059D01*
X71214486Y-29279500D01*
X71214481Y-29279500D01*
X55785519Y-29279500D01*
X55785514Y-29279500D01*
X55598881Y-29309059D01*
X55419163Y-29367454D01*
X55250800Y-29453240D01*
X55163579Y-29516610D01*
X55097927Y-29564310D01*
X55097925Y-29564312D01*
X55097924Y-29564312D01*
X54964312Y-29697924D01*
X54964312Y-29697925D01*
X54964310Y-29697927D01*
X54916610Y-29763579D01*
X54853240Y-29850800D01*
X54767454Y-30019163D01*
X54709059Y-30198881D01*
X54679500Y-30385513D01*
X54679500Y-30574486D01*
X54709059Y-30761118D01*
X54767454Y-30940836D01*
X54853240Y-31109199D01*
X54964310Y-31262073D01*
X55097927Y-31395690D01*
X55250801Y-31506760D01*
X55330347Y-31547290D01*
X55419163Y-31592545D01*
X55419165Y-31592545D01*
X55419168Y-31592547D01*
X55515497Y-31623846D01*
X55598881Y-31650940D01*
X55785514Y-31680500D01*
X65508090Y-31680500D01*
X65575129Y-31700185D01*
X65620884Y-31752989D01*
X65630828Y-31822147D01*
X65601803Y-31885703D01*
X65564385Y-31914985D01*
X65410800Y-31993240D01*
X65323579Y-32056610D01*
X65257927Y-32104310D01*
X65257925Y-32104312D01*
X65257924Y-32104312D01*
X65124312Y-32237924D01*
X65124312Y-32237925D01*
X65124310Y-32237927D01*
X65097071Y-32275418D01*
X65013240Y-32390800D01*
X64927454Y-32559163D01*
X64869059Y-32738881D01*
X64839500Y-32925513D01*
X64839500Y-33114486D01*
X64869059Y-33301118D01*
X64927454Y-33480836D01*
X65013240Y-33649199D01*
X65124310Y-33802073D01*
X65257927Y-33935690D01*
X65410801Y-34046760D01*
X65507207Y-34095881D01*
X65564385Y-34125015D01*
X65615181Y-34172990D01*
X65631976Y-34240811D01*
X65609439Y-34306946D01*
X65554723Y-34350397D01*
X65508090Y-34359500D01*
X51777209Y-34359500D01*
X51710170Y-34339815D01*
X51664415Y-34287011D01*
X51654471Y-34217853D01*
X51683496Y-34154297D01*
X51742274Y-34116523D01*
X51753018Y-34113883D01*
X51778229Y-34108868D01*
X51778229Y-34108867D01*
X51778231Y-34108867D01*
X51844552Y-34064552D01*
X51888867Y-33998231D01*
X51888867Y-33998229D01*
X51888868Y-33998229D01*
X51900499Y-33939752D01*
X51900500Y-33939750D01*
X51900500Y-32100249D01*
X51900499Y-32100247D01*
X51888868Y-32041770D01*
X51888867Y-32041769D01*
X51844552Y-31975447D01*
X51778230Y-31931132D01*
X51778229Y-31931131D01*
X51719752Y-31919500D01*
X51719748Y-31919500D01*
X49880252Y-31919500D01*
X49880247Y-31919500D01*
X49821770Y-31931131D01*
X49821769Y-31931132D01*
X49755447Y-31975447D01*
X49711132Y-32041769D01*
X49711131Y-32041770D01*
X49699500Y-32100247D01*
X49699500Y-33939752D01*
X49711131Y-33998229D01*
X49711132Y-33998230D01*
X49755447Y-34064552D01*
X49821769Y-34108867D01*
X49821770Y-34108868D01*
X49846982Y-34113883D01*
X49908893Y-34146268D01*
X49943467Y-34206984D01*
X49939728Y-34276753D01*
X49898861Y-34333425D01*
X49833843Y-34359006D01*
X49822791Y-34359500D01*
X48421612Y-34359500D01*
X48354573Y-34339815D01*
X48308818Y-34287011D01*
X48298874Y-34217853D01*
X48327899Y-34154297D01*
X48386677Y-34116523D01*
X48398819Y-34113612D01*
X48562456Y-34083024D01*
X48752637Y-34009348D01*
X48926041Y-33901981D01*
X49076764Y-33764579D01*
X49199673Y-33601821D01*
X49290582Y-33419250D01*
X49346397Y-33223083D01*
X49365215Y-33020000D01*
X49346397Y-32816917D01*
X49290582Y-32620750D01*
X49199673Y-32438179D01*
X49076764Y-32275421D01*
X49076762Y-32275418D01*
X48926041Y-32138019D01*
X48926039Y-32138017D01*
X48752642Y-32030655D01*
X48752635Y-32030651D01*
X48610135Y-31975447D01*
X48562456Y-31956976D01*
X48361976Y-31919500D01*
X48158024Y-31919500D01*
X47957544Y-31956976D01*
X47957541Y-31956976D01*
X47957541Y-31956977D01*
X47767364Y-32030651D01*
X47767357Y-32030655D01*
X47593960Y-32138017D01*
X47593958Y-32138019D01*
X47443237Y-32275418D01*
X47320327Y-32438178D01*
X47229422Y-32620739D01*
X47229417Y-32620752D01*
X47173602Y-32816917D01*
X47154785Y-33019999D01*
X47154785Y-33020000D01*
X47173602Y-33223082D01*
X47229417Y-33419247D01*
X47229422Y-33419260D01*
X47320327Y-33601821D01*
X47443237Y-33764581D01*
X47593958Y-33901980D01*
X47593960Y-33901982D01*
X47648396Y-33935687D01*
X47767363Y-34009348D01*
X47957544Y-34083024D01*
X48147489Y-34118530D01*
X48209767Y-34150197D01*
X48245040Y-34210509D01*
X48242107Y-34280317D01*
X48201898Y-34337458D01*
X48144100Y-34362891D01*
X47978880Y-34389060D01*
X47799163Y-34447454D01*
X47630800Y-34533240D01*
X47543579Y-34596610D01*
X47477927Y-34644310D01*
X47477925Y-34644312D01*
X47477924Y-34644312D01*
X47344312Y-34777924D01*
X47344312Y-34777925D01*
X47344310Y-34777927D01*
X47296610Y-34843579D01*
X47233240Y-34930800D01*
X47147454Y-35099163D01*
X47089059Y-35278881D01*
X47059500Y-35465513D01*
X44779300Y-35465513D01*
X44779300Y-27940000D01*
X49894540Y-27940000D01*
X49914326Y-28128256D01*
X49914327Y-28128259D01*
X49972818Y-28308277D01*
X49972821Y-28308284D01*
X50067467Y-28472216D01*
X50194129Y-28612888D01*
X50347265Y-28724148D01*
X50347270Y-28724151D01*
X50520192Y-28801142D01*
X50520197Y-28801144D01*
X50705354Y-28840500D01*
X50705355Y-28840500D01*
X50894644Y-28840500D01*
X50894646Y-28840500D01*
X51079803Y-28801144D01*
X51252730Y-28724151D01*
X51405871Y-28612888D01*
X51532533Y-28472216D01*
X51627179Y-28308284D01*
X51685674Y-28128256D01*
X51705460Y-27940000D01*
X54974539Y-27940000D01*
X54994325Y-28128256D01*
X54994326Y-28128259D01*
X55052817Y-28308277D01*
X55052820Y-28308284D01*
X55147466Y-28472216D01*
X55274128Y-28612888D01*
X55427264Y-28724148D01*
X55427269Y-28724151D01*
X55600191Y-28801142D01*
X55600196Y-28801144D01*
X55785353Y-28840500D01*
X55785354Y-28840500D01*
X55974643Y-28840500D01*
X55974645Y-28840500D01*
X56159802Y-28801144D01*
X56332729Y-28724151D01*
X56485870Y-28612888D01*
X56612532Y-28472216D01*
X56707178Y-28308284D01*
X56765673Y-28128256D01*
X56785459Y-27940000D01*
X56765673Y-27751744D01*
X56707178Y-27571716D01*
X56612532Y-27407784D01*
X56485870Y-27267112D01*
X56485869Y-27267111D01*
X56332733Y-27155851D01*
X56332728Y-27155848D01*
X56159806Y-27078857D01*
X56159801Y-27078855D01*
X56119302Y-27070247D01*
X62449500Y-27070247D01*
X62449500Y-28809752D01*
X62461131Y-28868229D01*
X62461132Y-28868230D01*
X62505447Y-28934552D01*
X62571769Y-28978867D01*
X62571770Y-28978868D01*
X62630247Y-28990499D01*
X62630250Y-28990500D01*
X62630252Y-28990500D01*
X64369750Y-28990500D01*
X64369751Y-28990499D01*
X64384568Y-28987552D01*
X64428229Y-28978868D01*
X64428229Y-28978867D01*
X64428231Y-28978867D01*
X64494552Y-28934552D01*
X64538867Y-28868231D01*
X64538867Y-28868229D01*
X64538868Y-28868229D01*
X64550499Y-28809752D01*
X64550500Y-28809750D01*
X64550500Y-27940000D01*
X64984417Y-27940000D01*
X65004699Y-28145932D01*
X65004700Y-28145934D01*
X65064768Y-28343954D01*
X65162315Y-28526450D01*
X65162317Y-28526452D01*
X65293589Y-28686410D01*
X65390209Y-28765702D01*
X65453550Y-28817685D01*
X65636046Y-28915232D01*
X65834066Y-28975300D01*
X65834065Y-28975300D01*
X65852529Y-28977118D01*
X66040000Y-28995583D01*
X66245934Y-28975300D01*
X66443954Y-28915232D01*
X66626450Y-28817685D01*
X66786410Y-28686410D01*
X66917685Y-28526450D01*
X67015232Y-28343954D01*
X67075300Y-28145934D01*
X67095583Y-27940000D01*
X67524417Y-27940000D01*
X67544699Y-28145932D01*
X67544700Y-28145934D01*
X67604768Y-28343954D01*
X67702315Y-28526450D01*
X67702317Y-28526452D01*
X67833589Y-28686410D01*
X67930209Y-28765702D01*
X67993550Y-28817685D01*
X68176046Y-28915232D01*
X68374066Y-28975300D01*
X68374065Y-28975300D01*
X68392529Y-28977118D01*
X68580000Y-28995583D01*
X68785934Y-28975300D01*
X68983954Y-28915232D01*
X69166450Y-28817685D01*
X69326410Y-28686410D01*
X69457685Y-28526450D01*
X69555232Y-28343954D01*
X69615300Y-28145934D01*
X69635583Y-27940000D01*
X70064417Y-27940000D01*
X70084699Y-28145932D01*
X70084700Y-28145934D01*
X70144768Y-28343954D01*
X70242315Y-28526450D01*
X70242317Y-28526452D01*
X70373589Y-28686410D01*
X70470209Y-28765702D01*
X70533550Y-28817685D01*
X70716046Y-28915232D01*
X70914066Y-28975300D01*
X70914065Y-28975300D01*
X70932529Y-28977118D01*
X71120000Y-28995583D01*
X71325934Y-28975300D01*
X71523954Y-28915232D01*
X71706450Y-28817685D01*
X71866410Y-28686410D01*
X71997685Y-28526450D01*
X72095232Y-28343954D01*
X72155300Y-28145934D01*
X72175583Y-27940000D01*
X72604417Y-27940000D01*
X72624699Y-28145932D01*
X72624700Y-28145934D01*
X72684768Y-28343954D01*
X72782315Y-28526450D01*
X72782317Y-28526452D01*
X72913589Y-28686410D01*
X73010209Y-28765702D01*
X73073550Y-28817685D01*
X73256046Y-28915232D01*
X73454066Y-28975300D01*
X73454065Y-28975300D01*
X73472529Y-28977118D01*
X73660000Y-28995583D01*
X73865934Y-28975300D01*
X74063954Y-28915232D01*
X74246450Y-28817685D01*
X74406410Y-28686410D01*
X74537685Y-28526450D01*
X74635232Y-28343954D01*
X74695300Y-28145934D01*
X74715583Y-27940000D01*
X75144417Y-27940000D01*
X75164699Y-28145932D01*
X75164700Y-28145934D01*
X75224768Y-28343954D01*
X75322315Y-28526450D01*
X75322317Y-28526452D01*
X75453589Y-28686410D01*
X75550209Y-28765702D01*
X75613550Y-28817685D01*
X75796046Y-28915232D01*
X75994066Y-28975300D01*
X75994065Y-28975300D01*
X76012529Y-28977118D01*
X76200000Y-28995583D01*
X76405934Y-28975300D01*
X76603954Y-28915232D01*
X76786450Y-28817685D01*
X76946410Y-28686410D01*
X77077685Y-28526450D01*
X77175232Y-28343954D01*
X77235300Y-28145934D01*
X77255583Y-27940000D01*
X77684417Y-27940000D01*
X77704699Y-28145932D01*
X77704700Y-28145934D01*
X77764768Y-28343954D01*
X77862315Y-28526450D01*
X77862317Y-28526452D01*
X77993589Y-28686410D01*
X78090209Y-28765702D01*
X78153550Y-28817685D01*
X78336046Y-28915232D01*
X78534066Y-28975300D01*
X78534065Y-28975300D01*
X78552529Y-28977118D01*
X78740000Y-28995583D01*
X78945934Y-28975300D01*
X79143954Y-28915232D01*
X79326450Y-28817685D01*
X79486410Y-28686410D01*
X79617685Y-28526450D01*
X79715232Y-28343954D01*
X79775300Y-28145934D01*
X79795583Y-27940000D01*
X80224417Y-27940000D01*
X80244699Y-28145932D01*
X80244700Y-28145934D01*
X80304768Y-28343954D01*
X80402315Y-28526450D01*
X80402317Y-28526452D01*
X80533589Y-28686410D01*
X80630209Y-28765702D01*
X80693550Y-28817685D01*
X80876046Y-28915232D01*
X81074066Y-28975300D01*
X81074065Y-28975300D01*
X81092529Y-28977118D01*
X81280000Y-28995583D01*
X81485934Y-28975300D01*
X81683954Y-28915232D01*
X81866450Y-28817685D01*
X82026410Y-28686410D01*
X82157685Y-28526450D01*
X82255232Y-28343954D01*
X82315300Y-28145934D01*
X82335583Y-27940000D01*
X82764417Y-27940000D01*
X82784699Y-28145932D01*
X82784700Y-28145934D01*
X82844768Y-28343954D01*
X82942315Y-28526450D01*
X82942317Y-28526452D01*
X83073589Y-28686410D01*
X83170209Y-28765702D01*
X83233550Y-28817685D01*
X83416046Y-28915232D01*
X83614066Y-28975300D01*
X83614065Y-28975300D01*
X83632529Y-28977118D01*
X83820000Y-28995583D01*
X84025934Y-28975300D01*
X84223954Y-28915232D01*
X84406450Y-28817685D01*
X84566410Y-28686410D01*
X84697685Y-28526450D01*
X84795232Y-28343954D01*
X84855300Y-28145934D01*
X84875583Y-27940000D01*
X85304417Y-27940000D01*
X85324699Y-28145932D01*
X85324700Y-28145934D01*
X85384768Y-28343954D01*
X85482315Y-28526450D01*
X85482317Y-28526452D01*
X85613589Y-28686410D01*
X85710209Y-28765702D01*
X85773550Y-28817685D01*
X85956046Y-28915232D01*
X86154066Y-28975300D01*
X86154065Y-28975300D01*
X86172529Y-28977118D01*
X86360000Y-28995583D01*
X86565934Y-28975300D01*
X86763954Y-28915232D01*
X86946450Y-28817685D01*
X87106410Y-28686410D01*
X87237685Y-28526450D01*
X87335232Y-28343954D01*
X87395300Y-28145934D01*
X87415583Y-27940000D01*
X87395300Y-27734066D01*
X87335232Y-27536046D01*
X87237685Y-27353550D01*
X87166747Y-27267111D01*
X87106410Y-27193589D01*
X86988677Y-27096969D01*
X86956115Y-27070247D01*
X89373500Y-27070247D01*
X89373500Y-28809752D01*
X89385131Y-28868229D01*
X89385132Y-28868230D01*
X89429447Y-28934552D01*
X89495769Y-28978867D01*
X89495770Y-28978868D01*
X89554247Y-28990499D01*
X89554250Y-28990500D01*
X89554252Y-28990500D01*
X91293750Y-28990500D01*
X91293751Y-28990499D01*
X91308568Y-28987552D01*
X91352229Y-28978868D01*
X91352229Y-28978867D01*
X91352231Y-28978867D01*
X91418552Y-28934552D01*
X91462867Y-28868231D01*
X91462867Y-28868229D01*
X91462868Y-28868229D01*
X91474499Y-28809752D01*
X91474500Y-28809750D01*
X91474500Y-27940000D01*
X91908417Y-27940000D01*
X91928699Y-28145932D01*
X91928700Y-28145934D01*
X91988768Y-28343954D01*
X92086315Y-28526450D01*
X92086317Y-28526452D01*
X92217589Y-28686410D01*
X92314209Y-28765702D01*
X92377550Y-28817685D01*
X92560046Y-28915232D01*
X92758066Y-28975300D01*
X92758065Y-28975300D01*
X92776529Y-28977118D01*
X92964000Y-28995583D01*
X93169934Y-28975300D01*
X93367954Y-28915232D01*
X93550450Y-28817685D01*
X93710410Y-28686410D01*
X93841685Y-28526450D01*
X93939232Y-28343954D01*
X93999300Y-28145934D01*
X94019583Y-27940000D01*
X94448417Y-27940000D01*
X94468699Y-28145932D01*
X94468700Y-28145934D01*
X94528768Y-28343954D01*
X94626315Y-28526450D01*
X94626317Y-28526452D01*
X94757589Y-28686410D01*
X94854209Y-28765702D01*
X94917550Y-28817685D01*
X95100046Y-28915232D01*
X95298066Y-28975300D01*
X95298065Y-28975300D01*
X95316529Y-28977118D01*
X95504000Y-28995583D01*
X95709934Y-28975300D01*
X95907954Y-28915232D01*
X96090450Y-28817685D01*
X96250410Y-28686410D01*
X96381685Y-28526450D01*
X96479232Y-28343954D01*
X96539300Y-28145934D01*
X96559583Y-27940000D01*
X96988417Y-27940000D01*
X97008699Y-28145932D01*
X97008700Y-28145934D01*
X97068768Y-28343954D01*
X97166315Y-28526450D01*
X97166317Y-28526452D01*
X97297589Y-28686410D01*
X97394209Y-28765702D01*
X97457550Y-28817685D01*
X97640046Y-28915232D01*
X97838066Y-28975300D01*
X97838065Y-28975300D01*
X97856529Y-28977118D01*
X98044000Y-28995583D01*
X98249934Y-28975300D01*
X98447954Y-28915232D01*
X98630450Y-28817685D01*
X98790410Y-28686410D01*
X98921685Y-28526450D01*
X99019232Y-28343954D01*
X99079300Y-28145934D01*
X99099583Y-27940000D01*
X99528417Y-27940000D01*
X99548699Y-28145932D01*
X99548700Y-28145934D01*
X99608768Y-28343954D01*
X99706315Y-28526450D01*
X99706317Y-28526452D01*
X99837589Y-28686410D01*
X99934209Y-28765702D01*
X99997550Y-28817685D01*
X100180046Y-28915232D01*
X100378066Y-28975300D01*
X100378065Y-28975300D01*
X100396529Y-28977118D01*
X100584000Y-28995583D01*
X100789934Y-28975300D01*
X100987954Y-28915232D01*
X101170450Y-28817685D01*
X101330410Y-28686410D01*
X101461685Y-28526450D01*
X101559232Y-28343954D01*
X101619300Y-28145934D01*
X101639583Y-27940000D01*
X102068417Y-27940000D01*
X102088699Y-28145932D01*
X102088700Y-28145934D01*
X102148768Y-28343954D01*
X102246315Y-28526450D01*
X102246317Y-28526452D01*
X102377589Y-28686410D01*
X102474209Y-28765702D01*
X102537550Y-28817685D01*
X102720046Y-28915232D01*
X102918066Y-28975300D01*
X102918065Y-28975300D01*
X102936529Y-28977118D01*
X103124000Y-28995583D01*
X103329934Y-28975300D01*
X103527954Y-28915232D01*
X103710450Y-28817685D01*
X103870410Y-28686410D01*
X104001685Y-28526450D01*
X104099232Y-28343954D01*
X104159300Y-28145934D01*
X104179583Y-27940000D01*
X104608417Y-27940000D01*
X104628699Y-28145932D01*
X104628700Y-28145934D01*
X104688768Y-28343954D01*
X104786315Y-28526450D01*
X104786317Y-28526452D01*
X104917589Y-28686410D01*
X105014209Y-28765702D01*
X105077550Y-28817685D01*
X105260046Y-28915232D01*
X105458066Y-28975300D01*
X105458065Y-28975300D01*
X105476529Y-28977118D01*
X105664000Y-28995583D01*
X105869934Y-28975300D01*
X106067954Y-28915232D01*
X106250450Y-28817685D01*
X106410410Y-28686410D01*
X106541685Y-28526450D01*
X106639232Y-28343954D01*
X106699300Y-28145934D01*
X106719583Y-27940000D01*
X107148417Y-27940000D01*
X107168699Y-28145932D01*
X107168700Y-28145934D01*
X107228768Y-28343954D01*
X107326315Y-28526450D01*
X107326317Y-28526452D01*
X107457589Y-28686410D01*
X107554209Y-28765702D01*
X107617550Y-28817685D01*
X107800046Y-28915232D01*
X107998066Y-28975300D01*
X107998065Y-28975300D01*
X108016529Y-28977118D01*
X108204000Y-28995583D01*
X108409934Y-28975300D01*
X108607954Y-28915232D01*
X108790450Y-28817685D01*
X108950410Y-28686410D01*
X109081685Y-28526450D01*
X109179232Y-28343954D01*
X109239300Y-28145934D01*
X109259583Y-27940000D01*
X109239300Y-27734066D01*
X109179232Y-27536046D01*
X109081685Y-27353550D01*
X109010747Y-27267111D01*
X108950410Y-27193589D01*
X108832677Y-27096969D01*
X108790450Y-27062315D01*
X108607954Y-26964768D01*
X108409934Y-26904700D01*
X108409932Y-26904699D01*
X108409934Y-26904699D01*
X108204000Y-26884417D01*
X107998067Y-26904699D01*
X107800043Y-26964769D01*
X107712114Y-27011769D01*
X107617550Y-27062315D01*
X107617548Y-27062316D01*
X107617547Y-27062317D01*
X107457589Y-27193589D01*
X107326317Y-27353547D01*
X107228769Y-27536043D01*
X107168699Y-27734067D01*
X107148417Y-27940000D01*
X106719583Y-27940000D01*
X106699300Y-27734066D01*
X106639232Y-27536046D01*
X106541685Y-27353550D01*
X106470747Y-27267111D01*
X106410410Y-27193589D01*
X106292677Y-27096969D01*
X106250450Y-27062315D01*
X106067954Y-26964768D01*
X105869934Y-26904700D01*
X105869932Y-26904699D01*
X105869934Y-26904699D01*
X105664000Y-26884417D01*
X105458067Y-26904699D01*
X105260043Y-26964769D01*
X105172114Y-27011769D01*
X105077550Y-27062315D01*
X105077548Y-27062316D01*
X105077547Y-27062317D01*
X104917589Y-27193589D01*
X104786317Y-27353547D01*
X104688769Y-27536043D01*
X104628699Y-27734067D01*
X104608417Y-27940000D01*
X104179583Y-27940000D01*
X104159300Y-27734066D01*
X104099232Y-27536046D01*
X104001685Y-27353550D01*
X103930747Y-27267111D01*
X103870410Y-27193589D01*
X103752677Y-27096969D01*
X103710450Y-27062315D01*
X103527954Y-26964768D01*
X103329934Y-26904700D01*
X103329932Y-26904699D01*
X103329934Y-26904699D01*
X103124000Y-26884417D01*
X102918067Y-26904699D01*
X102720043Y-26964769D01*
X102632114Y-27011769D01*
X102537550Y-27062315D01*
X102537548Y-27062316D01*
X102537547Y-27062317D01*
X102377589Y-27193589D01*
X102246317Y-27353547D01*
X102148769Y-27536043D01*
X102088699Y-27734067D01*
X102068417Y-27940000D01*
X101639583Y-27940000D01*
X101619300Y-27734066D01*
X101559232Y-27536046D01*
X101461685Y-27353550D01*
X101390747Y-27267111D01*
X101330410Y-27193589D01*
X101212677Y-27096969D01*
X101170450Y-27062315D01*
X100987954Y-26964768D01*
X100789934Y-26904700D01*
X100789932Y-26904699D01*
X100789934Y-26904699D01*
X100584000Y-26884417D01*
X100378067Y-26904699D01*
X100180043Y-26964769D01*
X100092114Y-27011769D01*
X99997550Y-27062315D01*
X99997548Y-27062316D01*
X99997547Y-27062317D01*
X99837589Y-27193589D01*
X99706317Y-27353547D01*
X99608769Y-27536043D01*
X99548699Y-27734067D01*
X99528417Y-27940000D01*
X99099583Y-27940000D01*
X99079300Y-27734066D01*
X99019232Y-27536046D01*
X98921685Y-27353550D01*
X98850747Y-27267111D01*
X98790410Y-27193589D01*
X98672677Y-27096969D01*
X98630450Y-27062315D01*
X98447954Y-26964768D01*
X98249934Y-26904700D01*
X98249932Y-26904699D01*
X98249934Y-26904699D01*
X98044000Y-26884417D01*
X97838067Y-26904699D01*
X97640043Y-26964769D01*
X97552114Y-27011769D01*
X97457550Y-27062315D01*
X97457548Y-27062316D01*
X97457547Y-27062317D01*
X97297589Y-27193589D01*
X97166317Y-27353547D01*
X97068769Y-27536043D01*
X97008699Y-27734067D01*
X96988417Y-27940000D01*
X96559583Y-27940000D01*
X96539300Y-27734066D01*
X96479232Y-27536046D01*
X96381685Y-27353550D01*
X96310747Y-27267111D01*
X96250410Y-27193589D01*
X96132677Y-27096969D01*
X96090450Y-27062315D01*
X95907954Y-26964768D01*
X95709934Y-26904700D01*
X95709932Y-26904699D01*
X95709934Y-26904699D01*
X95504000Y-26884417D01*
X95298067Y-26904699D01*
X95100043Y-26964769D01*
X95012114Y-27011769D01*
X94917550Y-27062315D01*
X94917548Y-27062316D01*
X94917547Y-27062317D01*
X94757589Y-27193589D01*
X94626317Y-27353547D01*
X94528769Y-27536043D01*
X94468699Y-27734067D01*
X94448417Y-27940000D01*
X94019583Y-27940000D01*
X93999300Y-27734066D01*
X93939232Y-27536046D01*
X93841685Y-27353550D01*
X93770747Y-27267111D01*
X93710410Y-27193589D01*
X93592677Y-27096969D01*
X93550450Y-27062315D01*
X93367954Y-26964768D01*
X93169934Y-26904700D01*
X93169932Y-26904699D01*
X93169934Y-26904699D01*
X92964000Y-26884417D01*
X92758067Y-26904699D01*
X92560043Y-26964769D01*
X92472114Y-27011769D01*
X92377550Y-27062315D01*
X92377548Y-27062316D01*
X92377547Y-27062317D01*
X92217589Y-27193589D01*
X92086317Y-27353547D01*
X91988769Y-27536043D01*
X91928699Y-27734067D01*
X91908417Y-27940000D01*
X91474500Y-27940000D01*
X91474500Y-27070249D01*
X91474499Y-27070247D01*
X91462868Y-27011770D01*
X91462867Y-27011769D01*
X91418552Y-26945447D01*
X91352230Y-26901132D01*
X91352229Y-26901131D01*
X91293752Y-26889500D01*
X91293748Y-26889500D01*
X89554252Y-26889500D01*
X89554247Y-26889500D01*
X89495770Y-26901131D01*
X89495769Y-26901132D01*
X89429447Y-26945447D01*
X89385132Y-27011769D01*
X89385131Y-27011770D01*
X89373500Y-27070247D01*
X86956115Y-27070247D01*
X86946450Y-27062315D01*
X86763954Y-26964768D01*
X86565934Y-26904700D01*
X86565932Y-26904699D01*
X86565934Y-26904699D01*
X86360000Y-26884417D01*
X86154067Y-26904699D01*
X85956043Y-26964769D01*
X85868114Y-27011769D01*
X85773550Y-27062315D01*
X85773548Y-27062316D01*
X85773547Y-27062317D01*
X85613589Y-27193589D01*
X85482317Y-27353547D01*
X85384769Y-27536043D01*
X85324699Y-27734067D01*
X85304417Y-27940000D01*
X84875583Y-27940000D01*
X84855300Y-27734066D01*
X84795232Y-27536046D01*
X84697685Y-27353550D01*
X84626747Y-27267111D01*
X84566410Y-27193589D01*
X84448677Y-27096969D01*
X84406450Y-27062315D01*
X84223954Y-26964768D01*
X84025934Y-26904700D01*
X84025932Y-26904699D01*
X84025934Y-26904699D01*
X83820000Y-26884417D01*
X83614067Y-26904699D01*
X83416043Y-26964769D01*
X83328114Y-27011769D01*
X83233550Y-27062315D01*
X83233548Y-27062316D01*
X83233547Y-27062317D01*
X83073589Y-27193589D01*
X82942317Y-27353547D01*
X82844769Y-27536043D01*
X82784699Y-27734067D01*
X82764417Y-27940000D01*
X82335583Y-27940000D01*
X82315300Y-27734066D01*
X82255232Y-27536046D01*
X82157685Y-27353550D01*
X82086747Y-27267111D01*
X82026410Y-27193589D01*
X81908677Y-27096969D01*
X81866450Y-27062315D01*
X81683954Y-26964768D01*
X81485934Y-26904700D01*
X81485932Y-26904699D01*
X81485934Y-26904699D01*
X81280000Y-26884417D01*
X81074067Y-26904699D01*
X80876043Y-26964769D01*
X80788114Y-27011769D01*
X80693550Y-27062315D01*
X80693548Y-27062316D01*
X80693547Y-27062317D01*
X80533589Y-27193589D01*
X80402317Y-27353547D01*
X80304769Y-27536043D01*
X80244699Y-27734067D01*
X80224417Y-27940000D01*
X79795583Y-27940000D01*
X79775300Y-27734066D01*
X79715232Y-27536046D01*
X79617685Y-27353550D01*
X79546747Y-27267111D01*
X79486410Y-27193589D01*
X79368677Y-27096969D01*
X79326450Y-27062315D01*
X79143954Y-26964768D01*
X78945934Y-26904700D01*
X78945932Y-26904699D01*
X78945934Y-26904699D01*
X78740000Y-26884417D01*
X78534067Y-26904699D01*
X78336043Y-26964769D01*
X78248114Y-27011769D01*
X78153550Y-27062315D01*
X78153548Y-27062316D01*
X78153547Y-27062317D01*
X77993589Y-27193589D01*
X77862317Y-27353547D01*
X77764769Y-27536043D01*
X77704699Y-27734067D01*
X77684417Y-27940000D01*
X77255583Y-27940000D01*
X77235300Y-27734066D01*
X77175232Y-27536046D01*
X77077685Y-27353550D01*
X77006747Y-27267111D01*
X76946410Y-27193589D01*
X76828677Y-27096969D01*
X76786450Y-27062315D01*
X76603954Y-26964768D01*
X76405934Y-26904700D01*
X76405932Y-26904699D01*
X76405934Y-26904699D01*
X76200000Y-26884417D01*
X75994067Y-26904699D01*
X75796043Y-26964769D01*
X75708114Y-27011769D01*
X75613550Y-27062315D01*
X75613548Y-27062316D01*
X75613547Y-27062317D01*
X75453589Y-27193589D01*
X75322317Y-27353547D01*
X75224769Y-27536043D01*
X75164699Y-27734067D01*
X75144417Y-27940000D01*
X74715583Y-27940000D01*
X74695300Y-27734066D01*
X74635232Y-27536046D01*
X74537685Y-27353550D01*
X74466747Y-27267111D01*
X74406410Y-27193589D01*
X74288677Y-27096969D01*
X74246450Y-27062315D01*
X74063954Y-26964768D01*
X73865934Y-26904700D01*
X73865932Y-26904699D01*
X73865934Y-26904699D01*
X73660000Y-26884417D01*
X73454067Y-26904699D01*
X73256043Y-26964769D01*
X73168114Y-27011769D01*
X73073550Y-27062315D01*
X73073548Y-27062316D01*
X73073547Y-27062317D01*
X72913589Y-27193589D01*
X72782317Y-27353547D01*
X72684769Y-27536043D01*
X72624699Y-27734067D01*
X72604417Y-27940000D01*
X72175583Y-27940000D01*
X72155300Y-27734066D01*
X72095232Y-27536046D01*
X71997685Y-27353550D01*
X71926747Y-27267111D01*
X71866410Y-27193589D01*
X71748677Y-27096969D01*
X71706450Y-27062315D01*
X71523954Y-26964768D01*
X71325934Y-26904700D01*
X71325932Y-26904699D01*
X71325934Y-26904699D01*
X71120000Y-26884417D01*
X70914067Y-26904699D01*
X70716043Y-26964769D01*
X70628114Y-27011769D01*
X70533550Y-27062315D01*
X70533548Y-27062316D01*
X70533547Y-27062317D01*
X70373589Y-27193589D01*
X70242317Y-27353547D01*
X70144769Y-27536043D01*
X70084699Y-27734067D01*
X70064417Y-27940000D01*
X69635583Y-27940000D01*
X69615300Y-27734066D01*
X69555232Y-27536046D01*
X69457685Y-27353550D01*
X69386747Y-27267111D01*
X69326410Y-27193589D01*
X69208677Y-27096969D01*
X69166450Y-27062315D01*
X68983954Y-26964768D01*
X68785934Y-26904700D01*
X68785932Y-26904699D01*
X68785934Y-26904699D01*
X68580000Y-26884417D01*
X68374067Y-26904699D01*
X68176043Y-26964769D01*
X68088114Y-27011769D01*
X67993550Y-27062315D01*
X67993548Y-27062316D01*
X67993547Y-27062317D01*
X67833589Y-27193589D01*
X67702317Y-27353547D01*
X67604769Y-27536043D01*
X67544699Y-27734067D01*
X67524417Y-27940000D01*
X67095583Y-27940000D01*
X67075300Y-27734066D01*
X67015232Y-27536046D01*
X66917685Y-27353550D01*
X66846747Y-27267111D01*
X66786410Y-27193589D01*
X66668677Y-27096969D01*
X66626450Y-27062315D01*
X66443954Y-26964768D01*
X66245934Y-26904700D01*
X66245932Y-26904699D01*
X66245934Y-26904699D01*
X66040000Y-26884417D01*
X65834067Y-26904699D01*
X65636043Y-26964769D01*
X65548114Y-27011769D01*
X65453550Y-27062315D01*
X65453548Y-27062316D01*
X65453547Y-27062317D01*
X65293589Y-27193589D01*
X65162317Y-27353547D01*
X65064769Y-27536043D01*
X65004699Y-27734067D01*
X64984417Y-27940000D01*
X64550500Y-27940000D01*
X64550500Y-27070249D01*
X64550499Y-27070247D01*
X64538868Y-27011770D01*
X64538867Y-27011769D01*
X64494552Y-26945447D01*
X64428230Y-26901132D01*
X64428229Y-26901131D01*
X64369752Y-26889500D01*
X64369748Y-26889500D01*
X62630252Y-26889500D01*
X62630247Y-26889500D01*
X62571770Y-26901131D01*
X62571769Y-26901132D01*
X62505447Y-26945447D01*
X62461132Y-27011769D01*
X62461131Y-27011770D01*
X62449500Y-27070247D01*
X56119302Y-27070247D01*
X56014000Y-27047865D01*
X55974645Y-27039500D01*
X55785353Y-27039500D01*
X55752896Y-27046398D01*
X55600196Y-27078855D01*
X55600191Y-27078857D01*
X55427269Y-27155848D01*
X55427264Y-27155851D01*
X55274128Y-27267111D01*
X55147465Y-27407785D01*
X55052820Y-27571715D01*
X55052817Y-27571722D01*
X54994326Y-27751740D01*
X54994325Y-27751744D01*
X54974539Y-27940000D01*
X51705460Y-27940000D01*
X51685674Y-27751744D01*
X51627179Y-27571716D01*
X51532533Y-27407784D01*
X51405871Y-27267112D01*
X51405870Y-27267111D01*
X51252734Y-27155851D01*
X51252729Y-27155848D01*
X51079807Y-27078857D01*
X51079802Y-27078855D01*
X50934001Y-27047865D01*
X50894646Y-27039500D01*
X50705354Y-27039500D01*
X50672897Y-27046398D01*
X50520197Y-27078855D01*
X50520192Y-27078857D01*
X50347270Y-27155848D01*
X50347265Y-27155851D01*
X50194129Y-27267111D01*
X50067466Y-27407785D01*
X49972821Y-27571715D01*
X49972818Y-27571722D01*
X49914327Y-27751740D01*
X49914326Y-27751744D01*
X49894540Y-27940000D01*
X44779300Y-27940000D01*
X44779300Y-25599300D01*
X44798985Y-25532261D01*
X44851789Y-25486506D01*
X44903300Y-25475300D01*
X113084300Y-25475300D01*
X113151339Y-25494985D01*
G37*
G04 #@! TD.AperFunction*
G04 #@! TA.AperFunction,NonConductor*
G36*
X70655129Y-34240185D02*
G01*
X70700884Y-34292989D01*
X70710828Y-34362147D01*
X70681803Y-34425703D01*
X70644385Y-34454985D01*
X70490800Y-34533240D01*
X70403579Y-34596610D01*
X70337927Y-34644310D01*
X70337925Y-34644312D01*
X70337924Y-34644312D01*
X70204312Y-34777924D01*
X70204312Y-34777925D01*
X70204310Y-34777927D01*
X70156610Y-34843579D01*
X70093240Y-34930800D01*
X70007454Y-35099163D01*
X69967931Y-35220803D01*
X69928493Y-35278478D01*
X69864134Y-35305676D01*
X69795288Y-35293761D01*
X69743812Y-35246516D01*
X69732069Y-35220803D01*
X69692545Y-35099163D01*
X69606759Y-34930800D01*
X69495690Y-34777927D01*
X69362073Y-34644310D01*
X69209199Y-34533240D01*
X69055615Y-34454985D01*
X69004819Y-34407010D01*
X68988024Y-34339189D01*
X69010561Y-34273054D01*
X69065277Y-34229603D01*
X69111910Y-34220500D01*
X70588090Y-34220500D01*
X70655129Y-34240185D01*
G37*
G04 #@! TD.AperFunction*
M02*
