M48
; DRILL file {KiCad 8.0.6} date 2024-11-11T09:27:28+0100
; FORMAT={-:-/ absolute / metric / decimal}
; #@! TF.CreationDate,2024-11-11T09:27:28+01:00
; #@! TF.GenerationSoftware,Kicad,Pcbnew,8.0.6
; #@! TF.FileFunction,Plated,1,2,PTH
FMAT,2
METRIC
; #@! TA.AperFunction,Plated,PTH,ViaDrill
T1C0.400
; #@! TA.AperFunction,Plated,PTH,ComponentDrill
T2C0.700
; #@! TA.AperFunction,Plated,PTH,ComponentDrill
T3C0.800
; #@! TA.AperFunction,Plated,PTH,ComponentDrill
T4C0.900
; #@! TA.AperFunction,Plated,PTH,ComponentDrill
T5C1.000
%
G90
G05
T1
X45.779Y-40.64
X45.779Y-66.04
X48.26Y-35.56
X48.26Y-40.64
X50.8Y-71.12
X55.88Y-30.48
X55.88Y-68.58
X63.5Y-40.64
X63.5Y-63.5
X66.04Y-33.02
X66.04Y-53.34
X66.04Y-71.12
X68.58Y-35.56
X68.58Y-40.64
X68.58Y-53.34
X71.12Y-30.48
X71.12Y-35.56
X71.12Y-55.88
X73.66Y-53.34
X73.66Y-33.02
X73.66Y-38.1
X76.2Y-35.56
X78.74Y-30.48
X78.74Y-58.42
X78.74Y-68.58
X81.28Y-35.56
X81.28Y-40.64
X81.28Y-48.26
X81.28Y-63.5
X81.28Y-71.12
X83.82Y-33.02
X83.82Y-35.56
X83.82Y-63.5
X86.36Y-68.58
X86.36Y-73.66
X86.36Y-60.96
X88.9Y-33.02
X88.9Y-63.5
X91.44Y-30.48
X91.44Y-55.88
X91.44Y-60.96
X91.44Y-66.04
X99.06Y-35.56
X99.06Y-53.34
X101.6Y-35.56
X101.6Y-60.96
X101.6Y-66.04
X101.6Y-71.12
X104.14Y-48.26
X104.14Y-66.04
X104.14Y-73.66
X106.68Y-40.64
X106.68Y-58.42
X109.22Y-38.1
X111.76Y-71.12
T2
X50.8Y-27.94
X50.85Y-40.64
X55.88Y-27.94
X55.93Y-40.64
X104.14Y-63.5
X106.68Y-60.96
X109.22Y-63.5
X111.76Y-60.96
T3
X68.58Y-43.18
X68.58Y-50.8
X71.12Y-43.18
X71.12Y-50.8
X73.66Y-50.8
X73.66Y-43.18
X76.2Y-43.18
X76.2Y-50.8
X78.74Y-43.18
X78.74Y-50.8
X81.28Y-43.18
X81.28Y-50.8
X83.82Y-43.18
X83.82Y-50.8
X86.36Y-43.18
X86.36Y-50.8
T4
X48.26Y-33.02
X48.26Y-43.18
X50.8Y-33.02
X50.8Y-43.18
T5
X48.26Y-49.53
X50.8Y-49.53
X53.34Y-49.53
X55.88Y-49.53
X63.5Y-27.94
X66.04Y-27.94
X66.04Y-76.2
X68.58Y-27.94
X68.58Y-76.2
X71.12Y-27.94
X72.644Y-76.2
X73.66Y-27.94
X75.184Y-76.2
X76.2Y-27.94
X77.724Y-76.2
X78.74Y-27.94
X80.264Y-76.2
X81.28Y-27.94
X82.804Y-76.2
X83.82Y-27.94
X85.344Y-76.2
X86.36Y-27.94
X87.884Y-76.2
X90.424Y-27.94
X90.424Y-76.2
X92.964Y-27.94
X95.504Y-27.94
X95.504Y-76.2
X98.044Y-27.94
X98.044Y-76.2
X100.584Y-27.94
X100.584Y-76.2
X101.6Y-43.18
X101.6Y-55.88
X101.6Y-68.58
X103.124Y-27.94
X103.124Y-76.2
X104.14Y-43.18
X104.14Y-55.88
X104.14Y-68.58
X105.664Y-27.94
X105.664Y-76.2
X106.68Y-43.18
X106.68Y-55.88
X106.68Y-68.58
X108.204Y-27.94
X108.204Y-76.2
X109.22Y-43.18
X109.22Y-55.88
X109.22Y-68.58
M30
