%TF.GenerationSoftware,KiCad,Pcbnew,8.0.6*%
%TF.CreationDate,2024-11-11T09:27:37+01:00*%
%TF.ProjectId,lmwb_lochraster_arduino_L293D,6c6d7762-5f6c-46f6-9368-726173746572,V.0.1*%
%TF.SameCoordinates,Original*%
%TF.FileFunction,Drillmap*%
%TF.FilePolarity,Positive*%
%FSLAX45Y45*%
G04 Gerber Fmt 4.5, Leading zero omitted, Abs format (unit mm)*
G04 Created by KiCad (PCBNEW 8.0.6) date 2024-11-11 09:27:37*
%MOMM*%
%LPD*%
G01*
G04 APERTURE LIST*
%ADD10C,0.150000*%
%ADD11C,0.200000*%
%ADD12C,0.100000*%
G04 APERTURE END LIST*
D10*
X6277400Y-4351000D02*
G75*
G02*
X5777400Y-4351000I-250000J0D01*
G01*
X5777400Y-4351000D02*
G75*
G02*
X6277400Y-4351000I250000J0D01*
G01*
X4470380Y-2539980D02*
X11328380Y-2539980D01*
X11328380Y-7873980D01*
X4470380Y-7873980D01*
X4470380Y-2539980D01*
X6277400Y-6024000D02*
G75*
G02*
X5777400Y-6024000I-250000J0D01*
G01*
X5777400Y-6024000D02*
G75*
G02*
X6277400Y-6024000I250000J0D01*
G01*
D11*
D12*
X4557880Y-4044000D02*
X4597880Y-4084000D01*
X4597880Y-4044000D02*
X4557880Y-4084000D01*
X4557880Y-6584000D02*
X4597880Y-6624000D01*
X4597880Y-6584000D02*
X4557880Y-6624000D01*
X4806000Y-3536000D02*
X4846000Y-3576000D01*
X4846000Y-3536000D02*
X4806000Y-3576000D01*
X4806000Y-4044000D02*
X4846000Y-4084000D01*
X4846000Y-4044000D02*
X4806000Y-4084000D01*
X5060000Y-7092000D02*
X5100000Y-7132000D01*
X5100000Y-7092000D02*
X5060000Y-7132000D01*
X5568000Y-3028000D02*
X5608000Y-3068000D01*
X5608000Y-3028000D02*
X5568000Y-3068000D01*
X5568000Y-6838000D02*
X5608000Y-6878000D01*
X5608000Y-6838000D02*
X5568000Y-6878000D01*
X6330000Y-4044000D02*
X6370000Y-4084000D01*
X6370000Y-4044000D02*
X6330000Y-4084000D01*
X6330000Y-6330000D02*
X6370000Y-6370000D01*
X6370000Y-6330000D02*
X6330000Y-6370000D01*
X6584000Y-3282000D02*
X6624000Y-3322000D01*
X6624000Y-3282000D02*
X6584000Y-3322000D01*
X6584000Y-5314000D02*
X6624000Y-5354000D01*
X6624000Y-5314000D02*
X6584000Y-5354000D01*
X6584000Y-7092000D02*
X6624000Y-7132000D01*
X6624000Y-7092000D02*
X6584000Y-7132000D01*
X6838000Y-3536000D02*
X6878000Y-3576000D01*
X6878000Y-3536000D02*
X6838000Y-3576000D01*
X6838000Y-4044000D02*
X6878000Y-4084000D01*
X6878000Y-4044000D02*
X6838000Y-4084000D01*
X6838000Y-5314000D02*
X6878000Y-5354000D01*
X6878000Y-5314000D02*
X6838000Y-5354000D01*
X7092000Y-3028000D02*
X7132000Y-3068000D01*
X7132000Y-3028000D02*
X7092000Y-3068000D01*
X7092000Y-3536000D02*
X7132000Y-3576000D01*
X7132000Y-3536000D02*
X7092000Y-3576000D01*
X7092000Y-5568000D02*
X7132000Y-5608000D01*
X7132000Y-5568000D02*
X7092000Y-5608000D01*
X7346000Y-5314000D02*
X7386000Y-5354000D01*
X7386000Y-5314000D02*
X7346000Y-5354000D01*
X7346000Y-3282000D02*
X7386000Y-3322000D01*
X7386000Y-3282000D02*
X7346000Y-3322000D01*
X7346000Y-3790000D02*
X7386000Y-3830000D01*
X7386000Y-3790000D02*
X7346000Y-3830000D01*
X7600000Y-3536000D02*
X7640000Y-3576000D01*
X7640000Y-3536000D02*
X7600000Y-3576000D01*
X7854000Y-3028000D02*
X7894000Y-3068000D01*
X7894000Y-3028000D02*
X7854000Y-3068000D01*
X7854000Y-5822000D02*
X7894000Y-5862000D01*
X7894000Y-5822000D02*
X7854000Y-5862000D01*
X7854000Y-6838000D02*
X7894000Y-6878000D01*
X7894000Y-6838000D02*
X7854000Y-6878000D01*
X8108000Y-3536000D02*
X8148000Y-3576000D01*
X8148000Y-3536000D02*
X8108000Y-3576000D01*
X8108000Y-4044000D02*
X8148000Y-4084000D01*
X8148000Y-4044000D02*
X8108000Y-4084000D01*
X8108000Y-4806000D02*
X8148000Y-4846000D01*
X8148000Y-4806000D02*
X8108000Y-4846000D01*
X8108000Y-6330000D02*
X8148000Y-6370000D01*
X8148000Y-6330000D02*
X8108000Y-6370000D01*
X8108000Y-7092000D02*
X8148000Y-7132000D01*
X8148000Y-7092000D02*
X8108000Y-7132000D01*
X8362000Y-3282000D02*
X8402000Y-3322000D01*
X8402000Y-3282000D02*
X8362000Y-3322000D01*
X8362000Y-3536000D02*
X8402000Y-3576000D01*
X8402000Y-3536000D02*
X8362000Y-3576000D01*
X8362000Y-6330000D02*
X8402000Y-6370000D01*
X8402000Y-6330000D02*
X8362000Y-6370000D01*
X8616000Y-6838000D02*
X8656000Y-6878000D01*
X8656000Y-6838000D02*
X8616000Y-6878000D01*
X8616000Y-7346000D02*
X8656000Y-7386000D01*
X8656000Y-7346000D02*
X8616000Y-7386000D01*
X8616000Y-6076000D02*
X8656000Y-6116000D01*
X8656000Y-6076000D02*
X8616000Y-6116000D01*
X8870000Y-3282000D02*
X8910000Y-3322000D01*
X8910000Y-3282000D02*
X8870000Y-3322000D01*
X8870000Y-6330000D02*
X8910000Y-6370000D01*
X8910000Y-6330000D02*
X8870000Y-6370000D01*
X9124000Y-3028000D02*
X9164000Y-3068000D01*
X9164000Y-3028000D02*
X9124000Y-3068000D01*
X9124000Y-5568000D02*
X9164000Y-5608000D01*
X9164000Y-5568000D02*
X9124000Y-5608000D01*
X9124000Y-6076000D02*
X9164000Y-6116000D01*
X9164000Y-6076000D02*
X9124000Y-6116000D01*
X9124000Y-6584000D02*
X9164000Y-6624000D01*
X9164000Y-6584000D02*
X9124000Y-6624000D01*
X9886000Y-3536000D02*
X9926000Y-3576000D01*
X9926000Y-3536000D02*
X9886000Y-3576000D01*
X9886000Y-5314000D02*
X9926000Y-5354000D01*
X9926000Y-5314000D02*
X9886000Y-5354000D01*
X10140000Y-3536000D02*
X10180000Y-3576000D01*
X10180000Y-3536000D02*
X10140000Y-3576000D01*
X10140000Y-6076000D02*
X10180000Y-6116000D01*
X10180000Y-6076000D02*
X10140000Y-6116000D01*
X10140000Y-6584000D02*
X10180000Y-6624000D01*
X10180000Y-6584000D02*
X10140000Y-6624000D01*
X10140000Y-7092000D02*
X10180000Y-7132000D01*
X10180000Y-7092000D02*
X10140000Y-7132000D01*
X10394000Y-4806000D02*
X10434000Y-4846000D01*
X10434000Y-4806000D02*
X10394000Y-4846000D01*
X10394000Y-6584000D02*
X10434000Y-6624000D01*
X10434000Y-6584000D02*
X10394000Y-6624000D01*
X10394000Y-7346000D02*
X10434000Y-7386000D01*
X10434000Y-7346000D02*
X10394000Y-7386000D01*
X10648000Y-4044000D02*
X10688000Y-4084000D01*
X10688000Y-4044000D02*
X10648000Y-4084000D01*
X10648000Y-5822000D02*
X10688000Y-5862000D01*
X10688000Y-5822000D02*
X10648000Y-5862000D01*
X10902000Y-3790000D02*
X10942000Y-3830000D01*
X10942000Y-3790000D02*
X10902000Y-3830000D01*
X11156000Y-7092000D02*
X11196000Y-7132000D01*
X11196000Y-7092000D02*
X11156000Y-7132000D01*
X5115000Y-2794000D02*
G75*
G02*
X5045000Y-2794000I-35000J0D01*
G01*
X5045000Y-2794000D02*
G75*
G02*
X5115000Y-2794000I35000J0D01*
G01*
X5120000Y-4064000D02*
G75*
G02*
X5050000Y-4064000I-35000J0D01*
G01*
X5050000Y-4064000D02*
G75*
G02*
X5120000Y-4064000I35000J0D01*
G01*
X5623000Y-2794000D02*
G75*
G02*
X5553000Y-2794000I-35000J0D01*
G01*
X5553000Y-2794000D02*
G75*
G02*
X5623000Y-2794000I35000J0D01*
G01*
X5628000Y-4064000D02*
G75*
G02*
X5558000Y-4064000I-35000J0D01*
G01*
X5558000Y-4064000D02*
G75*
G02*
X5628000Y-4064000I35000J0D01*
G01*
X10449000Y-6350000D02*
G75*
G02*
X10379000Y-6350000I-35000J0D01*
G01*
X10379000Y-6350000D02*
G75*
G02*
X10449000Y-6350000I35000J0D01*
G01*
X10703000Y-6096000D02*
G75*
G02*
X10633000Y-6096000I-35000J0D01*
G01*
X10633000Y-6096000D02*
G75*
G02*
X10703000Y-6096000I35000J0D01*
G01*
X10957000Y-6350000D02*
G75*
G02*
X10887000Y-6350000I-35000J0D01*
G01*
X10887000Y-6350000D02*
G75*
G02*
X10957000Y-6350000I35000J0D01*
G01*
X11211000Y-6096000D02*
G75*
G02*
X11141000Y-6096000I-35000J0D01*
G01*
X11141000Y-6096000D02*
G75*
G02*
X11211000Y-6096000I35000J0D01*
G01*
X6858000Y-4278000D02*
X6858000Y-4358000D01*
X6818000Y-4318000D02*
X6898000Y-4318000D01*
X6858000Y-5040000D02*
X6858000Y-5120000D01*
X6818000Y-5080000D02*
X6898000Y-5080000D01*
X7112000Y-4278000D02*
X7112000Y-4358000D01*
X7072000Y-4318000D02*
X7152000Y-4318000D01*
X7112000Y-5040000D02*
X7112000Y-5120000D01*
X7072000Y-5080000D02*
X7152000Y-5080000D01*
X7366000Y-5040000D02*
X7366000Y-5120000D01*
X7326000Y-5080000D02*
X7406000Y-5080000D01*
X7366000Y-4278000D02*
X7366000Y-4358000D01*
X7326000Y-4318000D02*
X7406000Y-4318000D01*
X7620000Y-4278000D02*
X7620000Y-4358000D01*
X7580000Y-4318000D02*
X7660000Y-4318000D01*
X7620000Y-5040000D02*
X7620000Y-5120000D01*
X7580000Y-5080000D02*
X7660000Y-5080000D01*
X7874000Y-4278000D02*
X7874000Y-4358000D01*
X7834000Y-4318000D02*
X7914000Y-4318000D01*
X7874000Y-5040000D02*
X7874000Y-5120000D01*
X7834000Y-5080000D02*
X7914000Y-5080000D01*
X8128000Y-4278000D02*
X8128000Y-4358000D01*
X8088000Y-4318000D02*
X8168000Y-4318000D01*
X8128000Y-5040000D02*
X8128000Y-5120000D01*
X8088000Y-5080000D02*
X8168000Y-5080000D01*
X8382000Y-4278000D02*
X8382000Y-4358000D01*
X8342000Y-4318000D02*
X8422000Y-4318000D01*
X8382000Y-5040000D02*
X8382000Y-5120000D01*
X8342000Y-5080000D02*
X8422000Y-5080000D01*
X8636000Y-4278000D02*
X8636000Y-4358000D01*
X8596000Y-4318000D02*
X8676000Y-4318000D01*
X8636000Y-5040000D02*
X8636000Y-5120000D01*
X8596000Y-5080000D02*
X8676000Y-5080000D01*
X4857820Y-3333820D02*
X4857820Y-3270180D01*
X4794180Y-3270180D01*
X4794180Y-3333820D01*
X4857820Y-3333820D01*
X4857820Y-4349820D02*
X4857820Y-4286180D01*
X4794180Y-4286180D01*
X4794180Y-4349820D01*
X4857820Y-4349820D01*
X5111820Y-3333820D02*
X5111820Y-3270180D01*
X5048180Y-3270180D01*
X5048180Y-3333820D01*
X5111820Y-3333820D01*
X5111820Y-4349820D02*
X5111820Y-4286180D01*
X5048180Y-4286180D01*
X5048180Y-4349820D01*
X5111820Y-4349820D01*
X4826000Y-5003000D02*
X4876000Y-4953000D01*
X4826000Y-4903000D01*
X4776000Y-4953000D01*
X4826000Y-5003000D01*
X5080000Y-5003000D02*
X5130000Y-4953000D01*
X5080000Y-4903000D01*
X5030000Y-4953000D01*
X5080000Y-5003000D01*
X5334000Y-5003000D02*
X5384000Y-4953000D01*
X5334000Y-4903000D01*
X5284000Y-4953000D01*
X5334000Y-5003000D01*
X5588000Y-5003000D02*
X5638000Y-4953000D01*
X5588000Y-4903000D01*
X5538000Y-4953000D01*
X5588000Y-5003000D01*
X6350000Y-2844000D02*
X6400000Y-2794000D01*
X6350000Y-2744000D01*
X6300000Y-2794000D01*
X6350000Y-2844000D01*
X6604000Y-2844000D02*
X6654000Y-2794000D01*
X6604000Y-2744000D01*
X6554000Y-2794000D01*
X6604000Y-2844000D01*
X6604000Y-7670000D02*
X6654000Y-7620000D01*
X6604000Y-7570000D01*
X6554000Y-7620000D01*
X6604000Y-7670000D01*
X6858000Y-2844000D02*
X6908000Y-2794000D01*
X6858000Y-2744000D01*
X6808000Y-2794000D01*
X6858000Y-2844000D01*
X6858000Y-7670000D02*
X6908000Y-7620000D01*
X6858000Y-7570000D01*
X6808000Y-7620000D01*
X6858000Y-7670000D01*
X7112000Y-2844000D02*
X7162000Y-2794000D01*
X7112000Y-2744000D01*
X7062000Y-2794000D01*
X7112000Y-2844000D01*
X7264400Y-7670000D02*
X7314400Y-7620000D01*
X7264400Y-7570000D01*
X7214400Y-7620000D01*
X7264400Y-7670000D01*
X7366000Y-2844000D02*
X7416000Y-2794000D01*
X7366000Y-2744000D01*
X7316000Y-2794000D01*
X7366000Y-2844000D01*
X7518400Y-7670000D02*
X7568400Y-7620000D01*
X7518400Y-7570000D01*
X7468400Y-7620000D01*
X7518400Y-7670000D01*
X7620000Y-2844000D02*
X7670000Y-2794000D01*
X7620000Y-2744000D01*
X7570000Y-2794000D01*
X7620000Y-2844000D01*
X7772400Y-7670000D02*
X7822400Y-7620000D01*
X7772400Y-7570000D01*
X7722400Y-7620000D01*
X7772400Y-7670000D01*
X7874000Y-2844000D02*
X7924000Y-2794000D01*
X7874000Y-2744000D01*
X7824000Y-2794000D01*
X7874000Y-2844000D01*
X8026400Y-7670000D02*
X8076400Y-7620000D01*
X8026400Y-7570000D01*
X7976400Y-7620000D01*
X8026400Y-7670000D01*
X8128000Y-2844000D02*
X8178000Y-2794000D01*
X8128000Y-2744000D01*
X8078000Y-2794000D01*
X8128000Y-2844000D01*
X8280400Y-7670000D02*
X8330400Y-7620000D01*
X8280400Y-7570000D01*
X8230400Y-7620000D01*
X8280400Y-7670000D01*
X8382000Y-2844000D02*
X8432000Y-2794000D01*
X8382000Y-2744000D01*
X8332000Y-2794000D01*
X8382000Y-2844000D01*
X8534400Y-7670000D02*
X8584400Y-7620000D01*
X8534400Y-7570000D01*
X8484400Y-7620000D01*
X8534400Y-7670000D01*
X8636000Y-2844000D02*
X8686000Y-2794000D01*
X8636000Y-2744000D01*
X8586000Y-2794000D01*
X8636000Y-2844000D01*
X8788400Y-7670000D02*
X8838400Y-7620000D01*
X8788400Y-7570000D01*
X8738400Y-7620000D01*
X8788400Y-7670000D01*
X9042400Y-2844000D02*
X9092400Y-2794000D01*
X9042400Y-2744000D01*
X8992400Y-2794000D01*
X9042400Y-2844000D01*
X9042400Y-7670000D02*
X9092400Y-7620000D01*
X9042400Y-7570000D01*
X8992400Y-7620000D01*
X9042400Y-7670000D01*
X9296400Y-2844000D02*
X9346400Y-2794000D01*
X9296400Y-2744000D01*
X9246400Y-2794000D01*
X9296400Y-2844000D01*
X9550400Y-2844000D02*
X9600400Y-2794000D01*
X9550400Y-2744000D01*
X9500400Y-2794000D01*
X9550400Y-2844000D01*
X9550400Y-7670000D02*
X9600400Y-7620000D01*
X9550400Y-7570000D01*
X9500400Y-7620000D01*
X9550400Y-7670000D01*
X9804400Y-2844000D02*
X9854400Y-2794000D01*
X9804400Y-2744000D01*
X9754400Y-2794000D01*
X9804400Y-2844000D01*
X9804400Y-7670000D02*
X9854400Y-7620000D01*
X9804400Y-7570000D01*
X9754400Y-7620000D01*
X9804400Y-7670000D01*
X10058400Y-2844000D02*
X10108400Y-2794000D01*
X10058400Y-2744000D01*
X10008400Y-2794000D01*
X10058400Y-2844000D01*
X10058400Y-7670000D02*
X10108400Y-7620000D01*
X10058400Y-7570000D01*
X10008400Y-7620000D01*
X10058400Y-7670000D01*
X10160000Y-4368000D02*
X10210000Y-4318000D01*
X10160000Y-4268000D01*
X10110000Y-4318000D01*
X10160000Y-4368000D01*
X10160000Y-5638000D02*
X10210000Y-5588000D01*
X10160000Y-5538000D01*
X10110000Y-5588000D01*
X10160000Y-5638000D01*
X10160000Y-6908000D02*
X10210000Y-6858000D01*
X10160000Y-6808000D01*
X10110000Y-6858000D01*
X10160000Y-6908000D01*
X10312400Y-2844000D02*
X10362400Y-2794000D01*
X10312400Y-2744000D01*
X10262400Y-2794000D01*
X10312400Y-2844000D01*
X10312400Y-7670000D02*
X10362400Y-7620000D01*
X10312400Y-7570000D01*
X10262400Y-7620000D01*
X10312400Y-7670000D01*
X10414000Y-4368000D02*
X10464000Y-4318000D01*
X10414000Y-4268000D01*
X10364000Y-4318000D01*
X10414000Y-4368000D01*
X10414000Y-5638000D02*
X10464000Y-5588000D01*
X10414000Y-5538000D01*
X10364000Y-5588000D01*
X10414000Y-5638000D01*
X10414000Y-6908000D02*
X10464000Y-6858000D01*
X10414000Y-6808000D01*
X10364000Y-6858000D01*
X10414000Y-6908000D01*
X10566400Y-2844000D02*
X10616400Y-2794000D01*
X10566400Y-2744000D01*
X10516400Y-2794000D01*
X10566400Y-2844000D01*
X10566400Y-7670000D02*
X10616400Y-7620000D01*
X10566400Y-7570000D01*
X10516400Y-7620000D01*
X10566400Y-7670000D01*
X10668000Y-4368000D02*
X10718000Y-4318000D01*
X10668000Y-4268000D01*
X10618000Y-4318000D01*
X10668000Y-4368000D01*
X10668000Y-5638000D02*
X10718000Y-5588000D01*
X10668000Y-5538000D01*
X10618000Y-5588000D01*
X10668000Y-5638000D01*
X10668000Y-6908000D02*
X10718000Y-6858000D01*
X10668000Y-6808000D01*
X10618000Y-6858000D01*
X10668000Y-6908000D01*
X10820400Y-2844000D02*
X10870400Y-2794000D01*
X10820400Y-2744000D01*
X10770400Y-2794000D01*
X10820400Y-2844000D01*
X10820400Y-7670000D02*
X10870400Y-7620000D01*
X10820400Y-7570000D01*
X10770400Y-7620000D01*
X10820400Y-7670000D01*
X10922000Y-4368000D02*
X10972000Y-4318000D01*
X10922000Y-4268000D01*
X10872000Y-4318000D01*
X10922000Y-4368000D01*
X10922000Y-5638000D02*
X10972000Y-5588000D01*
X10922000Y-5538000D01*
X10872000Y-5588000D01*
X10922000Y-5638000D01*
X10922000Y-6908000D02*
X10972000Y-6858000D01*
X10922000Y-6808000D01*
X10872000Y-6858000D01*
X10922000Y-6908000D01*
D11*
X4723657Y-8192964D02*
X4723657Y-7992964D01*
X4723657Y-7992964D02*
X4771276Y-7992964D01*
X4771276Y-7992964D02*
X4799847Y-8002488D01*
X4799847Y-8002488D02*
X4818895Y-8021535D01*
X4818895Y-8021535D02*
X4828419Y-8040583D01*
X4828419Y-8040583D02*
X4837943Y-8078678D01*
X4837943Y-8078678D02*
X4837943Y-8107249D01*
X4837943Y-8107249D02*
X4828419Y-8145345D01*
X4828419Y-8145345D02*
X4818895Y-8164392D01*
X4818895Y-8164392D02*
X4799847Y-8183440D01*
X4799847Y-8183440D02*
X4771276Y-8192964D01*
X4771276Y-8192964D02*
X4723657Y-8192964D01*
X4923657Y-8192964D02*
X4923657Y-8059630D01*
X4923657Y-8097726D02*
X4933181Y-8078678D01*
X4933181Y-8078678D02*
X4942704Y-8069154D01*
X4942704Y-8069154D02*
X4961752Y-8059630D01*
X4961752Y-8059630D02*
X4980800Y-8059630D01*
X5047466Y-8192964D02*
X5047466Y-8059630D01*
X5047466Y-7992964D02*
X5037943Y-8002488D01*
X5037943Y-8002488D02*
X5047466Y-8012011D01*
X5047466Y-8012011D02*
X5056990Y-8002488D01*
X5056990Y-8002488D02*
X5047466Y-7992964D01*
X5047466Y-7992964D02*
X5047466Y-8012011D01*
X5171276Y-8192964D02*
X5152228Y-8183440D01*
X5152228Y-8183440D02*
X5142704Y-8164392D01*
X5142704Y-8164392D02*
X5142704Y-7992964D01*
X5276038Y-8192964D02*
X5256990Y-8183440D01*
X5256990Y-8183440D02*
X5247466Y-8164392D01*
X5247466Y-8164392D02*
X5247466Y-7992964D01*
X5504609Y-8192964D02*
X5504609Y-7992964D01*
X5504609Y-7992964D02*
X5571276Y-8135821D01*
X5571276Y-8135821D02*
X5637942Y-7992964D01*
X5637942Y-7992964D02*
X5637942Y-8192964D01*
X5818895Y-8192964D02*
X5818895Y-8088202D01*
X5818895Y-8088202D02*
X5809371Y-8069154D01*
X5809371Y-8069154D02*
X5790323Y-8059630D01*
X5790323Y-8059630D02*
X5752228Y-8059630D01*
X5752228Y-8059630D02*
X5733181Y-8069154D01*
X5818895Y-8183440D02*
X5799847Y-8192964D01*
X5799847Y-8192964D02*
X5752228Y-8192964D01*
X5752228Y-8192964D02*
X5733181Y-8183440D01*
X5733181Y-8183440D02*
X5723657Y-8164392D01*
X5723657Y-8164392D02*
X5723657Y-8145345D01*
X5723657Y-8145345D02*
X5733181Y-8126297D01*
X5733181Y-8126297D02*
X5752228Y-8116773D01*
X5752228Y-8116773D02*
X5799847Y-8116773D01*
X5799847Y-8116773D02*
X5818895Y-8107249D01*
X5914133Y-8059630D02*
X5914133Y-8259630D01*
X5914133Y-8069154D02*
X5933181Y-8059630D01*
X5933181Y-8059630D02*
X5971276Y-8059630D01*
X5971276Y-8059630D02*
X5990323Y-8069154D01*
X5990323Y-8069154D02*
X5999847Y-8078678D01*
X5999847Y-8078678D02*
X6009371Y-8097726D01*
X6009371Y-8097726D02*
X6009371Y-8154868D01*
X6009371Y-8154868D02*
X5999847Y-8173916D01*
X5999847Y-8173916D02*
X5990323Y-8183440D01*
X5990323Y-8183440D02*
X5971276Y-8192964D01*
X5971276Y-8192964D02*
X5933181Y-8192964D01*
X5933181Y-8192964D02*
X5914133Y-8183440D01*
X6095085Y-8173916D02*
X6104609Y-8183440D01*
X6104609Y-8183440D02*
X6095085Y-8192964D01*
X6095085Y-8192964D02*
X6085562Y-8183440D01*
X6085562Y-8183440D02*
X6095085Y-8173916D01*
X6095085Y-8173916D02*
X6095085Y-8192964D01*
X6095085Y-8069154D02*
X6104609Y-8078678D01*
X6104609Y-8078678D02*
X6095085Y-8088202D01*
X6095085Y-8088202D02*
X6085562Y-8078678D01*
X6085562Y-8078678D02*
X6095085Y-8069154D01*
X6095085Y-8069154D02*
X6095085Y-8088202D01*
D12*
X4422880Y-8501480D02*
X4462880Y-8541480D01*
X4462880Y-8501480D02*
X4422880Y-8541480D01*
D11*
X4761752Y-8412964D02*
X4780800Y-8412964D01*
X4780800Y-8412964D02*
X4799847Y-8422488D01*
X4799847Y-8422488D02*
X4809371Y-8432011D01*
X4809371Y-8432011D02*
X4818895Y-8451059D01*
X4818895Y-8451059D02*
X4828419Y-8489154D01*
X4828419Y-8489154D02*
X4828419Y-8536773D01*
X4828419Y-8536773D02*
X4818895Y-8574869D01*
X4818895Y-8574869D02*
X4809371Y-8593916D01*
X4809371Y-8593916D02*
X4799847Y-8603440D01*
X4799847Y-8603440D02*
X4780800Y-8612964D01*
X4780800Y-8612964D02*
X4761752Y-8612964D01*
X4761752Y-8612964D02*
X4742704Y-8603440D01*
X4742704Y-8603440D02*
X4733181Y-8593916D01*
X4733181Y-8593916D02*
X4723657Y-8574869D01*
X4723657Y-8574869D02*
X4714133Y-8536773D01*
X4714133Y-8536773D02*
X4714133Y-8489154D01*
X4714133Y-8489154D02*
X4723657Y-8451059D01*
X4723657Y-8451059D02*
X4733181Y-8432011D01*
X4733181Y-8432011D02*
X4742704Y-8422488D01*
X4742704Y-8422488D02*
X4761752Y-8412964D01*
X4914133Y-8593916D02*
X4923657Y-8603440D01*
X4923657Y-8603440D02*
X4914133Y-8612964D01*
X4914133Y-8612964D02*
X4904609Y-8603440D01*
X4904609Y-8603440D02*
X4914133Y-8593916D01*
X4914133Y-8593916D02*
X4914133Y-8612964D01*
X5095085Y-8479630D02*
X5095085Y-8612964D01*
X5047466Y-8403440D02*
X4999847Y-8546297D01*
X4999847Y-8546297D02*
X5123657Y-8546297D01*
X5237943Y-8412964D02*
X5256990Y-8412964D01*
X5256990Y-8412964D02*
X5276038Y-8422488D01*
X5276038Y-8422488D02*
X5285562Y-8432011D01*
X5285562Y-8432011D02*
X5295085Y-8451059D01*
X5295085Y-8451059D02*
X5304609Y-8489154D01*
X5304609Y-8489154D02*
X5304609Y-8536773D01*
X5304609Y-8536773D02*
X5295085Y-8574869D01*
X5295085Y-8574869D02*
X5285562Y-8593916D01*
X5285562Y-8593916D02*
X5276038Y-8603440D01*
X5276038Y-8603440D02*
X5256990Y-8612964D01*
X5256990Y-8612964D02*
X5237943Y-8612964D01*
X5237943Y-8612964D02*
X5218895Y-8603440D01*
X5218895Y-8603440D02*
X5209371Y-8593916D01*
X5209371Y-8593916D02*
X5199847Y-8574869D01*
X5199847Y-8574869D02*
X5190324Y-8536773D01*
X5190324Y-8536773D02*
X5190324Y-8489154D01*
X5190324Y-8489154D02*
X5199847Y-8451059D01*
X5199847Y-8451059D02*
X5209371Y-8432011D01*
X5209371Y-8432011D02*
X5218895Y-8422488D01*
X5218895Y-8422488D02*
X5237943Y-8412964D01*
X5428419Y-8412964D02*
X5447466Y-8412964D01*
X5447466Y-8412964D02*
X5466514Y-8422488D01*
X5466514Y-8422488D02*
X5476038Y-8432011D01*
X5476038Y-8432011D02*
X5485562Y-8451059D01*
X5485562Y-8451059D02*
X5495085Y-8489154D01*
X5495085Y-8489154D02*
X5495085Y-8536773D01*
X5495085Y-8536773D02*
X5485562Y-8574869D01*
X5485562Y-8574869D02*
X5476038Y-8593916D01*
X5476038Y-8593916D02*
X5466514Y-8603440D01*
X5466514Y-8603440D02*
X5447466Y-8612964D01*
X5447466Y-8612964D02*
X5428419Y-8612964D01*
X5428419Y-8612964D02*
X5409371Y-8603440D01*
X5409371Y-8603440D02*
X5399847Y-8593916D01*
X5399847Y-8593916D02*
X5390324Y-8574869D01*
X5390324Y-8574869D02*
X5380800Y-8536773D01*
X5380800Y-8536773D02*
X5380800Y-8489154D01*
X5380800Y-8489154D02*
X5390324Y-8451059D01*
X5390324Y-8451059D02*
X5399847Y-8432011D01*
X5399847Y-8432011D02*
X5409371Y-8422488D01*
X5409371Y-8422488D02*
X5428419Y-8412964D01*
X5580800Y-8612964D02*
X5580800Y-8479630D01*
X5580800Y-8498678D02*
X5590324Y-8489154D01*
X5590324Y-8489154D02*
X5609371Y-8479630D01*
X5609371Y-8479630D02*
X5637943Y-8479630D01*
X5637943Y-8479630D02*
X5656990Y-8489154D01*
X5656990Y-8489154D02*
X5666514Y-8508202D01*
X5666514Y-8508202D02*
X5666514Y-8612964D01*
X5666514Y-8508202D02*
X5676038Y-8489154D01*
X5676038Y-8489154D02*
X5695085Y-8479630D01*
X5695085Y-8479630D02*
X5723657Y-8479630D01*
X5723657Y-8479630D02*
X5742704Y-8489154D01*
X5742704Y-8489154D02*
X5752228Y-8508202D01*
X5752228Y-8508202D02*
X5752228Y-8612964D01*
X5847466Y-8612964D02*
X5847466Y-8479630D01*
X5847466Y-8498678D02*
X5856990Y-8489154D01*
X5856990Y-8489154D02*
X5876038Y-8479630D01*
X5876038Y-8479630D02*
X5904609Y-8479630D01*
X5904609Y-8479630D02*
X5923657Y-8489154D01*
X5923657Y-8489154D02*
X5933181Y-8508202D01*
X5933181Y-8508202D02*
X5933181Y-8612964D01*
X5933181Y-8508202D02*
X5942704Y-8489154D01*
X5942704Y-8489154D02*
X5961752Y-8479630D01*
X5961752Y-8479630D02*
X5990323Y-8479630D01*
X5990323Y-8479630D02*
X6009371Y-8489154D01*
X6009371Y-8489154D02*
X6018895Y-8508202D01*
X6018895Y-8508202D02*
X6018895Y-8612964D01*
X6409371Y-8403440D02*
X6237943Y-8660583D01*
X6666514Y-8412964D02*
X6685562Y-8412964D01*
X6685562Y-8412964D02*
X6704609Y-8422488D01*
X6704609Y-8422488D02*
X6714133Y-8432011D01*
X6714133Y-8432011D02*
X6723657Y-8451059D01*
X6723657Y-8451059D02*
X6733181Y-8489154D01*
X6733181Y-8489154D02*
X6733181Y-8536773D01*
X6733181Y-8536773D02*
X6723657Y-8574869D01*
X6723657Y-8574869D02*
X6714133Y-8593916D01*
X6714133Y-8593916D02*
X6704609Y-8603440D01*
X6704609Y-8603440D02*
X6685562Y-8612964D01*
X6685562Y-8612964D02*
X6666514Y-8612964D01*
X6666514Y-8612964D02*
X6647466Y-8603440D01*
X6647466Y-8603440D02*
X6637943Y-8593916D01*
X6637943Y-8593916D02*
X6628419Y-8574869D01*
X6628419Y-8574869D02*
X6618895Y-8536773D01*
X6618895Y-8536773D02*
X6618895Y-8489154D01*
X6618895Y-8489154D02*
X6628419Y-8451059D01*
X6628419Y-8451059D02*
X6637943Y-8432011D01*
X6637943Y-8432011D02*
X6647466Y-8422488D01*
X6647466Y-8422488D02*
X6666514Y-8412964D01*
X6818895Y-8593916D02*
X6828419Y-8603440D01*
X6828419Y-8603440D02*
X6818895Y-8612964D01*
X6818895Y-8612964D02*
X6809371Y-8603440D01*
X6809371Y-8603440D02*
X6818895Y-8593916D01*
X6818895Y-8593916D02*
X6818895Y-8612964D01*
X6952228Y-8412964D02*
X6971276Y-8412964D01*
X6971276Y-8412964D02*
X6990324Y-8422488D01*
X6990324Y-8422488D02*
X6999847Y-8432011D01*
X6999847Y-8432011D02*
X7009371Y-8451059D01*
X7009371Y-8451059D02*
X7018895Y-8489154D01*
X7018895Y-8489154D02*
X7018895Y-8536773D01*
X7018895Y-8536773D02*
X7009371Y-8574869D01*
X7009371Y-8574869D02*
X6999847Y-8593916D01*
X6999847Y-8593916D02*
X6990324Y-8603440D01*
X6990324Y-8603440D02*
X6971276Y-8612964D01*
X6971276Y-8612964D02*
X6952228Y-8612964D01*
X6952228Y-8612964D02*
X6933181Y-8603440D01*
X6933181Y-8603440D02*
X6923657Y-8593916D01*
X6923657Y-8593916D02*
X6914133Y-8574869D01*
X6914133Y-8574869D02*
X6904609Y-8536773D01*
X6904609Y-8536773D02*
X6904609Y-8489154D01*
X6904609Y-8489154D02*
X6914133Y-8451059D01*
X6914133Y-8451059D02*
X6923657Y-8432011D01*
X6923657Y-8432011D02*
X6933181Y-8422488D01*
X6933181Y-8422488D02*
X6952228Y-8412964D01*
X7209371Y-8612964D02*
X7095086Y-8612964D01*
X7152228Y-8612964D02*
X7152228Y-8412964D01*
X7152228Y-8412964D02*
X7133181Y-8441535D01*
X7133181Y-8441535D02*
X7114133Y-8460583D01*
X7114133Y-8460583D02*
X7095086Y-8470107D01*
X7390324Y-8412964D02*
X7295086Y-8412964D01*
X7295086Y-8412964D02*
X7285562Y-8508202D01*
X7285562Y-8508202D02*
X7295086Y-8498678D01*
X7295086Y-8498678D02*
X7314133Y-8489154D01*
X7314133Y-8489154D02*
X7361752Y-8489154D01*
X7361752Y-8489154D02*
X7380800Y-8498678D01*
X7380800Y-8498678D02*
X7390324Y-8508202D01*
X7390324Y-8508202D02*
X7399847Y-8527250D01*
X7399847Y-8527250D02*
X7399847Y-8574869D01*
X7399847Y-8574869D02*
X7390324Y-8593916D01*
X7390324Y-8593916D02*
X7380800Y-8603440D01*
X7380800Y-8603440D02*
X7361752Y-8612964D01*
X7361752Y-8612964D02*
X7314133Y-8612964D01*
X7314133Y-8612964D02*
X7295086Y-8603440D01*
X7295086Y-8603440D02*
X7285562Y-8593916D01*
X7466514Y-8412964D02*
X7599847Y-8412964D01*
X7599847Y-8412964D02*
X7514133Y-8612964D01*
X7666514Y-8412964D02*
X7666514Y-8451059D01*
X7742705Y-8412964D02*
X7742705Y-8451059D01*
X8037943Y-8689154D02*
X8028419Y-8679630D01*
X8028419Y-8679630D02*
X8009371Y-8651059D01*
X8009371Y-8651059D02*
X7999848Y-8632011D01*
X7999848Y-8632011D02*
X7990324Y-8603440D01*
X7990324Y-8603440D02*
X7980800Y-8555821D01*
X7980800Y-8555821D02*
X7980800Y-8517726D01*
X7980800Y-8517726D02*
X7990324Y-8470107D01*
X7990324Y-8470107D02*
X7999848Y-8441535D01*
X7999848Y-8441535D02*
X8009371Y-8422488D01*
X8009371Y-8422488D02*
X8028419Y-8393916D01*
X8028419Y-8393916D02*
X8037943Y-8384392D01*
X8209371Y-8412964D02*
X8114133Y-8412964D01*
X8114133Y-8412964D02*
X8104609Y-8508202D01*
X8104609Y-8508202D02*
X8114133Y-8498678D01*
X8114133Y-8498678D02*
X8133181Y-8489154D01*
X8133181Y-8489154D02*
X8180800Y-8489154D01*
X8180800Y-8489154D02*
X8199848Y-8498678D01*
X8199848Y-8498678D02*
X8209371Y-8508202D01*
X8209371Y-8508202D02*
X8218895Y-8527250D01*
X8218895Y-8527250D02*
X8218895Y-8574869D01*
X8218895Y-8574869D02*
X8209371Y-8593916D01*
X8209371Y-8593916D02*
X8199848Y-8603440D01*
X8199848Y-8603440D02*
X8180800Y-8612964D01*
X8180800Y-8612964D02*
X8133181Y-8612964D01*
X8133181Y-8612964D02*
X8114133Y-8603440D01*
X8114133Y-8603440D02*
X8104609Y-8593916D01*
X8399848Y-8412964D02*
X8304609Y-8412964D01*
X8304609Y-8412964D02*
X8295086Y-8508202D01*
X8295086Y-8508202D02*
X8304609Y-8498678D01*
X8304609Y-8498678D02*
X8323657Y-8489154D01*
X8323657Y-8489154D02*
X8371276Y-8489154D01*
X8371276Y-8489154D02*
X8390324Y-8498678D01*
X8390324Y-8498678D02*
X8399848Y-8508202D01*
X8399848Y-8508202D02*
X8409371Y-8527250D01*
X8409371Y-8527250D02*
X8409371Y-8574869D01*
X8409371Y-8574869D02*
X8399848Y-8593916D01*
X8399848Y-8593916D02*
X8390324Y-8603440D01*
X8390324Y-8603440D02*
X8371276Y-8612964D01*
X8371276Y-8612964D02*
X8323657Y-8612964D01*
X8323657Y-8612964D02*
X8304609Y-8603440D01*
X8304609Y-8603440D02*
X8295086Y-8593916D01*
X8647467Y-8612964D02*
X8647467Y-8412964D01*
X8733181Y-8612964D02*
X8733181Y-8508202D01*
X8733181Y-8508202D02*
X8723657Y-8489154D01*
X8723657Y-8489154D02*
X8704610Y-8479630D01*
X8704610Y-8479630D02*
X8676038Y-8479630D01*
X8676038Y-8479630D02*
X8656991Y-8489154D01*
X8656991Y-8489154D02*
X8647467Y-8498678D01*
X8856991Y-8612964D02*
X8837943Y-8603440D01*
X8837943Y-8603440D02*
X8828419Y-8593916D01*
X8828419Y-8593916D02*
X8818895Y-8574869D01*
X8818895Y-8574869D02*
X8818895Y-8517726D01*
X8818895Y-8517726D02*
X8828419Y-8498678D01*
X8828419Y-8498678D02*
X8837943Y-8489154D01*
X8837943Y-8489154D02*
X8856991Y-8479630D01*
X8856991Y-8479630D02*
X8885562Y-8479630D01*
X8885562Y-8479630D02*
X8904610Y-8489154D01*
X8904610Y-8489154D02*
X8914133Y-8498678D01*
X8914133Y-8498678D02*
X8923657Y-8517726D01*
X8923657Y-8517726D02*
X8923657Y-8574869D01*
X8923657Y-8574869D02*
X8914133Y-8593916D01*
X8914133Y-8593916D02*
X8904610Y-8603440D01*
X8904610Y-8603440D02*
X8885562Y-8612964D01*
X8885562Y-8612964D02*
X8856991Y-8612964D01*
X9037943Y-8612964D02*
X9018895Y-8603440D01*
X9018895Y-8603440D02*
X9009372Y-8584392D01*
X9009372Y-8584392D02*
X9009372Y-8412964D01*
X9190324Y-8603440D02*
X9171276Y-8612964D01*
X9171276Y-8612964D02*
X9133181Y-8612964D01*
X9133181Y-8612964D02*
X9114133Y-8603440D01*
X9114133Y-8603440D02*
X9104610Y-8584392D01*
X9104610Y-8584392D02*
X9104610Y-8508202D01*
X9104610Y-8508202D02*
X9114133Y-8489154D01*
X9114133Y-8489154D02*
X9133181Y-8479630D01*
X9133181Y-8479630D02*
X9171276Y-8479630D01*
X9171276Y-8479630D02*
X9190324Y-8489154D01*
X9190324Y-8489154D02*
X9199848Y-8508202D01*
X9199848Y-8508202D02*
X9199848Y-8527250D01*
X9199848Y-8527250D02*
X9104610Y-8546297D01*
X9276038Y-8603440D02*
X9295086Y-8612964D01*
X9295086Y-8612964D02*
X9333181Y-8612964D01*
X9333181Y-8612964D02*
X9352229Y-8603440D01*
X9352229Y-8603440D02*
X9361753Y-8584392D01*
X9361753Y-8584392D02*
X9361753Y-8574869D01*
X9361753Y-8574869D02*
X9352229Y-8555821D01*
X9352229Y-8555821D02*
X9333181Y-8546297D01*
X9333181Y-8546297D02*
X9304610Y-8546297D01*
X9304610Y-8546297D02*
X9285562Y-8536773D01*
X9285562Y-8536773D02*
X9276038Y-8517726D01*
X9276038Y-8517726D02*
X9276038Y-8508202D01*
X9276038Y-8508202D02*
X9285562Y-8489154D01*
X9285562Y-8489154D02*
X9304610Y-8479630D01*
X9304610Y-8479630D02*
X9333181Y-8479630D01*
X9333181Y-8479630D02*
X9352229Y-8489154D01*
X9428419Y-8689154D02*
X9437943Y-8679630D01*
X9437943Y-8679630D02*
X9456991Y-8651059D01*
X9456991Y-8651059D02*
X9466514Y-8632011D01*
X9466514Y-8632011D02*
X9476038Y-8603440D01*
X9476038Y-8603440D02*
X9485562Y-8555821D01*
X9485562Y-8555821D02*
X9485562Y-8517726D01*
X9485562Y-8517726D02*
X9476038Y-8470107D01*
X9476038Y-8470107D02*
X9466514Y-8441535D01*
X9466514Y-8441535D02*
X9456991Y-8422488D01*
X9456991Y-8422488D02*
X9437943Y-8393916D01*
X9437943Y-8393916D02*
X9428419Y-8384392D01*
D12*
X4462880Y-8785480D02*
G75*
G02*
X4392880Y-8785480I-35000J0D01*
G01*
X4392880Y-8785480D02*
G75*
G02*
X4462880Y-8785480I35000J0D01*
G01*
D11*
X4761752Y-8676964D02*
X4780800Y-8676964D01*
X4780800Y-8676964D02*
X4799847Y-8686488D01*
X4799847Y-8686488D02*
X4809371Y-8696011D01*
X4809371Y-8696011D02*
X4818895Y-8715059D01*
X4818895Y-8715059D02*
X4828419Y-8753154D01*
X4828419Y-8753154D02*
X4828419Y-8800773D01*
X4828419Y-8800773D02*
X4818895Y-8838869D01*
X4818895Y-8838869D02*
X4809371Y-8857916D01*
X4809371Y-8857916D02*
X4799847Y-8867440D01*
X4799847Y-8867440D02*
X4780800Y-8876964D01*
X4780800Y-8876964D02*
X4761752Y-8876964D01*
X4761752Y-8876964D02*
X4742704Y-8867440D01*
X4742704Y-8867440D02*
X4733181Y-8857916D01*
X4733181Y-8857916D02*
X4723657Y-8838869D01*
X4723657Y-8838869D02*
X4714133Y-8800773D01*
X4714133Y-8800773D02*
X4714133Y-8753154D01*
X4714133Y-8753154D02*
X4723657Y-8715059D01*
X4723657Y-8715059D02*
X4733181Y-8696011D01*
X4733181Y-8696011D02*
X4742704Y-8686488D01*
X4742704Y-8686488D02*
X4761752Y-8676964D01*
X4914133Y-8857916D02*
X4923657Y-8867440D01*
X4923657Y-8867440D02*
X4914133Y-8876964D01*
X4914133Y-8876964D02*
X4904609Y-8867440D01*
X4904609Y-8867440D02*
X4914133Y-8857916D01*
X4914133Y-8857916D02*
X4914133Y-8876964D01*
X4990324Y-8676964D02*
X5123657Y-8676964D01*
X5123657Y-8676964D02*
X5037943Y-8876964D01*
X5237943Y-8676964D02*
X5256990Y-8676964D01*
X5256990Y-8676964D02*
X5276038Y-8686488D01*
X5276038Y-8686488D02*
X5285562Y-8696011D01*
X5285562Y-8696011D02*
X5295085Y-8715059D01*
X5295085Y-8715059D02*
X5304609Y-8753154D01*
X5304609Y-8753154D02*
X5304609Y-8800773D01*
X5304609Y-8800773D02*
X5295085Y-8838869D01*
X5295085Y-8838869D02*
X5285562Y-8857916D01*
X5285562Y-8857916D02*
X5276038Y-8867440D01*
X5276038Y-8867440D02*
X5256990Y-8876964D01*
X5256990Y-8876964D02*
X5237943Y-8876964D01*
X5237943Y-8876964D02*
X5218895Y-8867440D01*
X5218895Y-8867440D02*
X5209371Y-8857916D01*
X5209371Y-8857916D02*
X5199847Y-8838869D01*
X5199847Y-8838869D02*
X5190324Y-8800773D01*
X5190324Y-8800773D02*
X5190324Y-8753154D01*
X5190324Y-8753154D02*
X5199847Y-8715059D01*
X5199847Y-8715059D02*
X5209371Y-8696011D01*
X5209371Y-8696011D02*
X5218895Y-8686488D01*
X5218895Y-8686488D02*
X5237943Y-8676964D01*
X5428419Y-8676964D02*
X5447466Y-8676964D01*
X5447466Y-8676964D02*
X5466514Y-8686488D01*
X5466514Y-8686488D02*
X5476038Y-8696011D01*
X5476038Y-8696011D02*
X5485562Y-8715059D01*
X5485562Y-8715059D02*
X5495085Y-8753154D01*
X5495085Y-8753154D02*
X5495085Y-8800773D01*
X5495085Y-8800773D02*
X5485562Y-8838869D01*
X5485562Y-8838869D02*
X5476038Y-8857916D01*
X5476038Y-8857916D02*
X5466514Y-8867440D01*
X5466514Y-8867440D02*
X5447466Y-8876964D01*
X5447466Y-8876964D02*
X5428419Y-8876964D01*
X5428419Y-8876964D02*
X5409371Y-8867440D01*
X5409371Y-8867440D02*
X5399847Y-8857916D01*
X5399847Y-8857916D02*
X5390324Y-8838869D01*
X5390324Y-8838869D02*
X5380800Y-8800773D01*
X5380800Y-8800773D02*
X5380800Y-8753154D01*
X5380800Y-8753154D02*
X5390324Y-8715059D01*
X5390324Y-8715059D02*
X5399847Y-8696011D01*
X5399847Y-8696011D02*
X5409371Y-8686488D01*
X5409371Y-8686488D02*
X5428419Y-8676964D01*
X5580800Y-8876964D02*
X5580800Y-8743630D01*
X5580800Y-8762678D02*
X5590324Y-8753154D01*
X5590324Y-8753154D02*
X5609371Y-8743630D01*
X5609371Y-8743630D02*
X5637943Y-8743630D01*
X5637943Y-8743630D02*
X5656990Y-8753154D01*
X5656990Y-8753154D02*
X5666514Y-8772202D01*
X5666514Y-8772202D02*
X5666514Y-8876964D01*
X5666514Y-8772202D02*
X5676038Y-8753154D01*
X5676038Y-8753154D02*
X5695085Y-8743630D01*
X5695085Y-8743630D02*
X5723657Y-8743630D01*
X5723657Y-8743630D02*
X5742704Y-8753154D01*
X5742704Y-8753154D02*
X5752228Y-8772202D01*
X5752228Y-8772202D02*
X5752228Y-8876964D01*
X5847466Y-8876964D02*
X5847466Y-8743630D01*
X5847466Y-8762678D02*
X5856990Y-8753154D01*
X5856990Y-8753154D02*
X5876038Y-8743630D01*
X5876038Y-8743630D02*
X5904609Y-8743630D01*
X5904609Y-8743630D02*
X5923657Y-8753154D01*
X5923657Y-8753154D02*
X5933181Y-8772202D01*
X5933181Y-8772202D02*
X5933181Y-8876964D01*
X5933181Y-8772202D02*
X5942704Y-8753154D01*
X5942704Y-8753154D02*
X5961752Y-8743630D01*
X5961752Y-8743630D02*
X5990323Y-8743630D01*
X5990323Y-8743630D02*
X6009371Y-8753154D01*
X6009371Y-8753154D02*
X6018895Y-8772202D01*
X6018895Y-8772202D02*
X6018895Y-8876964D01*
X6409371Y-8667440D02*
X6237943Y-8924583D01*
X6666514Y-8676964D02*
X6685562Y-8676964D01*
X6685562Y-8676964D02*
X6704609Y-8686488D01*
X6704609Y-8686488D02*
X6714133Y-8696011D01*
X6714133Y-8696011D02*
X6723657Y-8715059D01*
X6723657Y-8715059D02*
X6733181Y-8753154D01*
X6733181Y-8753154D02*
X6733181Y-8800773D01*
X6733181Y-8800773D02*
X6723657Y-8838869D01*
X6723657Y-8838869D02*
X6714133Y-8857916D01*
X6714133Y-8857916D02*
X6704609Y-8867440D01*
X6704609Y-8867440D02*
X6685562Y-8876964D01*
X6685562Y-8876964D02*
X6666514Y-8876964D01*
X6666514Y-8876964D02*
X6647466Y-8867440D01*
X6647466Y-8867440D02*
X6637943Y-8857916D01*
X6637943Y-8857916D02*
X6628419Y-8838869D01*
X6628419Y-8838869D02*
X6618895Y-8800773D01*
X6618895Y-8800773D02*
X6618895Y-8753154D01*
X6618895Y-8753154D02*
X6628419Y-8715059D01*
X6628419Y-8715059D02*
X6637943Y-8696011D01*
X6637943Y-8696011D02*
X6647466Y-8686488D01*
X6647466Y-8686488D02*
X6666514Y-8676964D01*
X6818895Y-8857916D02*
X6828419Y-8867440D01*
X6828419Y-8867440D02*
X6818895Y-8876964D01*
X6818895Y-8876964D02*
X6809371Y-8867440D01*
X6809371Y-8867440D02*
X6818895Y-8857916D01*
X6818895Y-8857916D02*
X6818895Y-8876964D01*
X6952228Y-8676964D02*
X6971276Y-8676964D01*
X6971276Y-8676964D02*
X6990324Y-8686488D01*
X6990324Y-8686488D02*
X6999847Y-8696011D01*
X6999847Y-8696011D02*
X7009371Y-8715059D01*
X7009371Y-8715059D02*
X7018895Y-8753154D01*
X7018895Y-8753154D02*
X7018895Y-8800773D01*
X7018895Y-8800773D02*
X7009371Y-8838869D01*
X7009371Y-8838869D02*
X6999847Y-8857916D01*
X6999847Y-8857916D02*
X6990324Y-8867440D01*
X6990324Y-8867440D02*
X6971276Y-8876964D01*
X6971276Y-8876964D02*
X6952228Y-8876964D01*
X6952228Y-8876964D02*
X6933181Y-8867440D01*
X6933181Y-8867440D02*
X6923657Y-8857916D01*
X6923657Y-8857916D02*
X6914133Y-8838869D01*
X6914133Y-8838869D02*
X6904609Y-8800773D01*
X6904609Y-8800773D02*
X6904609Y-8753154D01*
X6904609Y-8753154D02*
X6914133Y-8715059D01*
X6914133Y-8715059D02*
X6923657Y-8696011D01*
X6923657Y-8696011D02*
X6933181Y-8686488D01*
X6933181Y-8686488D02*
X6952228Y-8676964D01*
X7095086Y-8696011D02*
X7104609Y-8686488D01*
X7104609Y-8686488D02*
X7123657Y-8676964D01*
X7123657Y-8676964D02*
X7171276Y-8676964D01*
X7171276Y-8676964D02*
X7190324Y-8686488D01*
X7190324Y-8686488D02*
X7199847Y-8696011D01*
X7199847Y-8696011D02*
X7209371Y-8715059D01*
X7209371Y-8715059D02*
X7209371Y-8734107D01*
X7209371Y-8734107D02*
X7199847Y-8762678D01*
X7199847Y-8762678D02*
X7085562Y-8876964D01*
X7085562Y-8876964D02*
X7209371Y-8876964D01*
X7276038Y-8676964D02*
X7409371Y-8676964D01*
X7409371Y-8676964D02*
X7323657Y-8876964D01*
X7571276Y-8676964D02*
X7533181Y-8676964D01*
X7533181Y-8676964D02*
X7514133Y-8686488D01*
X7514133Y-8686488D02*
X7504609Y-8696011D01*
X7504609Y-8696011D02*
X7485562Y-8724583D01*
X7485562Y-8724583D02*
X7476038Y-8762678D01*
X7476038Y-8762678D02*
X7476038Y-8838869D01*
X7476038Y-8838869D02*
X7485562Y-8857916D01*
X7485562Y-8857916D02*
X7495086Y-8867440D01*
X7495086Y-8867440D02*
X7514133Y-8876964D01*
X7514133Y-8876964D02*
X7552228Y-8876964D01*
X7552228Y-8876964D02*
X7571276Y-8867440D01*
X7571276Y-8867440D02*
X7580800Y-8857916D01*
X7580800Y-8857916D02*
X7590324Y-8838869D01*
X7590324Y-8838869D02*
X7590324Y-8791250D01*
X7590324Y-8791250D02*
X7580800Y-8772202D01*
X7580800Y-8772202D02*
X7571276Y-8762678D01*
X7571276Y-8762678D02*
X7552228Y-8753154D01*
X7552228Y-8753154D02*
X7514133Y-8753154D01*
X7514133Y-8753154D02*
X7495086Y-8762678D01*
X7495086Y-8762678D02*
X7485562Y-8772202D01*
X7485562Y-8772202D02*
X7476038Y-8791250D01*
X7666514Y-8676964D02*
X7666514Y-8715059D01*
X7742705Y-8676964D02*
X7742705Y-8715059D01*
X8037943Y-8953154D02*
X8028419Y-8943630D01*
X8028419Y-8943630D02*
X8009371Y-8915059D01*
X8009371Y-8915059D02*
X7999848Y-8896011D01*
X7999848Y-8896011D02*
X7990324Y-8867440D01*
X7990324Y-8867440D02*
X7980800Y-8819821D01*
X7980800Y-8819821D02*
X7980800Y-8781726D01*
X7980800Y-8781726D02*
X7990324Y-8734107D01*
X7990324Y-8734107D02*
X7999848Y-8705535D01*
X7999848Y-8705535D02*
X8009371Y-8686488D01*
X8009371Y-8686488D02*
X8028419Y-8657916D01*
X8028419Y-8657916D02*
X8037943Y-8648392D01*
X8142705Y-8762678D02*
X8123657Y-8753154D01*
X8123657Y-8753154D02*
X8114133Y-8743630D01*
X8114133Y-8743630D02*
X8104609Y-8724583D01*
X8104609Y-8724583D02*
X8104609Y-8715059D01*
X8104609Y-8715059D02*
X8114133Y-8696011D01*
X8114133Y-8696011D02*
X8123657Y-8686488D01*
X8123657Y-8686488D02*
X8142705Y-8676964D01*
X8142705Y-8676964D02*
X8180800Y-8676964D01*
X8180800Y-8676964D02*
X8199848Y-8686488D01*
X8199848Y-8686488D02*
X8209371Y-8696011D01*
X8209371Y-8696011D02*
X8218895Y-8715059D01*
X8218895Y-8715059D02*
X8218895Y-8724583D01*
X8218895Y-8724583D02*
X8209371Y-8743630D01*
X8209371Y-8743630D02*
X8199848Y-8753154D01*
X8199848Y-8753154D02*
X8180800Y-8762678D01*
X8180800Y-8762678D02*
X8142705Y-8762678D01*
X8142705Y-8762678D02*
X8123657Y-8772202D01*
X8123657Y-8772202D02*
X8114133Y-8781726D01*
X8114133Y-8781726D02*
X8104609Y-8800773D01*
X8104609Y-8800773D02*
X8104609Y-8838869D01*
X8104609Y-8838869D02*
X8114133Y-8857916D01*
X8114133Y-8857916D02*
X8123657Y-8867440D01*
X8123657Y-8867440D02*
X8142705Y-8876964D01*
X8142705Y-8876964D02*
X8180800Y-8876964D01*
X8180800Y-8876964D02*
X8199848Y-8867440D01*
X8199848Y-8867440D02*
X8209371Y-8857916D01*
X8209371Y-8857916D02*
X8218895Y-8838869D01*
X8218895Y-8838869D02*
X8218895Y-8800773D01*
X8218895Y-8800773D02*
X8209371Y-8781726D01*
X8209371Y-8781726D02*
X8199848Y-8772202D01*
X8199848Y-8772202D02*
X8180800Y-8762678D01*
X8456991Y-8876964D02*
X8456991Y-8676964D01*
X8542705Y-8876964D02*
X8542705Y-8772202D01*
X8542705Y-8772202D02*
X8533181Y-8753154D01*
X8533181Y-8753154D02*
X8514133Y-8743630D01*
X8514133Y-8743630D02*
X8485562Y-8743630D01*
X8485562Y-8743630D02*
X8466514Y-8753154D01*
X8466514Y-8753154D02*
X8456991Y-8762678D01*
X8666514Y-8876964D02*
X8647467Y-8867440D01*
X8647467Y-8867440D02*
X8637943Y-8857916D01*
X8637943Y-8857916D02*
X8628419Y-8838869D01*
X8628419Y-8838869D02*
X8628419Y-8781726D01*
X8628419Y-8781726D02*
X8637943Y-8762678D01*
X8637943Y-8762678D02*
X8647467Y-8753154D01*
X8647467Y-8753154D02*
X8666514Y-8743630D01*
X8666514Y-8743630D02*
X8695086Y-8743630D01*
X8695086Y-8743630D02*
X8714133Y-8753154D01*
X8714133Y-8753154D02*
X8723657Y-8762678D01*
X8723657Y-8762678D02*
X8733181Y-8781726D01*
X8733181Y-8781726D02*
X8733181Y-8838869D01*
X8733181Y-8838869D02*
X8723657Y-8857916D01*
X8723657Y-8857916D02*
X8714133Y-8867440D01*
X8714133Y-8867440D02*
X8695086Y-8876964D01*
X8695086Y-8876964D02*
X8666514Y-8876964D01*
X8847467Y-8876964D02*
X8828419Y-8867440D01*
X8828419Y-8867440D02*
X8818895Y-8848392D01*
X8818895Y-8848392D02*
X8818895Y-8676964D01*
X8999848Y-8867440D02*
X8980800Y-8876964D01*
X8980800Y-8876964D02*
X8942705Y-8876964D01*
X8942705Y-8876964D02*
X8923657Y-8867440D01*
X8923657Y-8867440D02*
X8914133Y-8848392D01*
X8914133Y-8848392D02*
X8914133Y-8772202D01*
X8914133Y-8772202D02*
X8923657Y-8753154D01*
X8923657Y-8753154D02*
X8942705Y-8743630D01*
X8942705Y-8743630D02*
X8980800Y-8743630D01*
X8980800Y-8743630D02*
X8999848Y-8753154D01*
X8999848Y-8753154D02*
X9009372Y-8772202D01*
X9009372Y-8772202D02*
X9009372Y-8791250D01*
X9009372Y-8791250D02*
X8914133Y-8810297D01*
X9085562Y-8867440D02*
X9104610Y-8876964D01*
X9104610Y-8876964D02*
X9142705Y-8876964D01*
X9142705Y-8876964D02*
X9161753Y-8867440D01*
X9161753Y-8867440D02*
X9171276Y-8848392D01*
X9171276Y-8848392D02*
X9171276Y-8838869D01*
X9171276Y-8838869D02*
X9161753Y-8819821D01*
X9161753Y-8819821D02*
X9142705Y-8810297D01*
X9142705Y-8810297D02*
X9114133Y-8810297D01*
X9114133Y-8810297D02*
X9095086Y-8800773D01*
X9095086Y-8800773D02*
X9085562Y-8781726D01*
X9085562Y-8781726D02*
X9085562Y-8772202D01*
X9085562Y-8772202D02*
X9095086Y-8753154D01*
X9095086Y-8753154D02*
X9114133Y-8743630D01*
X9114133Y-8743630D02*
X9142705Y-8743630D01*
X9142705Y-8743630D02*
X9161753Y-8753154D01*
X9237943Y-8953154D02*
X9247467Y-8943630D01*
X9247467Y-8943630D02*
X9266514Y-8915059D01*
X9266514Y-8915059D02*
X9276038Y-8896011D01*
X9276038Y-8896011D02*
X9285562Y-8867440D01*
X9285562Y-8867440D02*
X9295086Y-8819821D01*
X9295086Y-8819821D02*
X9295086Y-8781726D01*
X9295086Y-8781726D02*
X9285562Y-8734107D01*
X9285562Y-8734107D02*
X9276038Y-8705535D01*
X9276038Y-8705535D02*
X9266514Y-8686488D01*
X9266514Y-8686488D02*
X9247467Y-8657916D01*
X9247467Y-8657916D02*
X9237943Y-8648392D01*
D12*
X4422880Y-9009480D02*
X4422880Y-9089480D01*
X4382880Y-9049480D02*
X4462880Y-9049480D01*
D11*
X4761752Y-8940964D02*
X4780800Y-8940964D01*
X4780800Y-8940964D02*
X4799847Y-8950488D01*
X4799847Y-8950488D02*
X4809371Y-8960011D01*
X4809371Y-8960011D02*
X4818895Y-8979059D01*
X4818895Y-8979059D02*
X4828419Y-9017154D01*
X4828419Y-9017154D02*
X4828419Y-9064773D01*
X4828419Y-9064773D02*
X4818895Y-9102869D01*
X4818895Y-9102869D02*
X4809371Y-9121916D01*
X4809371Y-9121916D02*
X4799847Y-9131440D01*
X4799847Y-9131440D02*
X4780800Y-9140964D01*
X4780800Y-9140964D02*
X4761752Y-9140964D01*
X4761752Y-9140964D02*
X4742704Y-9131440D01*
X4742704Y-9131440D02*
X4733181Y-9121916D01*
X4733181Y-9121916D02*
X4723657Y-9102869D01*
X4723657Y-9102869D02*
X4714133Y-9064773D01*
X4714133Y-9064773D02*
X4714133Y-9017154D01*
X4714133Y-9017154D02*
X4723657Y-8979059D01*
X4723657Y-8979059D02*
X4733181Y-8960011D01*
X4733181Y-8960011D02*
X4742704Y-8950488D01*
X4742704Y-8950488D02*
X4761752Y-8940964D01*
X4914133Y-9121916D02*
X4923657Y-9131440D01*
X4923657Y-9131440D02*
X4914133Y-9140964D01*
X4914133Y-9140964D02*
X4904609Y-9131440D01*
X4904609Y-9131440D02*
X4914133Y-9121916D01*
X4914133Y-9121916D02*
X4914133Y-9140964D01*
X5037943Y-9026678D02*
X5018895Y-9017154D01*
X5018895Y-9017154D02*
X5009371Y-9007630D01*
X5009371Y-9007630D02*
X4999847Y-8988583D01*
X4999847Y-8988583D02*
X4999847Y-8979059D01*
X4999847Y-8979059D02*
X5009371Y-8960011D01*
X5009371Y-8960011D02*
X5018895Y-8950488D01*
X5018895Y-8950488D02*
X5037943Y-8940964D01*
X5037943Y-8940964D02*
X5076038Y-8940964D01*
X5076038Y-8940964D02*
X5095085Y-8950488D01*
X5095085Y-8950488D02*
X5104609Y-8960011D01*
X5104609Y-8960011D02*
X5114133Y-8979059D01*
X5114133Y-8979059D02*
X5114133Y-8988583D01*
X5114133Y-8988583D02*
X5104609Y-9007630D01*
X5104609Y-9007630D02*
X5095085Y-9017154D01*
X5095085Y-9017154D02*
X5076038Y-9026678D01*
X5076038Y-9026678D02*
X5037943Y-9026678D01*
X5037943Y-9026678D02*
X5018895Y-9036202D01*
X5018895Y-9036202D02*
X5009371Y-9045726D01*
X5009371Y-9045726D02*
X4999847Y-9064773D01*
X4999847Y-9064773D02*
X4999847Y-9102869D01*
X4999847Y-9102869D02*
X5009371Y-9121916D01*
X5009371Y-9121916D02*
X5018895Y-9131440D01*
X5018895Y-9131440D02*
X5037943Y-9140964D01*
X5037943Y-9140964D02*
X5076038Y-9140964D01*
X5076038Y-9140964D02*
X5095085Y-9131440D01*
X5095085Y-9131440D02*
X5104609Y-9121916D01*
X5104609Y-9121916D02*
X5114133Y-9102869D01*
X5114133Y-9102869D02*
X5114133Y-9064773D01*
X5114133Y-9064773D02*
X5104609Y-9045726D01*
X5104609Y-9045726D02*
X5095085Y-9036202D01*
X5095085Y-9036202D02*
X5076038Y-9026678D01*
X5237943Y-8940964D02*
X5256990Y-8940964D01*
X5256990Y-8940964D02*
X5276038Y-8950488D01*
X5276038Y-8950488D02*
X5285562Y-8960011D01*
X5285562Y-8960011D02*
X5295085Y-8979059D01*
X5295085Y-8979059D02*
X5304609Y-9017154D01*
X5304609Y-9017154D02*
X5304609Y-9064773D01*
X5304609Y-9064773D02*
X5295085Y-9102869D01*
X5295085Y-9102869D02*
X5285562Y-9121916D01*
X5285562Y-9121916D02*
X5276038Y-9131440D01*
X5276038Y-9131440D02*
X5256990Y-9140964D01*
X5256990Y-9140964D02*
X5237943Y-9140964D01*
X5237943Y-9140964D02*
X5218895Y-9131440D01*
X5218895Y-9131440D02*
X5209371Y-9121916D01*
X5209371Y-9121916D02*
X5199847Y-9102869D01*
X5199847Y-9102869D02*
X5190324Y-9064773D01*
X5190324Y-9064773D02*
X5190324Y-9017154D01*
X5190324Y-9017154D02*
X5199847Y-8979059D01*
X5199847Y-8979059D02*
X5209371Y-8960011D01*
X5209371Y-8960011D02*
X5218895Y-8950488D01*
X5218895Y-8950488D02*
X5237943Y-8940964D01*
X5428419Y-8940964D02*
X5447466Y-8940964D01*
X5447466Y-8940964D02*
X5466514Y-8950488D01*
X5466514Y-8950488D02*
X5476038Y-8960011D01*
X5476038Y-8960011D02*
X5485562Y-8979059D01*
X5485562Y-8979059D02*
X5495085Y-9017154D01*
X5495085Y-9017154D02*
X5495085Y-9064773D01*
X5495085Y-9064773D02*
X5485562Y-9102869D01*
X5485562Y-9102869D02*
X5476038Y-9121916D01*
X5476038Y-9121916D02*
X5466514Y-9131440D01*
X5466514Y-9131440D02*
X5447466Y-9140964D01*
X5447466Y-9140964D02*
X5428419Y-9140964D01*
X5428419Y-9140964D02*
X5409371Y-9131440D01*
X5409371Y-9131440D02*
X5399847Y-9121916D01*
X5399847Y-9121916D02*
X5390324Y-9102869D01*
X5390324Y-9102869D02*
X5380800Y-9064773D01*
X5380800Y-9064773D02*
X5380800Y-9017154D01*
X5380800Y-9017154D02*
X5390324Y-8979059D01*
X5390324Y-8979059D02*
X5399847Y-8960011D01*
X5399847Y-8960011D02*
X5409371Y-8950488D01*
X5409371Y-8950488D02*
X5428419Y-8940964D01*
X5580800Y-9140964D02*
X5580800Y-9007630D01*
X5580800Y-9026678D02*
X5590324Y-9017154D01*
X5590324Y-9017154D02*
X5609371Y-9007630D01*
X5609371Y-9007630D02*
X5637943Y-9007630D01*
X5637943Y-9007630D02*
X5656990Y-9017154D01*
X5656990Y-9017154D02*
X5666514Y-9036202D01*
X5666514Y-9036202D02*
X5666514Y-9140964D01*
X5666514Y-9036202D02*
X5676038Y-9017154D01*
X5676038Y-9017154D02*
X5695085Y-9007630D01*
X5695085Y-9007630D02*
X5723657Y-9007630D01*
X5723657Y-9007630D02*
X5742704Y-9017154D01*
X5742704Y-9017154D02*
X5752228Y-9036202D01*
X5752228Y-9036202D02*
X5752228Y-9140964D01*
X5847466Y-9140964D02*
X5847466Y-9007630D01*
X5847466Y-9026678D02*
X5856990Y-9017154D01*
X5856990Y-9017154D02*
X5876038Y-9007630D01*
X5876038Y-9007630D02*
X5904609Y-9007630D01*
X5904609Y-9007630D02*
X5923657Y-9017154D01*
X5923657Y-9017154D02*
X5933181Y-9036202D01*
X5933181Y-9036202D02*
X5933181Y-9140964D01*
X5933181Y-9036202D02*
X5942704Y-9017154D01*
X5942704Y-9017154D02*
X5961752Y-9007630D01*
X5961752Y-9007630D02*
X5990323Y-9007630D01*
X5990323Y-9007630D02*
X6009371Y-9017154D01*
X6009371Y-9017154D02*
X6018895Y-9036202D01*
X6018895Y-9036202D02*
X6018895Y-9140964D01*
X6409371Y-8931440D02*
X6237943Y-9188583D01*
X6666514Y-8940964D02*
X6685562Y-8940964D01*
X6685562Y-8940964D02*
X6704609Y-8950488D01*
X6704609Y-8950488D02*
X6714133Y-8960011D01*
X6714133Y-8960011D02*
X6723657Y-8979059D01*
X6723657Y-8979059D02*
X6733181Y-9017154D01*
X6733181Y-9017154D02*
X6733181Y-9064773D01*
X6733181Y-9064773D02*
X6723657Y-9102869D01*
X6723657Y-9102869D02*
X6714133Y-9121916D01*
X6714133Y-9121916D02*
X6704609Y-9131440D01*
X6704609Y-9131440D02*
X6685562Y-9140964D01*
X6685562Y-9140964D02*
X6666514Y-9140964D01*
X6666514Y-9140964D02*
X6647466Y-9131440D01*
X6647466Y-9131440D02*
X6637943Y-9121916D01*
X6637943Y-9121916D02*
X6628419Y-9102869D01*
X6628419Y-9102869D02*
X6618895Y-9064773D01*
X6618895Y-9064773D02*
X6618895Y-9017154D01*
X6618895Y-9017154D02*
X6628419Y-8979059D01*
X6628419Y-8979059D02*
X6637943Y-8960011D01*
X6637943Y-8960011D02*
X6647466Y-8950488D01*
X6647466Y-8950488D02*
X6666514Y-8940964D01*
X6818895Y-9121916D02*
X6828419Y-9131440D01*
X6828419Y-9131440D02*
X6818895Y-9140964D01*
X6818895Y-9140964D02*
X6809371Y-9131440D01*
X6809371Y-9131440D02*
X6818895Y-9121916D01*
X6818895Y-9121916D02*
X6818895Y-9140964D01*
X6952228Y-8940964D02*
X6971276Y-8940964D01*
X6971276Y-8940964D02*
X6990324Y-8950488D01*
X6990324Y-8950488D02*
X6999847Y-8960011D01*
X6999847Y-8960011D02*
X7009371Y-8979059D01*
X7009371Y-8979059D02*
X7018895Y-9017154D01*
X7018895Y-9017154D02*
X7018895Y-9064773D01*
X7018895Y-9064773D02*
X7009371Y-9102869D01*
X7009371Y-9102869D02*
X6999847Y-9121916D01*
X6999847Y-9121916D02*
X6990324Y-9131440D01*
X6990324Y-9131440D02*
X6971276Y-9140964D01*
X6971276Y-9140964D02*
X6952228Y-9140964D01*
X6952228Y-9140964D02*
X6933181Y-9131440D01*
X6933181Y-9131440D02*
X6923657Y-9121916D01*
X6923657Y-9121916D02*
X6914133Y-9102869D01*
X6914133Y-9102869D02*
X6904609Y-9064773D01*
X6904609Y-9064773D02*
X6904609Y-9017154D01*
X6904609Y-9017154D02*
X6914133Y-8979059D01*
X6914133Y-8979059D02*
X6923657Y-8960011D01*
X6923657Y-8960011D02*
X6933181Y-8950488D01*
X6933181Y-8950488D02*
X6952228Y-8940964D01*
X7085562Y-8940964D02*
X7209371Y-8940964D01*
X7209371Y-8940964D02*
X7142705Y-9017154D01*
X7142705Y-9017154D02*
X7171276Y-9017154D01*
X7171276Y-9017154D02*
X7190324Y-9026678D01*
X7190324Y-9026678D02*
X7199847Y-9036202D01*
X7199847Y-9036202D02*
X7209371Y-9055250D01*
X7209371Y-9055250D02*
X7209371Y-9102869D01*
X7209371Y-9102869D02*
X7199847Y-9121916D01*
X7199847Y-9121916D02*
X7190324Y-9131440D01*
X7190324Y-9131440D02*
X7171276Y-9140964D01*
X7171276Y-9140964D02*
X7114133Y-9140964D01*
X7114133Y-9140964D02*
X7095086Y-9131440D01*
X7095086Y-9131440D02*
X7085562Y-9121916D01*
X7399847Y-9140964D02*
X7285562Y-9140964D01*
X7342705Y-9140964D02*
X7342705Y-8940964D01*
X7342705Y-8940964D02*
X7323657Y-8969535D01*
X7323657Y-8969535D02*
X7304609Y-8988583D01*
X7304609Y-8988583D02*
X7285562Y-8998107D01*
X7580800Y-8940964D02*
X7485562Y-8940964D01*
X7485562Y-8940964D02*
X7476038Y-9036202D01*
X7476038Y-9036202D02*
X7485562Y-9026678D01*
X7485562Y-9026678D02*
X7504609Y-9017154D01*
X7504609Y-9017154D02*
X7552228Y-9017154D01*
X7552228Y-9017154D02*
X7571276Y-9026678D01*
X7571276Y-9026678D02*
X7580800Y-9036202D01*
X7580800Y-9036202D02*
X7590324Y-9055250D01*
X7590324Y-9055250D02*
X7590324Y-9102869D01*
X7590324Y-9102869D02*
X7580800Y-9121916D01*
X7580800Y-9121916D02*
X7571276Y-9131440D01*
X7571276Y-9131440D02*
X7552228Y-9140964D01*
X7552228Y-9140964D02*
X7504609Y-9140964D01*
X7504609Y-9140964D02*
X7485562Y-9131440D01*
X7485562Y-9131440D02*
X7476038Y-9121916D01*
X7666514Y-8940964D02*
X7666514Y-8979059D01*
X7742705Y-8940964D02*
X7742705Y-8979059D01*
X8037943Y-9217154D02*
X8028419Y-9207630D01*
X8028419Y-9207630D02*
X8009371Y-9179059D01*
X8009371Y-9179059D02*
X7999848Y-9160011D01*
X7999848Y-9160011D02*
X7990324Y-9131440D01*
X7990324Y-9131440D02*
X7980800Y-9083821D01*
X7980800Y-9083821D02*
X7980800Y-9045726D01*
X7980800Y-9045726D02*
X7990324Y-8998107D01*
X7990324Y-8998107D02*
X7999848Y-8969535D01*
X7999848Y-8969535D02*
X8009371Y-8950488D01*
X8009371Y-8950488D02*
X8028419Y-8921916D01*
X8028419Y-8921916D02*
X8037943Y-8912392D01*
X8218895Y-9140964D02*
X8104609Y-9140964D01*
X8161752Y-9140964D02*
X8161752Y-8940964D01*
X8161752Y-8940964D02*
X8142705Y-8969535D01*
X8142705Y-8969535D02*
X8123657Y-8988583D01*
X8123657Y-8988583D02*
X8104609Y-8998107D01*
X8390324Y-8940964D02*
X8352228Y-8940964D01*
X8352228Y-8940964D02*
X8333181Y-8950488D01*
X8333181Y-8950488D02*
X8323657Y-8960011D01*
X8323657Y-8960011D02*
X8304609Y-8988583D01*
X8304609Y-8988583D02*
X8295086Y-9026678D01*
X8295086Y-9026678D02*
X8295086Y-9102869D01*
X8295086Y-9102869D02*
X8304609Y-9121916D01*
X8304609Y-9121916D02*
X8314133Y-9131440D01*
X8314133Y-9131440D02*
X8333181Y-9140964D01*
X8333181Y-9140964D02*
X8371276Y-9140964D01*
X8371276Y-9140964D02*
X8390324Y-9131440D01*
X8390324Y-9131440D02*
X8399848Y-9121916D01*
X8399848Y-9121916D02*
X8409371Y-9102869D01*
X8409371Y-9102869D02*
X8409371Y-9055250D01*
X8409371Y-9055250D02*
X8399848Y-9036202D01*
X8399848Y-9036202D02*
X8390324Y-9026678D01*
X8390324Y-9026678D02*
X8371276Y-9017154D01*
X8371276Y-9017154D02*
X8333181Y-9017154D01*
X8333181Y-9017154D02*
X8314133Y-9026678D01*
X8314133Y-9026678D02*
X8304609Y-9036202D01*
X8304609Y-9036202D02*
X8295086Y-9055250D01*
X8647467Y-9140964D02*
X8647467Y-8940964D01*
X8733181Y-9140964D02*
X8733181Y-9036202D01*
X8733181Y-9036202D02*
X8723657Y-9017154D01*
X8723657Y-9017154D02*
X8704610Y-9007630D01*
X8704610Y-9007630D02*
X8676038Y-9007630D01*
X8676038Y-9007630D02*
X8656991Y-9017154D01*
X8656991Y-9017154D02*
X8647467Y-9026678D01*
X8856991Y-9140964D02*
X8837943Y-9131440D01*
X8837943Y-9131440D02*
X8828419Y-9121916D01*
X8828419Y-9121916D02*
X8818895Y-9102869D01*
X8818895Y-9102869D02*
X8818895Y-9045726D01*
X8818895Y-9045726D02*
X8828419Y-9026678D01*
X8828419Y-9026678D02*
X8837943Y-9017154D01*
X8837943Y-9017154D02*
X8856991Y-9007630D01*
X8856991Y-9007630D02*
X8885562Y-9007630D01*
X8885562Y-9007630D02*
X8904610Y-9017154D01*
X8904610Y-9017154D02*
X8914133Y-9026678D01*
X8914133Y-9026678D02*
X8923657Y-9045726D01*
X8923657Y-9045726D02*
X8923657Y-9102869D01*
X8923657Y-9102869D02*
X8914133Y-9121916D01*
X8914133Y-9121916D02*
X8904610Y-9131440D01*
X8904610Y-9131440D02*
X8885562Y-9140964D01*
X8885562Y-9140964D02*
X8856991Y-9140964D01*
X9037943Y-9140964D02*
X9018895Y-9131440D01*
X9018895Y-9131440D02*
X9009372Y-9112392D01*
X9009372Y-9112392D02*
X9009372Y-8940964D01*
X9190324Y-9131440D02*
X9171276Y-9140964D01*
X9171276Y-9140964D02*
X9133181Y-9140964D01*
X9133181Y-9140964D02*
X9114133Y-9131440D01*
X9114133Y-9131440D02*
X9104610Y-9112392D01*
X9104610Y-9112392D02*
X9104610Y-9036202D01*
X9104610Y-9036202D02*
X9114133Y-9017154D01*
X9114133Y-9017154D02*
X9133181Y-9007630D01*
X9133181Y-9007630D02*
X9171276Y-9007630D01*
X9171276Y-9007630D02*
X9190324Y-9017154D01*
X9190324Y-9017154D02*
X9199848Y-9036202D01*
X9199848Y-9036202D02*
X9199848Y-9055250D01*
X9199848Y-9055250D02*
X9104610Y-9074297D01*
X9276038Y-9131440D02*
X9295086Y-9140964D01*
X9295086Y-9140964D02*
X9333181Y-9140964D01*
X9333181Y-9140964D02*
X9352229Y-9131440D01*
X9352229Y-9131440D02*
X9361753Y-9112392D01*
X9361753Y-9112392D02*
X9361753Y-9102869D01*
X9361753Y-9102869D02*
X9352229Y-9083821D01*
X9352229Y-9083821D02*
X9333181Y-9074297D01*
X9333181Y-9074297D02*
X9304610Y-9074297D01*
X9304610Y-9074297D02*
X9285562Y-9064773D01*
X9285562Y-9064773D02*
X9276038Y-9045726D01*
X9276038Y-9045726D02*
X9276038Y-9036202D01*
X9276038Y-9036202D02*
X9285562Y-9017154D01*
X9285562Y-9017154D02*
X9304610Y-9007630D01*
X9304610Y-9007630D02*
X9333181Y-9007630D01*
X9333181Y-9007630D02*
X9352229Y-9017154D01*
X9428419Y-9217154D02*
X9437943Y-9207630D01*
X9437943Y-9207630D02*
X9456991Y-9179059D01*
X9456991Y-9179059D02*
X9466514Y-9160011D01*
X9466514Y-9160011D02*
X9476038Y-9131440D01*
X9476038Y-9131440D02*
X9485562Y-9083821D01*
X9485562Y-9083821D02*
X9485562Y-9045726D01*
X9485562Y-9045726D02*
X9476038Y-8998107D01*
X9476038Y-8998107D02*
X9466514Y-8969535D01*
X9466514Y-8969535D02*
X9456991Y-8950488D01*
X9456991Y-8950488D02*
X9437943Y-8921916D01*
X9437943Y-8921916D02*
X9428419Y-8912392D01*
D12*
X4449700Y-9345300D02*
X4449700Y-9281660D01*
X4386060Y-9281660D01*
X4386060Y-9345300D01*
X4449700Y-9345300D01*
D11*
X4761752Y-9204964D02*
X4780800Y-9204964D01*
X4780800Y-9204964D02*
X4799847Y-9214488D01*
X4799847Y-9214488D02*
X4809371Y-9224011D01*
X4809371Y-9224011D02*
X4818895Y-9243059D01*
X4818895Y-9243059D02*
X4828419Y-9281154D01*
X4828419Y-9281154D02*
X4828419Y-9328773D01*
X4828419Y-9328773D02*
X4818895Y-9366869D01*
X4818895Y-9366869D02*
X4809371Y-9385916D01*
X4809371Y-9385916D02*
X4799847Y-9395440D01*
X4799847Y-9395440D02*
X4780800Y-9404964D01*
X4780800Y-9404964D02*
X4761752Y-9404964D01*
X4761752Y-9404964D02*
X4742704Y-9395440D01*
X4742704Y-9395440D02*
X4733181Y-9385916D01*
X4733181Y-9385916D02*
X4723657Y-9366869D01*
X4723657Y-9366869D02*
X4714133Y-9328773D01*
X4714133Y-9328773D02*
X4714133Y-9281154D01*
X4714133Y-9281154D02*
X4723657Y-9243059D01*
X4723657Y-9243059D02*
X4733181Y-9224011D01*
X4733181Y-9224011D02*
X4742704Y-9214488D01*
X4742704Y-9214488D02*
X4761752Y-9204964D01*
X4914133Y-9385916D02*
X4923657Y-9395440D01*
X4923657Y-9395440D02*
X4914133Y-9404964D01*
X4914133Y-9404964D02*
X4904609Y-9395440D01*
X4904609Y-9395440D02*
X4914133Y-9385916D01*
X4914133Y-9385916D02*
X4914133Y-9404964D01*
X5018895Y-9404964D02*
X5056990Y-9404964D01*
X5056990Y-9404964D02*
X5076038Y-9395440D01*
X5076038Y-9395440D02*
X5085562Y-9385916D01*
X5085562Y-9385916D02*
X5104609Y-9357345D01*
X5104609Y-9357345D02*
X5114133Y-9319250D01*
X5114133Y-9319250D02*
X5114133Y-9243059D01*
X5114133Y-9243059D02*
X5104609Y-9224011D01*
X5104609Y-9224011D02*
X5095085Y-9214488D01*
X5095085Y-9214488D02*
X5076038Y-9204964D01*
X5076038Y-9204964D02*
X5037943Y-9204964D01*
X5037943Y-9204964D02*
X5018895Y-9214488D01*
X5018895Y-9214488D02*
X5009371Y-9224011D01*
X5009371Y-9224011D02*
X4999847Y-9243059D01*
X4999847Y-9243059D02*
X4999847Y-9290678D01*
X4999847Y-9290678D02*
X5009371Y-9309726D01*
X5009371Y-9309726D02*
X5018895Y-9319250D01*
X5018895Y-9319250D02*
X5037943Y-9328773D01*
X5037943Y-9328773D02*
X5076038Y-9328773D01*
X5076038Y-9328773D02*
X5095085Y-9319250D01*
X5095085Y-9319250D02*
X5104609Y-9309726D01*
X5104609Y-9309726D02*
X5114133Y-9290678D01*
X5237943Y-9204964D02*
X5256990Y-9204964D01*
X5256990Y-9204964D02*
X5276038Y-9214488D01*
X5276038Y-9214488D02*
X5285562Y-9224011D01*
X5285562Y-9224011D02*
X5295085Y-9243059D01*
X5295085Y-9243059D02*
X5304609Y-9281154D01*
X5304609Y-9281154D02*
X5304609Y-9328773D01*
X5304609Y-9328773D02*
X5295085Y-9366869D01*
X5295085Y-9366869D02*
X5285562Y-9385916D01*
X5285562Y-9385916D02*
X5276038Y-9395440D01*
X5276038Y-9395440D02*
X5256990Y-9404964D01*
X5256990Y-9404964D02*
X5237943Y-9404964D01*
X5237943Y-9404964D02*
X5218895Y-9395440D01*
X5218895Y-9395440D02*
X5209371Y-9385916D01*
X5209371Y-9385916D02*
X5199847Y-9366869D01*
X5199847Y-9366869D02*
X5190324Y-9328773D01*
X5190324Y-9328773D02*
X5190324Y-9281154D01*
X5190324Y-9281154D02*
X5199847Y-9243059D01*
X5199847Y-9243059D02*
X5209371Y-9224011D01*
X5209371Y-9224011D02*
X5218895Y-9214488D01*
X5218895Y-9214488D02*
X5237943Y-9204964D01*
X5428419Y-9204964D02*
X5447466Y-9204964D01*
X5447466Y-9204964D02*
X5466514Y-9214488D01*
X5466514Y-9214488D02*
X5476038Y-9224011D01*
X5476038Y-9224011D02*
X5485562Y-9243059D01*
X5485562Y-9243059D02*
X5495085Y-9281154D01*
X5495085Y-9281154D02*
X5495085Y-9328773D01*
X5495085Y-9328773D02*
X5485562Y-9366869D01*
X5485562Y-9366869D02*
X5476038Y-9385916D01*
X5476038Y-9385916D02*
X5466514Y-9395440D01*
X5466514Y-9395440D02*
X5447466Y-9404964D01*
X5447466Y-9404964D02*
X5428419Y-9404964D01*
X5428419Y-9404964D02*
X5409371Y-9395440D01*
X5409371Y-9395440D02*
X5399847Y-9385916D01*
X5399847Y-9385916D02*
X5390324Y-9366869D01*
X5390324Y-9366869D02*
X5380800Y-9328773D01*
X5380800Y-9328773D02*
X5380800Y-9281154D01*
X5380800Y-9281154D02*
X5390324Y-9243059D01*
X5390324Y-9243059D02*
X5399847Y-9224011D01*
X5399847Y-9224011D02*
X5409371Y-9214488D01*
X5409371Y-9214488D02*
X5428419Y-9204964D01*
X5580800Y-9404964D02*
X5580800Y-9271630D01*
X5580800Y-9290678D02*
X5590324Y-9281154D01*
X5590324Y-9281154D02*
X5609371Y-9271630D01*
X5609371Y-9271630D02*
X5637943Y-9271630D01*
X5637943Y-9271630D02*
X5656990Y-9281154D01*
X5656990Y-9281154D02*
X5666514Y-9300202D01*
X5666514Y-9300202D02*
X5666514Y-9404964D01*
X5666514Y-9300202D02*
X5676038Y-9281154D01*
X5676038Y-9281154D02*
X5695085Y-9271630D01*
X5695085Y-9271630D02*
X5723657Y-9271630D01*
X5723657Y-9271630D02*
X5742704Y-9281154D01*
X5742704Y-9281154D02*
X5752228Y-9300202D01*
X5752228Y-9300202D02*
X5752228Y-9404964D01*
X5847466Y-9404964D02*
X5847466Y-9271630D01*
X5847466Y-9290678D02*
X5856990Y-9281154D01*
X5856990Y-9281154D02*
X5876038Y-9271630D01*
X5876038Y-9271630D02*
X5904609Y-9271630D01*
X5904609Y-9271630D02*
X5923657Y-9281154D01*
X5923657Y-9281154D02*
X5933181Y-9300202D01*
X5933181Y-9300202D02*
X5933181Y-9404964D01*
X5933181Y-9300202D02*
X5942704Y-9281154D01*
X5942704Y-9281154D02*
X5961752Y-9271630D01*
X5961752Y-9271630D02*
X5990323Y-9271630D01*
X5990323Y-9271630D02*
X6009371Y-9281154D01*
X6009371Y-9281154D02*
X6018895Y-9300202D01*
X6018895Y-9300202D02*
X6018895Y-9404964D01*
X6409371Y-9195440D02*
X6237943Y-9452583D01*
X6666514Y-9204964D02*
X6685562Y-9204964D01*
X6685562Y-9204964D02*
X6704609Y-9214488D01*
X6704609Y-9214488D02*
X6714133Y-9224011D01*
X6714133Y-9224011D02*
X6723657Y-9243059D01*
X6723657Y-9243059D02*
X6733181Y-9281154D01*
X6733181Y-9281154D02*
X6733181Y-9328773D01*
X6733181Y-9328773D02*
X6723657Y-9366869D01*
X6723657Y-9366869D02*
X6714133Y-9385916D01*
X6714133Y-9385916D02*
X6704609Y-9395440D01*
X6704609Y-9395440D02*
X6685562Y-9404964D01*
X6685562Y-9404964D02*
X6666514Y-9404964D01*
X6666514Y-9404964D02*
X6647466Y-9395440D01*
X6647466Y-9395440D02*
X6637943Y-9385916D01*
X6637943Y-9385916D02*
X6628419Y-9366869D01*
X6628419Y-9366869D02*
X6618895Y-9328773D01*
X6618895Y-9328773D02*
X6618895Y-9281154D01*
X6618895Y-9281154D02*
X6628419Y-9243059D01*
X6628419Y-9243059D02*
X6637943Y-9224011D01*
X6637943Y-9224011D02*
X6647466Y-9214488D01*
X6647466Y-9214488D02*
X6666514Y-9204964D01*
X6818895Y-9385916D02*
X6828419Y-9395440D01*
X6828419Y-9395440D02*
X6818895Y-9404964D01*
X6818895Y-9404964D02*
X6809371Y-9395440D01*
X6809371Y-9395440D02*
X6818895Y-9385916D01*
X6818895Y-9385916D02*
X6818895Y-9404964D01*
X6952228Y-9204964D02*
X6971276Y-9204964D01*
X6971276Y-9204964D02*
X6990324Y-9214488D01*
X6990324Y-9214488D02*
X6999847Y-9224011D01*
X6999847Y-9224011D02*
X7009371Y-9243059D01*
X7009371Y-9243059D02*
X7018895Y-9281154D01*
X7018895Y-9281154D02*
X7018895Y-9328773D01*
X7018895Y-9328773D02*
X7009371Y-9366869D01*
X7009371Y-9366869D02*
X6999847Y-9385916D01*
X6999847Y-9385916D02*
X6990324Y-9395440D01*
X6990324Y-9395440D02*
X6971276Y-9404964D01*
X6971276Y-9404964D02*
X6952228Y-9404964D01*
X6952228Y-9404964D02*
X6933181Y-9395440D01*
X6933181Y-9395440D02*
X6923657Y-9385916D01*
X6923657Y-9385916D02*
X6914133Y-9366869D01*
X6914133Y-9366869D02*
X6904609Y-9328773D01*
X6904609Y-9328773D02*
X6904609Y-9281154D01*
X6904609Y-9281154D02*
X6914133Y-9243059D01*
X6914133Y-9243059D02*
X6923657Y-9224011D01*
X6923657Y-9224011D02*
X6933181Y-9214488D01*
X6933181Y-9214488D02*
X6952228Y-9204964D01*
X7085562Y-9204964D02*
X7209371Y-9204964D01*
X7209371Y-9204964D02*
X7142705Y-9281154D01*
X7142705Y-9281154D02*
X7171276Y-9281154D01*
X7171276Y-9281154D02*
X7190324Y-9290678D01*
X7190324Y-9290678D02*
X7199847Y-9300202D01*
X7199847Y-9300202D02*
X7209371Y-9319250D01*
X7209371Y-9319250D02*
X7209371Y-9366869D01*
X7209371Y-9366869D02*
X7199847Y-9385916D01*
X7199847Y-9385916D02*
X7190324Y-9395440D01*
X7190324Y-9395440D02*
X7171276Y-9404964D01*
X7171276Y-9404964D02*
X7114133Y-9404964D01*
X7114133Y-9404964D02*
X7095086Y-9395440D01*
X7095086Y-9395440D02*
X7085562Y-9385916D01*
X7390324Y-9204964D02*
X7295086Y-9204964D01*
X7295086Y-9204964D02*
X7285562Y-9300202D01*
X7285562Y-9300202D02*
X7295086Y-9290678D01*
X7295086Y-9290678D02*
X7314133Y-9281154D01*
X7314133Y-9281154D02*
X7361752Y-9281154D01*
X7361752Y-9281154D02*
X7380800Y-9290678D01*
X7380800Y-9290678D02*
X7390324Y-9300202D01*
X7390324Y-9300202D02*
X7399847Y-9319250D01*
X7399847Y-9319250D02*
X7399847Y-9366869D01*
X7399847Y-9366869D02*
X7390324Y-9385916D01*
X7390324Y-9385916D02*
X7380800Y-9395440D01*
X7380800Y-9395440D02*
X7361752Y-9404964D01*
X7361752Y-9404964D02*
X7314133Y-9404964D01*
X7314133Y-9404964D02*
X7295086Y-9395440D01*
X7295086Y-9395440D02*
X7285562Y-9385916D01*
X7571276Y-9271630D02*
X7571276Y-9404964D01*
X7523657Y-9195440D02*
X7476038Y-9338297D01*
X7476038Y-9338297D02*
X7599847Y-9338297D01*
X7666514Y-9204964D02*
X7666514Y-9243059D01*
X7742705Y-9204964D02*
X7742705Y-9243059D01*
X8037943Y-9481154D02*
X8028419Y-9471630D01*
X8028419Y-9471630D02*
X8009371Y-9443059D01*
X8009371Y-9443059D02*
X7999848Y-9424011D01*
X7999848Y-9424011D02*
X7990324Y-9395440D01*
X7990324Y-9395440D02*
X7980800Y-9347821D01*
X7980800Y-9347821D02*
X7980800Y-9309726D01*
X7980800Y-9309726D02*
X7990324Y-9262107D01*
X7990324Y-9262107D02*
X7999848Y-9233535D01*
X7999848Y-9233535D02*
X8009371Y-9214488D01*
X8009371Y-9214488D02*
X8028419Y-9185916D01*
X8028419Y-9185916D02*
X8037943Y-9176392D01*
X8199848Y-9271630D02*
X8199848Y-9404964D01*
X8152228Y-9195440D02*
X8104609Y-9338297D01*
X8104609Y-9338297D02*
X8228419Y-9338297D01*
X8456991Y-9404964D02*
X8456991Y-9204964D01*
X8542705Y-9404964D02*
X8542705Y-9300202D01*
X8542705Y-9300202D02*
X8533181Y-9281154D01*
X8533181Y-9281154D02*
X8514133Y-9271630D01*
X8514133Y-9271630D02*
X8485562Y-9271630D01*
X8485562Y-9271630D02*
X8466514Y-9281154D01*
X8466514Y-9281154D02*
X8456991Y-9290678D01*
X8666514Y-9404964D02*
X8647467Y-9395440D01*
X8647467Y-9395440D02*
X8637943Y-9385916D01*
X8637943Y-9385916D02*
X8628419Y-9366869D01*
X8628419Y-9366869D02*
X8628419Y-9309726D01*
X8628419Y-9309726D02*
X8637943Y-9290678D01*
X8637943Y-9290678D02*
X8647467Y-9281154D01*
X8647467Y-9281154D02*
X8666514Y-9271630D01*
X8666514Y-9271630D02*
X8695086Y-9271630D01*
X8695086Y-9271630D02*
X8714133Y-9281154D01*
X8714133Y-9281154D02*
X8723657Y-9290678D01*
X8723657Y-9290678D02*
X8733181Y-9309726D01*
X8733181Y-9309726D02*
X8733181Y-9366869D01*
X8733181Y-9366869D02*
X8723657Y-9385916D01*
X8723657Y-9385916D02*
X8714133Y-9395440D01*
X8714133Y-9395440D02*
X8695086Y-9404964D01*
X8695086Y-9404964D02*
X8666514Y-9404964D01*
X8847467Y-9404964D02*
X8828419Y-9395440D01*
X8828419Y-9395440D02*
X8818895Y-9376392D01*
X8818895Y-9376392D02*
X8818895Y-9204964D01*
X8999848Y-9395440D02*
X8980800Y-9404964D01*
X8980800Y-9404964D02*
X8942705Y-9404964D01*
X8942705Y-9404964D02*
X8923657Y-9395440D01*
X8923657Y-9395440D02*
X8914133Y-9376392D01*
X8914133Y-9376392D02*
X8914133Y-9300202D01*
X8914133Y-9300202D02*
X8923657Y-9281154D01*
X8923657Y-9281154D02*
X8942705Y-9271630D01*
X8942705Y-9271630D02*
X8980800Y-9271630D01*
X8980800Y-9271630D02*
X8999848Y-9281154D01*
X8999848Y-9281154D02*
X9009372Y-9300202D01*
X9009372Y-9300202D02*
X9009372Y-9319250D01*
X9009372Y-9319250D02*
X8914133Y-9338297D01*
X9085562Y-9395440D02*
X9104610Y-9404964D01*
X9104610Y-9404964D02*
X9142705Y-9404964D01*
X9142705Y-9404964D02*
X9161753Y-9395440D01*
X9161753Y-9395440D02*
X9171276Y-9376392D01*
X9171276Y-9376392D02*
X9171276Y-9366869D01*
X9171276Y-9366869D02*
X9161753Y-9347821D01*
X9161753Y-9347821D02*
X9142705Y-9338297D01*
X9142705Y-9338297D02*
X9114133Y-9338297D01*
X9114133Y-9338297D02*
X9095086Y-9328773D01*
X9095086Y-9328773D02*
X9085562Y-9309726D01*
X9085562Y-9309726D02*
X9085562Y-9300202D01*
X9085562Y-9300202D02*
X9095086Y-9281154D01*
X9095086Y-9281154D02*
X9114133Y-9271630D01*
X9114133Y-9271630D02*
X9142705Y-9271630D01*
X9142705Y-9271630D02*
X9161753Y-9281154D01*
X9237943Y-9481154D02*
X9247467Y-9471630D01*
X9247467Y-9471630D02*
X9266514Y-9443059D01*
X9266514Y-9443059D02*
X9276038Y-9424011D01*
X9276038Y-9424011D02*
X9285562Y-9395440D01*
X9285562Y-9395440D02*
X9295086Y-9347821D01*
X9295086Y-9347821D02*
X9295086Y-9309726D01*
X9295086Y-9309726D02*
X9285562Y-9262107D01*
X9285562Y-9262107D02*
X9276038Y-9233535D01*
X9276038Y-9233535D02*
X9266514Y-9214488D01*
X9266514Y-9214488D02*
X9247467Y-9185916D01*
X9247467Y-9185916D02*
X9237943Y-9176392D01*
D12*
X4412880Y-9627480D02*
X4462880Y-9577480D01*
X4412880Y-9527480D01*
X4362880Y-9577480D01*
X4412880Y-9627480D01*
D11*
X4828419Y-9668964D02*
X4714133Y-9668964D01*
X4771276Y-9668964D02*
X4771276Y-9468964D01*
X4771276Y-9468964D02*
X4752228Y-9497535D01*
X4752228Y-9497535D02*
X4733181Y-9516583D01*
X4733181Y-9516583D02*
X4714133Y-9526107D01*
X4914133Y-9649916D02*
X4923657Y-9659440D01*
X4923657Y-9659440D02*
X4914133Y-9668964D01*
X4914133Y-9668964D02*
X4904609Y-9659440D01*
X4904609Y-9659440D02*
X4914133Y-9649916D01*
X4914133Y-9649916D02*
X4914133Y-9668964D01*
X5047466Y-9468964D02*
X5066514Y-9468964D01*
X5066514Y-9468964D02*
X5085562Y-9478488D01*
X5085562Y-9478488D02*
X5095085Y-9488011D01*
X5095085Y-9488011D02*
X5104609Y-9507059D01*
X5104609Y-9507059D02*
X5114133Y-9545154D01*
X5114133Y-9545154D02*
X5114133Y-9592773D01*
X5114133Y-9592773D02*
X5104609Y-9630869D01*
X5104609Y-9630869D02*
X5095085Y-9649916D01*
X5095085Y-9649916D02*
X5085562Y-9659440D01*
X5085562Y-9659440D02*
X5066514Y-9668964D01*
X5066514Y-9668964D02*
X5047466Y-9668964D01*
X5047466Y-9668964D02*
X5028419Y-9659440D01*
X5028419Y-9659440D02*
X5018895Y-9649916D01*
X5018895Y-9649916D02*
X5009371Y-9630869D01*
X5009371Y-9630869D02*
X4999847Y-9592773D01*
X4999847Y-9592773D02*
X4999847Y-9545154D01*
X4999847Y-9545154D02*
X5009371Y-9507059D01*
X5009371Y-9507059D02*
X5018895Y-9488011D01*
X5018895Y-9488011D02*
X5028419Y-9478488D01*
X5028419Y-9478488D02*
X5047466Y-9468964D01*
X5237943Y-9468964D02*
X5256990Y-9468964D01*
X5256990Y-9468964D02*
X5276038Y-9478488D01*
X5276038Y-9478488D02*
X5285562Y-9488011D01*
X5285562Y-9488011D02*
X5295085Y-9507059D01*
X5295085Y-9507059D02*
X5304609Y-9545154D01*
X5304609Y-9545154D02*
X5304609Y-9592773D01*
X5304609Y-9592773D02*
X5295085Y-9630869D01*
X5295085Y-9630869D02*
X5285562Y-9649916D01*
X5285562Y-9649916D02*
X5276038Y-9659440D01*
X5276038Y-9659440D02*
X5256990Y-9668964D01*
X5256990Y-9668964D02*
X5237943Y-9668964D01*
X5237943Y-9668964D02*
X5218895Y-9659440D01*
X5218895Y-9659440D02*
X5209371Y-9649916D01*
X5209371Y-9649916D02*
X5199847Y-9630869D01*
X5199847Y-9630869D02*
X5190324Y-9592773D01*
X5190324Y-9592773D02*
X5190324Y-9545154D01*
X5190324Y-9545154D02*
X5199847Y-9507059D01*
X5199847Y-9507059D02*
X5209371Y-9488011D01*
X5209371Y-9488011D02*
X5218895Y-9478488D01*
X5218895Y-9478488D02*
X5237943Y-9468964D01*
X5428419Y-9468964D02*
X5447466Y-9468964D01*
X5447466Y-9468964D02*
X5466514Y-9478488D01*
X5466514Y-9478488D02*
X5476038Y-9488011D01*
X5476038Y-9488011D02*
X5485562Y-9507059D01*
X5485562Y-9507059D02*
X5495085Y-9545154D01*
X5495085Y-9545154D02*
X5495085Y-9592773D01*
X5495085Y-9592773D02*
X5485562Y-9630869D01*
X5485562Y-9630869D02*
X5476038Y-9649916D01*
X5476038Y-9649916D02*
X5466514Y-9659440D01*
X5466514Y-9659440D02*
X5447466Y-9668964D01*
X5447466Y-9668964D02*
X5428419Y-9668964D01*
X5428419Y-9668964D02*
X5409371Y-9659440D01*
X5409371Y-9659440D02*
X5399847Y-9649916D01*
X5399847Y-9649916D02*
X5390324Y-9630869D01*
X5390324Y-9630869D02*
X5380800Y-9592773D01*
X5380800Y-9592773D02*
X5380800Y-9545154D01*
X5380800Y-9545154D02*
X5390324Y-9507059D01*
X5390324Y-9507059D02*
X5399847Y-9488011D01*
X5399847Y-9488011D02*
X5409371Y-9478488D01*
X5409371Y-9478488D02*
X5428419Y-9468964D01*
X5580800Y-9668964D02*
X5580800Y-9535630D01*
X5580800Y-9554678D02*
X5590324Y-9545154D01*
X5590324Y-9545154D02*
X5609371Y-9535630D01*
X5609371Y-9535630D02*
X5637943Y-9535630D01*
X5637943Y-9535630D02*
X5656990Y-9545154D01*
X5656990Y-9545154D02*
X5666514Y-9564202D01*
X5666514Y-9564202D02*
X5666514Y-9668964D01*
X5666514Y-9564202D02*
X5676038Y-9545154D01*
X5676038Y-9545154D02*
X5695085Y-9535630D01*
X5695085Y-9535630D02*
X5723657Y-9535630D01*
X5723657Y-9535630D02*
X5742704Y-9545154D01*
X5742704Y-9545154D02*
X5752228Y-9564202D01*
X5752228Y-9564202D02*
X5752228Y-9668964D01*
X5847466Y-9668964D02*
X5847466Y-9535630D01*
X5847466Y-9554678D02*
X5856990Y-9545154D01*
X5856990Y-9545154D02*
X5876038Y-9535630D01*
X5876038Y-9535630D02*
X5904609Y-9535630D01*
X5904609Y-9535630D02*
X5923657Y-9545154D01*
X5923657Y-9545154D02*
X5933181Y-9564202D01*
X5933181Y-9564202D02*
X5933181Y-9668964D01*
X5933181Y-9564202D02*
X5942704Y-9545154D01*
X5942704Y-9545154D02*
X5961752Y-9535630D01*
X5961752Y-9535630D02*
X5990323Y-9535630D01*
X5990323Y-9535630D02*
X6009371Y-9545154D01*
X6009371Y-9545154D02*
X6018895Y-9564202D01*
X6018895Y-9564202D02*
X6018895Y-9668964D01*
X6409371Y-9459440D02*
X6237943Y-9716583D01*
X6666514Y-9468964D02*
X6685562Y-9468964D01*
X6685562Y-9468964D02*
X6704609Y-9478488D01*
X6704609Y-9478488D02*
X6714133Y-9488011D01*
X6714133Y-9488011D02*
X6723657Y-9507059D01*
X6723657Y-9507059D02*
X6733181Y-9545154D01*
X6733181Y-9545154D02*
X6733181Y-9592773D01*
X6733181Y-9592773D02*
X6723657Y-9630869D01*
X6723657Y-9630869D02*
X6714133Y-9649916D01*
X6714133Y-9649916D02*
X6704609Y-9659440D01*
X6704609Y-9659440D02*
X6685562Y-9668964D01*
X6685562Y-9668964D02*
X6666514Y-9668964D01*
X6666514Y-9668964D02*
X6647466Y-9659440D01*
X6647466Y-9659440D02*
X6637943Y-9649916D01*
X6637943Y-9649916D02*
X6628419Y-9630869D01*
X6628419Y-9630869D02*
X6618895Y-9592773D01*
X6618895Y-9592773D02*
X6618895Y-9545154D01*
X6618895Y-9545154D02*
X6628419Y-9507059D01*
X6628419Y-9507059D02*
X6637943Y-9488011D01*
X6637943Y-9488011D02*
X6647466Y-9478488D01*
X6647466Y-9478488D02*
X6666514Y-9468964D01*
X6818895Y-9649916D02*
X6828419Y-9659440D01*
X6828419Y-9659440D02*
X6818895Y-9668964D01*
X6818895Y-9668964D02*
X6809371Y-9659440D01*
X6809371Y-9659440D02*
X6818895Y-9649916D01*
X6818895Y-9649916D02*
X6818895Y-9668964D01*
X6952228Y-9468964D02*
X6971276Y-9468964D01*
X6971276Y-9468964D02*
X6990324Y-9478488D01*
X6990324Y-9478488D02*
X6999847Y-9488011D01*
X6999847Y-9488011D02*
X7009371Y-9507059D01*
X7009371Y-9507059D02*
X7018895Y-9545154D01*
X7018895Y-9545154D02*
X7018895Y-9592773D01*
X7018895Y-9592773D02*
X7009371Y-9630869D01*
X7009371Y-9630869D02*
X6999847Y-9649916D01*
X6999847Y-9649916D02*
X6990324Y-9659440D01*
X6990324Y-9659440D02*
X6971276Y-9668964D01*
X6971276Y-9668964D02*
X6952228Y-9668964D01*
X6952228Y-9668964D02*
X6933181Y-9659440D01*
X6933181Y-9659440D02*
X6923657Y-9649916D01*
X6923657Y-9649916D02*
X6914133Y-9630869D01*
X6914133Y-9630869D02*
X6904609Y-9592773D01*
X6904609Y-9592773D02*
X6904609Y-9545154D01*
X6904609Y-9545154D02*
X6914133Y-9507059D01*
X6914133Y-9507059D02*
X6923657Y-9488011D01*
X6923657Y-9488011D02*
X6933181Y-9478488D01*
X6933181Y-9478488D02*
X6952228Y-9468964D01*
X7085562Y-9468964D02*
X7209371Y-9468964D01*
X7209371Y-9468964D02*
X7142705Y-9545154D01*
X7142705Y-9545154D02*
X7171276Y-9545154D01*
X7171276Y-9545154D02*
X7190324Y-9554678D01*
X7190324Y-9554678D02*
X7199847Y-9564202D01*
X7199847Y-9564202D02*
X7209371Y-9583250D01*
X7209371Y-9583250D02*
X7209371Y-9630869D01*
X7209371Y-9630869D02*
X7199847Y-9649916D01*
X7199847Y-9649916D02*
X7190324Y-9659440D01*
X7190324Y-9659440D02*
X7171276Y-9668964D01*
X7171276Y-9668964D02*
X7114133Y-9668964D01*
X7114133Y-9668964D02*
X7095086Y-9659440D01*
X7095086Y-9659440D02*
X7085562Y-9649916D01*
X7304609Y-9668964D02*
X7342705Y-9668964D01*
X7342705Y-9668964D02*
X7361752Y-9659440D01*
X7361752Y-9659440D02*
X7371276Y-9649916D01*
X7371276Y-9649916D02*
X7390324Y-9621345D01*
X7390324Y-9621345D02*
X7399847Y-9583250D01*
X7399847Y-9583250D02*
X7399847Y-9507059D01*
X7399847Y-9507059D02*
X7390324Y-9488011D01*
X7390324Y-9488011D02*
X7380800Y-9478488D01*
X7380800Y-9478488D02*
X7361752Y-9468964D01*
X7361752Y-9468964D02*
X7323657Y-9468964D01*
X7323657Y-9468964D02*
X7304609Y-9478488D01*
X7304609Y-9478488D02*
X7295086Y-9488011D01*
X7295086Y-9488011D02*
X7285562Y-9507059D01*
X7285562Y-9507059D02*
X7285562Y-9554678D01*
X7285562Y-9554678D02*
X7295086Y-9573726D01*
X7295086Y-9573726D02*
X7304609Y-9583250D01*
X7304609Y-9583250D02*
X7323657Y-9592773D01*
X7323657Y-9592773D02*
X7361752Y-9592773D01*
X7361752Y-9592773D02*
X7380800Y-9583250D01*
X7380800Y-9583250D02*
X7390324Y-9573726D01*
X7390324Y-9573726D02*
X7399847Y-9554678D01*
X7571276Y-9535630D02*
X7571276Y-9668964D01*
X7523657Y-9459440D02*
X7476038Y-9602297D01*
X7476038Y-9602297D02*
X7599847Y-9602297D01*
X7666514Y-9468964D02*
X7666514Y-9507059D01*
X7742705Y-9468964D02*
X7742705Y-9507059D01*
X8037943Y-9745154D02*
X8028419Y-9735630D01*
X8028419Y-9735630D02*
X8009371Y-9707059D01*
X8009371Y-9707059D02*
X7999848Y-9688011D01*
X7999848Y-9688011D02*
X7990324Y-9659440D01*
X7990324Y-9659440D02*
X7980800Y-9611821D01*
X7980800Y-9611821D02*
X7980800Y-9573726D01*
X7980800Y-9573726D02*
X7990324Y-9526107D01*
X7990324Y-9526107D02*
X7999848Y-9497535D01*
X7999848Y-9497535D02*
X8009371Y-9478488D01*
X8009371Y-9478488D02*
X8028419Y-9449916D01*
X8028419Y-9449916D02*
X8037943Y-9440392D01*
X8209371Y-9468964D02*
X8114133Y-9468964D01*
X8114133Y-9468964D02*
X8104609Y-9564202D01*
X8104609Y-9564202D02*
X8114133Y-9554678D01*
X8114133Y-9554678D02*
X8133181Y-9545154D01*
X8133181Y-9545154D02*
X8180800Y-9545154D01*
X8180800Y-9545154D02*
X8199848Y-9554678D01*
X8199848Y-9554678D02*
X8209371Y-9564202D01*
X8209371Y-9564202D02*
X8218895Y-9583250D01*
X8218895Y-9583250D02*
X8218895Y-9630869D01*
X8218895Y-9630869D02*
X8209371Y-9649916D01*
X8209371Y-9649916D02*
X8199848Y-9659440D01*
X8199848Y-9659440D02*
X8180800Y-9668964D01*
X8180800Y-9668964D02*
X8133181Y-9668964D01*
X8133181Y-9668964D02*
X8114133Y-9659440D01*
X8114133Y-9659440D02*
X8104609Y-9649916D01*
X8342705Y-9468964D02*
X8361752Y-9468964D01*
X8361752Y-9468964D02*
X8380800Y-9478488D01*
X8380800Y-9478488D02*
X8390324Y-9488011D01*
X8390324Y-9488011D02*
X8399848Y-9507059D01*
X8399848Y-9507059D02*
X8409371Y-9545154D01*
X8409371Y-9545154D02*
X8409371Y-9592773D01*
X8409371Y-9592773D02*
X8399848Y-9630869D01*
X8399848Y-9630869D02*
X8390324Y-9649916D01*
X8390324Y-9649916D02*
X8380800Y-9659440D01*
X8380800Y-9659440D02*
X8361752Y-9668964D01*
X8361752Y-9668964D02*
X8342705Y-9668964D01*
X8342705Y-9668964D02*
X8323657Y-9659440D01*
X8323657Y-9659440D02*
X8314133Y-9649916D01*
X8314133Y-9649916D02*
X8304609Y-9630869D01*
X8304609Y-9630869D02*
X8295086Y-9592773D01*
X8295086Y-9592773D02*
X8295086Y-9545154D01*
X8295086Y-9545154D02*
X8304609Y-9507059D01*
X8304609Y-9507059D02*
X8314133Y-9488011D01*
X8314133Y-9488011D02*
X8323657Y-9478488D01*
X8323657Y-9478488D02*
X8342705Y-9468964D01*
X8647467Y-9668964D02*
X8647467Y-9468964D01*
X8733181Y-9668964D02*
X8733181Y-9564202D01*
X8733181Y-9564202D02*
X8723657Y-9545154D01*
X8723657Y-9545154D02*
X8704610Y-9535630D01*
X8704610Y-9535630D02*
X8676038Y-9535630D01*
X8676038Y-9535630D02*
X8656991Y-9545154D01*
X8656991Y-9545154D02*
X8647467Y-9554678D01*
X8856991Y-9668964D02*
X8837943Y-9659440D01*
X8837943Y-9659440D02*
X8828419Y-9649916D01*
X8828419Y-9649916D02*
X8818895Y-9630869D01*
X8818895Y-9630869D02*
X8818895Y-9573726D01*
X8818895Y-9573726D02*
X8828419Y-9554678D01*
X8828419Y-9554678D02*
X8837943Y-9545154D01*
X8837943Y-9545154D02*
X8856991Y-9535630D01*
X8856991Y-9535630D02*
X8885562Y-9535630D01*
X8885562Y-9535630D02*
X8904610Y-9545154D01*
X8904610Y-9545154D02*
X8914133Y-9554678D01*
X8914133Y-9554678D02*
X8923657Y-9573726D01*
X8923657Y-9573726D02*
X8923657Y-9630869D01*
X8923657Y-9630869D02*
X8914133Y-9649916D01*
X8914133Y-9649916D02*
X8904610Y-9659440D01*
X8904610Y-9659440D02*
X8885562Y-9668964D01*
X8885562Y-9668964D02*
X8856991Y-9668964D01*
X9037943Y-9668964D02*
X9018895Y-9659440D01*
X9018895Y-9659440D02*
X9009372Y-9640392D01*
X9009372Y-9640392D02*
X9009372Y-9468964D01*
X9190324Y-9659440D02*
X9171276Y-9668964D01*
X9171276Y-9668964D02*
X9133181Y-9668964D01*
X9133181Y-9668964D02*
X9114133Y-9659440D01*
X9114133Y-9659440D02*
X9104610Y-9640392D01*
X9104610Y-9640392D02*
X9104610Y-9564202D01*
X9104610Y-9564202D02*
X9114133Y-9545154D01*
X9114133Y-9545154D02*
X9133181Y-9535630D01*
X9133181Y-9535630D02*
X9171276Y-9535630D01*
X9171276Y-9535630D02*
X9190324Y-9545154D01*
X9190324Y-9545154D02*
X9199848Y-9564202D01*
X9199848Y-9564202D02*
X9199848Y-9583250D01*
X9199848Y-9583250D02*
X9104610Y-9602297D01*
X9276038Y-9659440D02*
X9295086Y-9668964D01*
X9295086Y-9668964D02*
X9333181Y-9668964D01*
X9333181Y-9668964D02*
X9352229Y-9659440D01*
X9352229Y-9659440D02*
X9361753Y-9640392D01*
X9361753Y-9640392D02*
X9361753Y-9630869D01*
X9361753Y-9630869D02*
X9352229Y-9611821D01*
X9352229Y-9611821D02*
X9333181Y-9602297D01*
X9333181Y-9602297D02*
X9304610Y-9602297D01*
X9304610Y-9602297D02*
X9285562Y-9592773D01*
X9285562Y-9592773D02*
X9276038Y-9573726D01*
X9276038Y-9573726D02*
X9276038Y-9564202D01*
X9276038Y-9564202D02*
X9285562Y-9545154D01*
X9285562Y-9545154D02*
X9304610Y-9535630D01*
X9304610Y-9535630D02*
X9333181Y-9535630D01*
X9333181Y-9535630D02*
X9352229Y-9545154D01*
X9428419Y-9745154D02*
X9437943Y-9735630D01*
X9437943Y-9735630D02*
X9456991Y-9707059D01*
X9456991Y-9707059D02*
X9466514Y-9688011D01*
X9466514Y-9688011D02*
X9476038Y-9659440D01*
X9476038Y-9659440D02*
X9485562Y-9611821D01*
X9485562Y-9611821D02*
X9485562Y-9573726D01*
X9485562Y-9573726D02*
X9476038Y-9526107D01*
X9476038Y-9526107D02*
X9466514Y-9497535D01*
X9466514Y-9497535D02*
X9456991Y-9478488D01*
X9456991Y-9478488D02*
X9437943Y-9449916D01*
X9437943Y-9449916D02*
X9428419Y-9440392D01*
M02*
